<?xml version="1.0" encoding="UTF-8" standalone="no"?>
<!-- Created with Inkscape (http://www.inkscape.org/) -->

<svg
   version="1.1"
   id="svg1"
   width="247"
   height="256"
   viewBox="0 0 247 256"
   xml:space="preserve"
   xmlns="http://www.w3.org/2000/svg"
   xmlns:svg="http://www.w3.org/2000/svg"><defs
     id="defs1" /><g
     id="g13"
     transform="translate(1.5625,1.5625)"><path
       style="fill:#fbfbfb"
       d="M 5.5,226.04545 V 215.59091 L 7.9545455,218.04545 10.409091,220.5 H 33 c 22.259143,0 22.624787,-0.0339 24.897727,-2.30682 1.26875,-1.26875 2.507062,-2.90755 2.751805,-3.64178 0.315117,-0.94535 6.269585,1.62865 20.402494,8.81961 13.251123,6.74229 22.140124,10.62759 26.452744,11.56227 5.88701,1.2759 1.41518,1.41516 -47.75477,1.48722 L 5.5,236.5 Z m 126.55425,8.97779 c 6.35178,-1.38253 38.48759,-16.9235 57.44575,-27.78094 16.03376,-9.18261 44.73135,-28.55627 46.98253,-31.71777 1.1024,-1.54817 2.42878,-3.87453 2.94752,-5.16969 0.62009,-1.54818 0.96489,9.37759 1.00656,31.89516 l 0.0634,34.25 -57.25,-0.0795 c -49.89482,-0.0693 -56.47218,-0.2488 -51.19575,-1.39726 z m -4.49824,-46.95575 c -2.78374,-3.35421 0.19823,-4.34952 14.23584,-4.75159 11.96258,-0.34264 13.69096,-0.63007 18.32789,-3.04795 7.16814,-3.73774 10.38026,-7.82546 10.38026,-13.20982 0,-2.83466 -0.70792,-5.18839 -2.0883,-6.94325 C 164.57368,155.23562 161.76294,154.5 146.9579,154.5 h -13.64143 l -9.65823,-5.521 C 105.39436,138.53871 93.499817,135.50907 70.75,135.50282 c -9.453699,-0.003 -10.25,-0.15256 -10.25,-1.93024 0,-1.06008 -1.185686,-2.86008 -2.634859,-4 C 55.377553,127.61584 53.977687,127.5 32.819687,127.5 H 10.409091 L 7.9545455,129.95455 5.5,132.40909 V 76.954545 21.5 h 37.409488 37.409487 l -1.379614,5.229873 c -0.758788,2.87643 -1.055558,5.514759 -0.659488,5.862953 C 78.675943,32.94102 105.55,40.314332 138,48.977964 c 32.45,8.663631 60.42628,16.337206 62.16951,17.052389 3.60287,1.478125 5.33049,4.096163 5.33049,8.077856 0,1.50683 -3.6,15.490998 -8,31.075931 -4.4,15.58493 -8,28.49817 -8,28.69609 0,0.81206 9.11322,2.84 9.77868,2.17602 1.16577,-1.1632 20.98821,-75.99103 20.32537,-76.726355 C 219.27182,58.961337 188.4,50.47185 151,40.464369 113.6,30.456888 82.8125,22.095935 82.583333,21.884474 82.354167,21.673013 117.79167,21.5 161.33333,21.5 H 240.5 l -0.0634,69.25 c -0.0431,47.07961 -0.38247,68.44979 -1.06006,66.75051 C 236.78834,151.00978 229.3058,146.5 221.12472,146.5 c -4.89831,0 -7.48979,1.01133 -25.39549,9.91061 -19.70772,9.79491 -19.96071,9.96128 -21.66838,14.25 -5.08698,12.77569 -13.1575,16.99126 -35.13239,18.35112 -8.44623,0.52268 -10.28148,0.3703 -11.37245,-0.94424 z m 61.13426,-78.79428 c 5.32965,-19.924299 9.60465,-36.294805 9.5,-36.378903 C 196.97848,71.920493 58.906779,35.725334 58.455739,36.26324 57.364255,37.564932 39.12371,107.45704 39.719886,108.05322 40.35277,108.6861 175.08902,145.18816 177.5,145.37991 c 1.14773,0.0913 3.77576,-8.38837 11.19027,-36.1067 z M 119.98237,102.25 c -0.25017,-0.6875 -0.80877,-3.002231 -1.24132,-5.143846 -0.54063,-2.676697 -1.47627,-4.149024 -2.99327,-4.710199 -1.91283,-0.707599 -2.44267,-0.290354 -3.9773,3.132037 -1.2318,2.747059 -2.15776,3.701532 -3.04335,3.137049 -1.01963,-0.649926 -0.97974,-1.512891 0.20053,-4.337664 1.11077,-2.658455 1.19023,-3.809483 0.32287,-4.676851 C 108.38316,88.783158 108.53497,88.5 109.86739,88.5 c 1.31231,0 1.60394,-0.514969 1.13261,-2 -0.41521,-1.308214 -0.1791,-2.001763 0.68261,-2.005098 0.72457,-0.0028 1.99239,-1.575612 2.81739,-3.49513 1.86781,-4.34581 3.82678,-3.47035 4.65686,2.081143 1.01244,6.771079 5.47417,8.582122 7.32523,2.973356 0.76269,-2.310977 1.60265,-3.267114 2.55059,-2.903357 1.2075,0.46336 1.19198,1.072315 -0.10654,4.180096 -0.98503,2.357519 -1.15151,3.760534 -0.47304,3.986691 C 130.0453,91.848435 129.7024,93.5 128,93.5 c -0.825,0 -1.5,0.45 -1.5,1 0,0.55 0.47656,1 1.05902,1 0.58246,0 0.77636,0.45734 0.4309,1.016312 -0.34546,0.558971 -1.05645,0.751586 -1.57997,0.428031 -0.52353,-0.323554 -1.62347,1.019106 -2.44433,2.983688 -1.51616,3.628689 -3.15922,4.586479 -3.98325,2.321969 z m 2.20074,-6.9375 c -0.31922,-0.797733 -0.55618,-0.560776 -0.60416,0.604167 -0.0434,1.054166 0.19292,1.644791 0.52522,1.3125 0.33229,-0.332292 0.36781,-1.194792 0.0789,-1.916667 z M 123.5,92.559017 c 0,-1.17986 -1.95035,-2.441996 -2.66667,-1.725684 -0.71631,0.716313 0.54583,2.666667 1.72569,2.666667 0.51754,0 0.94098,-0.423442 0.94098,-0.940983 z M 117.5,90 c 0,-0.825 -0.675,-1.5 -1.5,-1.5 -2.60246,0 -1.75909,1.970813 1.25,2.921053 C 117.3875,91.464474 117.5,90.825 117.5,90 Z m 0,-4.5 c 0,-0.55 -0.19844,-1 -0.44098,-1 -0.24254,0 -0.7191,0.45 -1.05902,1 -0.33992,0.55 -0.14148,1 0.44098,1 0.58246,0 1.05902,-0.45 1.05902,-1 z"
       id="path16" /><path
       style="fill:#c4ad77"
       d="m 114.25,235.83772 c 0.6875,-0.27741 1.8125,-0.27741 2.5,0 0.6875,0.27741 0.125,0.50439 -1.25,0.50439 -1.375,0 -1.9375,-0.22698 -1.25,-0.50439 z m 9,0 c 0.6875,-0.27741 1.8125,-0.27741 2.5,0 0.6875,0.27741 0.125,0.50439 -1.25,0.50439 -1.375,0 -1.9375,-0.22698 -1.25,-0.50439 z m -16.69083,-5.64015 c -2.44246,-0.58424 -13.467458,-5.66943 -24.500001,-11.30044 L 62,208.65894 61.736872,174.57947 61.473745,140.5 h 13.565722 c 8.799537,0 16.094461,0.56409 20.763128,1.60554 8.041735,1.7939 20.372245,7.20592 29.017265,12.73608 l 5.71897,3.65838 13.73059,0.002 c 15.51199,0.002 19.94198,1.28694 21.67706,6.2887 1.41274,4.07256 -1.12708,7.61731 -8.03183,11.20975 -5.83861,3.03775 -8.07876,3.30093 -29.66465,3.48507 -2.67396,0.0228 -5.75,3.68229 -5.75,6.84062 0,1.66068 0.95422,3.72213 2.31445,5 2.02138,1.89898 3.44595,2.17335 11.25,2.16676 22.65891,-0.0192 34.75098,-5.51092 40.93998,-18.5934 l 2.56581,-5.42368 18.00301,-9.01204 c 20.61822,-10.32118 24.2199,-11.22695 30.92675,-7.77766 8.39436,4.31718 10.16097,13.14459 4.02841,20.12919 -3.51878,4.00767 -19.30186,14.93057 -37.16798,25.72262 -16.29421,9.84254 -54.34345,29.14956 -61.79193,31.35459 -6.14712,1.81978 -20.02262,1.97672 -27.00933,0.3055 z M 139.25,188.79427 c 1.2375,-0.23836 3.2625,-0.23836 4.5,0 1.2375,0.23835 0.225,0.43337 -2.25,0.43337 -2.475,0 -3.4875,-0.19502 -2.25,-0.43337 z M 234,177.5 c 0.99549,-1.1 2.03498,-2 2.30998,-2 0.275,0 -0.31449,0.9 -1.30998,2 -0.99549,1.1 -2.03498,2 -2.30998,2 -0.275,0 0.31449,-0.9 1.30998,-2 z M 66.25,135.7596 c 3.4375,-0.19527 9.0625,-0.19527 12.5,0 3.4375,0.19527 0.625,0.35504 -6.25,0.35504 -6.875,0 -9.6875,-0.15977 -6.25,-0.35504 z m 73.36632,-12.64769 -15.38367,-4.23809 4.48314,-1.71213 c 18.34357,-7.00547 24.05423,-31.44239 10.5976,-45.348983 l -3.08417,-3.187293 8.88539,2.412395 C 150.00158,72.364625 158.05,74.517175 163,75.821252 l 9,2.371049 0.592,4.340257 c 0.44393,3.254729 1.3977,5.012893 3.81345,7.029649 l 3.22146,2.689393 -3.56346,13.15217 c -1.9599,7.23369 -3.56345,13.30533 -3.56345,13.49253 0,0.1872 -1.9125,0.59259 -4.25,0.90086 -3.24429,0.42787 -4.98499,1.40557 -7.35598,4.13167 -1.70828,1.96414 -3.73328,3.53742 -4.5,3.49617 -0.76671,-0.0412 -8.31667,-1.98214 -16.7777,-4.31309 z M 82.209026,107.73172 c -13.306023,-3.62609 -16.673053,-4.88308 -16.222818,-6.05638 0.947913,-2.470216 -1.45615,-8.006577 -4.520114,-10.409452 L 58.576806,89 62.202446,75.25 c 3.599893,-13.652357 3.646131,-13.75 6.511257,-13.75 3.940164,0 8.074688,-2.301829 9.746931,-5.426445 0.854433,-1.596521 1.996592,-2.419186 2.964639,-2.135343 0.8661,0.253951 8.666363,2.351411 17.333919,4.661022 l 15.759188,4.199293 -5.66938,2.304208 C 91.09758,72.317453 85.573557,93.736498 97.59227,108.75 c 1.651087,2.0625 2.64327,3.70669 2.204853,3.65375 -0.438418,-0.0529 -8.353061,-2.15535 -17.588097,-4.67203 z M 116,85.5 c 0.33992,-0.55 0.81648,-1 1.05902,-1 0.24254,0 0.44098,0.45 0.44098,1 0,0.55 -0.47656,1 -1.05902,1 -0.58246,0 -0.7809,-0.45 -0.44098,-1 z m 89.65789,-11 c 0,-1.375 0.22698,-1.9375 0.50439,-1.25 0.27741,0.6875 0.27741,1.8125 0,2.5 -0.27741,0.6875 -0.50439,0.125 -0.50439,-1.25 z M 79.5,23.598444 c 0,-1.038441 1.902213,-2.541728 2.465672,-1.94858 0.182935,0.192575 -0.297004,0.930378 -1.066531,1.639563 C 80.129613,23.998611 79.5,24.137669 79.5,23.598444 Z"
       id="path15" /><path
       style="fill:#417b29"
       d="m 118.76903,235.80701 c 0.97297,-0.25354 2.32297,-0.23687 3,0.0371 0.67703,0.27393 -0.11903,0.48137 -1.76903,0.46099 -1.65,-0.0204 -2.20394,-0.2445 -1.23097,-0.49804 z m -1.00528,-4.02459 c 1.52006,-0.22986 3.77006,-0.22371 5,0.0136 1.22994,0.23736 -0.0138,0.42542 -2.76375,0.41792 -2.75,-0.008 -3.75631,-0.20172 -2.23625,-0.43157 z M 60.949558,174.5 c 0,-18.975 0.134476,-26.7375 0.298835,-17.25 0.164359,9.4875 0.164359,25.0125 0,34.5 -0.164359,9.4875 -0.298835,1.725 -0.298835,-17.25 z M 142.75,192.81067 c 0.9625,-0.25152 2.5375,-0.25152 3.5,0 0.9625,0.25153 0.175,0.45733 -1.75,0.45733 -1.925,0 -2.7125,-0.2058 -1.75,-0.45733 z m -12.4375,-9.99378 c 0.72187,-0.28887 1.58437,-0.25335 1.91667,0.0789 0.33229,0.33229 -0.25834,0.56864 -1.3125,0.52522 -1.16495,-0.048 -1.4019,-0.28494 -0.60417,-0.60416 z M 230.5,175.12244 c 0,-0.20765 0.7875,-0.99515 1.75,-1.75 1.58606,-1.24387 1.62143,-1.2085 0.37756,0.37756 -1.30637,1.66575 -2.12756,2.19548 -2.12756,1.37244 z m -55,-30.69666 c -1.375,-0.42952 -32.425,-8.75879 -69,-18.50948 -36.575,-9.75069 -66.626585,-17.82236 -66.781301,-17.93705 -0.154716,-0.11468 2.2435,-9.606933 5.329369,-21.093884 3.085869,-11.486951 7.411012,-27.633923 9.611429,-35.88216 2.200417,-8.248237 4.077201,-15.034712 4.170631,-15.081055 0.293402,-0.145533 138.148182,36.910243 138.586482,37.252462 0.4587,0.358135 -17.75697,69.154717 -18.7802,70.928757 -0.39777,0.68961 -1.57388,0.81052 -3.13641,0.32241 z m -14.60598,-20.49695 c 2.37099,-2.7261 4.11169,-3.7038 7.35598,-4.13167 2.3375,-0.30827 4.25,-0.71366 4.25,-0.90086 0,-0.1872 1.60355,-6.25884 3.56345,-13.49253 l 3.56346,-13.15217 -3.22146,-2.689393 c -2.41575,-2.016756 -3.36952,-3.77492 -3.81345,-7.029649 L 172,78.192301 163,75.821252 c -4.95,-1.304077 -12.99842,-3.456627 -17.88539,-4.783443 l -8.88539,-2.412395 3.08417,3.187293 c 13.45663,13.906593 7.74597,38.343513 -10.5976,45.348983 l -4.48314,1.71213 15.38367,4.23809 c 8.46103,2.33095 16.01099,4.27185 16.7777,4.31309 0.76672,0.0413 2.79172,-1.53203 4.5,-3.49617 z M 97.59227,108.75 C 93.152519,103.20396 91.273316,97.854704 91.313568,90.877317 91.381517,79.099191 97.867285,69.566039 108.849,65.102735 l 5.66938,-2.304208 -15.759188,-4.199293 C 90.091636,56.289623 82.291373,54.192163 81.425273,53.938212 80.457226,53.654369 79.315067,54.477034 78.460634,56.073555 76.788391,59.198171 72.653867,61.5 68.713703,61.5 c -2.865126,0 -2.911364,0.09764 -6.511257,13.75 l -3.62564,13.75 2.889288,2.265888 c 3.063964,2.402875 5.468027,7.939236 4.520114,10.409452 -0.450235,1.1733 2.916795,2.43029 16.222818,6.05638 9.235036,2.51668 17.149679,4.6191 17.588097,4.67203 0.438417,0.0529 -0.553766,-1.59125 -2.204853,-3.65375 z m 26.06493,-7.27111 c 0.57924,-1.661609 1.93489,-3.492991 3.01255,-4.069738 1.56314,-0.836566 1.71934,-1.33787 0.77237,-2.478891 C 126.50373,93.799565 126.56487,93.5 127.73404,93.5 c 0.92898,0 1.50611,-1.022595 1.55203,-2.75 0.0402,-1.5125 0.2173,-3.829456 0.39352,-5.148791 0.50949,-3.81438 -1.94918,-3.58843 -3.58622,0.329572 -0.82022,1.96307 -1.85178,3.562328 -2.29234,3.553906 -2.04235,-0.03904 -3.42174,-1.970291 -3.97522,-5.565602 -1.09412,-7.107107 -3.61782,-8.357799 -5.89026,-2.919085 -0.80431,1.925 -2.13135,3.5 -2.94897,3.5 -0.81762,0 -1.48658,0.45 -1.48658,1 0,0.55 0.45,1 1,1 0.55,0 1,0.435877 1,0.968615 0,0.532739 -0.64558,0.720884 -1.43462,0.418101 -1.07052,-0.410799 -1.43151,0.295092 -1.42236,2.781384 0.007,1.832545 -0.13518,4.411356 -0.31538,5.730691 -0.52771,3.863619 2.04617,3.647469 3.70001,-0.310716 2.41533,-5.78071 5.68182,-4.42042 6.79816,2.83101 0.49863,3.238985 1.90195,5.485785 3.47621,5.565605 0.16611,0.008 0.77594,-1.34419 1.35518,-3.0058 z M 121.5,92.5 c -0.79314,-0.49019 -1.21708,-1.116254 -0.94208,-1.391254 0.275,-0.275 1.14894,-0.09894 1.94208,0.391254 0.79314,0.49019 1.21708,1.116254 0.94208,1.391254 -0.275,0.275 -1.14894,0.09894 -1.94208,-0.391254 z m -6.5,-3 c -0.33992,-0.55 -0.16803,-1 0.38197,-1 0.55,0 1.27811,0.45 1.61803,1 0.33992,0.55 0.16803,1 -0.38197,1 -0.55,0 -1.27811,-0.45 -1.61803,-1 z M 193.91079,135.15182 189.82159,134 193.0583,122.5 C 205.03523,79.946164 206.48219,74.277231 205.92923,72.074046 204.66917,67.053587 201.46448,65.565683 178.86603,59.508921 158.261,53.986428 141.89642,49.589147 97.045223,37.523078 86.620096,34.718464 78.034023,32.32843 77.96506,32.21189 77.533554,31.482695 80.775728,22.5 81.470426,22.5 82.269602,22.5 108.06793,29.357189 180,48.689136 c 16.5,4.434422 31.8,8.518124 34,9.074894 2.2,0.556771 4.37484,1.34747 4.83297,1.757111 0.45814,0.409641 -3.70436,17.652461 -9.25,38.317378 C 204.03734,118.50344 199.5,135.6561 199.5,135.95555 c 0,0.69023 -0.58297,0.6064 -5.58921,-0.80373 z"
       id="path14" /><path
       style="fill:#2b2628"
       d="m 105.5,233.93456 c -3.025,-0.7886 -14.282939,-5.90583 -25.017643,-11.37161 l -19.517643,-9.93779 -1.691035,2.94646 c -0.930069,1.62055 -2.928287,3.41686 -4.440484,3.9918 -1.694922,0.64441 -10.757914,0.9286 -23.629789,0.74096 L 10.323066,220 7.9115329,217.19424 5.5,214.38847 v -39.89718 c 0,-27.11 0.355846,-40.67818 1.1102718,-42.33397 C 8.507804,127.9927 11.299557,127.5 33,127.5 c 22.553553,0 24.817353,0.47018 26.648741,5.53479 l 1.164748,3.22105 17.093256,0.53127 c 21.869347,0.67972 29.768055,2.94532 46.985645,13.47698 L 131,154 l 15,0.5133 c 16.90546,0.5785 20.17923,1.68361 23.07689,7.78998 3.25335,6.85593 -0.89095,13.73021 -11.07689,18.37357 -4.24704,1.93606 -6.86011,2.3055 -17.35203,2.45326 -6.79362,0.0957 -12.79832,0.62024 -13.34378,1.1657 -0.54546,0.54546 -0.82665,1.82705 -0.62486,2.84797 0.33484,1.69403 1.45706,1.85021 12.84378,1.78744 9.03772,-0.0498 13.90211,-0.54708 17.64741,-1.80397 6.96229,-2.33649 13.91311,-8.62874 16.83816,-15.24278 l 2.34429,-5.30087 19.32351,-9.73854 c 18.01208,-9.07761 19.73073,-9.73909 25.32352,-9.74661 11.46698,-0.0154 19.00305,6.73598 18.85624,16.89291 -0.13297,9.19835 -2.75632,12.14671 -22.66082,25.46823 -5.94252,3.97716 -16.06752,10.36632 -22.5,14.19813 -16.66849,9.92938 -54.06101,28.57222 -60.86028,30.34321 -7.15986,1.8649 -21.05177,1.83236 -28.33514,-0.0664 z m 28.98754,-4.0235 c 6.74367,-2.00266 34.24983,-15.70683 52.13366,-25.97413 16.92538,-9.71705 41.05837,-25.68317 45.4335,-30.0583 3.50671,-3.50671 5.1141,-8.57778 4.05565,-12.79498 -1.62718,-6.4832 -9.31838,-11.2992 -16.47694,-10.31737 -1.99838,0.27409 -11.96178,4.62268 -22.1409,9.66354 -18.01501,8.92133 -18.55411,9.27794 -20.25967,13.40158 -2.74064,6.62624 -7.24008,11.30069 -14.15377,14.70429 -5.58398,2.74898 -8.00228,3.2616 -20.0528,4.25071 -15.32725,1.25806 -18.13338,0.61556 -19.95682,-4.56935 -0.76562,-2.17704 -0.54766,-3.27049 1.09017,-5.46906 2.01572,-2.70584 2.25263,-2.75586 15.44375,-3.26098 11.33424,-0.43401 14.12729,-0.87081 18.14274,-2.83732 8.55149,-4.18796 10.85909,-9.58856 6.34261,-14.84393 L 161.67744,159 145.83872,158.48841 130,157.97682 122,153.10128 C 105.17425,142.84695 99.965028,141.37901 78.25,140.77264 L 60.5,140.27698 v 33.92299 33.92298 l 21.25,10.75944 c 14.182864,7.18115 23.41171,11.22849 27.75,12.16982 7.53372,1.63469 17.11348,1.19719 24.98754,-1.14115 z"
       id="path13" /></g></svg>
