<?xml version="1.0" encoding="UTF-8" standalone="no"?>
<!-- Created with Inkscape (http://www.inkscape.org/) -->

<svg
   version="1.1"
   id="svg1"
   width="247"
   height="256"
   viewBox="0 0 247 256"
   xml:space="preserve"
   xmlns="http://www.w3.org/2000/svg"
   xmlns:svg="http://www.w3.org/2000/svg"><defs
     id="defs1" /><g
     id="g1"><g
       id="g2"
       transform="translate(2.4193542)"><path
         style="fill:#f9f9f9"
         d="M -0.5,128 V 0 H 123 246.5 V 128 256 H 123 -0.5 Z m 214.95772,53 c 3.7083,-18.425 7.42463,-37.1 8.2585,-41.5 1.5488,-8.17236 12.93886,-65.397659 17.30553,-86.945418 1.33141,-6.56998 2.26799,-12.098179 2.08128,-12.284887 -0.18671,-0.186708 -24.36127,0.109583 -53.72125,0.658425 -29.35998,0.548842 -75.26664,1.303852 -102.014811,1.677799 l -48.63303,0.679904 -2.568004,12.607089 C 33.753533,62.82681 30.964448,76.15 28.967969,85.5 26.97149,94.85 24.95362,104.975 24.483814,108 c -0.469807,3.025 -2.93005,15.175 -5.467208,27 -2.537157,11.825 -7.064768,33.65 -10.0613585,48.5 -2.99659,14.85 -5.7279368,28.01462 -6.0696595,29.25471 L 2.264274,215.00942 104.98981,214.75471 207.71534,214.5 Z M 4.5,212.71007 C 4.5,211.67195 31.74339,78.042374 36.071376,57.851604 l 2.711243,-12.648396 17.10869,-0.593712 C 83.380672,43.655549 239.5095,41.676164 240.10736,42.274023 240.65514,42.821807 238.52543,54.134746 227.45179,109.5 224.15161,126 218.18411,155.925 214.19068,176 l -7.26078,36.5 -101.21495,0.25476 C 50.046728,212.89488 4.5,212.87477 4.5,212.71007 Z M 202.44973,192.75 c 1.821,-7.8375 3.55278,-14.88379 3.84838,-15.65843 0.46083,-1.20762 -12.8308,-1.32441 -93.22781,-0.81918 -51.570891,0.32408 -93.992701,0.81668 -94.270685,1.09466 C 18.226626,177.94004 12.5,203.69299 12.5,205.69677 12.5,206.75843 29.797521,207 105.8194,207 h 93.3194 z M 41.5,191.5 V 181 h 3.468456 c 3.05939,0 3.973416,0.67815 7.75,5.75 L 57,192.5 57.299904,186.75 57.599808,181 H 61.049904 64.5 v 10.5 10.5 h -3.379855 c -2.941255,0 -3.946962,-0.74617 -7.75,-5.75 L 49,190.5 48.700096,196.25 48.400192,202 H 44.950096 41.5 Z m 29,0 V 181 H 74 77.5 V 191.5 202 H 74 70.5 Z m 13,0 V 181 h 7.92742 c 7.373046,0 8.072358,0.18426 10,2.63486 2.68527,3.41376 2.61274,4.91589 -0.38197,7.91059 C 99.248383,193.34253 97.507295,194 94.545455,194 H 90.5 v 4 c 0,3.90476 -0.08333,4 -3.5,4 h -3.5 z m 12.5,-4 c 0,-1.43844 -0.772141,-2.08884 -2.75,-2.31642 -2.38379,-0.27429 -2.75,0.0342 -2.75,2.31642 0,2.28224 0.36621,2.59071 2.75,2.31642 C 95.227859,189.58884 96,188.93844 96,187.5 Z m 15.9202,13.35545 C 109.23842,199.55416 106.5,194.89969 106.5,191.64276 106.5,185.14047 111.3451,181 118.95395,181 c 5.66135,0 9.7579,1.97479 11.35136,5.47206 2.4714,5.42411 0.71636,11.68969 -3.95034,14.10294 -3.14071,1.62412 -11.33744,1.78338 -14.43477,0.28045 z m 11.0231,-5.07796 c 0.85618,-1.22237 1.5567,-3.14725 1.5567,-4.27749 0,-2.93325 -2.77477,-6.5 -5.0567,-6.5 -2.639,0 -5.9433,3.4901 -5.9433,6.27749 0,3.35116 2.75826,6.72251 5.5,6.72251 1.33262,0 3.07407,-0.98151 3.9433,-2.22251 z m 14.01125,3.76796 c -1.35,-1.35 -2.45455,-2.925 -2.45455,-3.5 0,-1.83357 5.918,-1.12745 8,0.95455 2.36243,2.36243 3.01552,2.44036 5.46165,0.6517 2.57141,-1.88026 1.36247,-3.20713 -4.19465,-4.60381 -5.66085,-1.42275 -8.267,-3.51794 -8.267,-6.64617 0,-3.44999 3.62543,-5.40172 10.03394,-5.40172 4.26061,0 6.11436,0.48951 7.79967,2.05961 1.21591,1.13279 1.9492,2.48279 1.62955,3 -0.96554,1.56228 -6.19498,1.08163 -6.8517,-0.62975 -0.35506,-0.92527 -1.49627,-1.43865 -2.77866,-1.25 -4.16258,0.61237 -2.99401,2.63136 2.43678,4.21013 8.63401,2.50998 10.89767,6.53367 6.27587,11.15546 C 151.97671,201.6142 150.63356,202 145.5,202 c -5.13356,0 -6.47671,-0.3858 -8.54545,-2.45455 z M 166.5,194 v -8 h -4 c -3.6,0 -4,-0.25 -4,-2.5 V 181 h 11.5 11.5 v 2.5 c 0,2.25 -0.4,2.5 -4,2.5 h -4 v 8 8 H 170 166.5 Z M 29.096804,170.24871 c 1.364383,-0.75162 2.437936,-0.81397 3.07341,-0.1785 1.91646,1.91646 5.590136,1.87016 8.097406,-0.10206 3.118072,-2.45268 4.75212,-2.48501 6.425676,-0.12714 1.565819,2.20608 5.080267,2.12638 7.620852,-0.17282 2.436453,-2.20496 4.366749,-2.10572 6.453824,0.33181 0.941849,1.1 2.548003,2 3.569231,2 1.021228,0 2.894486,-0.9 4.162797,-2 1.268311,-1.1 2.812157,-2 3.430769,-2 0.618612,0 1.895353,0.9 2.837203,2 0.941849,1.1 2.556171,2 3.587382,2 1.031211,0 3.019093,-0.9 4.417517,-2 1.398423,-1.1 3.206625,-2 4.018227,-2 0.811602,0 1.710995,0.9 1.998651,2 0.379195,1.45004 1.364016,2 3.581448,2 2.03498,0 3.416617,-0.66927 4.128803,-2 0.588702,-1.1 1.938702,-2 3,-2 1.0613,0 2.4113,0.9 3,2 1.54487,2.88661 5.75997,2.55104 8.77135,-0.69829 l 2.50069,-2.69829 2.15155,2.69829 c 2.62273,3.28923 6.99909,3.64555 8.57641,0.69829 0.5887,-1.1 2.07129,-2 3.29464,-2 1.22335,0 2.78633,0.9 3.47329,2 0.70425,1.12768 2.33202,2 3.73207,2 1.40005,0 3.02782,-0.87232 3.73207,-2 0.68696,-1.1 2.04518,-2 3.01826,-2 0.97309,0 2.53985,0.9 3.4817,2 0.94185,1.1 2.63743,2 3.76797,2 1.13054,0 2.82612,-0.9 3.76797,-2 0.94185,-1.1 2.50861,-2 3.4817,-2 0.97308,0 2.3313,0.9 3.01826,2 1.71174,2.74094 5.42798,2.50998 8.04512,-0.5 1.19555,-1.375 2.57494,-2.5 3.06533,-2.5 0.49038,0 1.62873,1.125 2.52966,2.5 1.96925,3.00545 6.071,3.34194 7.529,0.61765 1.66461,-3.11035 3.96943,-3.32161 6.49598,-0.59542 2.40091,2.59063 5.58252,2.86223 7.78055,0.6642 1.62118,-1.62118 2.84462,-1.48911 4.2706,0.46103 1.56689,2.14285 6.14463,1.09746 7.00033,-1.59863 0.33979,-1.07059 1.60729,-2.2552 2.81665,-2.63246 4.28637,-1.33714 4.96766,-4.98347 1.19885,-6.41637 -1.375,-0.52277 -2.5,-1.37949 -2.5,-1.90382 0,-1.40233 2.93604,-4.09618 4.46444,-4.09618 1.21907,0 2.53556,-2.05876 2.53556,-3.96516 0,-0.44087 -0.9,-1.03693 -2,-1.32459 -3.39972,-0.88905 -2.5131,-4.59792 1.5,-6.2747 3.8417,-1.60516 4.81265,-5.01401 1.75,-6.14399 -1.80236,-0.66499 -3.20777,-2.21076 -3.23469,-3.55774 -0.008,-0.4214 1.55969,-1.51724 3.48469,-2.43521 3.50565,-1.67173 4.92077,-5.29861 2.06739,-5.29861 -1.91317,0 -3.02016,-3.74952 -1.60899,-5.44987 0.618,-0.74465 2.23018,-1.63163 3.58262,-1.97107 3.01554,-0.75685 3.32396,-4.16975 0.45898,-5.07906 -3.11489,-0.98863 -2.51358,-4.47987 1,-5.8061 3.47123,-1.31024 3.96265,-4.10834 1,-5.6939 -2.91088,-1.557857 -2.44874,-4.004346 1.00249,-5.307043 3.10211,-1.170913 5.16279,-4.80453 3.11235,-5.488011 -0.63281,-0.210934 -1.87206,-1.105027 -2.75391,-1.986872 -1.47114,-1.471138 -1.4193,-1.752392 0.62864,-3.410714 C 225.71717,83.813312 227.34672,83 228.11078,83 c 2.17251,0 1.68691,-4.770314 -0.61078,-6 -2.90228,-1.553253 -2.45206,-4.003094 0.97327,-5.296012 4.15466,-1.568211 4.62413,-3.65251 1.40147,-6.222167 l -2.70203,-2.154527 2.16364,-2.163647 C 230.52636,59.973641 232.12686,59 232.89301,59 c 2.2612,0 2.93621,-3.286103 0.97029,-4.723619 C 232.90324,53.574372 231.75375,53 231.30887,53 230.86399,53 230.5,52.3801 230.5,51.622445 c 0,-2.919214 -2.59098,-3.764168 -5.83443,-1.902686 -2.88919,1.658167 -3.24665,1.663563 -5.91177,0.08923 -2.69601,-1.592569 -2.99615,-1.574654 -6.05386,0.361353 -1.76947,1.120349 -3.77583,1.747696 -4.45858,1.394104 -0.68275,-0.353591 -2.35032,-1.277331 -3.70571,-2.052753 -2.19215,-1.25413 -2.81271,-1.194568 -5.61804,0.539221 -4.01297,2.480155 -6.07058,2.46603 -7.41761,-0.05092 -1.35855,-2.538469 -3.49999,-2.538469 -6.72713,0 -3.22067,2.533384 -5.48019,2.533384 -7.77287,0 -2.2598,-2.497053 -3.05264,-2.497053 -6.22713,0 -1.39842,1.1 -3.16131,2 -3.91752,2 -0.75621,0 -2.14553,-0.9 -3.08738,-2 -2.1593,-2.521885 -3.78904,-2.521885 -6.9951,0 -2.93117,2.30566 -5.82043,2.585168 -6.97318,0.674589 -1.49793,-2.482671 -4.37544,-2.760161 -7.02338,-0.677293 -3.31083,2.604295 -6.9502,2.605561 -7.77631,0.0027 -0.81008,-2.552346 -3.52809,-2.552346 -6.77287,0 -3.18079,2.502007 -4.27347,2.502007 -7.45426,0 -3.19478,-2.513014 -4.49862,-2.513014 -6.77287,0 -0.99549,1.1 -2.57049,2 -3.5,2 -0.92951,0 -2.50451,-0.9 -3.5,-2 -2.28363,-2.523381 -4.01917,-2.523381 -7.227129,0 -1.398424,1.1 -3.153089,2 -3.899256,2 -0.746167,0 -1.918727,-0.9 -2.605688,-2 -0.686961,-1.1 -1.980088,-2 -2.873615,-2 -0.893527,0 -2.768759,0.9 -4.167183,2 -3.269809,2.572033 -6.344276,2.572033 -7.016878,0 C 78.867609,48.689734 77.846235,48 76.248607,48 74.90736,48 72.995486,48.9 72,50 c -0.995486,1.1 -2.570486,2 -3.5,2 -0.929514,0 -2.504514,-0.9 -3.5,-2 -2.314254,-2.557222 -5.131416,-2.557222 -6.5,0 -1.374543,2.568358 -3.684835,2.568358 -4.5,0 -0.44343,-1.397124 -1.513034,-2 -3.548336,-2 -2.28192,0 -3.051024,0.547701 -3.54764,2.526378 -0.348745,1.389507 -1.482318,2.98034 -2.519052,3.535183 -2.173185,1.163054 -2.436915,4.068903 -0.634972,6.996297 1.08446,1.761789 0.929428,2.274228 -1.170652,3.869456 -2.854295,2.168131 -3.728478,5.886361 -1.577945,6.711598 2.244251,0.8612 1.810553,2.926667 -1.001403,4.769131 -2.734398,1.791647 -3.186346,4.520079 -1.259734,7.605077 1.073798,1.719423 0.872469,2.327023 -1.5,4.5269 -3.132202,2.904341 -3.418908,4.63848 -1.143139,6.91425 1.928911,1.928911 1.132517,4.542163 -1.602174,5.2573 -2.399864,0.62758 -2.631109,3.93518 -0.488942,6.99355 1.407842,2.00998 1.310065,2.28966 -1.5,4.2906 C 29.230812,114.32787 28.646256,117.04657 31,119 c 2.308155,1.9156 1.795342,3.79591 -1.5,5.5 -3.198098,1.6538 -4.026763,4.89202 -1.5,5.86163 2.324104,0.89184 1.771992,4.23013 -1,6.04641 -2.933651,1.92221 -3.182243,4.18061 -0.75536,6.86228 1.671749,1.84727 1.634852,2.01768 -0.883116,4.07874 -3.703759,3.03169 -4.506112,6.2356 -1.909582,7.62522 2.824163,1.51145 2.56687,2.82352 -0.945619,4.82223 C 19.216682,161.66841 18.530385,164.9504 21,167 c 0.825,0.68469 1.5,1.82729 1.5,2.53911 0,2.35623 3.018377,2.68091 6.596804,0.7096 z M 124.5,150.12982 c -3.025,-1.03481 -12.05798,-5.08006 -20.07329,-8.98944 -15.295266,-7.46009 -30.828256,-13.0293 -42.17671,-15.12207 -3.7125,-0.68463 -6.75,-1.39764 -6.75,-1.58449 0,-0.18684 0.522232,-1.48589 1.160515,-2.88677 0.886358,-1.94534 0.877513,-3.16817 -0.03744,-5.17628 -0.658875,-1.44607 -1.068607,-2.75723 -0.910515,-2.91368 0.158093,-0.15645 4.337441,1.70941 9.287441,4.14635 17.220204,8.47771 32.283636,11.48555 47.034149,9.39171 l 8.46585,-1.20173 -0.022,-4.14671 c -0.0334,-6.31005 -2.97617,-11.81193 -7.57071,-14.15451 -2.14903,-1.09571 -4.1193,-2.12917 -4.37837,-2.29657 -1.21801,-0.78705 2.89183,-2.16559 6.47104,-2.17055 7.33329,-0.0102 16.19197,5.52291 20.45761,12.77768 0.87488,1.48795 1.42765,1.20398 4.48262,-2.30276 3.23202,-3.70998 3.4874,-4.4923 3.52222,-10.78984 0.0603,-10.902527 -4.93834,-18.077685 -16.16905,-23.209458 -4.8828,-2.23115 -9.47883,-3.52314 -25.7934,-7.250782 -1.920298,-0.438761 -0.87684,-0.919424 4.5,-2.072894 4.76103,-1.021362 13.23714,-1.529722 26.5,-1.589353 19.05727,-0.08568 19.61352,-0.02936 24.5,2.480627 6.83267,3.509667 9.85733,8.079657 9.09834,13.746742 -0.81917,6.116439 -6.05492,16.074218 -12.80859,24.360438 -3.18436,3.90696 -5.78975,7.49078 -5.78975,7.96404 0,2.57595 5.37571,0.13732 12.5,-5.67048 13.1028,-10.68154 19.07039,-12.586599 25.60212,-8.17307 3.38068,2.28436 3.49138,2.66634 2.56103,8.8377 -0.23601,1.56559 -2.11276,3.72672 -16.66315,19.18817 -7.41051,7.87451 -15.45065,14.34395 -22,17.70212 -6.22327,3.19098 -17.45263,3.6877 -25,1.10586 z m 51.41821,-41.73681 c 2.00286,-0.76857 2.05144,-2.99881 0.0818,-3.75464 -0.92992,-0.35684 -1.5,0.005 -1.5,0.95203 0,0.8402 -0.45,1.24952 -1,0.9096 -1.11226,-0.68742 -1.38023,0.78643 -0.33333,1.83333 0.81166,0.81167 0.79296,0.81126 2.75154,0.0597 z M 113,124 c 0.33992,-0.55 0.81648,-1 1.05902,-1 0.24254,0 0.44098,0.45 0.44098,1 0,0.55 -0.47656,1 -1.05902,1 -0.58246,0 -0.7809,-0.45 -0.44098,-1 z m 36.86228,-8.69561 c 1.06512,-1.06512 3.72328,-1.25185 3.08347,-0.21661 -0.31008,0.50172 -1.28723,0.91222 -2.17143,0.91222 -0.88421,0 -1.29463,-0.31302 -0.91204,-0.69561 z M 135.5,113.05902 c 0,-0.51754 0.45,-1.2191 1,-1.55902 0.55,-0.33992 1,0.0835 1,0.94098 0,0.85746 -0.45,1.55902 -1,1.55902 -0.55,0 -1,-0.42344 -1,-0.94098 z"
         id="path5" /><path
         style="fill:#f5c810"
         d="m 22.176647,166.78483 -1.823353,-3.20253 2.573353,-1.87456 c 2.82264,-2.05615 3.344682,-5.49978 1.324205,-8.73508 -1.082834,-1.73389 -0.905029,-2.29794 1.335465,-4.23643 2.703076,-2.33873 2.73786,-2.50702 1.457408,-7.05131 -0.649129,-2.30374 -0.316447,-3.31271 1.831533,-5.55472 3.151386,-3.28934 3.145176,-3.22412 0.587743,-6.17286 l -2.036998,-2.34868 3.036998,-2.37681 C 33.468893,122.87939 34.432632,119.69443 32.5,118.5 c -1.714607,-1.05969 -1.096019,-4.37824 1.028008,-5.51499 1.115405,-0.59695 1.763847,-1.51278 1.440983,-2.03518 C 34.646127,110.42742 34.883965,110 35.497519,110 c 0.671364,0 0.39623,-1.22795 -0.690983,-3.08392 L 33,103.83216 l 2.849029,-2.28261 c 2.835158,-2.271492 3.397164,-6.342008 0.798758,-5.785276 -0.906955,0.194324 -0.96672,-0.234083 -0.225794,-1.618517 0.554202,-1.035535 0.713122,-2.177309 0.353156,-2.537275 -0.359967,-0.359966 0.372829,-1.374043 1.628435,-2.253503 2.232093,-1.563419 2.401461,-3.387458 0.688978,-7.420075 -0.413608,-0.973977 0.293199,-2.598611 1.871404,-4.301522 C 43.624782,74.762314 44.181525,72.53924 42.5,71.5 c -1.643267,-1.015595 -1.136493,-3.938649 1,-5.767972 2.305447,-1.973985 2.519814,-3.914688 0.75,-6.789886 -1.06946,-1.737421 -0.945968,-2.27708 0.855021,-3.736432 1.157762,-0.93814 2.381139,-2.49321 2.718616,-3.45571 0.750304,-2.139906 4.52144,-2.317297 5.314737,-0.25 C 53.454956,52.325 54.742688,53 56,53 c 1.257312,0 2.545044,-0.675 2.861626,-1.5 0.810871,-2.113095 3.226736,-1.864212 6.678867,0.688058 L 68.5,54.376117 71.514344,52.147516 C 74.894371,49.648554 77.06991,49.675768 79.70716,52.25 82.042659,54.529692 83.772866,54.460955 86,52 c 2.130397,-2.354062 6.040811,-2.63901 6.861626,-0.5 0.761716,1.984999 3.780109,1.899556 7.457734,-0.21111 2.84389,-1.63217 3.14919,-1.620767 6.61778,0.247189 3.4918,1.880461 3.75734,1.888852 6.68064,0.21111 3.83991,-2.203807 4.50847,-2.186341 7.53831,0.196935 2.52116,1.983144 4.71024,1.788177 7.16534,-0.63817 1.90621,-1.883885 4.47615,-1.6072 6.44654,0.694046 2.14322,2.503102 3.39563,2.502478 7.5062,-0.0037 4.07214,-2.482782 4.79218,-2.482534 7.95169,0.0027 l 2.54131,1.998999 3.52306,-2.177371 c 3.36887,-2.082075 3.65105,-2.103915 6.44746,-0.498999 3.65334,2.09673 5.23164,2.104917 8.71842,0.04523 2.62916,-1.553085 2.91476,-1.522198 5.82583,0.630051 l 3.06114,2.263196 3.56331,-2.202247 c 3.44536,-2.129347 7.59361,-2.124139 7.59361,0.0095 0,1.512782 4.96408,1.066905 7.98424,-0.717151 1.80371,-1.065478 3.45209,-1.363414 4.65429,-0.841241 1.02381,0.444687 2.23242,0.72593 2.6858,0.624986 0.45338,-0.100944 0.55854,0.24652 0.23369,0.772143 -1.307,2.114759 1.68618,2.084595 5.49373,-0.05537 3.34992,-1.882763 4.37583,-2.064823 5.98222,-1.061619 2.4257,1.514875 6.21367,1.563214 7.6789,0.09799 1.31433,-1.314328 3.28713,-0.351373 3.28713,1.604497 0,0.755478 0.9,1.659245 2,2.008371 2.79267,0.886359 2.49765,2.092958 -1.01977,4.17075 -1.72064,1.016406 -2.80109,2.3537 -2.51146,3.108474 0.27958,0.728558 0.0635,1.049722 -0.48022,0.713697 -0.5437,-0.336025 -0.98855,0.08679 -0.98855,0.939588 0,0.852799 0.9,2.112603 2,2.799564 C 230.77062,67.6501 231.17911,70 229.15499,70 c -4.01276,0 -5.77493,6.972526 -2.11692,8.376234 2.24643,0.862037 1.74552,2.373217 -1.28807,3.885952 -1.5125,0.754225 -2.6375,1.903779 -2.5,2.554566 C 223.3875,85.467538 223.05,86 222.5,86 c -1.59551,0 -1.16898,1.441498 1.16914,3.951176 1.98672,2.132489 2.03007,2.429987 0.51554,3.537438 -0.90947,0.665027 -1.40559,1.457145 -1.10247,1.760263 0.30312,0.303118 -0.2066,0.483623 -1.1327,0.401123 -2.55305,-0.227433 -2.86856,5.05536 -0.38142,6.38644 2.62652,1.40567 2.42692,2.62251 -0.55286,3.37038 -3.18717,0.79993 -4.39639,4.96202 -2.15969,7.43355 1.47317,1.62784 1.3696,1.95545 -1.38148,4.36948 -3.46295,3.03868 -3.68838,4.68643 -1.08161,7.90566 1.88663,2.32988 1.88344,2.34256 -1.03358,4.11651 -1.60932,0.97868 -3.18626,2.45758 -3.50433,3.28644 -0.72467,1.88848 1.48167,4.68253 3.00877,3.8102 0.62518,-0.35712 0.80309,-0.28107 0.39537,0.16901 -0.40773,0.45007 -0.19757,1.53472 0.46703,2.41032 0.66459,0.87561 0.83212,1.27594 0.37227,0.88963 -0.45984,-0.38631 -1.44947,-0.089 -2.19917,0.66071 -0.7497,0.74971 -1.84944,1.52521 -2.44387,1.72336 -1.74699,0.58233 -1.83769,5.79271 -0.13055,7.49984 1.41659,1.41659 1.39112,1.68771 -0.27278,2.90439 -1.00938,0.73808 -2.16193,1.47068 -2.56124,1.62802 -0.3993,0.15733 -1.03543,1.28161 -1.41362,2.49839 -0.49164,1.5818 -0.1018,2.71391 1.36782,3.97224 2.70599,2.31693 2.59336,3.16041 -0.58326,4.36816 -1.45128,0.55177 -2.35518,1.28673 -2.00867,1.63324 0.3465,0.34651 0.12881,1.23392 -0.48376,1.97202 -1.34061,1.61533 -5.86888,1.79667 -5.86888,0.23502 0,-0.60884 -0.69837,-0.839 -1.55194,-0.51145 -0.88992,0.34149 -1.29132,0.17385 -0.94098,-0.39301 0.97253,-1.57359 -1.13316,-1.14402 -2.50708,0.51145 -1.72673,2.08059 -4.62654,1.87346 -7,-0.5 -1.1,-1.1 -2.675,-2 -3.5,-2 -0.825,0 -2.4,0.9 -3.5,2 -2.59124,2.59124 -4.80784,2.52915 -7.73049,-0.21654 -1.88422,-1.77013 -2.70279,-1.99027 -4.06445,-1.09305 -0.93778,0.61791 -1.62132,1.52907 -1.51897,2.0248 0.10235,0.49572 -1.58515,1.00583 -3.75,1.13356 -2.97859,0.17575 -3.93609,-0.1425 -3.93609,-1.30826 0,-2.03762 -5.31701,-2.06839 -7,-0.0405 -1.75316,2.11242 -4.98458,1.86311 -7.5912,-0.58568 -1.83281,-1.72183 -2.59034,-1.88753 -4.34246,-0.94982 -1.1673,0.62471 -1.91589,1.46992 -1.66353,1.87824 1.09905,1.7783 -5.65343,1.03184 -8.28837,-0.91625 -2.48076,-1.83411 -3.12797,-1.93499 -4.98276,-0.77665 -1.17243,0.73219 -2.13168,1.67301 -2.13168,2.09071 0,1.6964 -5.57156,0.67514 -6.76793,-1.24055 -0.68696,-1.1 -2.03696,-2 -3,-2 -0.96304,0 -2.31304,0.9 -3,2 -0.7573,1.21264 -2.33202,2 -4,2 -1.66797,0 -3.24269,-0.78736 -4,-2 -0.68696,-1.1 -1.83535,-2 -2.55198,-2 -0.716633,0 -2.269004,0.9 -3.449715,2 -1.180712,1.1 -3.182318,2 -4.448015,2 -1.265696,0 -2.863326,-0.9 -3.550287,-2 -0.686961,-1.1 -1.924612,-2 -2.750334,-2 -0.825723,0 -2.271918,0.9 -3.213767,2 -2.106052,2.45969 -4.184808,2.52317 -8.186932,0.25 -2.934324,-1.66667 -3.227756,-1.66667 -6.16208,0 -3.729673,2.11842 -6.789303,2.25146 -7.527664,0.32732 -0.935315,-2.4374 -3.457014,-2.66671 -6.386449,-0.58077 -3.35467,2.38873 -5.613706,2.53745 -7.647704,0.50345 -0.825,-0.825 -2.537757,-1.5 -3.806127,-1.5 -1.26837,0 -2.866327,0.675 -3.551016,1.5 -1.485384,1.78978 -5.133996,1.966 -6.772874,0.32713 -0.897166,-0.89717 -1.777989,-0.89717 -3.747053,0 -3.849456,1.75393 -4.805438,1.46695 -6.803426,-2.0423 z M 146,153.48612 c 8.65075,-4.80309 20.76756,-14.91905 30.55593,-25.51025 5.19424,-5.62026 12.03874,-12.22085 15.21001,-14.66798 l 5.76595,-4.44932 -4.69031,-2.49386 c -2.57967,-1.37163 -5.79753,-3.3648 -7.15081,-4.42929 C 184.05554,100.64915 181.66415,100 178.56092,100 c -5.17118,0 -10.60594,2.91299 -19.12414,10.25039 -4.38021,3.77302 -7.9509,5.53476 -7.92707,3.91113 0.005,-0.36384 1.62365,-2.68652 3.59626,-5.16152 1.97261,-2.475 4.711,-6.4125 6.08532,-8.75 1.37431,-2.3375 2.83099,-4.25 3.23707,-4.25 0.40607,0 0.75501,-0.5625 0.77543,-1.25 0.0204,-0.6875 0.61455,-3.961305 1.32029,-7.275122 1.14486,-5.375677 1.09164,-6.428749 -0.49374,-9.769694 -0.9773,-2.059514 -2.95893,-4.582466 -4.40363,-5.60656 -9.27325,-6.573498 -30.25803,-7.641875 -57.90969,-2.948297 -5.327028,0.904207 -6.197245,1.336618 -5.719456,2.841997 0.412341,1.299173 -0.115387,1.945924 -1.967017,2.410653 -3.679363,0.923462 -3.09921,2.412006 1.219453,3.128848 2.0625,0.342348 5.05465,1.037739 6.64922,1.545313 C 105.4938,79.584712 107.66883,80 108.73264,80 c 3.06074,0 16.5322,5.71885 20.37387,8.649035 5.46514,4.16847 8.39349,10.001865 8.39349,16.720205 0,6.80921 -1.86448,8.34405 -5.11549,4.21107 C 129.06077,105.35485 121.41865,102 115.1171,102 c -4.93697,0 -5.83613,0.36063 -9.56216,3.83509 l -4.11276,3.83509 3.97402,1.79203 c 7.22719,3.25901 10.70411,9.08989 7.51895,12.60945 -2.47809,2.73825 -16.208331,2.67486 -26.894712,-0.12416 C 76.850578,121.54044 63.5,116.12382 63.5,114.80234 c 0,-0.50621 -0.383705,-0.68323 -0.852678,-0.39339 -0.468973,0.28984 -1.706473,-0.11929 -2.75,-0.90918 C 57.739634,111.86652 54.5,111.53112 54.5,112.94098 c 0,0.51754 0.430347,1.20695 0.956326,1.53203 2.128617,1.31556 -0.136465,3.44096 -3.046779,2.8589 -3.172582,-0.63452 -3.662391,0.39287 -1.824516,3.82697 1.444273,2.69865 0.328689,6.83318 -1.854083,6.87153 -3.461637,0.0608 1.091813,1.72346 9.269052,3.38451 13.92491,2.82858 26.46176,7.50142 45.82233,17.07928 15.00302,7.42214 18.95504,8.54242 28.67767,8.12925 7.00684,-0.29776 9.37833,-0.84888 13.5,-3.13733 z M 188.5,110 c 0,-1.55556 0.66667,-2 3,-2 1.65,0 3,0.45 3,1 0,0.55 -0.675,1 -1.5,1 -0.825,0 -1.5,0.45 -1.5,1 0,0.55 -0.675,1 -1.5,1 -0.83333,0 -1.5,-0.88889 -1.5,-2 z"
         id="path4" /><path
         style="fill:#63618e"
         d="m 105,214.00941 c 68.0124,-0.33637 102.88155,-0.8491 102.65131,-1.50941 -0.56159,-1.61053 2.05674,-15.51055 3.03566,-16.11556 0.49126,-0.30361 0.63616,0.49819 0.32201,1.78177 -0.31415,1.28359 -1.14616,5.48379 -1.84891,9.33379 l -1.27774,7 -102.94116,0.009 L 2,214.51881 Z M 2.8759632,212.2007 c 0.2716985,-0.43962 3.2723384,-14.72712 6.6680887,-31.75 C 12.939802,163.42781 16.169639,149.05 16.721466,148.5 c 0.670421,-0.6682 0.816846,-0.3364 0.441305,1 -0.30911,1.1 -3.093139,14.825 -6.186731,30.5 -6.7785027,34.34617 -6.4667032,33 -7.643465,33 -0.522835,0 -0.7283103,-0.35969 -0.4566118,-0.7993 z m 9.7029838,-8.78403 c 0.04798,-1.16495 0.284941,-1.4019 0.604167,-0.60417 0.288871,0.72187 0.253344,1.58437 -0.07895,1.91667 -0.332292,0.33229 -0.568641,-0.25834 -0.52522,-1.3125 z m 70.351299,-1.73785 c -0.278841,-0.72665 -0.377218,-5.78915 -0.218615,-11.25 L 83,180.5 l 6.5,-0.0684 6.5,-0.0684 -6.311525,0.36548 -6.311526,0.36547 0.311526,10.95495 c 0.171339,6.02522 0.184902,10.95403 0.03014,10.95291 -0.154761,-0.001 -0.509527,-0.59657 -0.788369,-1.32322 z m 34.331414,0.61392 c 1.24391,-0.23919 3.04391,-0.23011 4,0.0202 0.95609,0.25029 -0.0617,0.446 -2.26166,0.4349 -2.2,-0.0111 -2.98225,-0.21589 -1.73834,-0.45508 z m 25.98834,0.002 c 1.2375,-0.23836 3.2625,-0.23836 4.5,0 1.2375,0.23835 0.225,0.43337 -2.25,0.43337 -2.475,0 -3.4875,-0.19502 -2.25,-0.43337 z m 22.67165,-0.63785 c -0.28357,-0.73898 -0.37702,-4.67648 -0.20767,-8.75 l 0.30792,-7.40642 0.48905,8.75233 c 0.48732,8.72131 0.3892,9.95403 -0.5893,7.40409 z M 52.42533,196.25 c -2.373228,-3.1625 -3.643172,-5.20782 -2.822096,-4.54516 1.683251,1.3585 8.262207,10.29516 7.579047,10.29516 -0.243095,0 -2.383723,-2.5875 -4.756951,-5.75 z M 69.944209,191.5 70,180.5 l 3.758654,-0.10484 3.758653,-0.10485 -3.475414,0.41323 -3.475414,0.41323 -0.339031,10.69161 L 69.888417,202.5 Z m 41.062871,9.51145 c -0.35034,-0.56686 0.0511,-0.7345 0.94098,-0.39301 1.73242,0.66479 2.04939,1.38156 0.61096,1.38156 -0.51754,0 -1.21592,-0.44485 -1.55194,-0.98855 z M 124.5,201.60699 c 0,-0.21616 0.69837,-0.661 1.55194,-0.98855 0.88992,-0.34149 1.29132,-0.17385 0.94098,0.39301 -0.58726,0.95021 -2.49292,1.40545 -2.49292,0.59554 z M 173.84941,194 c 0,-4.675 0.17226,-6.5875 0.3828,-4.25 0.21053,2.3375 0.21053,6.1625 0,8.5 -0.21054,2.3375 -0.3828,0.425 -0.3828,-4.25 z m -38.36947,5.47583 c -0.69572,-0.83829 -1.07128,-1.71782 -0.83459,-1.95452 0.2367,-0.23669 0.97964,0.44918 1.65098,1.52417 1.45181,2.32472 0.96763,2.57996 -0.81639,0.43035 z m 19.12045,-0.18035 c 0.72815,-1.21249 1.53915,-1.98927 1.80223,-1.72619 0.26308,0.26308 -0.33267,1.25511 -1.3239,2.20452 -1.72194,1.64929 -1.74325,1.62798 -0.47833,-0.47833 z M 129.58029,198 c 1.45781,-3.06103 1.91971,-3.62834 1.91971,-2.3578 0,0.53655 -0.69982,1.84905 -1.55517,2.91667 -1.46637,1.83031 -1.48719,1.7984 -0.36454,-0.55887 z m -88.922395,-2 c 0,-1.375 0.226973,-1.9375 0.504386,-1.25 0.277412,0.6875 0.277412,1.8125 0,2.5 -0.277413,0.6875 -0.504386,0.125 -0.504386,-1.25 z m 74.714545,0.25 c -1.1941,-1.5226 -1.17752,-1.60002 0.12756,-0.59582 0.825,0.6348 2.625,1.36102 4,1.61382 l 2.5,0.45964 -2.62756,0.13618 c -1.44834,0.0751 -3.24349,-0.6492 -4,-1.61382 z M 141.23203,196 c -0.94185,-1.1 -1.28269,-2 -0.75743,-2 0.52527,0 1.4367,0.9 2.0254,2 0.5887,1.1 0.92954,2 0.75742,2 -0.17211,0 -1.08354,-0.9 -2.02539,-2 z m 6.69654,0 c 0,-1.29524 0.3381,-1.63333 0.98572,-0.98571 0.64761,0.64761 0.64761,1.32381 0,1.97142 -0.64762,0.64762 -0.98572,0.30953 -0.98572,-0.98571 z M 94.3125,194.31689 c 0.721875,-0.28887 1.584375,-0.25335 1.916667,0.0789 0.332291,0.33229 -0.258334,0.56864 -1.3125,0.52522 -1.164943,-0.048 -1.4019,-0.28494 -0.604167,-0.60416 z m 107.26645,-0.90022 c 0.048,-1.16495 0.28494,-1.4019 0.60416,-0.60417 0.28887,0.72187 0.25335,1.58437 -0.0789,1.91667 -0.3323,0.33229 -0.56864,-0.25834 -0.52522,-1.3125 z M 210.85875,193 c 0.26675,-1.375 1.85685,-9.25 3.53355,-17.5 1.6767,-8.25 4.90563,-24.675 7.17541,-36.5 2.26978,-11.825 4.58366,-21.95 5.14197,-22.5 0.68364,-0.67347 0.83589,-0.34693 0.46625,1 -0.30187,1.1 -1.69368,7.85 -3.09291,15 -9.18935,46.95716 -11.93286,60.17334 -12.76659,61.5 -0.6946,1.10527 -0.81504,0.84212 -0.45768,-1 z m -110.07302,-1.30055 c 1.21785,-1.26531 2.39901,-2.16807 2.62481,-2.00613 0.58355,0.4185 -3.05464,4.30668 -4.029794,4.30668 -0.445104,0 0.187141,-1.03525 1.404984,-2.30055 z M 113.69495,191.5 c 0.0204,-1.65 0.2445,-2.20394 0.49804,-1.23097 0.25354,0.97297 0.23687,2.32297 -0.037,3 -0.27393,0.67703 -0.48137,-0.11903 -0.46099,-1.76903 z m 10,0 c 0.0204,-1.65 0.2445,-2.20394 0.49804,-1.23097 0.25354,0.97297 0.23687,2.32297 -0.037,3 -0.27393,0.67703 -0.48137,-0.11903 -0.46099,-1.76903 z m 7.94123,-0.29966 c -0.20812,-3.51445 -2.87217,-7.98177 -5.20057,-8.72078 -1.14748,-0.36419 -1.86596,-0.88254 -1.59662,-1.15189 0.26935,-0.26934 1.4236,0.0101 2.56501,0.62095 2.69979,1.44488 5.333,6.59227 4.79286,9.36906 -0.41531,2.1351 -0.42744,2.13256 -0.56068,-0.11734 z m 22.73626,0.0497 c -1.24387,-1.58606 -1.2085,-1.62143 0.37756,-0.37756 0.9625,0.75485 1.75,1.54235 1.75,1.75 0,0.82304 -0.82119,0.29331 -2.12756,-1.37244 z M 40.772364,188 c 0,-2.475 0.195016,-3.4875 0.433369,-2.25 0.238353,1.2375 0.238353,3.2625 0,4.5 -0.238353,1.2375 -0.433369,0.225 -0.433369,-2.25 z m 14.588018,2.25 C 52.48344,186.77685 51.264512,185 51.758866,185 c 0.277066,0 1.705067,1.575 3.173336,3.5 2.724717,3.57229 3.054657,4.92078 0.42818,1.75 z M 94.475,189.34167 c 0.56375,-0.27959 1.025,-1.10834 1.025,-1.84167 0,-0.73333 -0.46125,-1.56208 -1.025,-1.84167 -0.56375,-0.27958 -0.45125,-0.39208 0.25,-0.25 0.70125,0.14209 1.275,1.08334 1.275,2.09167 0,1.00833 -0.57375,1.94958 -1.275,2.09167 -0.70125,0.14208 -0.81375,0.0296 -0.25,-0.25 z M 119.5,186 c -2.32726,-0.74532 -2.34861,-0.80753 -0.30902,-0.90032 1.20504,-0.0548 2.4691,0.35032 2.80902,0.90032 0.33992,0.55 0.47898,0.95514 0.30902,0.90032 C 122.13906,186.8455 120.875,186.44035 119.5,186 Z m 28,0.16667 c 0,-0.64167 -1.0125,-1.21887 -2.25,-1.28267 -1.85196,-0.0955 -1.92163,-0.20052 -0.39378,-0.59378 1.9947,-0.51342 4.45519,1.2317 3.32711,2.35978 -0.37583,0.37583 -0.68333,0.15833 -0.68333,-0.48333 z m -46.28239,-2.74565 c -1.342193,-1.79456 -1.423029,-2.24521 -0.32731,-1.82474 0.80028,0.30709 1.72545,1.26297 2.05592,2.12417 0.93494,2.43642 0.22573,2.31357 -1.72861,-0.29943 z m 9.50858,-0.99974 c 0.94941,-0.99123 1.94144,-1.58698 2.20452,-1.3239 0.26308,0.26308 -0.5137,1.07408 -1.72619,1.80223 -2.10631,1.26492 -2.12762,1.24361 -0.47833,-0.47833 z M 40.9023,181.775 c 0.416143,-2.10299 7.052688,-2.16106 8.635063,-0.0756 1.167535,1.53875 1.162359,1.61881 -0.03559,0.55056 -1.687061,-1.5044 -7.629466,-1.66465 -8.343439,-0.225 -0.279583,0.56375 -0.394798,0.45125 -0.256033,-0.25 z M 152,182 c -0.33992,-0.55 -0.16803,-1 0.38197,-1 0.55,0 1.27811,0.45 1.61803,1 0.33992,0.55 0.16803,1 -0.38197,1 -0.55,0 -1.27811,-0.45 -1.61803,-1 z m -91,-1 -4,-0.71619 3.690983,-0.1419 C 62.721024,180.06386 64.660081,180.45 65,181 c 0.339919,0.55 0.478976,0.93614 0.309017,0.85809 C 65.139058,181.78005 63.2,181.3939 61,181 Z m 143.57895,-0.58333 c 0.048,-1.16495 0.28494,-1.4019 0.60416,-0.60417 0.28887,0.72187 0.25335,1.58437 -0.0789,1.91667 -0.3323,0.33229 -0.56864,-0.25834 -0.52522,-1.3125 z m -87.8152,-0.13425 c 1.52006,-0.22986 3.77006,-0.22371 5,0.0136 1.22994,0.23736 -0.0138,0.42542 -2.76375,0.41792 -2.75,-0.008 -3.75631,-0.20172 -2.23625,-0.43157 z m 27,0 c 1.52006,-0.22986 3.77006,-0.22371 5,0.0136 1.22994,0.23736 -0.0137,0.42542 -2.76375,0.41792 -2.75,-0.008 -3.75631,-0.20172 -2.23625,-0.43157 z m 20.52544,-0.0238 c 3.45905,-0.19583 8.85905,-0.19422 12,0.004 3.14094,0.19781 0.31081,0.35803 -6.28919,0.35606 -6.6,-0.002 -9.16987,-0.16382 -5.71081,-0.35965 z m -97.97669,-3.9417 c 0.721875,-0.28887 1.584375,-0.25335 1.916667,0.0789 0.332291,0.33229 -0.258334,0.56864 -1.3125,0.52522 -1.164943,-0.048 -1.4019,-0.28494 -0.604167,-0.60416 z m 43.50977,-0.0665 c 17.50225,-0.15328 45.85225,-0.15319 63,2.2e-4 17.14775,0.1534 2.82773,0.27882 -31.82227,0.2787 -34.65,-1.2e-4 -48.679977,-0.12563 -31.17773,-0.27892 z m -82.09608,-5.82913 c 0.949405,-0.99123 1.94144,-1.58698 2.204522,-1.3239 0.263082,0.26308 -0.513704,1.07408 -1.72619,1.80223 -2.106309,1.26492 -2.127619,1.24361 -0.478332,-0.47833 z M 38.686949,169.5 c 1.195547,-1.375 3.055367,-2.5 4.132933,-2.5 1.485684,0 1.068825,0.60423 -1.724744,2.5 -2.026176,1.375 -3.885996,2.5 -4.132934,2.5 -0.246937,0 0.529198,-1.125 1.724745,-2.5 z M 62.5,171.60699 c 0,-0.94863 2.993378,-1.42672 3.526992,-0.56332 C 66.352065,171.56965 65.691476,172 64.559017,172 63.426558,172 62.5,171.82314 62.5,171.60699 Z m 14,-0.66601 c 0,-0.58246 -0.45,-0.7809 -1,-0.44098 -0.55,0.33992 -1,-0.15327 -1,-1.09597 0,-1.60527 0.122881,-1.6028 1.936987,0.0389 1.065342,0.96413 2.415342,1.45731 3,1.09597 0.584657,-0.36133 1.063013,-0.18042 1.063013,0.40204 0,0.58246 -0.9,1.05902 -2,1.05902 -1.1,0 -2,-0.47656 -2,-1.05902 z m 12.458881,-0.008 c -0.362533,-0.58659 -0.389091,-1.33659 -0.05902,-1.66667 0.330075,-0.33007 0.600136,-0.0963 0.600136,0.51948 0,1.60379 5.25372,0.99676 6.805166,-0.78628 1.095,-1.25846 1.129591,-1.13769 0.214816,0.75 -1.165876,2.40585 -6.308184,3.21073 -7.561101,1.18347 z M 102.5,170 c -0.5887,-1.1 -1.72953,-2 -2.535184,-2 C 99.159167,168 98.5,167.55 98.5,167 c 0,-2.04907 3.08482,-0.90796 4.20769,1.55648 0.98314,2.15776 1.68012,2.48704 4.46884,2.11122 1.81721,-0.24489 3.05684,-0.0453 2.75473,0.44352 -1.0749,1.73923 -6.32598,0.95402 -7.43126,-1.11122 z m 13.64724,-0.41562 c -1.01456,-1.54842 -2.22881,-2.29844 -3.14923,-1.94524 -0.8239,0.31616 -1.49801,0.0454 -1.49801,-0.6017 0,-1.99257 4.44228,-0.66889 5.44882,1.6236 0.99745,2.27177 5.26367,2.7922 6.87731,0.83896 0.49349,-0.59735 0.6638,-0.39602 0.42299,0.5 -0.22173,0.825 -1.76383,1.636 -3.4269,1.80223 -2.32031,0.23192 -3.4079,-0.28404 -4.67498,-2.21785 z m 15.30057,0.85274 c -1.14207,-1.37612 -0.94972,-1.4757 1.60968,-0.83334 1.59871,0.40126 3.4575,0.72955 4.13064,0.72955 0.67314,0 0.99213,0.375 0.70886,0.83334 -0.86681,1.40253 -5.07476,0.92651 -6.44918,-0.72955 z M 145.23203,170 c -0.94185,-1.1 -2.48186,-2 -3.42224,-2 -1.27955,0 -1.42301,-0.28678 -0.57013,-1.13966 0.85289,-0.85289 1.91149,-0.49022 4.20691,1.44125 1.76618,1.48614 3.92401,2.41592 5.08705,2.19194 1.11089,-0.21394 1.75622,0.0375 1.43407,0.55874 -1.01602,1.64397 -4.9538,1.02879 -6.73566,-1.05227 z m 13.88735,-0.13302 c -1.0066,-1.43712 -2.16698,-1.95704 -3.5567,-1.59362 -1.13448,0.29667 -2.06268,0.13153 -2.06268,-0.36698 0,-0.49851 1.35,-0.90638 3,-0.90638 2,0 3,0.5 3,1.5 0,1.31321 3.23951,2.12952 6.32433,1.59364 0.45338,-0.0787 0.53932,0.31796 0.19098,0.88158 -1.10487,1.78772 -5.34479,1.10632 -6.89593,-1.10824 z m 13.75575,-0.41721 c -0.92311,-1.40884 -2.27611,-2.31801 -3.02305,-2.03138 -0.74364,0.28536 -1.35208,0.083 -1.35208,-0.44977 0,-1.77414 2.83045,-0.99873 4.67742,1.28138 2.09923,2.59152 5.23804,2.9218 7.12775,0.75 1.095,-1.25846 1.12959,-1.13769 0.21481,0.75 -1.51179,3.11967 -5.50684,2.96278 -7.64485,-0.30023 z m 13.87487,-0.0749 c -2.77638,-3.14007 -2.84185,-3.76195 -0.25,-2.37483 1.1,0.5887 2,1.78202 2,2.65182 0,1.08885 0.62265,1.41862 1.999,1.05869 1.09946,-0.28751 2.19201,-0.21046 2.42791,0.17123 0.2359,0.38169 -0.55115,0.77134 -1.749,0.8659 -1.23847,0.0978 -3.14845,-0.92575 -4.42791,-2.37281 z M 198.5,170 c -0.7257,-1.35599 -0.73703,-2 -0.0352,-2 0.56935,0 1.03518,0.64916 1.03518,1.44258 0,0.90431 0.74627,1.29887 2,1.05742 1.1,-0.21184 2,0.039 2,0.55742 0,1.7754 -3.92857,0.94457 -5,-1.05742 z m -175.921053,0.0787 c -0.04342,-0.78169 -0.823691,-2.24419 -1.733935,-3.25 C 19.911992,165.79776 19.678525,165 20.309829,165 c 1.453283,0 3.462229,3.76092 2.833972,5.30544 -0.321195,0.78963 -0.512668,0.71278 -0.564854,-0.2267 z m 9.58772,0.25459 C 31.8,169.96667 31.5,169.20167 31.5,168.63333 c 0,-0.6266 0.465771,-0.56756 1.183333,0.15 0.650834,0.65084 0.950834,1.41584 0.666667,1.7 -0.284167,0.28417 -0.816667,0.21667 -1.183333,-0.15 z M 52.5,170.27 c 0,-0.92807 4.221152,-4.27 5.393388,-4.27 0.96381,0 3.605344,3.19199 3.576203,4.32143 -0.01672,0.64821 -0.489085,0.39107 -1.04969,-0.57143 -1.281827,-2.20076 -3.722267,-2.23883 -6.09116,-0.095 C 53.322933,170.56523 52.5,170.84199 52.5,170.27 Z m 14.503583,-0.2642 c -0.703814,-1.1388 4.204597,-3.31723 5.897895,-2.61759 0.604187,0.24964 0.343165,0.48942 -0.580049,0.53284 -0.923215,0.0434 -2.357024,0.7574 -3.186243,1.58662 -0.936961,0.93696 -1.743852,1.12552 -2.131603,0.49813 z m 14.51173,0.39919 c 0.02185,-1.29126 1.947776,-4.11024 1.984687,-2.90499 0.01684,0.55 0.428319,0.37193 0.914388,-0.39572 0.582169,-0.91941 1.51541,-1.12254 2.734687,-0.59524 1.75829,0.76041 1.750829,0.82292 -0.149075,1.24896 -1.1,0.24666 -2.7875,1.14676 -3.75,2.00023 -0.9625,0.85346 -1.743109,1.1445 -1.734687,0.64676 z M 204.5,170.05902 c 0,-0.51754 0.44485,-1.21592 0.98855,-1.55194 0.56686,-0.35034 0.7345,0.0511 0.39301,0.94098 -0.66479,1.73242 -1.38156,2.04939 -1.38156,0.61096 z m -9.78943,-1.45816 c 0.70919,-0.76953 1.44699,-1.24947 1.63957,-1.06653 C 196.94328,168.09779 195.44,170 194.40156,170 c -0.53923,0 -0.40017,-0.62961 0.30901,-1.39914 z M 126.5,167 c 0,-1.25292 1.06124,-1.25292 3,0 1.21296,0.78387 1.06944,0.9723 -0.75,0.98469 -1.2375,0.008 -2.25,-0.43469 -2.25,-0.98469 z m 79.51008,-1.01631 c 0.34546,-0.55897 1.04702,-0.75742 1.55902,-0.44098 1.38704,0.85723 1.12841,1.45729 -0.62812,1.45729 -0.85746,0 -1.27636,-0.45734 -0.9309,-1.01631 z m 3.91956,-2.73369 c 0.16126,-1.5125 0.69306,-2.66127 1.18178,-2.55282 1.33915,0.29716 1.70579,3.30282 0.40289,3.30282 -0.62279,0 -0.85423,0.45 -0.51431,1 0.33992,0.55 0.17218,1 -0.37276,1 -0.54494,0 -0.85886,-1.2375 -0.6976,-2.75 z M 19.5,161.94098 c 0,-0.58246 0.45,-0.7809 1,-0.44098 0.55,0.33992 1,0.81648 1,1.05902 0,0.24254 -0.45,0.44098 -1,0.44098 -0.55,0 -1,-0.47656 -1,-1.05902 z m 187.57421,-2.6082 c -0.35188,-0.91697 -0.28752,-2.01901 0.14301,-2.44897 0.43053,-0.42997 0.84768,0.32028 0.92699,1.66721 0.16847,2.86085 -0.17569,3.1123 -1.07,0.78176 z M 23.118001,154.70994 c -1.415028,-1.03469 -1.544774,-1.77234 -0.70175,-3.98966 1.197367,-3.14932 2.536924,-3.72347 1.568518,-0.67229 -0.357503,1.12639 -0.0987,2.71227 0.575113,3.52416 1.646759,1.98423 0.717984,2.71712 -1.441881,1.13779 z M 140.5,155.60699 c 0,-0.21616 0.69837,-0.661 1.55194,-0.98855 0.88992,-0.34149 1.29132,-0.17385 0.94098,0.39301 -0.58726,0.95021 -2.49292,1.40545 -2.49292,0.59554 z m 69.86278,-2.66462 c 1.84953,-1.12758 3.61203,-1.80089 3.91667,-1.49626 0.30463,0.30464 0.002,0.55389 -0.6718,0.55389 -0.67413,0 -0.97919,0.39884 -0.67791,0.88631 0.30127,0.48747 -0.45967,1.15633 -1.69099,1.48635 -4.0318,1.08061 -4.29353,0.65326 -0.87597,-1.43029 z m -76.59903,-0.65995 c 1.52006,-0.22986 3.77006,-0.22371 5,0.0136 1.22994,0.23736 -0.0137,0.42542 -2.76375,0.41792 -2.75,-0.008 -3.75631,-0.20172 -2.23625,-0.43157 z m -6.45125,-0.96553 c 0.72187,-0.28887 1.58437,-0.25335 1.91667,0.0789 0.33229,0.33229 -0.25834,0.56864 -1.3125,0.52522 -1.16495,-0.048 -1.4019,-0.28494 -0.60417,-0.60416 z m 23.52083,-1.7729 c 0,-0.80081 0.38234,-1.21971 0.84965,-0.9309 0.4673,0.28881 0.59075,0.94401 0.27431,1.45601 -0.80862,1.30838 -1.12396,1.16106 -1.12396,-0.52511 z M 211.25,149.33772 c 0.6875,-0.27741 1.8125,-0.27741 2.5,0 0.6875,0.27741 0.125,0.50439 -1.25,0.50439 -1.375,0 -1.9375,-0.22698 -1.25,-0.50439 z M 155.5,146 c 0.5887,-1.1 1.29537,-2 1.57037,-2 0.275,0 0.0183,0.9 -0.57037,2 -0.5887,1.1 -1.29537,2 -1.57037,2 -0.275,0 -0.0183,-0.9 0.57037,-2 z M 20.147485,129.75 c 1.888303,-8.9375 3.663763,-17.6 3.945466,-19.25 2.360123,-13.823793 7.869686,-39.196266 8.685891,-40 0.682113,-0.671691 0.85333,-0.507537 0.521513,0.5 -0.271701,0.825 -3.806653,18.0375 -7.85545,38.25 -4.048796,20.2125 -7.669529,36.75 -8.046073,36.75 -0.376544,0 0.860349,-7.3125 2.748653,-16.25 z m 5.91985,13.3244 C 23.834249,140.60687 24.341474,138.15658 27.5,136.15351 l 2.5,-1.58545 -1.950327,2.26607 c -1.649546,1.91659 -1.778608,2.72101 -0.836864,5.21597 1.310016,3.47063 1.176482,3.59004 -1.145474,1.0243 z M 158.5,144.12244 c 0,-0.48265 0.74867,-1.49515 1.66372,-2.25 1.5086,-1.24448 1.55194,-1.16266 0.46482,0.87756 -1.23991,2.32696 -2.12854,2.89993 -2.12854,1.37244 z m 56,-3.03911 c 0,-0.59583 0.40787,-1.08333 0.90638,-1.08333 0.49851,0 0.65262,-0.97037 0.34248,-2.15637 -0.34848,-1.33259 -0.17342,-1.91504 0.45826,-1.52464 1.41246,0.87295 1.07164,4.92255 -0.45712,5.43152 -0.6875,0.22888 -1.25,-0.0713 -1.25,-0.66718 z M 98.5,139 c -1.925,-1.05389 -3.05,-1.91617 -2.5,-1.91617 0.55,0 2.575,0.86228 4.5,1.91617 1.925,1.05389 3.05,1.91617 2.5,1.91617 -0.55,0 -2.575,-0.86228 -4.5,-1.91617 z m 73.6659,-8.4083 c 5.40876,-5.72456 10.03195,-10.21421 10.27377,-9.977 0.24181,0.23722 -0.54569,1.12147 -1.75,1.965 -1.20432,0.84354 -2.18967,1.9309 -2.18967,2.41635 0,0.94341 -14.69947,16.00395 -15.62026,16.00395 -0.30136,0 3.87741,-4.68373 9.28616,-10.4083 z M 29.5,133 c 0,-0.55 0.45,-1 1,-1 0.55,0 1,0.45 1,1 0,0.55 -0.45,1 -1,1 -0.55,0 -1,-0.45 -1,-1 z m -3,-4.9058 c 0,-1.11311 0.9,-2.5055 2,-3.0942 1.128073,-0.60373 2,-0.66571 2,-0.14217 0,0.5105 -0.703522,1.19816 -1.563382,1.52812 -0.85986,0.32996 -1.30252,1.02201 -0.983688,1.53789 0.318832,0.51588 0.122353,1.22062 -0.436618,1.56608 C 26.955771,129.83635 26.5,129.21043 26.5,128.0942 Z M 217.73207,127 c -1.04175,-1.66811 -0.99869,-2 0.25946,-2 0.8418,0 1.50847,0.8839 1.50847,2 0,1.1 -0.11675,2 -0.25945,2 -0.1427,0 -0.82152,-0.9 -1.50848,-2 z M 100.75,127.00053 c 1.5125,-0.45516 3.9875,-0.45516 5.5,0 2.22566,0.66978 1.70133,0.82756 -2.75,0.82756 -4.451329,0 -4.975665,-0.15778 -2.75,-0.82756 z m -9.739919,-1.01684 c 0.345464,-0.55897 1.047021,-0.75742 1.559017,-0.44098 1.387044,0.85723 1.128411,1.45729 -0.628115,1.45729 -0.857459,0 -1.276365,-0.45734 -0.930902,-1.01631 z M 112,126 c -0.33992,-0.55 0.0505,-1 0.86766,-1 0.81713,0 1.69347,-0.7875 1.94743,-1.75 0.25395,-0.9625 0.4138,-0.5125 0.35521,1 -0.10456,2.69941 -1.95295,3.71972 -3.1703,1.75 z m -57.053851,-1.08713 c -0.369536,-0.59793 -0.144433,-1.61043 0.500229,-2.25 0.893438,-0.88639 1.020973,-0.76572 0.536413,0.50756 -0.460758,1.21073 0.0045,1.79245 1.690754,2.11382 2.241093,0.42712 2.246064,0.44838 0.135472,0.57957 -1.205041,0.0749 -2.493331,-0.35303 -2.862868,-0.95095 z M 84,125.26915 c -4.862173,-1.21274 -12.5,-4.49773 -12.5,-5.37618 0,-0.53292 1.005301,-0.40495 2.25,0.28641 1.2375,0.68736 2.5875,1.32195 3,1.41018 0.4125,0.0882 0.8625,0.25013 1,0.35975 0.1375,0.10962 1.375,0.39611 2.75,0.63664 1.375,0.24053 3.175,0.73072 4,1.08932 0.825,0.3586 1.8,0.69086 2.166667,0.73836 0.366666,0.0475 1.004166,0.42387 1.416666,0.83637 0.809448,0.80945 -0.883018,0.81738 -4.083333,0.0191 z m 34.3125,0.0477 c 0.72187,-0.28887 1.58437,-0.25335 1.91667,0.0789 0.33229,0.3323 -0.25834,0.56864 -1.3125,0.52522 -1.16495,-0.048 -1.4019,-0.28494 -0.60417,-0.60416 z m -62.46326,-5.76697 c -0.683152,-0.74387 -0.806598,-1.8099 -0.303795,-2.62345 0.687633,-1.11261 0.968891,-1.05268 1.49509,0.31857 0.913445,2.3804 0.180461,3.79855 -1.191295,2.30488 z M 30.345931,117.5612 c -0.894549,-1.96332 -0.792888,-2.7571 0.521439,-4.07143 1.850752,-1.85075 2.106476,-1.24368 0.634613,1.50653 -0.737516,1.37806 -0.588363,2.27446 0.571428,3.43425 0.863195,0.8632 1.077656,1.56945 0.476579,1.56945 -0.601077,0 -1.592904,-1.09746 -2.204059,-2.4388 z m 37.166677,1.46775 c -1.168964,-0.73909 -1.008401,-0.90434 0.75,-0.77188 1.230566,0.0927 2.237392,0.52278 2.237392,0.95573 0,1.0435 -1.159004,0.97217 -2.987392,-0.18385 z m 52.066342,-0.61228 c 0.048,-1.16495 0.28494,-1.4019 0.60416,-0.60417 0.28887,0.72187 0.25335,1.58437 -0.0789,1.91667 -0.3323,0.33229 -0.56864,-0.25834 -0.52522,-1.3125 z m 64.78993,0.24132 c 0.61257,-0.7381 0.78017,-1.71025 0.37244,-2.16032 -0.40772,-0.45008 -0.15697,-0.48111 0.55724,-0.069 1.00047,0.57734 1.02976,1.07324 0.12755,2.16033 -0.64405,0.77603 -1.396,1.41097 -1.671,1.41097 -0.275,0 0.001,-0.6039 0.61377,-1.34201 z M 148.15451,116.75 C 148.40945,116.3375 149.23992,116 150,116 c 0.76008,0 1.59055,0.3375 1.84549,0.75 0.25494,0.4125 -0.57553,0.75 -1.84549,0.75 -1.26996,0 -2.10043,-0.3375 -1.84549,-0.75 z m -12.57118,-0.033 c 0.22917,-0.15563 1.31667,-0.94313 2.41667,-1.75 1.85001,-1.35701 1.89707,-1.33579 0.62756,0.28297 -0.75485,0.9625 -1.84235,1.75 -2.41667,1.75 -0.57432,0 -0.85672,-0.12734 -0.62756,-0.28297 z m 85.36282,-0.80416 c -0.36954,-0.59793 -0.17109,-1.58793 0.44098,-2.2 0.81716,-0.81716 1.11287,-0.52829 1.11287,1.08713 0,2.41451 -0.51946,2.78655 -1.55385,1.11287 z M 110.37244,114.25 c -1.24387,-1.58606 -1.2085,-1.62143 0.37756,-0.37756 1.66575,1.30637 2.19548,2.12756 1.37244,2.12756 -0.20765,0 -0.99515,-0.7875 -1.75,-1.75 z m 22.24148,-2.30978 c -1.24421,-1.68289 -3.69133,-3.96772 -5.43806,-5.07742 -2.72893,-1.73369 -2.82404,-1.91772 -0.67586,-1.30771 2.02152,0.57405 10,7.84347 10,9.1113 0,1.24124 -1.97955,-0.14746 -3.88608,-2.72617 z m 16.38276,2.06516 c 0.33809,-0.54704 1.60214,-1.50258 2.80901,-2.12341 L 154,110.75318 l -2.20819,2.12341 c -2.30445,2.21598 -3.85374,2.84165 -2.79513,1.12879 z m 38.83665,-0.67205 C 187.83333,112.6 188.35833,112 189,112 c 0.64167,0 1.16667,0.6 1.16667,1.33333 0,0.73334 -0.525,1.33334 -1.16667,1.33334 -0.64167,0 -1.16667,-0.6 -1.16667,-1.33334 z m 38.68198,-0.0243 c 0.008,-0.44496 0.45153,-1.48402 0.98469,-2.30902 0.8354,-1.29269 0.97149,-1.26629 0.98469,0.19098 0.008,0.93004 -0.43469,1.9691 -0.98469,2.30902 -0.55,0.33992 -0.99311,0.25398 -0.98469,-0.19098 z m -8.55044,-1.36586 c -0.98628,-1.59583 0.31592,-5.64506 2.0265,-6.30147 0.82975,-0.31841 1.50863,-0.19119 1.50863,0.28271 0,0.47389 -0.675,1.12064 -1.5,1.43723 -1.81533,0.6966 -1.99495,4.27199 -0.25,4.97609 0.90131,0.36368 0.91777,0.52641 0.059,0.58333 -0.65504,0.0434 -1.48491,-0.39663 -1.84415,-0.97789 z M 191.5,110.80453 c 0,-0.56018 0.64681,-0.7703 1.43735,-0.46694 0.82718,0.31741 1.65183,-0.16781 1.94258,-1.14302 0.39652,-1.32993 0.4638,-1.28454 0.31265,0.21095 -0.19585,1.9379 -3.69258,3.2627 -3.69258,1.39901 z M 113,108.47391 c -2.2,-1.35501 -3.60312,-2.46597 -3.11803,-2.46879 1.02429,-0.006 7.61803,3.95516 7.61803,4.57644 0,0.63478 -0.19789,0.54209 -4.5,-2.10765 z M 137.77236,107 c 0,-2.475 0.19502,-3.4875 0.43337,-2.25 0.23836,1.2375 0.23836,3.2625 0,4.5 -0.23835,1.2375 -0.43337,0.225 -0.43337,-2.25 z m 4.45885,1.91984 c 0.35361,-1.3522 0.8069,-1.8055 1.05655,-1.05655 0.24048,0.72144 -0.0382,1.78716 -0.61931,2.36826 -0.74207,0.74207 -0.87221,0.35164 -0.43724,-1.31171 z m 19.12866,0.38585 c 1.27489,-2.43073 3.14013,-3.92743 3.14013,-2.51969 0,0.49721 -0.96548,1.76127 -2.14551,2.80901 -2.13061,1.89176 -2.13752,1.88975 -0.99462,-0.28932 z M 34.5,108.5 c -0.717549,-0.86459 -0.814738,-1.5 -0.229434,-1.5 0.558501,0 1.274478,0.675 1.59106,1.5 0.316583,0.825 0.419828,1.5 0.229434,1.5 -0.190394,0 -0.906371,-0.675 -1.59106,-1.5 z m 138.45888,-0.56653 c -1.02606,-1.66021 -0.10511,-1.89043 1.33055,-0.33261 0.70918,0.76953 0.84824,1.39914 0.30901,1.39914 -0.53922,0 -1.27702,-0.47994 -1.63956,-1.06653 z M 227.81332,107.5 c 0.51838,-1.92665 1.34891,-6.09091 9.24222,-46.340522 1.97821,-10.087288 3.44998,-18.487074 3.2706,-18.666193 -0.17938,-0.179118 -5.80744,-0.456844 -12.5068,-0.617168 -7.21796,-0.172735 -11.94546,-0.672058 -11.60337,-1.225562 0.5444,-0.880852 23.73318,-0.109032 25.27054,0.84111 0.37186,0.229818 -0.3164,5.27571 -1.52945,11.213093 C 238.744,58.642141 235.85044,73.4 233.52692,85.5 c -2.32352,12.1 -4.68068,22.45 -5.23814,23 -0.68187,0.67274 -0.83747,0.34548 -0.47546,-1 z m -51.23437,-1.08333 c 0.048,-1.16495 0.28494,-1.4019 0.60416,-0.60417 0.28887,0.72187 0.25335,1.58437 -0.0789,1.91667 -0.3323,0.33229 -0.56864,-0.25834 -0.52522,-1.3125 z m 12.24571,0.92534 c 0.36189,-0.3619 0.15679,-1.2619 -0.45578,-2 -1.33619,-1.61001 -0.45431,-1.72569 2.22487,-0.29184 2.17669,1.16493 1.68086,2.94983 -0.81943,2.94983 -0.88421,0 -1.31156,-0.2961 -0.94966,-0.65799 z m -14.24571,-1.92534 c 0.048,-1.16495 0.28494,-1.4019 0.60416,-0.60417 0.28887,0.72187 0.25335,1.58437 -0.0789,1.91667 -0.3323,0.33229 -0.56864,-0.25834 -0.52522,-1.3125 z m -67,-1 c 0.048,-1.16495 0.28494,-1.4019 0.60416,-0.60417 0.28887,0.72187 0.25335,1.58437 -0.0789,1.91667 -0.3323,0.33229 -0.56864,-0.25834 -0.52522,-1.3125 z m 115.74555,-0.74249 c -0.37205,-1.82482 -0.23268,-2.48236 0.39346,-1.85622 0.53328,0.53328 0.79255,1.8049 0.57615,2.82582 -0.29142,1.37482 -0.54288,1.12336 -0.96961,-0.9696 z m -54.26021,0.0327 c 0.37553,-0.98622 0.93469,-1.54122 1.24258,-1.23333 0.30789,0.30789 6.4e-4,1.11479 -0.68278,1.79313 -0.98762,0.98026 -1.10248,0.8654 -0.5598,-0.5598 z M 120,103 c 0.33992,-0.55 0.81648,-1 1.05902,-1 0.24254,0 0.44098,0.45 0.44098,1 0,0.55 -0.47656,1 -1.05902,1 -0.58246,0 -0.7809,-0.45 -0.44098,-1 z m -87.5,-1 c 0,-0.55 0.45,-1 1,-1 0.55,0 1,0.45 1,1 0,0.55 -0.45,1 -1,1 -0.55,0 -1,-0.45 -1,-1 z m 81.8125,0.31689 c 0.72187,-0.28887 1.58437,-0.25335 1.91667,0.0789 0.33229,0.3323 -0.25834,0.56864 -1.3125,0.52522 -1.16495,-0.048 -1.4019,-0.28494 -0.60417,-0.60416 z M 162.57938,95 c 1.67694,-3.3 3.21368,-6 3.41499,-6 0.70595,0 -1.26991,5.532202 -3.12285,8.743677 C 159.62082,103.37773 159.39584,101.2648 162.57938,95 Z M 37.231213,97.919841 c 0.353609,-1.352204 0.806902,-1.805497 1.05655,-1.056551 0.240481,0.721441 -0.03821,1.787158 -0.619313,2.36826 -0.742068,0.742068 -0.872211,0.351636 -0.437237,-1.311709 z M 142.57895,96.416667 c 0.048,-1.164943 0.28494,-1.4019 0.60416,-0.604167 0.28887,0.721875 0.25335,1.584375 -0.0789,1.916667 -0.3323,0.332291 -0.56864,-0.258334 -0.52522,-1.3125 z M 34.884934,93.560739 c -0.303763,-0.791594 -0.134384,-2.186029 0.376397,-3.098745 0.735407,-1.3141 0.947031,-1.01455 1.016798,1.439261 0.09411,3.309921 -0.491975,4.008026 -1.393195,1.659484 z M 223.75,93.919901 c 0.9625,-0.560605 1.75,-1.698478 1.75,-2.528608 0,-0.83013 -0.40285,-1.260354 -0.89522,-0.956054 -0.49236,0.304301 -1.14576,-0.09965 -1.45199,-0.897671 -0.4523,-1.178672 -0.12793,-1.255549 1.72855,-0.40968 C 227.07945,90.129414 228.11213,93 226.27432,93 c -0.4908,0 -0.61424,0.45 -0.27432,1 0.34539,0.55886 -0.40057,0.986586 -1.69098,0.969591 -2.04977,-0.02699 -2.11254,-0.144849 -0.55902,-1.04969 z M 37.5,89.422506 c 0,-0.562378 0.551232,-1.573738 1.224959,-2.247465 0.966613,-0.966613 0.966613,-1.638639 0,-3.186432 -1.900213,-3.042724 -1.457035,-5.790441 1.216476,-7.542192 1.342789,-0.87983 2.640588,-2.352704 2.883998,-3.273053 0.338203,-1.278768 0.469631,-1.319649 0.557344,-0.173364 0.06313,0.825 -1.00967,2.807493 -2.383998,4.405539 -2.914807,3.38929 -2.791693,2.857478 -1.379178,5.957611 0.894015,1.962149 0.793271,2.923155 -0.5,4.769559 C 38.22882,89.404476 37.5,89.984885 37.5,89.422506 Z m 128,-2.363489 c 0,-0.517541 0.44485,-1.215913 0.98855,-1.551938 0.56686,-0.350339 0.7345,0.05106 0.39301,0.940983 C 166.21677,88.180479 165.5,88.497449 165.5,87.059017 Z M 133.37244,83.25 c -1.24387,-1.586056 -1.2085,-1.621426 0.37756,-0.377555 0.9625,0.754844 1.75,1.542344 1.75,1.75 0,0.823034 -0.82119,0.293303 -2.12756,-1.372445 z m 90.78327,0.204816 c 0.30462,-0.793831 0.95671,-1.194356 1.44907,-0.890055 1.24011,0.766426 1.12596,1.132717 -0.55385,1.777323 -0.96661,0.370921 -1.26467,0.07551 -0.89522,-0.887268 z M 227.5,81.940983 c 0,-0.582459 0.45,-0.780902 1,-0.440983 0.55,0.339919 1,0.816476 1,1.059017 0,0.242541 -0.45,0.440983 -1,0.440983 -0.55,0 -1,-0.476558 -1,-1.059017 z M 106.25,79.337719 c 0.6875,-0.277412 1.8125,-0.277412 2.5,0 0.6875,0.277413 0.125,0.504386 -1.25,0.504386 -1.375,0 -1.9375,-0.226973 -1.25,-0.504386 z m 119.82143,-1.909148 c -2.16047,-2.160471 -1.96936,-2.694029 0.42857,-1.196498 1.1,0.686961 2,1.590775 2,2.008474 0,1.152998 -0.69645,0.920145 -2.42857,-0.811976 z M 114.3125,75.316886 c 0.72187,-0.288871 1.58437,-0.253344 1.91667,0.07895 0.33229,0.332292 -0.25834,0.568641 -1.3125,0.52522 -1.16495,-0.04798 -1.4019,-0.284941 -0.60417,-0.604167 z M 162.5,74.5 c -0.70675,-0.851583 -1.06,-1.773332 -0.785,-2.048332 0.275,-0.275 1.07825,0.196749 1.785,1.048332 0.70675,0.851583 1.06,1.773332 0.785,2.048332 -0.275,0.275 -1.07825,-0.196749 -1.785,-1.048332 z m -52.1875,-0.183114 c 0.72187,-0.288871 1.58437,-0.253344 1.91667,0.07895 0.33229,0.332292 -0.25834,0.568641 -1.3125,0.52522 -1.16495,-0.04798 -1.4019,-0.284941 -0.60417,-0.604167 z M 100,73 c 0.33992,-0.55 0.81648,-1 1.05902,-1 0.24254,0 0.44098,0.45 0.44098,1 0,0.55 -0.47656,1 -1.05902,1 C 99.858524,74 99.660081,73.55 100,73 Z m 5.3125,0.316886 c 0.72187,-0.288871 1.58437,-0.253344 1.91667,0.07895 0.33229,0.332292 -0.25834,0.568641 -1.3125,0.52522 -1.16495,-0.04798 -1.4019,-0.284941 -0.60417,-0.604167 z m 53.64638,-1.383417 c -0.36253,-0.586592 -0.44468,-1.281 -0.18255,-1.543128 0.26212,-0.262129 0.74306,0.21781 1.06875,1.066531 0.67618,1.762107 0.0999,2.072058 -0.8862,0.476597 z M 40.119195,71.192861 c -0.998201,-1.615123 0.103304,-4.59665 2.216593,-5.999822 C 43.74827,64.255186 44.5,64.145768 44.5,64.878028 44.5,65.495113 43.825,66 43,66 c -1.285401,0 -2.053799,2.492607 -1.618421,5.25 0.157,0.994334 -0.634685,0.9585 -1.262384,-0.05714 z M 102,70 c -0.33992,-0.55 -0.16803,-1 0.38197,-1 0.55,0 1.27811,0.45 1.61803,1 0.33992,0.55 0.16803,1 -0.38197,1 -0.55,0 -1.27811,-0.45 -1.61803,-1 z m 6.00708,-0.988546 c -0.35034,-0.56686 0.0511,-0.734507 0.94098,-0.393011 C 110.68048,69.283234 110.99745,70 109.55902,70 c -0.51754,0 -1.21592,-0.444846 -1.55194,-0.988546 z M 115.5,68.031385 c 0,-0.532739 0.675,-0.709594 1.5,-0.393011 0.825,0.316582 1.5,0.752459 1.5,0.968615 C 118.5,68.823145 117.825,69 117,69 c -0.825,0 -1.5,-0.435877 -1.5,-0.968615 z M 149,68 c 0.33992,-0.55 0.81648,-1 1.05902,-1 0.24254,0 0.44098,0.45 0.44098,1 0,0.55 -0.47656,1 -1.05902,1 -0.58246,0 -0.7809,-0.45 -0.44098,-1 z m 81.83333,-0.456011 c 0,-0.800807 0.375,-1.224249 0.83334,-0.940983 C 232.125,66.886271 232.5,67.541476 232.5,68.059017 232.5,68.576558 232.125,69 231.66667,69 c -0.45834,0 -0.83334,-0.655205 -0.83334,-1.456011 z M 35.290233,55.5 37.785631,43 48.892815,43.09968 c 12.747669,0.114402 11.047335,1.640268 -2.006526,1.80064 L 38.772578,45 36.413921,56.5 C 35.11666,62.825 33.771668,68 33.42505,68 33.078433,68 33.917765,62.375 35.290233,55.5 Z M 124.7971,67.369565 c 0.34674,-0.346739 4.71304,-0.630435 9.7029,-0.630435 4.98986,0 9.35616,0.283696 9.7029,0.630435 C 144.54964,67.716304 140.18333,68 134.5,68 c -5.68333,0 -10.04964,-0.283696 -9.7029,-0.630435 z M 227.5,65 c -0.90129,-0.58246 -1.02463,-0.975486 -0.30902,-0.984687 C 227.84602,64.006891 228.66008,64.45 229,65 c 0.7673,1.241525 0.42112,1.241525 -1.5,0 z M 43.74671,61.023438 C 42.266473,58.653202 42.097809,55 43.468615,55 c 0.532739,0 0.707395,0.680731 0.388125,1.512735 -0.31927,0.832004 -0.0376,2.166874 0.625925,2.966378 0.663529,0.799503 1.049893,1.923214 0.858586,2.497134 -0.191307,0.57392 -0.90885,0.145156 -1.594541,-0.952809 z M 233.20437,58.33067 c -0.71633,-1.159042 0.95298,-4.006654 1.83292,-3.126713 0.35532,0.355321 0.21706,1.412576 -0.30724,2.349456 -0.52431,0.936881 -1.21086,1.286647 -1.52568,0.777257 z M 67.5,53 c 0,-0.55 0.45,-1 1,-1 0.55,0 1,0.45 1,1 0,0.55 -0.45,1 -1,1 -0.55,0 -1,-0.45 -1,-1 z M 82,52.950825 c -1.913084,-0.775042 -1.916506,-0.813309 -0.07874,-0.88054 1.056693,-0.03866 2.744193,-0.815029 3.75,-1.725273 C 86.677067,49.434769 87.5,49.140025 87.5,49.690025 c 0,2.044124 -3.45178,4.09059 -5.5,3.2608 z M 123.5,53 c 0,-0.55 0.47656,-1 1.05902,-1 0.58246,0 0.7809,0.45 0.44098,1 -0.33992,0.55 -0.81648,1 -1.05902,1 C 123.69844,54 123.5,53.55 123.5,53 Z m 10.91129,-1.594432 c -2.24669,-2.39149 -4.50806,-2.24711 -6.66129,0.425298 -0.6875,0.853266 -1.25,1.040902 -1.25,0.416968 C 126.5,50.680017 130.53102,48 132.88917,48 c 1.06929,0 1.66559,0.278571 1.32512,0.619048 C 133.47183,49.361502 135.9342,52 137.36955,52 c 0.55683,0 1.24418,0.375 1.52744,0.833333 1.13842,1.841993 -2.50269,0.683057 -4.4857,-1.427765 z M 152,53 c -0.33992,-0.55 -0.14148,-1 0.44098,-1 0.58246,0 1.05902,0.45 1.05902,1 0,0.55 -0.19844,1 -0.44098,1 -0.24254,0 -0.7191,-0.45 -1.05902,-1 z m 27.5,0 c 0,-0.55 0.45,-1 1,-1 0.55,0 1,0.45 1,1 0,0.55 -0.45,1 -1,1 -0.55,0 -1,-0.45 -1,-1 z M 53.154923,51.543128 C 52.469387,49.756649 47.5,49.425825 47.5,51.166667 c 0,0.641666 -0.235592,0.931074 -0.523539,0.643128 -0.287946,-0.287946 -0.239801,-1.262946 0.106989,-2.166667 0.95251,-2.482201 6.117555,-2.160537 6.940468,0.432233 0.772076,2.432594 10e-4,3.734958 -0.868995,1.467767 z m 11.365133,-0.01896 C 63.824336,50.685875 62.158653,50 60.818538,50 59.448801,50 58.652568,49.562158 59,49 c 0.339919,-0.55 1.285292,-1 2.10083,-1 1.715715,0 6.014588,3.717916 5.218897,4.513606 -0.294099,0.294099 -1.103951,-0.151149 -1.799671,-0.98944 z M 98.904862,50.5 c 4.113468,-2.791472 5.636018,-3.059123 7.395138,-1.3 1.89177,1.89177 1.3996,2.941603 -0.74976,1.599303 -1.58208,-0.988029 -2.62564,-0.89534 -5.53393,0.491526 C 94.985687,53.689768 94.604329,53.418421 98.904862,50.5 Z M 164.5,52 c -0.90129,-0.58246 -1.02463,-0.975486 -0.30902,-0.984687 C 164.84602,51.006891 165.66008,51.45 166,52 c 0.7673,1.241525 0.42112,1.241525 -1.5,0 z m 11.67431,-0.754261 c -1.43596,-1.435963 -2.03074,-1.504235 -3.75013,-0.430459 -1.88364,1.176349 -1.95785,1.116148 -0.94865,-0.769549 1.38441,-2.586809 3.21298,-2.599903 5.53002,-0.0396 2.25055,2.48683 1.51415,3.585001 -0.83124,1.239608 z m 14.45644,0.06795 c -0.75308,-0.816524 -2.24128,-1.256546 -3.3071,-0.977827 -1.20319,0.314641 -1.79174,0.0627 -1.55243,-0.664552 0.70786,-2.151152 4.52751,-1.915906 5.74214,0.353648 1.40976,2.634161 0.9617,3.288395 -0.88261,1.288731 z M 114.03899,49.956922 C 115.01303,48.880615 116.41523,48 117.15499,48 c 2.41016,0 1.41779,1.534052 -1.77099,2.737684 -3.05476,1.153041 -3.08119,1.137695 -1.34501,-0.780762 z M 120.37244,50.25 C 119.12857,48.663944 119.16394,48.628574 120.75,49.872445 122.41575,51.178814 122.94548,52 122.12244,52 c -0.20765,0 -0.99515,-0.7875 -1.75,-1.75 z m 22.15797,1.122445 c -0.0167,-0.620156 0.66366,-1.703584 1.51197,-2.407619 1.25469,-1.041299 1.76763,-1.036686 2.75,0.02473 0.96552,1.043214 0.86209,1.183379 -0.51593,0.699152 -1.06013,-0.37252 -2.10695,0.05198 -2.71959,1.102821 -0.54783,0.939657 -1.00973,1.201067 -1.02645,0.580912 z m 56.53388,-0.665573 c 0.37553,-0.986221 0.93469,-1.541221 1.24258,-1.233333 0.30789,0.307887 6.4e-4,1.114794 -0.68278,1.793128 -0.98762,0.980267 -1.10248,0.865403 -0.5598,-0.559795 z M 212.5,51.043658 c 0,-0.53531 0.85821,-1.432592 1.90714,-1.993961 1.47571,-0.789774 2.43714,-0.560393 4.25,1.013974 2.28302,1.982678 2.28539,2.001704 0.0929,0.744939 -1.80587,-1.035126 -2.64479,-1.043156 -4.25,-0.04068 -1.10788,0.691881 -2,0.814874 -2,0.275731 z m 11.68806,0.311065 c -0.94256,-0.942554 3.08978,-3.610062 4.31369,-2.853639 1.62666,1.005331 1.13586,2.488954 -0.60267,1.821814 -0.88051,-0.337883 -1.92375,-0.092 -2.31831,0.546413 -0.39456,0.63841 -1.02128,0.856846 -1.39271,0.485412 z M 72.62129,49.353855 c 1.426072,-1.718312 6.11381,-1.413489 6.476591,0.421145 0.138666,0.70125 0.04068,0.865693 -0.217738,0.365428 -0.265972,-0.514882 -1.987857,-0.567208 -3.968115,-0.120587 -2.997594,0.676067 -3.32544,0.580753 -2.290738,-0.665986 z M 157.5,49.5 c 1.38751,-1.671843 4.57061,-2.003784 5.45729,-0.569098 0.31644,0.511996 0.11799,1.213553 -0.44098,1.559017 -0.55897,0.345463 -1.01631,0.135725 -1.01631,-0.466086 0,-0.771926 -0.5697,-0.789309 -1.93426,-0.05902 C 156.83413,51.426732 156.0478,51.249799 157.5,49.5 Z m 47,0.440983 c 0,-0.582459 0.45,-0.780902 1,-0.440983 0.55,0.339919 1,0.816476 1,1.059017 0,0.242541 -0.45,0.440983 -1,0.440983 -0.55,0 -1,-0.476558 -1,-1.059017 z M 88.5,49 c 0,-0.55 0.926558,-1 2.059017,-1 1.132459,0 1.780902,0.45 1.440983,1 -0.339919,0.55 -1.266476,1 -2.059017,1 C 89.148442,50 88.5,49.55 88.5,49 Z m 113,-0.05902 c 0,-0.582459 0.45,-0.780902 1,-0.440983 0.55,0.339919 1,0.816476 1,1.059017 0,0.242541 -0.45,0.440983 -1,0.440983 -0.55,0 -1,-0.476558 -1,-1.059017 z M 86,42.966869 C 97.008731,41.836983 125.26102,41.861944 123.5,43 c -0.86831,0.561143 -10.55427,0.909562 -23,0.827345 C 85.2248,43.726437 81.026679,43.477307 86,42.966869 Z M 157.5,42 c 2.00992,-1.298911 29.69723,-1.298911 30.5,0 0.40252,0.651283 -5.0692,0.99466 -15.69098,0.984687 C 161.40969,42.974454 156.49755,42.647834 157.5,42 Z m 34.8125,-0.683114 c 0.72187,-0.288871 1.58437,-0.253344 1.91667,0.07895 0.33229,0.332292 -0.25834,0.568641 -1.3125,0.52522 -1.16495,-0.04798 -1.4019,-0.284941 -0.60417,-0.604167 z"
         id="path3" /><path
         style="fill:#1a164e"
         d="m 53.826376,213.25016 c 28.504506,-0.14753 74.854504,-0.14749 103.000004,8e-5 28.14549,0.14758 4.82362,0.26829 -51.82638,0.26824 -56.65,-5e-5 -79.678131,-0.12079 -51.173624,-0.26832 z M 12.857866,205.25 c 0.270953,-0.9625 1.721104,-7.70792 3.222559,-14.98982 l 2.729917,-13.23983 93.094828,-0.26017 c 51.20216,-0.1431 93.22745,-0.20256 93.38955,-0.13213 0.2874,0.12487 -3.91604,19.14004 -5.88496,26.62195 l -0.98685,3.75 h -93.02884 c -88.119907,0 -93.00285,-0.0923 -92.536204,-1.75 z m 39.900807,-8.59229 c 3.267731,4.46331 4.280002,5.18359 7.75,5.51451 L 64.5,202.55285 v -10.27642 c 0,-5.65204 0.0094,-10.61393 0.02089,-11.02643 0.01149,-0.4125 -1.540282,-0.88828 -3.448386,-1.05729 L 57.603223,179.88542 57.30161,185.61956 57,191.35369 52.589214,185.62607 c -4.076929,-5.2941 -4.682457,-5.70486 -8,-5.42685 L 41,180.5 l -0.08126,10.69969 -0.08126,10.6997 3.581261,0.3003 L 48,202.5 48.5,197.01192 49,191.52383 Z M 77.5,191.18963 V 179.87927 L 73.75,180.18963 70,180.5 69.71316,190.91821 c -0.159009,5.77529 0.132676,10.67749 0.654508,11 0.517742,0.31999 2.33432,0.58179 4.03684,0.58179 H 77.5 Z m 13,7.20096 c 0,-1.86482 0.3375,-3.41652 0.75,-3.44821 6.003814,-0.46122 8.83184,-1.15896 10.38147,-2.56136 2.2719,-2.05604 2.47579,-7.63091 0.35658,-9.75011 -1.80518,-1.80518 -8.2691,-2.89994 -14.48805,-2.45376 L 83,180.5 l -0.288369,9.92882 c -0.158603,5.46085 -0.09281,10.43844 0.146211,11.06132 0.256696,0.66894 1.909686,0.96028 4.038368,0.71177 3.347077,-0.39075 3.60379,-0.66225 3.60379,-3.81132 z m 0,-10.33157 c 0,-2.35618 1.275166,-3.2744 3.409758,-2.45528 2.045636,0.78499 2.050591,3.00563 0.0085,3.78927 C 91.289276,190.40183 90.5,190.09381 90.5,188.05902 Z m 32.86079,14.31882 c 4.48896,-0.89779 7.80095,-4.41623 8.59801,-9.13396 1.42634,-8.44243 -4.87186,-13.93909 -14.87087,-12.97831 -6.71201,0.64494 -10.58793,4.73521 -10.58793,11.17348 0,8.58231 6.74934,12.96108 16.86079,10.93879 z m -7.80658,-6.81252 c -1.60575,-1.93481 -0.93745,-7.62384 1.04101,-8.86173 0.87738,-0.54895 2.78988,-0.69826 4.25,-0.33179 2.22169,0.5576 2.65478,1.22084 2.65478,4.06546 0,1.86954 -0.27314,4.11097 -0.60699,4.98095 -0.76338,1.98934 -5.7273,2.08885 -7.3388,0.14711 z m 38.38895,5.06388 c 1.92557,-1.26168 2.55684,-2.52805 2.55684,-5.1292 0,-4.062 -2.09053,-5.76913 -9.25,-7.55355 C 142.16757,186.67972 140.88489,185 145,185 c 1.375,0 2.5,0.45 2.5,1 0,0.55 1.8,1 4,1 4.28991,0 5.0226,-1.21925 2.66787,-4.43953 -1.87053,-2.55811 -10.12799,-3.23071 -14.94641,-1.21745 -3.29478,1.37665 -3.72146,1.95803 -3.72146,5.07077 0,3.86401 1.36208,5.00514 8.5,7.12117 4.18789,1.24149 5.3652,3.67474 2.08376,4.30668 -1.07247,0.20654 -2.61362,-0.51347 -3.5,-1.63516 -2.25952,-2.85934 -8.33349,-1.96228 -7.88741,1.16489 0.73094,5.12403 13.18209,7.23158 19.24681,3.25783 z M 174.5,193.89496 V 186 h 3.5 c 3.22222,0 3.5,-0.2381 3.5,-3 v -3 H 170 158.5 v 3 c 0,2.7619 0.27778,3 3.5,3 h 3.5 v 7.83333 c 0,4.30834 0.20162,8.03496 0.44805,8.28138 0.24642,0.24643 2.27142,0.27416 4.5,0.0616 L 174.5,201.78993 Z m -151,-23.27838 c 0,-0.21089 1.111382,-0.59588 2.469738,-0.85555 1.358355,-0.25966 2.231798,-0.0871 1.940983,0.38343 C 27.398641,170.97302 23.5,171.39033 23.5,170.61658 Z m 11.269032,-0.30957 c 0.972967,-0.25354 2.322967,-0.23687 3,0.0371 C 38.446064,170.61804 37.65,170.82548 36,170.8051 c -1.65,-0.0204 -2.203936,-0.2445 -1.230968,-0.49804 z m 14,0 c 0.972967,-0.25354 2.322967,-0.23687 3,0.0371 C 52.446064,170.61804 51.65,170.82548 50,170.8051 c -1.65,-0.0204 -2.203936,-0.2445 -1.230968,-0.49804 z m 13.543468,0.01 c 0.721875,-0.28887 1.584375,-0.25335 1.916667,0.0789 0.332291,0.33229 -0.258334,0.56864 -1.3125,0.52522 -1.164943,-0.048 -1.4019,-0.28494 -0.604167,-0.60416 z m 41.9375,0.0208 c 0.6875,-0.27741 1.8125,-0.27741 2.5,0 0.6875,0.27741 0.125,0.50439 -1.25,0.50439 -1.375,0 -1.9375,-0.22698 -1.25,-0.50439 z m 4.25,0.28472 c 0,-0.20765 0.7875,-0.99515 1.75,-1.75 1.58606,-1.24387 1.62143,-1.2085 0.37756,0.37756 -1.30637,1.66575 -2.12756,2.19548 -2.12756,1.37244 z M 138,169 c 0.99549,-1.1 2.03498,-2 2.30998,-2 0.275,0 -0.31449,0.9 -1.30998,2 -0.99549,1.1 -2.03498,2 -2.30998,2 -0.275,0 0.31449,-0.9 1.30998,-2 z m 12.5,1.62244 c 0,-0.20765 0.7875,-0.99515 1.75,-1.75 1.58606,-1.24387 1.62143,-1.2085 0.37756,0.37756 -1.30637,1.66575 -2.12756,2.19548 -2.12756,1.37244 z M 166,169 c 0.99549,-1.1 2.03498,-2 2.30998,-2 0.275,0 -0.31449,0.9 -1.30998,2 -0.99549,1.1 -2.03498,2 -2.30998,2 -0.275,0 0.31449,-0.9 1.30998,-2 z m 23.3125,1.31689 c 0.72187,-0.28887 1.58437,-0.25335 1.91667,0.0789 0.33229,0.33229 -0.25834,0.56864 -1.3125,0.52522 -1.16495,-0.048 -1.4019,-0.28494 -0.60417,-0.60416 z M 123.5,168.60699 c 0,-0.21616 0.69837,-0.661 1.55194,-0.98855 0.88992,-0.34149 1.29132,-0.17385 0.94098,0.39301 -0.58726,0.95021 -2.49292,1.40545 -2.49292,0.59554 z m 56.73333,-0.73108 c 0.67834,-0.68342 1.48524,-0.99067 1.79313,-0.68278 0.30789,0.30789 -0.24711,0.86705 -1.23333,1.24258 -1.4252,0.54268 -1.54006,0.42782 -0.5598,-0.5598 z M 20.583333,161.63545 C 20.8125,161.43495 22.125,160.73513 23.5,160.08029 c 2.357268,-1.12265 2.389176,-1.10183 0.55887,0.36454 -1.592998,1.27626 -4.847861,2.39128 -3.475537,1.19062 z M 209.5,161 c -0.90129,-0.58246 -1.02463,-0.97549 -0.30902,-0.98469 0.65504,-0.008 1.4691,0.43469 1.80902,0.98469 0.7673,1.24153 0.42112,1.24153 -1.5,0 z m -87.30945,-5.0344 c -2.0952,-0.52748 -11.804,-4.76229 -21.57512,-9.41069 C 80.71392,137.0872 72.124809,133.95052 59,131.35727 c -4.95,-0.97804 -9.104674,-1.82571 -9.23261,-1.88371 -0.127935,-0.058 0.311834,-1.54784 0.977265,-3.31077 0.909006,-2.40823 0.927503,-3.65747 0.07438,-5.02353 -1.799843,-2.88201 -0.192099,-4.49417 3.021602,-3.02991 2.881372,1.31284 3.345471,2.80454 1.459358,4.69065 -1.835155,1.83515 -0.07577,2.71463 8.081248,4.03965 10.538054,1.71178 20.347568,5.22665 38.618757,13.83756 23.8283,11.2299 24.98915,11.63613 33.53428,11.73533 6.54725,0.076 8.38134,-0.32948 14,-3.09511 5.43043,-2.67299 5.99928,-2.80628 3.55268,-0.83243 -8.30306,6.69862 -21.40352,9.87048 -30.89641,7.4806 z m -96.957217,-8.08969 c 0.678334,-0.68342 1.485241,-0.99067 1.793128,-0.68278 0.307888,0.30789 -0.247112,0.86705 -1.233333,1.24258 -1.425198,0.54268 -1.540062,0.42782 -0.559795,-0.5598 z M 211.22222,142.9496 c 1.22222,-1.28617 2.41565,-2.13849 2.65206,-1.89404 0.23641,0.24444 -0.76359,1.29676 -2.22222,2.33849 L 209,145.2881 Z M 170,134 c 2.14824,-2.2 4.1309,-4 4.4059,-4 0.275,0 -1.25766,1.8 -3.4059,4 -2.14824,2.2 -4.1309,4 -4.4059,4 -0.275,0 1.25766,-1.8 3.4059,-4 z m 43.15499,2.17126 c -0.91025,-1.00581 -1.65499,-2.32315 -1.65499,-2.92742 0,-1.30971 4.79552,-5.24543 6.38486,-5.2401 0.61333,0.002 -0.34736,0.89544 -2.13486,1.9853 -3.65707,2.22976 -3.99313,3.53232 -1.59501,6.18222 0.91024,1.00581 1.42999,1.82874 1.15499,1.82874 -0.275,0 -1.24475,-0.82293 -2.15499,-1.82874 z M 28.372445,130.25 c -1.243871,-1.58606 -1.208501,-1.62143 0.377555,-0.37756 0.9625,0.75485 1.75,1.54235 1.75,1.75 0,0.82304 -0.821186,0.29331 -2.127555,-1.37244 z m 67.391305,-3.96758 c 1.520062,-0.22986 3.770062,-0.22371 5,0.0136 1.22994,0.23736 -0.0138,0.42542 -2.76375,0.41792 -2.75,-0.008 -3.756313,-0.20172 -2.23625,-0.43157 z m 10.48625,0.0118 c 1.2375,-0.23836 3.2625,-0.23836 4.5,0 1.2375,0.23835 0.225,0.43337 -2.25,0.43337 -2.475,0 -3.4875,-0.19502 -2.25,-0.43337 z m -16.9375,-0.97738 c 0.721875,-0.28887 1.584375,-0.25335 1.916667,0.0789 0.332291,0.3323 -0.258334,0.56864 -1.3125,0.52522 -1.164943,-0.048 -1.4019,-0.28494 -0.604167,-0.60416 z m 25.79791,-0.74402 c 0.30121,-0.78493 -0.37048,-3.5027 -1.49262,-6.03949 -1.72836,-3.90725 -2.84878,-4.97176 -7.32903,-6.96333 L 101,109.21908 l 2.75,-1.27005 c 1.5125,-0.69853 2.75689,-1.98533 2.76531,-2.85955 0.01,-0.98746 0.29358,-1.18248 0.75,-0.5149 0.40408,0.59102 2.69131,2.16117 5.08273,3.48924 4.93133,2.73859 6.65834,5.46171 7.6476,12.05855 0.63681,4.24652 0.51109,4.64372 -1.65321,5.22317 -3.41404,0.91406 -3.84018,0.81218 -3.23202,-0.77267 z m 63.38959,0.0496 c 0,-0.20765 0.7875,-0.99515 1.75,-1.75 1.58606,-1.24387 1.62143,-1.2085 0.37756,0.37756 -1.30637,1.66575 -2.12756,2.19548 -2.12756,1.37244 z m 36.07895,-3.20577 c 0.048,-1.16495 0.28494,-1.4019 0.60416,-0.60417 0.28887,0.72187 0.25335,1.58437 -0.0789,1.91667 -0.3323,0.33229 -0.56864,-0.25834 -0.52522,-1.3125 z M 182.5,119.92698 c 0,-0.4362 2.1375,-2.49082 4.75,-4.56583 6.07993,-4.82905 8.62387,-6.39392 4.75,-2.92189 -6.92012,6.2023 -9.5,8.23571 -9.5,7.48772 z m 34.44113,-2.37181 c 1.06762,-0.85535 2.64262,-1.51964 3.5,-1.47622 1.3466,0.0682 1.35461,0.15468 0.0589,0.63512 -0.825,0.3059 -2.4,0.9702 -3.5,1.47622 -1.968,0.90532 -1.96894,0.89516 -0.0589,-0.63512 z M 60.5,115 c -3.025,-1.5981 -5.05,-2.90564 -4.5,-2.90564 0.55,0 3.475,1.30754 6.5,2.90564 3.025,1.5981 5.05,2.90564 4.5,2.90564 -0.55,0 -3.475,-1.30754 -6.5,-2.90564 z m 87.54271,2.0691 c -0.31644,-0.512 -0.0485,-1.25653 0.59549,-1.65451 0.73122,-0.45192 0.90292,-0.29014 0.45729,0.4309 -1.16522,1.88537 1.91304,1.32894 4.67738,-0.84549 1.39842,-1.1 2.89654,-2 3.32914,-2 0.4326,0 -0.7383,1.125 -2.60201,2.5 -3.57502,2.63757 -5.50683,3.10699 -6.45729,1.5691 z m -10.84067,-4.17364 c 1.7783,-3.56469 1.19245,-12.26503 -1.12805,-16.752372 C 131.69048,87.666301 118.69783,80.960424 100.75,77.911359 96.7625,77.233944 93.5,76.37905 93.5,76.011595 c 0,-0.367454 2.236145,-1.184263 4.969211,-1.81513 4.345419,-1.003042 6.158439,-0.845358 14.442729,1.256123 10.98331,2.786146 17.11283,5.320419 22.13725,9.152725 8.63832,6.588775 11.07671,20.932097 4.82213,28.365247 -3.29676,3.91797 -4.6424,3.88011 -2.66928,-0.0751 z M 32.5,112.60699 c 0,-0.21616 0.698372,-0.661 1.551938,-0.98855 0.889925,-0.34149 1.291322,-0.17385 0.940983,0.39301 C 34.405663,112.96166 32.5,113.4169 32.5,112.60699 Z m 121.08599,-3.22521 c 1.32771,-1.71502 2.61515,-2.93888 2.86098,-2.71969 0.24583,0.21918 -0.84047,1.62238 -2.41401,3.11821 l -2.86098,2.7197 z m 4.91401,2.24066 c 0,-0.20765 0.7875,-0.99515 1.75,-1.75 1.58606,-1.24387 1.62143,-1.2085 0.37756,0.37756 -1.30637,1.66575 -2.12756,2.19548 -2.12756,1.37244 z M 174.0717,107.25 c 0.49777,-0.4125 1.24088,-1.2 1.65135,-1.75 0.42591,-0.57068 0.7529,-0.24868 0.76164,0.75 0.009,0.97279 -0.72489,1.75 -1.65136,1.75 -0.91666,0 -1.2594,-0.3375 -0.76163,-0.75 z m 16.98594,-0.15674 c -0.30822,-0.49871 0.34022,-0.67122 1.44098,-0.38337 2.33499,0.61061 2.63015,1.29011 0.5604,1.29011 -0.79254,0 -1.69316,-0.40803 -2.00138,-0.90674 z m -26.12507,-0.98416 c 0.71346,-1.15439 4.56743,-3.48267 4.56743,-2.75929 0,0.23109 -1.18041,1.1936 -2.62312,2.13891 -1.44272,0.9453 -2.31766,1.22448 -1.94431,0.62038 z M 122.5,104 c -0.825,-0.53316 -1.05,-0.96937 -0.5,-0.96937 0.55,0 1.675,0.43621 2.5,0.96937 0.825,0.53316 1.05,0.96937 0.5,0.96937 -0.55,0 -1.675,-0.43621 -2.5,-0.96937 z m 62.55887,-1.5318 C 183.99125,101.66069 183.59865,101 184.18643,101 c 0.58777,0 1.62888,0.675 2.31357,1.5 1.5572,1.87632 1.06734,1.86551 -1.44113,-0.0318 z m -73.74637,-0.15131 c 0.72187,-0.28887 1.58437,-0.25335 1.91667,0.0789 0.33229,0.3323 -0.25834,0.56864 -1.3125,0.52522 -1.16495,-0.048 -1.4019,-0.28494 -0.60417,-0.60416 z m 5.9375,0.0208 c 0.6875,-0.27741 1.8125,-0.27741 2.5,0 0.6875,0.27741 0.125,0.50439 -1.25,0.50439 -1.375,0 -1.9375,-0.22698 -1.25,-0.50439 z m 103.69113,-0.89289 c -1.86402,-1.493388 -1.85176,-1.511852 0.30887,-0.46481 1.2375,0.59969 2.25,1.29951 2.25,1.55516 0,0.76522 -0.51861,0.54424 -2.55887,-1.09035 z M 34.5,101.57037 c 0,-0.275 0.9,-0.98167 2,-1.57037 1.1,-0.588702 2,-0.845368 2,-0.570368 0,0.275 -0.9,0.981668 -2,1.570368 -1.1,0.5887 -2,0.84537 -2,0.57037 z m 139.11514,-0.66269 c 1.29674,-0.82125 9.70674,-1.337926 8.80153,-0.54073 -0.22917,0.20182 -2.61486,0.60338 -5.30153,0.89236 -2.98646,0.32122 -4.34666,0.18457 -3.5,-0.35163 z M 166.65789,83 c 0,-1.375 0.22698,-1.9375 0.50439,-1.25 0.27741,0.6875 0.27741,1.8125 0,2.5 -0.27741,0.6875 -0.50439,0.125 -0.50439,-1.25 z m 62,-3 c 0,-1.375 0.22698,-1.9375 0.50439,-1.25 0.27741,0.6875 0.27741,1.8125 0,2.5 -0.27741,0.6875 -0.50439,0.125 -0.50439,-1.25 z m -3.95261,-6.115834 c 0.2504,-0.751209 1.99415,-2.181063 3.875,-3.177453 1.88085,-0.996391 2.55921,-1.225515 1.50747,-0.509166 -1.05174,0.716349 -2.79549,2.146203 -3.875,3.177453 -1.1728,1.120362 -1.77951,1.325288 -1.50747,0.509166 z M 98.166667,72.333333 c -1.416285,-1.416285 -0.552121,-2.327661 2.083333,-2.197151 2.58817,0.128168 2.60805,0.162935 0.33789,0.590794 -1.866468,0.351775 -2.092677,0.656819 -0.999999,1.348506 0.776659,0.491641 0.924609,0.900783 0.328776,0.909205 -0.595834,0.0084 -1.383334,-0.284687 -1.75,-0.651354 z M 153.5,69.437132 c -2.2277,-0.842863 -2.77297,-1.331884 -1.5,-1.345254 1.1,-0.01155 3.125,0.622101 4.5,1.408122 3.0548,1.746281 1.70694,1.718035 -3,-0.06287 z M 106,69.051029 c 3.0846,-0.837367 10.16071,-1.345515 9.41667,-0.676228 -0.22917,0.20614 -3.11667,0.625862 -6.41667,0.932714 -3.94543,0.366868 -4.97271,0.27904 -3,-0.256486 z m 12.25,-1.756762 c 1.2375,-0.238353 3.2625,-0.238353 4.5,0 1.2375,0.238353 0.225,0.433369 -2.25,0.433369 -2.475,0 -3.4875,-0.195016 -2.25,-0.433369 z m 27.51903,0.01274 c 0.97297,-0.253543 2.32297,-0.236869 3,0.03705 0.67703,0.273923 -0.11903,0.481368 -1.76903,0.460988 -1.65,-0.02038 -2.20394,-0.244498 -1.23097,-0.498042 z m 83.1721,-0.862175 c -1.86402,-1.493392 -1.85176,-1.511856 0.30887,-0.464816 1.2375,0.599692 2.25,1.299517 2.25,1.555166 0,0.76522 -0.51861,0.544238 -2.55887,-1.09035 z M 130.75,66.271532 c 2.0625,-0.215745 5.4375,-0.215745 7.5,0 2.0625,0.215744 0.375,0.392262 -3.75,0.392262 -4.125,0 -5.8125,-0.176518 -3.75,-0.392262 z M 45.057298,53.581761 c 2.094564,-1.531582 3.043755,-1.363302 1.983821,0.351708 C 46.678585,54.520061 45.647515,55 44.749853,55 c -1.364964,0 -1.31464,-0.232141 0.307445,-1.418239 z m 93.176032,-0.705849 c 0.67834,-0.683418 1.48524,-0.990671 1.79313,-0.682784 0.30789,0.307887 -0.24711,0.867048 -1.23333,1.242579 -1.4252,0.542685 -1.54006,0.427821 -0.5598,-0.559795 z M 55.25,52.337719 c 0.6875,-0.277412 1.8125,-0.277412 2.5,0 0.6875,0.277413 0.125,0.504386 -1.25,0.504386 -1.375,0 -1.9375,-0.226973 -1.25,-0.504386 z m 14.25,0.232649 c 0,-0.275 0.9,-0.981666 2,-1.570368 1.1,-0.588702 2,-0.845368 2,-0.570368 0,0.275 -0.9,0.981666 -2,1.570368 -1.1,0.588702 -2,0.845368 -2,0.570368 z m 23.507079,-0.558914 c -0.350339,-0.56686 0.05106,-0.734507 0.940983,-0.393011 C 95.680479,52.283234 95.997449,53 94.559017,53 94.041476,53 93.343104,52.555154 93.007079,52.011454 Z m 15.082201,0.133003 c -0.29082,-0.470549 0.58263,-0.643089 1.94098,-0.383423 1.35836,0.259666 2.46974,0.644661 2.46974,0.855543 0,0.77375 -3.89864,0.356443 -4.41072,-0.47212 z M 119.90499,50.75 118,48.5 l 2.5,1.989343 c 1.375,1.094139 2.6875,2.106639 2.91667,2.25 C 123.64583,52.882704 123.37808,53 122.82165,53 c -0.55642,0 -1.86892,-1.0125 -2.91666,-2.25 z m 29,0 L 147,48.5 l 2.25,1.904988 C 151.36444,52.195206 151.95524,53 151.15499,53 c -0.18976,0 -1.20226,-1.0125 -2.25,-2.25 z M 153.5,52.606989 c 0,-0.216156 0.69837,-0.661002 1.55194,-0.988546 0.88992,-0.341496 1.29132,-0.173849 0.94098,0.393011 -0.58726,0.950204 -2.49292,1.405448 -2.49292,0.595535 z m 28.08333,0.110043 C 181.8125,52.5614 182.9,51.7739 184,50.967032 c 1.85001,-1.357009 1.89707,-1.335787 0.62756,0.282968 -0.75485,0.9625 -1.84235,1.75 -2.41667,1.75 -0.57432,0 -0.85672,-0.127335 -0.62756,-0.282968 z m 14,0 C 195.8125,52.5614 196.9,51.7739 198,50.967032 c 1.85001,-1.357009 1.89707,-1.335787 0.62756,0.282968 -0.75485,0.9625 -1.84235,1.75 -2.41667,1.75 -0.57432,0 -0.85672,-0.127335 -0.62756,-0.282968 z M 206.15451,52.25 C 205.89957,51.8375 207.18004,51.5 209,51.5 c 1.81996,0 3.10043,0.3375 2.84549,0.75 C 211.59055,52.6625 210.31008,53 209,53 c -1.31008,0 -2.59055,-0.3375 -2.84549,-0.75 z M 64.25,43.262758 c 2.8875,-0.202002 7.6125,-0.202002 10.5,0 2.8875,0.202003 0.525,0.367277 -5.25,0.367277 -5.775,0 -8.1375,-0.165274 -5.25,-0.367277 z m 68,-1.006746 c 4.5375,-0.185293 11.9625,-0.185293 16.5,0 4.5375,0.185294 0.825,0.336897 -8.25,0.336897 -9.075,0 -12.7875,-0.151603 -8.25,-0.336897 z m 56,-0.918293 c 0.6875,-0.277412 1.8125,-0.277412 2.5,0 0.6875,0.277413 0.125,0.504386 -1.25,0.504386 -1.375,0 -1.9375,-0.226973 -1.25,-0.504386 z m 11.53651,-0.0778 c 3.18258,-0.19905 8.13258,-0.197204 11,0.0041 2.86742,0.201306 0.26349,0.364165 -5.78651,0.361909 -6.05,-0.0023 -8.39607,-0.166961 -5.21349,-0.366011 z m 17.52599,0.05696 c 0.72187,-0.288871 1.58437,-0.253344 1.91667,0.07895 0.33229,0.332292 -0.25834,0.568641 -1.3125,0.52522 -1.16495,-0.04798 -1.4019,-0.284941 -0.60417,-0.604167 z M 236.5,41 231,40.325993 l 5.75,-0.162996 c 3.27533,-0.09285 5.75,0.26738 5.75,0.837003 0,0.55 -0.1125,0.926652 -0.25,0.837003 C 242.1125,41.747355 239.525,41.370704 236.5,41 Z"
         id="path2" /></g></g></svg>
