<?xml version="1.0" encoding="UTF-8" standalone="no"?>
<!-- Created with Inkscape (http://www.inkscape.org/) -->

<svg
   version="1.1"
   id="svg1"
   width="247"
   height="256"
   viewBox="0 0 247 256"
   xml:space="preserve"
   xmlns="http://www.w3.org/2000/svg"
   xmlns:svg="http://www.w3.org/2000/svg"><defs
     id="defs1" /><g
     id="g1"><g
       id="g5"
       transform="translate(0.92592259,-0.92592544)"><path
         style="fill:#f9faf6"
         d="M -6.9510164,128.50777 V -14.455196 H 121.71566 250.38233 V 128.50777 271.47074 H 121.71566 -6.9510164 Z m 119.3322064,89.56029 -6.54486,-6.54486 -10.325267,10.30234 -10.325266,10.30235 6.539249,6.5734 6.53925,6.57339 10.330884,-10.33088 10.33088,-10.33088 z m 44.50189,20.22189 6.14044,-6.17666 -72.297942,-72.61451 -72.297938,-72.614509 -6.335419,6.29826 c -3.4844798,3.464044 -6.335418,6.647606 -6.335418,7.074589 0,1.04582 143.117137,144.2095 144.162627,144.2095 0.45276,0 3.5864,-2.7795 6.96365,-6.17667 z m 18.22756,-18.22754 c 3.3951,-3.37519 6.17292,-6.33241 6.17292,-6.57159 0,-0.69923 -143.653805,-144.550952 -144.35208,-144.550952 -0.348564,0 -3.465888,2.848844 -6.927388,6.330765 l -6.293635,6.330766 72.22166,72.298871 c 39.721913,39.76437 72.398043,72.29886 72.613633,72.29886 0.21558,0 3.16978,-2.76152 6.56489,-6.13672 z m -85.962135,-5.37637 9.900784,-9.92461 -6.319995,-6.35728 c -3.475998,-3.49651 -6.589311,-6.35728 -6.918473,-6.35728 -0.329163,0 -5.06457,4.55694 -10.523125,10.12654 l -9.924647,10.12654 6.117546,6.15535 c 3.36465,3.38545 6.488701,6.15535 6.942336,6.15535 0.453634,0 5.280143,-4.46607 10.725574,-9.92461 z m 105.179625,-13.84182 6.25628,-6.29319 -72.37534,-72.535 -72.375345,-72.535011 -6.373851,6.335277 c -3.505618,3.484402 -6.373851,6.644033 -6.373851,7.021401 0,1.006263 143.128597,144.299703 144.133707,144.299703 0.46867,0 3.66745,-2.83193 7.1084,-6.29318 z M 68.714931,194.61384 78.833266,184.473 l -6.569735,-6.53561 -6.569735,-6.53561 -10.296036,10.31894 -10.296035,10.31894 6.320224,6.35752 c 3.476123,3.49663 6.512469,6.35751 6.747436,6.35751 0.234966,0 4.980462,-4.56338 10.545546,-10.14085 z M 212.43986,182.7332 c 3.3951,-3.3752 6.17292,-6.48004 6.17292,-6.89964 0,-1.04019 -143.118246,-144.222911 -144.157963,-144.222911 -0.455329,0 -3.608889,2.797425 -7.007912,6.216502 l -6.180042,6.216502 72.111487,72.413127 c 39.66131,39.82722 72.28633,72.41313 72.50003,72.41313 0.21371,0 3.16637,-2.76152 6.56148,-6.13671 z M 48.435665,175.18121 c 5.357491,-5.34463 9.740893,-10.08866 9.740893,-10.54229 0,-0.45364 -2.854113,-3.66217 -6.342474,-7.13007 l -6.342475,-6.30527 -9.939419,10.01903 c -5.466681,5.51048 -9.939419,10.31407 -9.939419,10.67465 0,0.69926 11.995878,13.00146 12.677717,13.00146 0.222356,0 4.787685,-4.37288 10.145177,-9.71751 z m 183.286655,-11.73157 6.32124,-6.35853 -72.4511,-72.460119 -72.451102,-72.460114 -6.367723,6.330376 c -3.502248,3.481707 -6.267751,6.630291 -6.145563,6.996855 0.401762,1.205288 143.127708,144.247552 143.960128,144.279182 0.44708,0.017 3.65743,-2.83045 7.13412,-6.32765 z M 32.163083,137.84995 25.61822,131.30509 15.292953,141.60744 4.9676867,151.90978 l 6.5392493,6.5734 6.53925,6.5734 10.33088,-10.33088 10.33088,-10.33088 z M 231.517,98.932255 l -6.54486,-6.544863 -10.32527,10.302348 -10.32527,10.30235 6.53925,6.57339 6.53925,6.5734 10.33088,-10.33088 10.33088,-10.33088 z m -23.48621,-3.479334 9.98564,-10.021927 -6.65985,-6.659844 -6.65984,-6.659845 -10.28654,10.339432 -10.28654,10.339432 6.30515,6.342339 c 3.46782,3.488292 6.60016,6.342342 6.96074,6.342342 0.36059,0 5.14915,-4.50987 10.64124,-10.021929 z m -20.18005,-19.974885 10.11833,-10.140845 -6.56973,-6.535607 -6.56974,-6.535607 -10.29603,10.318941 -10.29604,10.318941 6.32023,6.357511 c 3.47612,3.496631 6.51247,6.35751 6.74743,6.35751 0.23497,0 4.98046,-4.56338 10.54555,-10.140844 z M 167.42803,55.806594 c 5.43638,-5.475976 9.88434,-10.220009 9.88434,-10.542296 0,-0.322287 -2.86078,-3.429975 -6.35729,-6.905972 l -6.35728,-6.319995 -9.92461,9.900784 c -5.45854,5.445431 -9.92461,10.255647 -9.92461,10.689369 0,0.695767 11.8703,13.134429 12.53427,13.134429 0.14346,0 4.70879,-4.480344 10.14518,-9.956319 z m -16.12914,-37.092448 -6.54486,-6.544863 -10.32527,10.302347 -10.32527,10.302346 6.53925,6.573397 6.53925,6.573397 10.33088,-10.33088 10.33088,-10.330881 z"
         id="path8" /><path
         style="fill:#8ea059"
         d="m 140.73724,235.92822 c -4.56465,-4.66748 -8.05218,-8.31919 -7.75006,-8.11491 1.3993,0.94615 16.53534,16.11531 16.30748,16.34317 -0.14193,0.14193 -3.99277,-3.56079 -8.55742,-8.22826 z m 15.32948,2.5638 6.15559,-6.37172 -2.16635,-2.16635 c -1.19149,-1.19149 -1.97328,-2.16634 -1.73731,-2.16634 0.23597,0 1.38394,0.9967 2.55104,2.2149 l 2.12201,2.2149 -6.54028,6.32317 -6.54029,6.32316 z m -62.250729,2.20197 c -0.98793,-1.25971 -0.959838,-1.2878 0.299869,-0.29987 1.323002,1.03757 1.743734,1.68979 1.090049,1.68979 -0.164928,0 -0.790391,-0.62547 -1.389918,-1.38992 z m 7.249459,1.09005 c 0,-0.16493 0.62546,-0.79039 1.38992,-1.38992 1.2597,-0.98793 1.2878,-0.95984 0.29987,0.29987 -1.03757,1.323 -1.68979,1.74373 -1.68979,1.09005 z m 5.55967,-5.55967 c 0,-0.16493 0.62546,-0.7904 1.38992,-1.38992 1.2597,-0.98793 1.2878,-0.95984 0.29987,0.29987 -1.03757,1.323 -1.68979,1.74373 -1.68979,1.09005 z m -20.105699,-2.71423 c -1.213852,-1.34129 -0.680723,-2.0337 9.013373,-11.70628 l 10.303536,-10.28066 6.54974,6.73594 6.54975,6.73594 -6.55584,-6.33228 -6.55584,-6.33228 -9.900539,9.87676 c -9.314561,9.2922 -9.824164,9.96116 -8.610157,11.30262 0.709709,0.78422 1.111676,1.42586 0.89326,1.42586 -0.218415,0 -0.977693,-0.64153 -1.687283,-1.42562 z m 28.048089,-5.32541 c 1.02595,-1.09208 2.04407,-1.9856 2.26249,-1.9856 0.21841,0 -0.4423,0.89352 -1.46825,1.9856 -1.02596,1.09208 -2.04408,1.98559 -2.2625,1.98559 -0.21841,0 0.4423,-0.89351 1.46826,-1.98559 z M 81.209481,176.55921 C 53.473274,148.82043 31.038633,126.12505 31.354724,126.12505 c 0.316091,0 2.875102,2.32315 5.686692,5.16256 2.811589,2.8394 5.500525,5.16255 5.975413,5.16255 0.474888,0 0.863432,0.36629 0.863432,0.81398 0,1.07165 23.517967,24.60166 24.589067,24.60166 0.454615,0 0.826572,0.41237 0.826572,0.91638 0,0.50401 14.028241,14.99766 31.17387,32.2081 35.67431,35.80916 31.92778,32.00309 31.50246,32.00309 -0.18331,0 -23.02654,-22.69537 -50.762749,-50.43416 z m 73.027209,47.45576 -2.73708,-2.97839 2.97839,2.73708 c 1.63812,1.50539 2.9784,2.84567 2.9784,2.97839 0,0.6065 -0.6721,0.0352 -3.21971,-2.73708 z M 134.22145,192.242 c -18.67263,-18.67642 -33.95024,-34.19434 -33.95024,-34.48428 0,-0.28993 15.38711,14.87995 34.19358,33.71085 l 34.19358,34.238 6.10015,-6.10015 6.10016,-6.10015 -5.34723,-5.38852 c -2.94098,-2.96369 -5.34723,-5.61544 -5.34723,-5.89279 0,-0.27735 2.50185,2.03254 5.55967,5.13307 3.05782,3.10054 5.55967,5.84667 5.55967,6.1025 0,0.55417 -12.17512,12.7386 -12.72886,12.7386 -0.21065,0 -15.66062,-15.28071 -34.33325,-33.95713 z m -58.249983,30.58162 -1.513015,-1.78704 1.787037,1.51301 c 1.679374,1.42187 2.148607,2.06106 1.513015,2.06106 -0.150712,0 -0.954879,-0.80416 -1.787037,-1.78703 z m 12.374903,-7.93902 9.90868,-10.12317 -6.332282,-6.55584 -6.332282,-6.55584 6.739728,6.55353 6.739728,6.55353 -10.316126,10.12548 -10.316126,10.12548 z m 59.57916,2.97502 c -1.48187,-1.5289 -2.41998,-2.77983 -2.08467,-2.77983 0.6168,0 1.25757,0.6091 3.99481,3.79735 2.36173,2.75088 1.08117,2.06873 -1.91014,-1.01752 z m -76.348223,0.59568 c -0.98793,-1.2597 -0.959838,-1.2878 0.299869,-0.29987 0.764455,0.59953 1.389918,1.22499 1.389918,1.38992 0,0.65369 -0.652218,0.23296 -1.689787,-1.09005 z m 69.994313,-6.94958 c -1.48187,-1.52891 -2.41998,-2.77984 -2.08467,-2.77984 0.6168,0 1.25757,0.6091 3.99481,3.79735 2.36173,2.75088 1.08117,2.06873 -1.91014,-1.01751 z m -6.35391,-6.35391 c -1.48187,-1.52891 -2.41997,-2.77984 -2.08467,-2.77984 0.6168,0 1.25757,0.6091 3.99481,3.79736 2.36173,2.75087 1.08117,2.06872 -1.91014,-1.01752 z m 7.70939,-41.5334 c -23.89757,-23.90053 -43.450129,-43.76499 -43.450129,-44.14324 0,-0.37825 19.703069,19.02622 43.784609,43.12103 24.08153,24.09482 43.63408,43.95928 43.45012,44.14324 -0.18396,0.18396 -19.88704,-19.2205 -43.7846,-43.12103 z m 50.46727,37.54597 6.15401,-6.37014 -7.91536,-7.88566 c -4.35345,-4.33711 -7.74447,-8.05655 -7.5356,-8.26542 0.37949,-0.37949 9.00102,8.10102 13.68637,13.46252 l 2.48066,2.83865 -6.51205,6.2951 -6.51205,6.29509 z m -139.231762,-0.18233 -2.737079,-2.97839 2.978395,2.73708 c 2.772226,2.54761 3.343576,3.21971 2.737079,3.21971 -0.132724,0 -1.473001,-1.34028 -2.978395,-2.9784 z m 4.808189,2.67853 c 0,-0.16493 0.625463,-0.79039 1.389918,-1.38992 1.259706,-0.98793 1.287799,-0.95984 0.299869,0.29987 -1.03757,1.323 -1.689787,1.74373 -1.689787,1.09005 z m 71.095483,-2.75583 c 0.22453,-0.22454 -0.57888,-1.50525 -1.78537,-2.84603 -1.92107,-2.1349 -1.82377,-2.09771 0.78312,0.2993 1.6372,1.50539 2.97673,2.7861 2.97673,2.84602 0,0.0599 -0.53611,0.10895 -1.19136,0.10895 -0.65525,0 -1.00765,-0.18371 -0.78312,-0.40824 z m 26.78483,-11.44847 c -6.65639,-6.6668 -12.10253,-12.34841 -12.10253,-12.62579 0,-0.27738 5.45046,5.0112 12.11214,11.7524 13.88485,14.05059 12.87471,12.99484 12.43346,12.99484 -0.1873,0 -5.78668,-5.45465 -12.44307,-12.12145 z m -107.512487,6.76034 c -0.98793,-1.25971 -0.959838,-1.2878 0.299869,-0.29987 0.764455,0.59953 1.389918,1.22499 1.389918,1.38992 0,0.65368 -0.652218,0.23295 -1.689787,-1.09005 z m 32.665097,-1.29267 c 0,-0.16493 0.625463,-0.79039 1.389917,-1.38991 1.259707,-0.98794 1.2878,-0.95984 0.299869,0.29986 -1.037569,1.32301 -1.689786,1.74374 -1.689786,1.09005 z m 40.50617,-2.47996 c -1.48187,-1.52891 -2.4102,-2.77984 -2.06293,-2.77984 0.61763,0 5.23989,4.62813 5.23989,5.24655 0,0.66471 -0.57328,0.2196 -3.17696,-2.46671 z m -67.127182,-10.52111 10.311088,-10.5211 6.526229,6.49233 c 5.668028,5.63858 7.118426,7.79885 5.236135,7.79885 -0.26544,0 -0.233441,-0.24918 0.07111,-0.55373 0.30455,-0.30455 -2.220402,-3.34423 -5.611004,-6.75483 l -6.164733,-6.2011 -10.339957,10.13034 -10.339957,10.13035 z m 17.884386,7.4414 c 0,-0.16493 0.625463,-0.79039 1.389917,-1.38992 1.259707,-0.98793 1.2878,-0.95983 0.29987,0.29987 -1.03757,1.323 -1.689787,1.74374 -1.689787,1.09005 z m 42.888886,-3.2742 c -1.48187,-1.52891 -2.30922,-2.77984 -1.83854,-2.77984 0.47067,0 1.8099,1.25093 2.97605,2.77984 1.16616,1.52891 1.99351,2.77983 1.83855,2.77983 -0.15495,0 -1.49418,-1.25092 -2.97606,-2.77983 z m 84.58643,-1.9856 c -2.59364,-2.62099 -4.3972,-4.76543 -4.0079,-4.76543 0.3893,0 2.6597,1.99919 5.04534,4.44265 l 4.33752,4.44266 6.44627,-6.22969 6.44626,-6.2297 -6.33528,6.55247 c -3.4844,3.60386 -6.53355,6.55247 -6.77589,6.55247 -0.24234,0 -2.56268,-2.14444 -5.15632,-4.76543 z m -166.033265,-2.58128 -3.139584,-3.37551 3.388408,3.15217 3.388408,3.15218 10.11365,-9.90321 10.113651,-9.9032 -9.916066,10.12655 c -5.453836,5.56959 -10.116949,10.12654 -10.362474,10.12654 -0.245525,0 -1.859221,-1.51898 -3.585993,-3.37552 z m 75.081395,-1.79893 c -1.47553,-1.52237 -2.33486,-2.76794 -1.90961,-2.76794 0.85241,0 5.31158,4.8167 4.86895,5.25933 -0.1521,0.1521 -1.4838,-0.96903 -2.95934,-2.49139 z m 79.43541,-7.13625 c -3.25437,-3.27624 -5.56858,-5.95265 -5.14268,-5.94759 0.4259,0.005 3.41985,2.68562 6.65323,5.95679 3.23338,3.27117 5.54759,5.94759 5.14268,5.94759 -0.40491,0 -3.39886,-2.68056 -6.65323,-5.95679 z m -161.273219,2.18416 -2.737079,-2.9784 2.978395,2.73708 c 2.772225,2.54761 3.343576,3.21971 2.737079,3.21971 -0.132724,0 -1.473002,-1.34028 -2.978395,-2.97839 z m 154.125069,2.13728 c 0,-0.46261 0.35741,-0.62022 0.79424,-0.35025 0.43683,0.26998 0.79424,0.64848 0.79424,0.84111 0,0.19264 -0.35741,0.35025 -0.79424,0.35025 -0.43683,0 -0.79424,-0.3785 -0.79424,-0.84111 z m -78.67239,-3.57591 c -1.5054,-1.55571 -2.20097,-2.60347 -1.54572,-2.32838 1.09604,0.46016 5.27148,5.15692 4.58452,5.15692 -0.16595,0 -1.53341,-1.27284 -3.0388,-2.82854 z m 34.3737,-2.94837 c -3.15609,-3.17729 -5.73835,-6.01009 -5.73835,-6.2951 0,-0.285 2.13073,1.64585 4.73495,4.29078 5.84187,5.93318 7.52416,7.78123 7.08329,7.78123 -0.18785,0 -2.92379,-2.59961 -6.07989,-5.77691 z m 40.47177,3.14593 c -3.52359,-3.63542 -3.17688,-4.53532 0.40642,-1.05487 1.61337,1.56707 2.75052,3.0321 2.52698,3.25563 -0.22353,0.22354 -1.54356,-0.76681 -2.9334,-2.20076 z m 33.66194,-3.72819 c -3.00732,-3.06071 -5.3213,-5.70824 -5.14218,-5.88339 0.17912,-0.17516 2.99494,2.32906 6.25737,5.56493 3.26242,3.23587 5.5764,5.88339 5.14217,5.88339 -0.43423,0 -3.25005,-2.50421 -6.25736,-5.56493 z M 27.995487,168.61683 c 1.025954,-1.09208 2.044075,-1.9856 2.262491,-1.9856 0.218415,0 -0.442298,0.89352 -1.468252,1.9856 -1.025955,1.09207 -2.044075,1.98559 -2.262491,1.98559 -0.218416,0 0.442298,-0.89352 1.468252,-1.98559 z m 69.087236,-1.60038 c -1.475535,-1.52237 -2.343463,-2.76794 -1.928729,-2.76794 0.940778,0 5.443906,4.70349 4.963276,5.18412 -0.193466,0.19347 -1.559012,-0.89381 -3.034547,-2.41618 z m 68.475087,-6.18253 c -4.89261,-4.90653 -8.89565,-9.2366 -8.89565,-9.62238 0,-0.38578 4.17042,3.46128 9.2676,8.54902 5.09717,5.08773 9.10022,9.4178 8.89565,9.62237 -0.20457,0.20457 -4.37499,-3.64249 -9.2676,-8.54901 z m 57.02616,7.78291 c -1.17693,-1.41812 0.0545,-1.61343 1.43958,-0.22833 0.75456,0.75456 2.2369,-0.30232 6.84742,-4.88207 l 5.88438,-5.84511 -1.69131,-2.28762 c -0.93029,-1.25829 -2.17156,-2.10333 -2.75863,-1.87805 -0.58702,0.22526 -0.85844,0.0716 -0.60315,-0.34147 0.25529,-0.41307 -7.64437,-8.80805 -17.55481,-18.65551 -9.91044,-9.84747 -17.69303,-17.90448 -17.29465,-17.90448 0.39839,0 9.83008,9.111 20.95933,20.24667 l 20.23499,20.24667 -6.32302,6.36033 c -3.47767,3.49818 -6.73441,6.36032 -7.23721,6.36032 -0.5028,0 -1.35911,-0.53611 -1.90292,-1.19135 z m -3.26458,-3.77264 c -0.93272,-1.77746 -0.92861,-1.77892 0.7663,-0.27402 1.8931,1.68087 2.06608,2.06106 0.93775,2.06106 -0.42146,0 -1.18828,-0.80417 -1.70405,-1.78704 z m -188.146948,0.69293 c 0,-0.16493 0.625463,-0.79039 1.389918,-1.38992 1.259706,-0.98793 1.287799,-0.95983 0.299869,0.29987 -1.03757,1.323 -1.689787,1.74374 -1.689787,1.09005 z M 176.51813,159.8802 c -3.25437,-3.27624 -5.56858,-5.94741 -5.14268,-5.93595 1.05538,0.0284 12.89687,11.88561 11.87383,11.88958 -0.44777,0.002 -3.47678,-2.6774 -6.73115,-5.95363 z m -165.027298,-1.41321 -6.5416003,-6.57576 4.1764195,-3.9479 4.1764198,-3.9479 -3.7683301,3.9941 -3.7683299,3.99411 6.170869,6.13467 6.17087,6.13468 1.945318,-1.78928 1.945318,-1.78927 -1.905029,2.18415 c -1.047766,1.20129 -1.93997,2.18416 -1.982676,2.18416 -0.04271,0 -3.021368,-2.95909 -6.619249,-6.57576 z m 40.320016,-0.18715 c -3.881634,-3.90771 -6.342995,-5.81119 -7.128271,-5.51261 -0.971377,0.36934 -1.007463,0.26268 -0.189789,-0.56094 0.818917,-0.82487 2.24313,0.2165 7.539251,5.51262 3.591282,3.59128 6.344663,6.5296 6.118624,6.5296 -0.226039,0 -3.078956,-2.6859 -6.339815,-5.96867 z m 38.917965,2.3827 c -1.475534,-1.52237 -2.343463,-2.76794 -1.928729,-2.76794 0.940778,0 5.443903,4.70349 4.963277,5.18412 -0.193466,0.19347 -1.559013,-0.89381 -3.034548,-2.41618 z m 34.342477,-2.98517 c -3.15609,-3.1773 -5.73835,-5.99452 -5.73835,-6.26047 0,-0.26596 1.34028,0.87157 2.97839,2.52785 6.47046,6.54219 9.24071,9.50952 8.87794,9.50952 -0.20879,0 -2.96188,-2.5996 -6.11798,-5.7769 z m 68.21552,-6.62347 c -6.69627,-6.77269 -12.03659,-12.45243 -11.86737,-12.62165 0.16922,-0.16922 5.81506,5.205 12.54632,11.94271 6.73125,6.7377 12.07157,12.41745 11.86737,12.62165 -0.2042,0.2042 -5.85004,-5.17002 -12.54632,-11.94271 z m 19.8781,8.00088 c -2.30257,-2.38542 -3.88171,-4.33713 -3.50921,-4.33713 0.93749,0 8.55471,7.81527 8.07995,8.29002 -0.21134,0.21134 -2.26817,-1.56746 -4.57074,-3.95289 z M 38.71771,157.8946 c 2.151314,-2.18415 4.090183,-3.97119 4.308599,-3.97119 0.218415,0 -1.363047,1.78704 -3.514361,3.97119 -2.151314,2.18416 -4.090183,3.9712 -4.308599,3.9712 -0.218415,0 1.363047,-1.78704 3.514361,-3.9712 z m -14.693417,0.49437 c 0,-0.16493 0.625463,-0.79039 1.389918,-1.38992 1.259707,-0.98793 1.287799,-0.95983 0.299869,0.29987 -1.037569,1.32301 -1.689787,1.74374 -1.689787,1.09005 z m 60.307854,-4.17996 c -1.628767,-1.71363 -2.086332,-2.53193 -1.137069,-2.0335 1.765236,0.92688 4.655872,4.1078 4.172337,4.59134 -0.170347,0.17034 -1.536217,-0.98068 -3.035268,-2.55784 z m 13.540418,1.6808 c -0.552568,-0.6658 -0.803992,-1.41123 -0.558719,-1.6565 0.245272,-0.24527 0.844889,0.29948 1.332481,1.21055 1.040331,1.94388 0.654131,2.16646 -0.773762,0.44595 z m -65.515363,-5.74651 5.538505,-5.76571 -6.125801,-6.1258 -6.125801,-6.1258 -3.391182,3.14172 -3.391181,3.14172 3.378346,-3.55206 3.378346,-3.55207 6.543206,6.54321 6.543206,6.5432 -5.943075,5.75865 -5.943074,5.75865 z m 53.220592,-6.55518 c -5.678807,-5.67039 -9.979701,-10.31095 -9.557543,-10.31236 0.689287,-0.002 16.702324,15.92763 19.384217,19.28362 2.473972,3.0958 -0.04269,0.79821 -9.826674,-8.97126 z m 115.480826,3.33956 c -3.75756,-3.7969 -7.12107,-7.43956 -7.47448,-8.09481 -0.3534,-0.65524 2.98903,2.37089 7.42761,6.72475 4.43859,4.35385 8.07016,8.01728 8.07016,8.14094 0,0.97986 -2.14049,-0.82651 -8.02329,-6.77088 z m -32.11842,5.35441 c -0.85482,-1.38312 0.11876,-1.67604 1.20809,-0.36347 0.62645,0.75483 0.68671,1.21055 0.16005,1.21055 -0.46454,0 -1.0802,-0.38119 -1.36814,-0.84708 z M 77.978238,147.8551 c -1.628768,-1.71363 -2.086333,-2.53193 -1.13707,-2.03349 1.765237,0.92687 4.655873,4.10779 4.172337,4.59133 -0.170346,0.17034 -1.536217,-0.98068 -3.035267,-2.55784 z m 34.385232,-2.88555 c -3.15609,-3.1773 -5.73835,-6.01968 -5.73835,-6.3164 0,-0.49809 2.47842,1.91417 9.48811,9.23481 5.00499,5.22701 2.07998,2.9505 -3.74976,-2.91841 z m 40.47177,3.14592 c -3.52359,-3.63542 -3.17688,-4.53532 0.40642,-1.05487 1.61337,1.56707 2.75052,3.0321 2.52699,3.25564 -0.22354,0.22353 -1.54357,-0.76682 -2.93341,-2.20077 z m 3.4176,-8.64098 c -6.10893,-6.14019 -10.39233,-10.77872 -9.51867,-10.30784 2.08738,1.12503 21.48492,20.61273 21.00003,21.09762 -0.20582,0.20581 -5.37243,-4.64959 -11.48136,-10.78978 z m -84.574224,2.13822 c -1.481877,-1.52891 -2.331257,-2.77984 -1.88751,-2.77984 0.768321,0 3.296713,2.54771 4.565048,4.59992 1.040008,1.68276 0.09481,1.04026 -2.677538,-1.82008 z m 75.449734,0.79111 c -1.02433,-1.09036 -1.49811,-1.98247 -1.05284,-1.98247 1.0145,0 3.83165,3.04855 3.30439,3.57581 -0.21402,0.21402 -1.22721,-0.50299 -2.25155,-1.59334 z m -133.42916,0.94596 c 0,-0.13669 1.161574,-1.29826 2.581276,-2.58127 l 2.581276,-2.33276 -2.332752,2.58128 c -2.174451,2.40611 -2.8298,2.94635 -2.8298,2.33275 z m 124.69548,-9.69715 c -3.27624,-3.25912 -5.59044,-5.92869 -5.14268,-5.93238 0.44777,-0.004 3.47679,2.67384 6.73116,5.95007 3.25436,3.27624 5.56857,5.94581 5.14267,5.93238 -0.4259,-0.0134 -3.45492,-2.69096 -6.73115,-5.95007 z m -76.246918,-1.57079 c -3.254369,-3.27623 -5.636316,-5.95679 -5.293216,-5.95679 0.343101,0 3.295691,2.68056 6.561311,5.95679 3.265621,3.27624 5.647567,5.95679 5.293216,5.95679 -0.354352,0 -3.306942,-2.68055 -6.561311,-5.95679 z m 37.507901,0.17989 c -3.156094,-3.1773 -5.738353,-6.00797 -5.738353,-6.29037 0,-0.48579 7.38872,6.70965 10.64676,10.36824 3.27597,3.67874 0.53186,1.39895 -4.908407,-4.07787 z m 76.104337,1.37249 c -2.3325,-2.39984 -4.07805,-4.5262 -3.879,-4.72525 0.19904,-0.19905 2.28576,1.58616 4.63714,3.96711 2.35138,2.38096 4.09693,4.50732 3.879,4.72525 -0.21793,0.21793 -2.30464,-1.56727 -4.63714,-3.96711 z m 11.95886,-0.0647 c -2.35782,-2.34716 -3.95271,-4.26756 -3.54422,-4.26756 0.91739,0 8.66408,7.78463 8.18039,8.22045 -0.19208,0.17306 -2.27836,-1.60574 -4.63617,-3.95289 z M 71.295733,129.31659 c -1.698387,-1.73931 -2.932496,-3.30714 -2.742464,-3.48408 0.190031,-0.17694 1.847582,1.24613 3.683446,3.16237 1.835864,1.91625 3.069973,3.48408 2.742465,3.48408 -0.327508,0 -1.985059,-1.42306 -3.683447,-3.16237 z m 86.719027,-13.60552 c -6.90061,-6.94042 -12.2574,-12.61894 -11.90397,-12.61894 0.8739,0 25.2618,24.47788 24.80979,24.90132 -0.19758,0.1851 -6.0052,-5.34197 -12.90582,-12.28238 z m 23.18117,11.00966 c -0.93272,-1.77745 -0.92861,-1.77892 0.7663,-0.27402 1.8931,1.68088 2.06608,2.06106 0.93775,2.06106 -0.42146,0 -1.18828,-0.80417 -1.70405,-1.78704 z m -37.67137,0.14572 c -0.85481,-1.38312 0.11876,-1.67603 1.20809,-0.36347 0.62645,0.75483 0.68671,1.21055 0.16005,1.21055 -0.46454,0 -1.0802,-0.38118 -1.36814,-0.84708 z m -12.27804,-0.78827 c 0,-0.46261 0.35741,-0.62022 0.79424,-0.35024 0.43683,0.26997 0.79424,0.64847 0.79424,0.84111 0,0.19263 -0.35741,0.35024 -0.79424,0.35024 -0.43683,0 -0.79424,-0.3785 -0.79424,-0.84111 z m 79.61262,-6.51442 -6.54097,-6.57513 8.1401,-7.92664 8.14011,-7.926648 -7.74605,7.958818 -7.74604,7.95882 6.1723,6.1361 6.1723,6.13609 9.90408,-9.92792 9.90409,-9.92792 -6.11849,-6.118494 -6.1185,-6.118493 -2.21185,1.929099 -2.21184,1.929099 2.19017,-2.348282 2.19017,-2.348282 6.54157,6.541571 6.54157,6.541572 -10.33088,10.33088 -10.33088,10.33088 z m -184.092382,2.42917 c -1.726771,-1.83584 -2.424769,-2.83387 -1.551106,-2.21784 1.599386,1.12775 5.162551,4.77345 5.162551,5.28214 0,0.63799 -0.639431,0.0954 -3.611445,-3.0643 z m 25.838597,0.54615 c -1.475535,-1.52236 -2.383317,-2.76794 -2.017295,-2.76794 0.845213,0 5.451754,4.78421 5.021152,5.21481 -0.176586,0.17659 -1.528322,-0.9245 -3.003857,-2.44687 z m 11.925113,0.0119 c -1.481878,-1.52891 -2.448616,-2.77984 -2.148308,-2.77984 0.541255,0 5.325263,4.74366 5.325263,5.28035 0,0.62821 -0.609258,0.14868 -3.176955,-2.50051 z m 25.404107,-0.0119 c -1.475535,-1.52236 -2.430723,-2.76794 -2.122639,-2.76794 0.860349,0 5.612631,4.72868 5.183528,5.15778 -0.207954,0.20796 -1.585354,-0.86747 -3.060889,-2.38984 z m 34.936515,-2.39253 c -2.80233,-2.82746 -4.73687,-5.14084 -4.29899,-5.14084 1.03462,0 10.31011,9.36569 9.7903,9.8855 -0.2179,0.21789 -2.68899,-1.9172 -5.49131,-4.74466 z m 6.15884,-6.09081 c -6.01635,-6.02999 -10.66264,-10.95963 -10.3251,-10.95476 0.80271,0.0116 22.06625,21.32255 21.61181,21.66002 -0.19134,0.14209 -5.27036,-4.67528 -11.28671,-10.70526 z m 45.99303,8.75999 c -1.25125,-1.28337 -2.11871,-2.48969 -1.9277,-2.68071 0.19102,-0.19102 1.36742,0.71746 2.61422,2.01884 1.24681,1.30138 2.11427,2.5077 1.9277,2.68071 -0.18657,0.173 -1.36297,-0.73547 -2.61422,-2.01884 z m -10.9706,-11.08968 c -4.22726,-4.31182 -7.43687,-7.83968 -7.13246,-7.83968 0.80084,0 15.5991,14.97869 15.17463,15.35965 -0.19593,0.17584 -3.81491,-3.20815 -8.04217,-7.51997 z m -119.800915,4.45912 c -1.475534,-1.52236 -2.322139,-2.76793 -1.881343,-2.76793 1.026359,0 5.480206,4.6198 4.95764,5.14236 -0.216428,0.21643 -1.600762,-0.85206 -3.076297,-2.37443 z m 12.314295,0.40074 c -1.251167,-1.30594 -1.912875,-2.37444 -1.470463,-2.37444 1.022025,0 4.661504,3.83268 4.137279,4.3569 -0.215581,0.21558 -1.415648,-0.67653 -2.666816,-1.98246 z m 25.374952,-0.0425 c -1.282277,-1.33841 -1.795904,-2.21674 -1.141394,-1.95185 1.067528,0.43206 4.455648,4.38532 3.758409,4.38532 -0.157082,0 -1.334739,-1.09507 -2.617015,-2.43347 z m 11.621817,-0.4031 c -3.366213,-3.69922 -2.740022,-4.32541 0.737507,-0.73751 1.469193,1.51582 2.48608,2.94122 2.259751,3.16755 -0.226329,0.22633 -1.575095,-0.86719 -2.997258,-2.43004 z m -75.11229,-0.34039 c -2.936092,-3.06462 -2.18865,-3.07201 1.282292,-0.0127 1.478896,1.30352 2.30901,2.37574 1.844698,2.38272 -0.464311,0.007 -1.871457,-1.05953 -3.12699,-2.37003 z m 169.000031,-5.98694 c -3.15286,-3.25965 -5.46706,-5.92664 -5.14267,-5.92664 0.32439,0 3.25247,2.68056 6.50684,5.95679 3.25437,3.27624 5.56858,5.94322 5.14268,5.92664 -0.4259,-0.0166 -3.35398,-2.69715 -6.50685,-5.95679 z m -70.91155,3.55735 c 0,-0.46261 0.35741,-0.62022 0.79424,-0.35024 0.43683,0.26997 0.79424,0.64847 0.79424,0.84111 0,0.19263 -0.35741,0.35024 -0.79424,0.35024 -0.43683,0 -0.79424,-0.3785 -0.79424,-0.84111 z m -64.734861,-1.54647 c -0.793078,-0.87634 -1.291119,-1.74419 -1.106759,-1.92855 0.18436,-0.18436 1.108211,0.53265 2.053002,1.59335 0.944791,1.0607 1.442833,1.92855 1.106759,1.92855 -0.336074,0 -1.259925,-0.71701 -2.053002,-1.59335 z m -39.546341,-2.21278 c -1.617563,-1.65653 -2.941024,-3.23684 -2.941024,-3.51179 0,-0.27495 1.42963,0.91551 3.176955,2.64546 2.850706,2.82236 3.651411,3.87822 2.941024,3.87822 -0.129761,0 -1.559391,-1.35535 -3.176955,-3.01189 z m 25.640038,0.22015 c -1.475535,-1.52236 -2.32214,-2.76793 -1.881344,-2.76793 1.026359,0 5.480206,4.6198 4.95764,5.14236 -0.216428,0.21643 -1.600762,-0.85206 -3.076296,-2.37443 z m 37.104821,-0.22015 c -1.617564,-1.65653 -2.941025,-3.30904 -2.941025,-3.67224 0,-0.36319 1.42963,0.85763 3.176955,2.71293 2.927022,3.10791 3.566363,3.9712 2.941025,3.9712 -0.129762,0 -1.559392,-1.35535 -3.176955,-3.01189 z m 9.787183,-2.23448 c -2.828189,-2.7933 -4.782742,-5.07874 -4.34345,-5.07874 0.969716,0 10.334293,9.35133 9.837317,9.8234 -0.193437,0.18375 -2.665677,-1.95135 -5.493867,-4.74466 z m 25.51478,0.0842 c -2.70048,-2.83959 -4.62509,-5.1629 -4.27692,-5.1629 0.95142,0 10.0882,9.42448 9.60511,9.90756 -0.23003,0.23003 -2.62772,-1.90506 -5.32819,-4.74466 z m -65.123551,-2.3267 c -2.252111,-2.38127 -4.093032,-4.61904 -4.090938,-4.97281 0.0021,-0.353772 2.020488,1.41879 4.485318,3.93902 2.46483,2.52023 4.305752,4.758 4.090938,4.97281 -0.214815,0.21482 -2.233208,-1.55774 -4.485318,-3.93902 z M 30.021592,99.909803 c -3.03554,-3.054863 -5.170815,-5.554297 -4.745055,-5.554297 0.425759,0 3.232314,2.501852 6.236788,5.559671 3.004474,3.057823 5.139748,5.557253 4.745055,5.554293 -0.394694,-0.003 -3.201249,-2.5048 -6.236788,-5.559667 z m 160.392248,-0.792351 -6.32011,-6.357397 3.54574,-3.372027 3.54575,-3.372028 -3.13571,3.385023 -3.13571,3.385023 6.3072,6.344401 c 3.46895,3.489423 6.12848,6.344403 5.91007,6.344403 -0.21842,0 -3.24117,-2.86083 -6.71723,-6.357398 z m 7.54873,6.057528 c 0,-0.16493 0.62546,-0.79039 1.38992,-1.38992 1.25971,-0.98793 1.2878,-0.95984 0.29987,0.29987 -1.03757,1.323 -1.68979,1.74373 -1.68979,1.09005 z M 7.2851677,102.52049 c -1.4126283,-1.58477 -1.5032211,-1.84921 -0.3401249,-0.9928 2.5290326,1.86216 3.7482332,3.15292 2.9781321,3.15292 -0.3918877,0 -1.578991,-0.97206 -2.6380072,-2.16012 z m 62.4134743,-0.2135 c -0.278253,-0.45022 0.04055,-0.58337 0.747365,-0.31214 1.375953,0.528 1.627703,1.09728 0.485244,1.09728 -0.411051,0 -0.965725,-0.35331 -1.232609,-0.78514 z m 86.624378,-0.42327 c -0.84177,-0.63684 -1.34591,-1.34248 -1.1203,-1.56809 0.2256,-0.2256 1.05907,0.30681 1.85215,1.18316 1.68885,1.86616 1.41584,2.00976 -0.73185,0.38493 z m 8.66985,-16.71453 C 153.92904,74.055877 146.79784,67.463728 146.22356,67.818655 c -0.57756,0.356953 -0.71258,0.226803 -0.35871,-0.345776 0.34928,-0.565149 -9.69609,-11.223495 -26.12635,-27.720583 l -26.693824,-26.802399 -6.062336,6.201314 -6.062336,6.201313 19.802146,19.97842 c 10.89118,10.988131 18.77935,19.097598 17.52927,18.021038 -3.66351,-3.154991 -37.836178,-37.518393 -37.836178,-38.047366 0,-0.265244 2.863269,-3.328738 6.362819,-6.807763 l 6.362819,-6.3255 45.46039,45.460389 c 25.00321,25.003215 45.18462,45.460388 44.84757,45.460388 -0.33706,0 -8.64224,-8.065322 -18.45597,-17.92294 z m -51.7554,11.171913 c -3.12023,-3.276235 -5.42283,-5.95679 -5.11688,-5.95679 0.30595,0 3.18347,2.680555 6.39449,5.95679 3.21103,3.276235 5.51363,5.956787 5.11689,5.956787 -0.39674,0 -3.27426,-2.680552 -6.3945,-5.956787 z m -3.4354,-29.061497 C 90.799913,48.064336 75.088119,32.088677 74.886975,31.77814 74.685832,31.467604 90.50111,47.116653 110.03204,66.553805 c 19.53093,19.437152 35.51078,35.431135 35.51078,35.542185 0,1.10908 -5.82845,-4.568627 -35.74075,-34.816384 z M 80.415242,100.66254 c 0,-0.46261 0.357408,-0.62022 0.794239,-0.35024 0.436831,0.26997 0.794239,0.64847 0.794239,0.84111 0,0.19263 -0.357408,0.35024 -0.794239,0.35024 -0.436831,0 -0.794239,-0.3785 -0.794239,-0.84111 z m 25.415638,0 c 0,-0.46261 0.35741,-0.62022 0.79424,-0.35024 0.43683,0.26997 0.79424,0.64847 0.79424,0.84111 0,0.19263 -0.35741,0.35024 -0.79424,0.35024 -0.43683,0 -0.79424,-0.3785 -0.79424,-0.84111 z m -94.180271,-6.8581 c 4.809957,-4.975819 6.586214,-6.347474 7.545268,-5.826579 1.839209,0.998937 6.053703,5.583407 5.132815,5.583407 -0.432867,0 -2.005037,-1.256664 -3.493712,-2.792587 l -2.706682,-2.792586 -6.384307,6.168101 -6.3843074,6.168104 z m 24.662028,0.528537 c -3.022092,-3.045428 -5.270226,-5.537142 -4.995853,-5.537142 0.801262,0 11.249975,10.314874 10.851927,10.712923 -0.198749,0.198749 -2.833982,-2.130353 -5.856074,-5.175781 z m 25.237088,-0.196873 c -3.168319,-3.155563 -5.759523,-6.012469 -5.758231,-6.34868 0.0013,-0.336211 2.682904,2.026133 5.959138,5.249652 5.063131,4.981663 6.723174,6.958546 5.758231,6.857259 -0.109208,-0.01146 -2.79082,-2.602667 -5.959138,-5.758231 z m 12.511607,0.519183 c -2.839403,-2.777612 -4.805144,-5.041131 -4.368312,-5.030044 0.949298,0.0241 10.358357,9.347067 9.870036,9.779731 -0.186544,0.165284 -2.66232,-1.972076 -5.501724,-4.749687 z m 21.199014,-4.216888 c -5.106988,-5.190981 -9.285433,-9.737411 -9.285433,-10.103176 0,-0.365766 4.362437,3.697409 9.694305,9.029276 5.331872,5.331868 9.510312,9.878297 9.285432,10.103177 -0.22488,0.224879 -4.58732,-3.838295 -9.694304,-9.029277 z m 44.955564,-4.577415 c -7.51653,-7.559289 -13.40981,-13.744162 -13.09618,-13.744162 0.78423,0 27.57029,26.880114 27.12226,27.217489 -0.19782,0.148959 -6.50955,-5.914038 -14.02608,-13.473327 z m 72.04296,4.920448 c 1.02595,-1.092078 2.04407,-1.985597 2.26249,-1.985597 0.21842,0 -0.4423,0.893519 -1.46825,1.985597 -1.02596,1.092078 -2.04408,1.985597 -2.26249,1.985597 -0.21842,0 0.44229,-0.893519 1.46825,-1.985597 z M 100.45782,83.571959 c -3.173592,-3.242506 -5.487795,-5.895466 -5.142669,-5.895466 0.345126,0 3.290167,2.680556 6.544539,5.956791 3.25437,3.276234 5.56857,5.929194 5.14267,5.895465 -0.4259,-0.03373 -3.37094,-2.714284 -6.54454,-5.95679 z m -32.750397,4.382764 c 0,-0.462612 0.357407,-0.620222 0.794238,-0.350246 0.436832,0.269977 0.794239,0.648477 0.794239,0.841113 0,0.192635 -0.357407,0.350245 -0.794239,0.350245 -0.436831,0 -0.794238,-0.3785 -0.794238,-0.841112 z M 26.811968,84.728733 23.855132,81.45587 30.07643,75.197869 c 3.421714,-3.441901 6.58825,-6.258001 7.036748,-6.258001 0.93194,0 5.178606,4.302772 5.178606,5.247024 0,0.343339 -1.259233,-0.596243 -2.798295,-2.087961 l -2.798295,-2.712215 -5.920588,5.931926 -5.920589,5.931926 3.127344,3.375514 c 1.720038,1.856533 2.825865,3.375515 2.457393,3.375515 -0.368473,0 -2.000527,-1.472789 -3.626786,-3.272864 z m 22.230845,-3.081046 c -3.034388,-3.057819 -5.282549,-5.559671 -4.995913,-5.559671 0.621228,0 10.952703,10.092145 10.952703,10.698982 0,0.796976 -0.458764,0.40117 -5.95679,-5.139311 z m 11.70551,-0.264054 c -3.172259,-3.131005 -5.763462,-6.039819 -5.758231,-6.464031 0.01134,-0.919379 10.11159,8.896426 11.213641,10.897838 1.103939,2.004842 0.900795,1.839739 -5.45541,-4.433807 z m 150.353567,-1.927055 -6.31953,-6.580916 -6.78541,6.570169 -6.78541,6.570169 6.73941,-6.955535 6.73941,-6.955535 6.72672,6.726718 c 3.6997,3.699696 6.56418,6.834522 6.36553,6.966282 -0.19865,0.13176 -3.20498,-2.721849 -6.68072,-6.341352 z m -40.53005,-0.181037 c -5.09443,-5.124489 -6.11193,-6.536133 -5.29542,-7.346708 0.81527,-0.809343 0.92252,-0.771428 0.55466,0.196067 -0.29858,0.78527 1.60468,3.246419 5.5119,7.127558 l 5.96795,5.928123 5.75895,-5.539081 5.75895,-5.539081 -5.53837,5.758231 c -3.04611,3.167027 -5.73505,5.75823 -5.97543,5.75823 -0.24038,0 -3.27481,-2.854502 -6.74319,-6.343339 z M 70.112669,65.198465 55.441783,50.562084 49.263903,56.86552 c -3.397834,3.46689 -6.17788,6.074525 -6.17788,5.794745 0,-0.279781 2.862866,-3.354768 6.361926,-6.833305 l 6.361926,-6.324613 14.849542,14.849542 c 8.167249,8.167249 14.686327,14.992061 14.48684,15.16625 -0.199486,0.174189 -6.964601,-6.269664 -15.033588,-14.319674 z m 17.873671,5.726999 c -3.329829,-3.276234 -5.761121,-5.95679 -5.402871,-5.95679 0.35825,0 3.31403,2.680556 6.568399,5.95679 3.254369,3.276235 5.685661,5.956791 5.402871,5.956791 -0.28279,0 -3.23857,-2.680556 -6.568399,-5.956791 z M 48.734655,69.226111 c -2.790474,-2.778421 -4.756215,-5.046084 -4.368313,-5.03925 0.895725,0.01578 10.261333,9.376262 9.79144,9.786079 -0.192245,0.167666 -2.632652,-1.968407 -5.423127,-4.746829 z m 144.269335,0.322937 4.15625,-4.156252 -6.13487,-6.171065 -6.13487,-6.171066 -7.95882,7.746042 -7.95882,7.746041 7.92664,-8.140103 7.92665,-8.140103 6.5645,6.530404 6.56451,6.530403 -4.13892,4.190976 c -2.2764,2.305036 -4.32557,4.190975 -4.55371,4.190975 -0.22813,0 1.45552,-1.870313 3.74146,-4.156252 z m -69.88675,-1.02779 c -1.63171,-1.51709 -2.68469,-2.758345 -2.33996,-2.758345 0.34472,0 1.83921,1.250926 3.32109,2.779835 3.45748,3.567217 2.86473,3.554233 -0.98113,-0.02149 z m 27.5695,-9.310814 -6.33528,-6.55247 6.52254,6.305528 6.52255,6.305528 1.81696,-1.540096 1.81696,-1.540095 -1.51301,1.787037 c -0.83216,0.98287 -1.73406,1.787037 -2.00423,1.787037 -0.27017,0 -3.34209,-2.948611 -6.82649,-6.552469 z M 75.071122,58.118019 C 71.913441,54.875843 69.9477,52.563464 70.70281,52.9794 c 1.875615,1.033141 11.843741,11.215101 10.880846,11.11426 -0.424212,-0.04443 -3.354852,-2.733466 -6.512534,-5.975641 z m 79.405148,-15.783547 10.12482,-10.315457 5.36284,5.546181 5.36284,5.546181 -5.36666,-5.137236 -5.36665,-5.137236 -10.121,9.906512 -10.121,9.906513 z m -88.040968,6.886245 c -5.68279,-5.544409 -5.797403,-4.645948 1.491597,-11.692705 l 6.531553,-6.314483 -6.1518,6.36791 -6.1518,6.367911 3.758633,3.758633 c 2.067248,2.067248 3.548289,3.758633 3.291202,3.758633 -0.257088,0 -1.503311,-1.010654 -2.769385,-2.245899 z M 174.92965,47.989792 c 0,-0.164928 0.62546,-0.790391 1.38992,-1.389917 1.2597,-0.987931 1.2878,-0.959838 0.29987,0.299869 -1.03757,1.323001 -1.68979,1.743734 -1.68979,1.090048 z m -44.48911,-9.032435 -6.72771,-6.949589 6.73671,6.549959 6.73672,6.549959 10.33363,-10.124033 10.33363,-10.124033 -10.31365,10.523662 c -5.6725,5.788015 -10.32669,10.523663 -10.34264,10.523663 -0.0159,0 -3.05646,-3.127315 -6.75669,-6.949588 z m 24.16056,-16.281894 -1.51302,-1.787037 1.78704,1.513015 c 1.67938,1.42186 2.14861,2.061059 1.51302,2.061059 -0.15072,0 -0.95488,-0.804167 -1.78704,-1.787037 z m -20.97186,0.692929 c 0,-0.164928 0.62546,-0.79039 1.38991,-1.389917 1.25971,-0.987931 1.2878,-0.959838 0.29987,0.299869 -1.03757,1.323001 -1.68978,1.743734 -1.68978,1.090048 z m 14.67699,-6.865097 c -1.96131,-2.008565 -3.56852,-3.022699 -4.33094,-2.732781 -0.98049,0.372841 -1.01967,0.266947 -0.20488,-0.553779 0.81619,-0.822135 1.71884,-0.303364 4.75498,2.73278 2.06116,2.061154 3.55674,3.747553 3.32352,3.747553 -0.23323,0 -1.82743,-1.437198 -3.54268,-3.193773 z"
         id="path7" /><path
         style="fill:#698d0c"
         d="m 98.682733,244.16675 c 0,-0.16493 0.625463,-0.79039 1.389917,-1.38992 1.25971,-0.98793 1.2878,-0.95983 0.29987,0.29987 -1.03757,1.32301 -1.689787,1.74374 -1.689787,1.09005 z M 109.53062,204.02393 C 87.401525,181.86861 69.2959,163.31948 69.2959,162.80366 c 0,-0.51583 -0.371957,-0.93786 -0.826572,-0.93786 -1.0711,0 -24.589067,-23.53001 -24.589067,-24.60166 0,-0.44769 -0.373851,-0.81398 -0.830781,-0.81398 -0.45693,0 -9.008959,-8.165 -19.00451,-18.14445 l -18.1737286,-18.14445 6.1323376,-6.096367 6.132337,-6.096371 55.5218,55.526838 c 30.536994,30.53976 55.732774,56.12828 55.990634,56.86338 0.25786,0.7351 0.74941,1.22074 1.09233,1.07921 0.64738,-0.26719 30.68691,29.4391 30.68691,30.34649 0,0.28275 -2.624,3.21585 -5.83112,6.518 l -5.83112,6.00391 z M 96.575768,153.44619 24.725203,81.381878 30.510221,75.557992 c 3.181759,-3.203137 6.004686,-5.823886 6.27317,-5.823886 0.64235,0 142.171939,141.669314 142.990069,143.131234 0.44596,0.79689 -1.11859,2.80719 -5.35863,6.88534 l -5.9885,5.75983 z m 90.581422,53.09553 c 0.31571,-0.54604 0.22131,-0.9928 -0.20978,-0.9928 -1.00786,0 -60.049,-58.9746 -59.8339,-59.76646 0.089,-0.32762 -0.15762,-0.59568 -0.54804,-0.59568 -0.88296,0 -76.331299,-75.515859 -76.331299,-76.399613 0,-0.352846 -0.329915,-0.641538 -0.733143,-0.641538 -0.850553,0 -5.620767,-4.618571 -5.620767,-5.442084 0,-0.304954 2.623049,-3.160004 5.828997,-6.344555 l 5.828996,-5.790094 71.405786,71.518424 c 39.27318,39.33513 71.52027,71.86189 71.6602,72.28167 0.13993,0.41979 -2.50757,3.55377 -5.88333,6.9644 -3.37576,3.41062 -5.87944,5.75437 -5.56372,5.20833 z M 70.884378,191.747 c 0,-0.16493 0.625463,-0.79039 1.389917,-1.38992 1.259707,-0.98793 1.2878,-0.95984 0.299869,0.29987 -1.037569,1.323 -1.689786,1.74373 -1.689786,1.09005 z m 63.257912,-75.7294 -71.999259,-72.05636 6.143747,-6.179993 6.143747,-6.179993 35.754705,35.999393 c 19.66509,19.799666 52.01674,52.298863 71.89257,72.220443 l 36.13786,36.22105 -6.03706,6.0159 -6.03706,6.01591 z M 153.03181,97.496555 C 113.74795,58.16199 81.716199,25.548563 81.850154,25.022273 c 0.133954,-0.526291 2.717426,-3.447931 5.741048,-6.492534 l 5.497495,-5.535642 26.671813,26.780299 c 16.41661,16.483382 26.45362,27.133338 26.10434,27.698483 -0.35112,0.568134 -0.21914,0.702908 0.34619,0.353513 1.16524,-0.72016 86.10193,84.339628 85.38153,85.505278 -0.31914,0.51637 -0.13232,0.59918 0.48754,0.21608 0.64257,-0.39713 1.66524,0.20301 2.83611,1.66432 1.67657,2.09246 1.72581,2.40276 0.58316,3.67533 -0.68641,0.76446 -1.99679,1.41814 -2.91196,1.45262 -0.91517,0.0345 -1.25911,0.229 -0.76431,0.43225 0.70785,0.29077 -6.16876,8.24167 -7.12809,8.24167 -0.1309,0 -32.37934,-32.18282 -71.66321,-71.517385 z M 126.48109,30.516541 c 0,-0.164928 0.62546,-0.790391 1.38992,-1.389918 1.2597,-0.98793 1.28779,-0.959838 0.29986,0.299869 -1.03757,1.323002 -1.68978,1.743734 -1.68978,1.090049 z"
         id="path6" /><path
         style="fill:#3f540b"
         d="m 91.722589,238.21294 -5.768785,-6.02812 9.931147,-9.93115 9.931149,-9.93115 6.24782,6.21118 6.24782,6.21118 -9.83851,9.66231 c -5.41118,5.31427 -10.095766,9.70091 -10.410185,9.7481 -0.314419,0.0472 -3.167624,-2.62688 -6.340456,-5.94235 z m 64.939571,-1.19434 c 0,-0.16492 0.62546,-0.79039 1.38992,-1.38991 1.2597,-0.98793 1.2878,-0.95984 0.29987,0.29987 -1.03757,1.323 -1.68979,1.74373 -1.68979,1.09004 z m 3.17695,-3.17695 c 0,-0.16493 0.62547,-0.79039 1.38992,-1.38992 1.25971,-0.98793 1.2878,-0.95984 0.29987,0.29987 -1.03757,1.323 -1.68979,1.74373 -1.68979,1.09005 z M 72.474879,218.7088 c -3.260614,-3.25625 -6.025928,-6.21307 -6.145142,-6.57071 -0.119215,-0.35764 4.169608,-5.02609 9.530717,-10.37433 l 9.747472,-9.72407 6.327559,6.36489 6.327559,6.36489 -9.929889,9.92989 -9.929888,9.92989 z m -20.622545,-20.5058 -5.927105,-6.20772 9.909583,-9.90958 9.909584,-9.90958 6.163065,6.19942 6.163066,6.19943 -8.257305,8.30282 c -4.541518,4.56655 -9.107013,9.02959 -10.145544,9.91787 l -1.888239,1.61505 z m -20.100024,-20.2686 -6.133896,-6.17009 9.921791,-9.89797 9.921791,-9.89796 6.360869,6.32356 6.360869,6.32356 -9.721094,9.74449 c -5.346601,5.35947 -9.913545,9.74449 -10.148764,9.74449 -0.235219,0 -3.187924,-2.77654 -6.561566,-6.17008 z m -19.892834,-19.89305 -6.0970297,-6.133 9.9279217,-9.90409 9.927923,-9.90409 6.126032,6.12604 6.126032,6.12603 -7.121591,7.36686 c -3.916874,4.05177 -8.39749,8.51175 -9.956924,9.91105 l -2.835334,2.5442 z m 217.872644,5.90729 c 0,-0.16492 0.62546,-0.79039 1.38992,-1.38991 1.25971,-0.98793 1.2878,-0.95984 0.29987,0.29986 -1.03757,1.32301 -1.68979,1.74374 -1.68979,1.09005 z m -18.47451,-44.78052 -6.14125,-6.17747 9.92793,-9.90409 9.92792,-9.904082 6.14744,6.147441 6.14744,6.147441 -9.93412,9.93412 -9.93412,9.93412 z m -20.04207,-20.043161 -6.32734,-6.364673 9.90373,-9.927567 9.90373,-9.927566 6.35792,6.357925 6.35793,6.357926 -9.93431,9.934314 -9.93432,9.934312 z M 170.98153,78.891083 c -3.24167,-3.263457 -5.64094,-6.212068 -5.33169,-6.552469 0.30925,-0.340401 4.75707,-4.811025 9.88405,-9.934721 l 9.32178,-9.31581 6.15992,6.12379 6.15992,6.123789 -9.72109,9.74449 c -5.34661,5.359469 -9.91411,9.74449 -10.15001,9.74449 -0.23591,0 -3.0812,-2.670102 -6.32288,-5.933559 z m -20.09341,-20.092492 -6.1339,-6.170083 9.91962,-9.895802 9.91962,-9.895801 5.32362,5.145102 c 2.92799,2.829807 5.77122,5.681214 6.31829,6.336461 0.83937,1.005351 -0.5161,2.710413 -8.68167,10.920782 -5.32199,5.351183 -9.8688,9.729424 -10.10402,9.729424 -0.23522,0 -3.18792,-2.776537 -6.56156,-6.170083 z m -19.87018,-19.87026 -6.15566,-6.191978 9.55876,-9.696598 c 5.25731,-5.333128 9.79542,-9.696597 10.08468,-9.696597 0.28926,0 3.25851,2.659205 6.59834,5.909344 l 6.07241,5.909343 -10.00143,9.979233 -10.00144,9.979232 z"
         id="path5" /></g></g></svg>
