<?xml version="1.0" encoding="UTF-8" standalone="no"?>
<!-- Created with Inkscape (http://www.inkscape.org/) -->

<svg
   version="1.1"
   id="svg1"
   width="247"
   height="256"
   viewBox="0 0 247 256"
   xml:space="preserve"
   xmlns="http://www.w3.org/2000/svg"
   xmlns:svg="http://www.w3.org/2000/svg"><defs
     id="defs1" /><g
     id="g10"
     transform="translate(0,-0.4375)"><path
       style="fill:#f3f8f3"
       d="M 11.875,128.21875 V 6.25 H 124.94474 238.01448 V 128.21875 250.1875 H 124.94474 11.875 Z m 160.18213,91.1158 c 0,-11.1143 -0.31126,-13.6091 -2.09388,-16.78291 -3.02125,-5.37908 -2.62932,-8.94225 1.68698,-15.33719 2.07948,-3.08091 4.22242,-6.75254 4.7621,-8.15918 1.70724,-4.44988 7.16052,-31.37433 7.17614,-35.43071 0.0206,-5.33826 -6.35296,-34.06902 -7.76873,-35.02019 -0.62989,-0.42318 -3.56149,-1.47976 -6.51467,-2.34794 l -5.36942,-1.57851 -0.15419,-40.053219 c -0.15098,-39.217522 -0.19974,-40.091442 -2.3369,-41.885364 -1.98584,-1.666907 -5.423,-1.832148 -38.11023,-1.832148 H 87.406801 l -2.169871,2.758544 c -1.999857,2.542407 -2.169871,4.138266 -2.169871,20.367782 v 17.609238 l -2.569767,-2.569767 c -5.958143,-5.958143 -13.769967,0.152697 -10.984516,8.592696 1.174199,3.557858 9.319776,10.82332 12.134422,10.82332 1.129905,0 1.419861,3.100105 1.419861,15.18066 0,12.257988 -0.280018,15.180658 -1.454443,15.180658 -2.398326,0 -16.76407,8.09307 -18.203571,10.25514 -1.121331,1.68419 -1.03299,2.38226 0.548663,4.33552 1.036855,1.28046 3.487564,2.65583 5.446021,3.05638 4.792876,0.98025 5.041407,2.58168 0.647251,4.17063 -5.967931,2.15803 -6.302827,8.27293 -0.582846,10.64223 3.053342,1.26473 8.231988,1.0532 11.766776,-0.48064 1.576551,-0.68411 1.832149,-0.19517 1.832149,3.50476 0,2.36488 -0.4077,4.29978 -0.906,4.29978 -0.4983,0 -3.325044,1.9678 -6.281653,4.37289 -5.798646,4.71699 -6.97305,8.30878 -3.350595,10.24746 2.734474,1.46345 7.738953,1.37042 9.281917,-0.17255 0.977146,-0.97715 1.256331,1.43995 1.256331,10.87691 0,17.38102 -0.459285,16.97542 19.740501,17.43305 l 15.74044,0.3566 0.31928,3.83117 0.31928,3.83116 10.98173,0.52347 c 9.38034,0.44714 11.03272,0.79064 11.33139,2.35562 0.31372,1.64381 -0.70754,1.83308 -9.93479,1.84125 -5.65644,0.005 -12.75785,0.30619 -15.78089,0.6693 l -5.49645,0.6602 v 13.46442 13.46441 h 30.88479 30.88479 z m -60.0543,-6.31349 c -0.97088,-2.53008 0.41616,-4.71124 2.99596,-4.71124 1.31633,0 2.66451,0.70668 2.99596,1.57041 0.97088,2.53008 -0.41615,4.71124 -2.99596,4.71124 -1.31633,0 -2.66451,-0.70669 -2.99596,-1.57041 z m 27.5991,-23.5562 c 0,-0.66865 -9.0068,-1.04694 -24.92651,-1.04694 -18.33392,0 -25.377441,-0.34612 -26.631487,-1.30868 -1.083421,-0.83159 -1.811697,-3.21702 -1.99771,-6.54339 l -0.29273,-5.23471 26.924217,-0.27941 26.92422,-0.27941 v -3.64662 -3.64662 h -22.38106 c -19.546387,0 -22.563051,-0.21939 -23.817934,-1.7322 -1.91244,-2.30551 -1.798941,-26.82409 0.134958,-29.1543 1.946708,-2.34564 57.727486,-2.34404 59.674286,0.002 3.70252,4.46126 6.74139,-0.89344 5.87195,-10.34679 -0.31156,-3.38746 -0.75527,-6.34782 -0.98604,-6.57859 -0.23077,-0.23077 -2.2315,-1.77058 -4.44607,-3.42181 l -4.02649,-3.00222 -5.01787,4.5115 c -6.04518,5.43514 -12.62561,7.86074 -21.1581,7.79906 -12.54088,-0.0907 -22.53638,-6.33898 -28.046942,-17.53253 -6.907295,-14.030706 -3.934497,-27.704067 8.532812,-39.246598 6.45127,-5.972733 9.55565,-7.038383 20.50377,-7.038383 2.44031,0 4.95868,-0.628682 5.59639,-1.397072 0.95316,-1.148489 -0.37459,-1.354449 -7.46214,-1.157523 -8.17691,0.227194 -14.34495,2.05114 -16.00172,4.731854 -0.33915,0.548747 -1.12799,0.681683 -1.75299,0.295413 -0.74491,-0.460381 -0.83109,-0.195778 -0.25016,0.768128 0.74739,1.240115 0.61592,1.251335 -0.83932,0.07163 -0.94904,-0.769345 -2.14923,-1.136945 -2.66709,-0.81689 -0.51786,0.320056 -0.71041,-0.627262 -0.4279,-2.105152 0.28736,-1.503215 1.95044,-3.600617 3.7748,-4.760602 2.85003,-1.812139 2.93118,-1.979536 0.64377,-1.327905 -1.43954,0.410093 -2.85292,1.080709 -3.14082,1.490258 -0.28791,0.409549 -1.83833,1.066548 -3.445384,1.459998 -1.60705,0.39345 -2.701668,1.071721 -2.432485,1.507268 0.489223,0.79158 -0.267259,0.974452 -6.161969,1.489589 L 86.731356,62.2614 86.444758,44.824765 C 86.201104,30.000822 86.4084,27.137889 87.828217,25.718072 c 1.459641,-1.459641 5.918289,-1.670057 35.387943,-1.670057 28.82287,0 34.05568,0.236604 36.04472,1.629779 2.3166,1.622612 2.32683,1.767951 2.32683,33.053456 0,27.932158 -0.17449,31.249188 -1.57041,29.853265 -0.86373,-0.863727 -1.51467,-2.899656 -1.44655,-4.524285 l 0.12387,-2.953873 0.79921,3.140826 c 0.43956,1.727455 0.85494,-8.469086 0.92307,-22.658978 0.10584,-22.04518 -0.10467,-25.887505 -1.44654,-26.402429 -0.86373,-0.331443 -1.57042,-1.324096 -1.57042,-2.205895 0,-0.8818 -0.47112,-1.603272 -1.04694,-1.603272 -0.57582,0 -1.05415,1.060029 -1.06297,2.35562 -0.01,1.42462 -0.32265,1.873669 -0.79184,1.136186 -0.58122,-0.913577 -1.2476,-0.874451 -2.65681,0.155994 -1.42762,1.043897 -1.5522,1.5286 -0.51684,2.010903 0.75029,0.349511 0.0499,0.38344 -1.55636,0.0754 -1.75582,-0.33672 -3.83194,0.0783 -5.20592,1.04068 -1.25698,0.880417 -3.35839,1.600758 -4.66981,1.600758 -1.31142,0 -2.38441,0.433691 -2.38441,0.963757 0,0.530066 -1.47609,1.287962 -3.28021,1.684213 -2.41296,0.529976 -2.89736,0.962931 -1.83215,1.637567 0.79644,0.50441 2.58675,0.924324 3.97848,0.933142 1.39172,0.0088 5.58533,1.695228 9.31913,3.747579 5.1096,2.808589 6.99104,3.404182 7.60671,2.408002 0.4499,-0.72795 0.7113,1.241592 0.58089,4.37676 -0.19881,4.779894 -0.56778,5.740473 -2.28505,5.949073 -1.12926,0.137171 -1.42639,-0.02842 -0.66237,-0.369125 1.66034,-0.740417 -4.46797,-5.179378 -9.54991,-6.917342 -1.84363,-0.630498 -3.68614,-1.654751 -4.09447,-2.276118 -1.15904,-1.763714 -21.43565,-0.898258 -24.79028,1.058111 -1.5041,0.877169 -1.79248,1.242691 -0.64085,0.812271 5.735,-2.143432 27.74352,-0.922468 28.57951,1.585501 0.19067,0.57203 1.10021,0.750896 2.0212,0.397481 0.97369,-0.373639 1.406,-0.208097 1.03293,0.395533 -0.35287,0.570958 0.26673,1.81583 1.3769,2.766382 1.89363,1.621381 1.85456,4.92688 -0.0583,4.92688 -0.46711,0 -1.53377,0.262657 -2.37035,0.583681 -0.83657,0.321025 -2.1707,-0.03781 -2.96472,-0.797417 -0.79401,-0.759604 -2.69965,-1.936363 -4.23474,-2.61502 -2.27334,-1.005028 -2.89736,-0.956979 -3.36398,0.259026 -0.40326,1.050873 0.13218,1.434592 1.80827,1.295875 1.30965,-0.10839 3.81887,0.826653 5.57604,2.077873 1.75718,1.251219 3.57056,1.935521 4.02975,1.52067 0.45918,-0.414851 0.5161,-0.197924 0.12648,0.482061 -0.38962,0.679985 -0.25855,1.51436 0.29127,1.854168 0.54982,0.339808 1.41736,-0.128531 1.92787,-1.040754 0.8351,-1.492243 1.07781,-1.474792 2.41997,0.174 1.32577,1.628659 1.28789,1.75618 -0.34038,1.145954 -2.39355,-0.897029 -2.31523,-0.136379 0.2719,2.640579 4.82273,5.176586 7.31843,12.301205 7.31843,20.892301 0,7.472014 -0.17888,8.169976 -2.09388,8.169976 -1.83421,0 -2.09389,-0.697962 -2.09389,-5.627911 0,-3.735924 -0.88521,-7.629518 -2.63314,-11.581904 -2.30588,-5.214004 -2.92394,-5.872265 -4.97297,-5.2964 -1.87387,0.526639 -2.0271,0.429379 -0.76943,-0.488388 3.5622,-2.599453 -10.7112,-10.507544 -18.96518,-10.507544 -1.66133,0 -3.0206,0.427018 -3.0206,0.948928 0,0.52191 -0.91387,0.709945 -2.03083,0.417855 -3.24974,-0.849828 -13.05633,4.245687 -16.26354,8.450562 -5.532778,7.253843 -7.215959,17.008438 -4.51755,26.180682 1.712376,5.8206 11.35461,15.46284 17.17521,17.17521 9.70135,2.85407 20.28469,0.43364 28.13153,-6.43372 2.91,-2.54676 3.1048,-3.17205 2.8143,-9.0337 -0.20294,-4.09485 0.0933,-6.297555 0.84707,-6.297555 0.74982,0 0.92485,1.249131 0.49562,3.537105 -1.06047,5.65276 4.61205,13.79177 11.03246,15.82953 1.91276,0.60708 2.09953,1.57667 2.09953,10.89951 v 10.23316 l -4.37381,1.31042 c -4.20598,1.26014 -8.49569,3.5555 -10.90324,5.83417 -3.11104,2.94449 -3.56791,6.15211 -3.56791,25.04975 0,12.26021 -0.38657,19.43725 -1.04694,19.43725 -0.57582,0 -1.04694,-0.47112 -1.04694,-1.04694 z m 0,-27.80062 c 0,-0.98399 -1.09919,-1.51376 -3.14083,-1.51376 h -3.14082 v -8.47227 -8.47228 l 5.49644,0.28284 c 5.4856,0.28228 11.68356,-1.68917 10.63654,-3.38328 -0.30383,-0.49162 -12.30272,-0.89385 -26.66419,-0.89385 H 96.677305 l -0.0698,5.75818 c -0.03839,3.167 -0.0698,8.1138 -0.0698,10.99289 0,2.8791 0.03141,5.6852 0.0698,6.23579 0.08619,1.23622 10.870025,1.71682 29.122445,1.29789 11.25513,-0.25833 13.87198,-0.60395 13.87198,-1.83215 z m -36.43358,-2.77009 c -1.74548,-1.74547 -1.57444,-5.02532 0.26206,-5.02532 0.83511,0 1.99859,0.82447 2.58551,1.83215 1.00201,1.72033 1.06908,1.7218 1.09897,0.0241 0.0175,-0.9944 -1.14597,-2.57974 -2.58552,-3.52297 -2.94943,-1.93254 -3.57699,-6.70298 -1.14709,-8.71962 1.82889,-1.51784 6.85512,-0.38505 7.66585,1.72768 0.91341,2.38029 -2.07811,3.7232 -3.63967,1.63387 -1.14869,-1.53692 -1.30868,-1.54925 -1.30868,-0.10087 0,0.90755 1.17781,2.42183 2.61736,3.36506 4.53402,2.9708 3.05957,10.04222 -2.09389,10.04222 -1.20921,0 -2.76392,-0.56535 -3.4549,-1.25633 z m 9.9123,0.47113 c -0.25921,-0.43187 -0.42289,-4.20086 -0.36371,-8.37554 l 0.10758,-7.59033 h 3.96623 c 3.96008,0 5.36699,1.62208 2.39581,2.76222 -1.74569,0.66989 -2.16952,3.51943 -0.52347,3.51943 0.57582,0 1.04694,0.70669 1.04694,1.57042 0,0.86372 -0.47112,1.57041 -1.04694,1.57041 -0.57582,0 -1.04694,0.94225 -1.04694,2.09388 0,1.16327 0.69796,2.09389 1.57041,2.09389 0.86373,0 1.57041,0.70668 1.57041,1.57041 0,1.09167 -1.09824,1.57041 -3.60251,1.57041 -1.98138,0 -3.81459,-0.35334 -4.07381,-0.7852 z m 9.42123,0.0872 c -0.38388,-0.38388 -0.69797,-4.15287 -0.69797,-8.37554 0,-6.86834 0.21151,-7.67757 2.00664,-7.67757 1.23619,0 2.41038,1.10544 3.05818,2.87909 l 1.05153,2.87909 0.0827,-2.95586 c 0.0624,-2.23026 0.53241,-2.86865 1.9148,-2.60061 1.75321,0.33994 2.00416,3.27076 1.34981,15.76416 -0.0915,1.74726 -3.41625,0.63888 -3.92555,-1.30868 -0.50289,-1.92306 -2.55697,-3.10556 -2.27325,-1.30868 0.46119,2.9209 -0.90794,4.36351 -2.56684,2.7046 z m 16.99569,-5.32195 c -0.0574,-1.5835 -0.48156,-4.0569 -0.94258,-5.49645 -0.6595,-2.05929 -0.86048,-1.44542 -0.94259,2.87909 -0.0576,3.03591 0.36432,5.49645 0.94259,5.49645 0.57581,0 0.99998,-1.29559 0.94258,-2.87909 z m -29.21002,-48.94455 c 0,-5.06022 -0.2538,-5.758177 -2.09388,-5.758177 -2.84963,0 -2.65658,-2.710655 0.26173,-3.675099 l 2.35562,-0.778486 -2.35562,-0.463378 c -2.91954,-0.57431 -3.08986,-3.02235 -0.26173,-3.761924 1.8275,-0.477903 2.09388,-1.428045 2.09388,-7.468617 v -6.921054 l 3.86763,0.296796 c 3.51707,0.269894 4.19696,0.864598 7.5012,6.561304 3.98652,6.873006 5.02302,7.907052 7.11945,7.102577 0.97099,-0.372605 1.40362,-2.601584 1.40362,-7.231732 v -6.693112 h 3.53611 c 4.41277,0 6.48805,2.15423 4.91208,5.09896 -1.92893,3.604239 -1.39942,8.63414 0.97429,9.254878 2.82813,0.739574 2.65781,3.187614 -0.26174,3.761924 l -2.35562,0.463378 2.35562,0.778486 c 2.91831,0.964444 3.11136,3.675099 0.26174,3.675099 -1.84008,0 -2.09389,0.697957 -2.09389,5.758177 v 5.75819 h -3.9741 c -3.69874,0 -4.19096,-0.38084 -7.10401,-5.49645 -2.4057,-4.22467 -3.78748,-5.573097 -5.97184,-5.827721 -2.7906,-0.325292 -2.84194,-0.225999 -2.84194,5.496441 v 5.82773 h -3.6643 -3.6643 z m 9.94595,-9.945945 c -0.35587,-0.575818 -1.09036,-1.046942 -1.6322,-1.046942 -0.54183,0 -0.98515,0.471124 -0.98515,1.046942 0,0.575818 0.73449,1.046942 1.6322,1.046942 0.89771,0 1.34103,-0.471124 0.98515,-1.046942 z m 25.12661,-13.610247 c 0.35588,-0.575818 0.8548,-1.046942 1.10873,-1.046942 0.25393,0 0.46168,0.471124 0.46168,1.046942 0,0.575818 -0.49893,1.046942 -1.10873,1.046942 -0.6098,0 -0.81756,-0.471124 -0.46168,-1.046942 z m -20.41537,-8.776901 c 0,-0.220751 0.94225,-0.647768 2.09388,-0.948928 1.15164,-0.301159 2.09389,-0.120545 2.09389,0.401365 0,0.52191 -0.94225,0.948928 -2.09389,0.948928 -1.15163,0 -2.09388,-0.180614 -2.09388,-0.401365 z m 25.73692,-0.505062 c -0.45099,-0.729721 -0.53724,-1.609504 -0.19168,-1.955073 0.93698,-0.936972 1.95859,0.441079 1.45252,1.959293 -0.35463,1.063877 -0.60123,1.063051 -1.26084,-0.0042 z m 6.92238,-18.462001 c 0.0213,-1.727455 0.25598,-2.307393 0.52142,-1.288753 0.26545,1.018641 0.24799,2.432013 -0.0388,3.140827 -0.28678,0.708813 -0.50396,-0.12462 -0.48263,-1.852074 z"
       id="path13" /><path
       style="fill:#f49a58"
       d="m 140.84787,200.76042 c -0.40991,-0.40935 -5.4514,-0.88048 -11.20331,-1.04694 l -10.458,-0.30267 -0.32494,-3.92603 -0.32493,-3.92604 h 9.92352 c 5.45794,0 10.66874,-0.28596 11.57956,-0.63548 1.42733,-0.54772 1.65604,-3.30442 1.65604,-19.96072 0,-18.78452 0.45943,-21.99567 3.56791,-24.93774 2.40755,-2.27867 6.69726,-4.57403 10.90324,-5.83417 l 4.37381,-1.31042 v -10.17669 -10.17669 l -3.40256,-1.42289 c -1.87141,-0.78259 -3.79093,-1.29919 -4.26559,-1.14802 -0.47466,0.15118 -0.59763,-0.15454 -0.27326,-0.67938 0.32437,-0.52484 -0.1428,-1.56223 -1.03816,-2.30531 -0.89535,-0.74308 -2.34523,-2.73819 -3.22195,-4.43358 -1.8942,-3.66297 -1.09112,-10.156749 1.25607,-10.156749 0.83763,0 1.52297,0.471124 1.52297,1.046942 0,0.575817 0.88471,1.046947 1.96603,1.046947 1.08131,0 3.65736,0.70668 5.72455,1.57041 4.54611,1.89948 4.60502,1.90247 5.16917,0.26173 0.24749,-0.71977 0.32622,-0.48452 0.17496,0.52278 -0.20786,1.38424 1.04314,2.21893 5.12324,3.41834 2.96904,0.87279 5.91361,1.93314 6.5435,2.35632 1.41577,0.95117 7.78929,29.68193 7.76873,35.02019 -0.0156,4.05638 -5.4689,30.98083 -7.17614,35.43071 -0.53968,1.40664 -2.68262,5.07827 -4.7621,8.15918 -3.75323,5.56071 -4.92572,11.157 -2.78558,13.29565 0.62863,0.6282 -4.21127,0.99459 -13.1381,0.99459 -7.77335,0 -14.46876,-0.33492 -14.87868,-0.74427 z m -47.573126,-9.95903 c 1.871408,-0.23224 4.933714,-0.23224 6.805126,0 1.87141,0.23224 0.34025,0.42226 -3.402565,0.42226 -3.742818,0 -5.27397,-0.19002 -3.402561,-0.42226 z m 19.957336,0.0422 c 0.75576,-0.30243 1.65875,-0.26523 2.00664,0.0827 0.34789,0.34789 -0.27046,0.59533 -1.37412,0.54987 -1.21962,-0.0502 -1.4677,-0.29831 -0.63252,-0.63253 z M 72.335903,163.20745 c -3.404353,-1.98285 -2.161956,-5.55925 3.543503,-10.20044 2.956609,-2.40509 5.783353,-4.37289 6.281653,-4.37289 1.397883,0 1.082291,13.01518 -0.350331,14.4478 -1.522267,1.52227 -6.953235,1.59422 -9.474825,0.12553 z m -3.641262,-22.12249 c -4.983548,-2.40525 -4.202089,-8.40702 1.356339,-10.41697 4.394156,-1.58895 4.145625,-3.19038 -0.647251,-4.17063 -1.958457,-0.40055 -4.409166,-1.77592 -5.446021,-3.05638 -1.581653,-1.95326 -1.669994,-2.65133 -0.548663,-4.33552 1.439501,-2.16207 15.805245,-10.25514 18.203571,-10.25514 1.175954,0 1.454443,2.97476 1.454443,15.53608 v 15.53608 l -2.666617,1.215 c -3.259859,1.48529 -8.568897,1.46147 -11.705801,-0.0525 z m 6.758291,-66.241488 c -5.46191,-4.170478 -7.707669,-9.127299 -6.077657,-13.414554 1.988731,-5.23076 7.153217,-6.324732 11.122017,-2.355932 2.30252,2.302519 2.569767,3.445743 2.569767,10.992891 0,9.859936 -0.525856,10.189892 -7.614127,4.777595 z"
       id="path12" /><path
       style="fill:#62af66"
       d="m 114.27902,207.59464 c 0.75576,-0.30243 1.65875,-0.26524 2.00664,0.0827 0.34789,0.34789 -0.27046,0.59533 -1.37411,0.54987 -1.21963,-0.0502 -1.46771,-0.29831 -0.63253,-0.63252 z m 14.76432,-3.20881 c 8.86599,-0.24897 12.24392,-0.72432 13.08678,-1.84161 0.89955,-1.19244 3.85823,-1.45745 14.20947,-1.27277 11.50965,0.20535 13.11546,0.45239 13.42528,2.06539 0.32857,1.71064 -1.40639,1.81731 -26.16014,1.60836 -14.58163,-0.12308 -21.13425,-0.3748 -14.56139,-0.55937 z m -23.71437,-13.57835 c 1.59142,-0.24065 3.94704,-0.23421 5.23471,0.0143 1.28768,0.2485 -0.0144,0.44539 -2.89348,0.43753 -2.87909,-0.008 -3.93264,-0.21118 -2.34123,-0.45182 z m 10.9785,0.0579 c 0.71977,-0.29044 1.89758,-0.29044 2.61735,0 0.71978,0.29043 0.13087,0.52806 -1.30867,0.52806 -1.43955,0 -2.02845,-0.23763 -1.30868,-0.52806 z M 85.0274,188.67965 c -1.302261,-1.6605 -1.26523,-1.69754 0.395278,-0.39527 1.007682,0.79027 1.832149,1.61474 1.832149,1.83214 0,0.86167 -0.859734,0.30708 -2.227427,-1.43687 z m -1.56442,-13.87198 c 0,-6.62191 0.16999,-9.33087 0.377757,-6.01992 0.207766,3.31096 0.207766,8.72888 0,12.03984 -0.207767,3.31095 -0.377757,0.60199 -0.377757,-6.01992 z m 1.983112,6.28165 c 0,-2.59118 0.204171,-3.65121 0.453712,-2.35562 0.249542,1.2956 0.249542,3.41565 0,4.71124 -0.249541,1.29559 -0.453712,0.23557 -0.453712,-2.35562 z M 85.17624,101.52173 c 0.0092,-40.595181 0.362895,-74.354998 0.785941,-75.021819 0.423046,-0.66682 0.769175,7.106725 0.769175,17.274544 V 62.2614 l 3.140826,-0.274476 c 5.89471,-0.515137 6.651192,-0.698009 6.161969,-1.489589 -0.269183,-0.435547 0.825435,-1.113818 2.432485,-1.507268 1.607054,-0.39345 3.157474,-1.050449 3.445384,-1.459998 0.2879,-0.409549 1.70128,-1.080165 3.14082,-1.490258 2.28741,-0.651631 2.20626,-0.484234 -0.64377,1.327905 -1.82436,1.159985 -3.48744,3.257387 -3.7748,4.760602 -0.28251,1.47789 -0.09,2.425208 0.4279,2.105152 0.51786,-0.320055 1.71805,0.04754 2.66709,0.81689 1.45524,1.179704 1.58671,1.168484 0.83932,-0.07163 -0.58093,-0.963906 -0.49475,-1.228509 0.25016,-0.768128 0.625,0.38627 1.41384,0.253334 1.75299,-0.295413 1.65677,-2.680714 7.82481,-4.50466 16.00172,-4.731854 7.08755,-0.196926 8.4153,0.009 7.46214,1.157523 -0.63771,0.76839 -3.15608,1.397072 -5.59639,1.397072 -10.94812,0 -14.0525,1.06565 -20.50377,7.038383 -12.467309,11.542531 -15.440107,25.215892 -8.532812,39.246597 5.510562,11.19355 15.506062,17.44187 28.046942,17.53253 8.52892,0.0617 15.15971,-2.37957 21.11976,-7.77555 l 4.94362,-4.47574 3.68176,2.6883 c 2.02498,1.47857 4.04944,2.98773 4.49881,3.35371 1.38673,1.12937 2.01986,12.89593 0.85767,15.93945 -1.21734,3.18792 -3.34628,3.70976 -5.339,1.30868 -1.9468,-2.34575 -57.727578,-2.34735 -59.674286,-0.002 -1.933899,2.33021 -2.047398,26.84879 -0.134958,29.1543 1.254883,1.51281 4.271547,1.7322 23.817934,1.7322 h 22.38106 v 3.63038 3.63038 l -27.22123,0.29565 -27.221226,0.29565 z m 19.0914,61.98545 c -4.17469,-0.16918 -7.621743,-0.75809 -7.660131,-1.30868 -0.03839,-0.55059 -0.0698,-3.35669 -0.0698,-6.23579 0,-2.87909 0.03141,-7.82589 0.0698,-10.99289 l 0.0698,-5.75818 h 26.111761 c 14.36147,0 26.36036,0.40223 26.66419,0.89385 1.04702,1.69411 -5.15094,3.66556 -10.63654,3.38328 l -5.49644,-0.28284 v 8.47228 8.47227 h 3.14082 c 2.04164,0 3.14083,0.52977 3.14083,1.51376 0,1.2282 -2.61685,1.57382 -13.87198,1.83215 -7.62959,0.17511 -17.28763,0.17997 -21.46231,0.0108 z m 5.81052,-4.61303 c 2.21864,-2.21863 1.49076,-6.91733 -1.36102,-8.78589 -1.43955,-0.94323 -2.61736,-2.45751 -2.61736,-3.36506 0,-1.44838 0.15999,-1.43605 1.30868,0.10087 1.56156,2.08933 4.55308,0.74642 3.63967,-1.63387 -0.81073,-2.11273 -5.83696,-3.24552 -7.66585,-1.72768 -2.4299,2.01664 -1.80234,6.78708 1.14709,8.71962 1.43955,0.94323 2.60303,2.52857 2.58552,3.52297 -0.0299,1.69767 -0.097,1.6962 -1.09897,-0.0241 -1.39414,-2.3936 -4.1039,-2.35904 -4.1039,0.0524 0,2.51687 2.01458,4.39715 4.71123,4.39715 1.20922,0 2.76393,-0.56535 3.45491,-1.25633 z m 10.67881,-0.31408 c 0,-0.86373 -0.70668,-1.57041 -1.57041,-1.57041 -0.87245,0 -1.57041,-0.93062 -1.57041,-2.09389 0,-1.15163 0.47112,-2.09388 1.04694,-2.09388 0.57582,0 1.04694,-0.70669 1.04694,-1.57041 0,-0.86373 -0.47112,-1.57042 -1.04694,-1.57042 -1.64605,0 -1.22222,-2.84954 0.52347,-3.51943 2.97118,-1.14014 1.56427,-2.76222 -2.39581,-2.76222 h -3.96623 l -0.10758,7.59033 c -0.0592,4.17468 0.1045,7.94367 0.36371,8.37554 0.25922,0.43186 2.09243,0.7852 4.07381,0.7852 2.50427,0 3.60251,-0.47874 3.60251,-1.57041 z m 4.31175,0.26174 c 0.0682,-0.71978 0.0682,-1.66203 0,-2.09389 -0.28372,-1.79688 1.77036,-0.61438 2.27325,1.30868 0.5093,1.94756 3.83403,3.05594 3.92555,1.30868 0.65435,-12.4934 0.4034,-15.42422 -1.34981,-15.76416 -1.38239,-0.26804 -1.85243,0.37035 -1.9148,2.60061 l -0.0827,2.95586 -1.05153,-2.87909 c -0.6478,-1.77365 -1.82199,-2.87909 -3.05818,-2.87909 -1.79513,0 -2.00664,0.80923 -2.00664,7.67757 0,4.22267 0.31409,7.99166 0.69797,8.37554 1.11941,1.11942 2.43253,0.807 2.56684,-0.61071 z m 12.54368,-7.3286 c 0.0821,-4.32451 0.28309,-4.93838 0.94259,-2.87909 1.21501,3.79389 1.21501,8.37554 0,8.37554 -0.57827,0 -1.00023,-2.46054 -0.94259,-5.49645 z m -54.28132,-7.59033 c 0.01162,-2.30327 0.226018,-3.12225 0.47644,-1.81994 0.250421,1.3023 0.240914,3.1868 -0.02113,4.18777 -0.262042,1.00097 -0.466932,-0.0646 -0.455312,-2.36783 z m 31.14424,-23.87255 c -5.18691,-1.6272 -14.952815,-11.71767 -16.53027,-17.07966 -2.698409,-9.172248 -1.015228,-18.926843 4.51755,-26.180686 3.20721,-4.204875 13.0138,-9.30039 16.26354,-8.450562 1.11696,0.29209 2.03083,0.104055 2.03083,-0.417855 0,-3.089195 14.8517,0.933388 20.10196,5.444614 2.92803,2.515876 3.215,3.142596 1.88382,4.114002 -1.25767,0.917767 -1.10444,1.015027 0.76943,0.488388 2.04903,-0.575865 2.66709,0.0824 4.97297,5.2964 1.50455,3.402044 2.63314,7.91745 2.63314,10.534962 0,4.217918 -0.21256,4.580968 -2.68215,4.580968 -2.61557,0 -2.67441,0.156335 -2.37005,6.297559 0.2905,5.86165 0.0957,6.48694 -2.8143,9.0337 -7.84629,6.86688 -19.15287,9.35721 -28.77647,6.33817 z m 3.14083,-14.93385 c 0,-5.72244 0.0513,-5.821733 2.84194,-5.496441 2.18436,0.254624 3.56614,1.603051 5.97184,5.827721 2.91305,5.11561 3.40527,5.49645 7.10401,5.49645 h 3.9741 v -5.75819 c 0,-5.06022 0.25381,-5.758177 2.09389,-5.758177 2.84962,0 2.65657,-2.710655 -0.26174,-3.675099 l -2.35562,-0.778486 2.35562,-0.463378 c 2.91955,-0.57431 3.08987,-3.02235 0.26174,-3.761924 -2.37371,-0.620738 -2.90322,-5.650639 -0.97429,-9.254878 1.57597,-2.94473 -0.49931,-5.09896 -4.91208,-5.09896 h -3.53611 v 6.693112 c 0,4.630148 -0.43263,6.859127 -1.40362,7.231732 -2.09643,0.804475 -3.13293,-0.229571 -7.11945,-7.102577 -3.30424,-5.696706 -3.98413,-6.29141 -7.5012,-6.561304 l -3.86763,-0.296796 v 6.921054 c 0,6.040572 -0.26638,6.990714 -2.09388,7.468617 -2.82813,0.739574 -2.65781,3.187614 0.26173,3.761924 l 2.35562,0.463378 -2.35562,0.778486 c -2.91831,0.964444 -3.11136,3.675099 -0.26173,3.675099 1.84008,0 2.09388,0.697957 2.09388,5.758177 v 5.75819 h 3.6643 3.6643 z m 0,-9.876405 c 0,-0.575818 0.44332,-1.046942 0.98515,-1.046942 0.54184,0 1.27633,0.471124 1.6322,1.046942 0.35588,0.575818 -0.0874,1.046942 -0.98515,1.046942 -0.89771,0 -1.6322,-0.471124 -1.6322,-1.046942 z m 29.31437,-13.610247 c 0,-0.575818 -0.20775,-1.046942 -0.46168,-1.046942 -0.25393,0 -0.75285,0.471124 -1.10873,1.046942 -0.35588,0.575818 -0.14812,1.046942 0.46168,1.046942 0.6098,0 1.10873,-0.471124 1.10873,-1.046942 z m -17.79801,-9.324464 c 0,-0.52191 -0.94225,-0.702524 -2.09389,-0.401365 -1.15163,0.30116 -2.09388,0.728177 -2.09388,0.948928 0,0.220751 0.94225,0.401365 2.09388,0.401365 1.15164,0 2.09389,-0.427018 2.09389,-0.948928 z M 83.480137,93.669662 c 0.0016,-8.061454 0.165977,-11.220929 0.365208,-7.021055 0.19923,4.199874 0.197894,10.795609 -0.003,14.657193 -0.200864,3.86158 -0.363871,0.42532 -0.362238,-7.636138 z m 75.228483,8.385098 -3.40256,-1.47889 v -8.22052 c 0,-8.644793 -2.4843,-15.754015 -7.31843,-20.942841 -2.58713,-2.776958 -2.66545,-3.537608 -0.2719,-2.640579 1.62827,0.610226 1.66615,0.482705 0.34038,-1.145954 -1.34216,-1.648792 -1.58487,-1.666243 -2.41997,-0.174 -0.51051,0.912223 -1.37805,1.380562 -1.92787,1.040754 -0.54982,-0.339808 -0.68089,-1.174183 -0.29127,-1.854168 0.38962,-0.679985 0.3327,-0.896912 -0.12648,-0.482061 -0.45919,0.414851 -2.27257,-0.269451 -4.02975,-1.52067 -1.75717,-1.25122 -4.26639,-2.186263 -5.57604,-2.077873 -1.67609,0.138717 -2.21153,-0.245002 -1.80827,-1.295875 0.46662,-1.216005 1.09064,-1.264054 3.36398,-0.259026 1.53509,0.678657 3.44073,1.855416 4.23474,2.61502 0.79402,0.759604 2.12815,1.118442 2.96472,0.797417 0.83658,-0.321024 1.90324,-0.583681 2.37035,-0.583681 1.91281,0 1.95188,-3.305499 0.0583,-4.92688 -1.11017,-0.950552 -1.72977,-2.195424 -1.3769,-2.766382 0.37307,-0.60363 -0.0592,-0.769172 -1.03293,-0.395533 -0.92099,0.353415 -1.83053,0.174549 -2.0212,-0.397481 -0.83599,-2.507969 -22.84451,-3.728933 -28.57951,-1.585501 -1.15163,0.43042 -0.86325,0.0649 0.64085,-0.812271 3.35463,-1.956369 23.63124,-2.821825 24.79028,-1.058111 0.40833,0.621367 2.25084,1.64562 4.09447,2.276118 5.08194,1.737964 11.21025,6.176925 9.54991,6.917342 -0.76402,0.340708 -0.46689,0.506296 0.66237,0.369125 1.71727,-0.2086 2.08624,-1.169179 2.28505,-5.949073 0.13041,-3.135168 -0.13099,-5.10471 -0.58089,-4.37676 -0.61567,0.99618 -2.49711,0.400587 -7.60671,-2.408002 -3.7338,-2.052351 -7.92741,-3.738762 -9.31913,-3.747579 -1.39173,-0.0088 -3.18204,-0.428732 -3.97848,-0.933142 -1.06521,-0.674636 -0.58081,-1.107591 1.83215,-1.637567 1.80412,-0.396251 3.28021,-1.154147 3.28021,-1.684213 0,-0.530066 1.07299,-0.963757 2.38441,-0.963757 1.31142,0 3.41283,-0.720341 4.66981,-1.600758 1.37398,-0.962378 3.4501,-1.3774 5.20592,-1.04068 1.60629,0.308044 2.30665,0.274115 1.55636,-0.0754 -1.03536,-0.482303 -0.91078,-0.967006 0.51684,-2.010903 1.40921,-1.030445 2.07559,-1.069571 2.65681,-0.155994 0.46919,0.737483 0.78214,0.288434 0.79184,-1.136186 0.009,-1.295591 0.48715,-2.35562 1.06297,-2.35562 0.57582,0 1.04694,0.721472 1.04694,1.603272 0,0.881799 0.70669,1.874452 1.57042,2.205895 1.34187,0.514924 1.55238,4.357249 1.44654,26.402429 -0.0681,14.189892 -0.48351,24.386433 -0.92307,22.658978 l -0.79921,-3.140826 -0.12387,2.953873 c -0.0681,1.624629 0.57577,3.653506 1.43088,4.508615 1.37503,1.375029 1.59058,-1.991828 1.86475,-29.127424 l 0.31001,-30.682167 0.15558,37.428179 c 0.0856,20.585498 0.0709,37.409741 -0.0326,37.387201 -0.1035,-0.0225 -1.71933,-0.70648 -3.59074,-1.51987 z m -6.9578,-31.657748 c -1.06423,-1.064232 -1.94234,0.538015 -1.06916,1.950853 0.65961,1.067271 0.90621,1.068097 1.26084,0.0042 0.24246,-0.7274 0.15621,-1.607182 -0.19168,-1.955073 z m 6.37464,-17.799901 c -0.26544,-1.01864 -0.50008,-0.438702 -0.52142,1.288753 -0.0213,1.727454 0.19585,2.560887 0.48263,1.852074 0.28678,-0.708814 0.30424,-2.122186 0.0388,-3.140827 z M 83.495447,43.416443 c -0.0012,-9.788908 0.156159,-13.934375 0.349693,-9.212148 0.193535,4.722227 0.194519,12.731334 0.0022,17.798015 -0.192331,5.066681 -0.350678,1.203041 -0.351881,-8.585867 z M 159.03199,25.585132 c -1.11774,-0.845414 -1.52877,-1.537117 -0.9134,-1.537117 0.61537,0 1.70535,0.706686 2.42218,1.570413 1.6303,1.964395 1.11744,1.953076 -1.50878,-0.0333 z m -54.30842,-4.414235 c 9.89572,-0.171915 26.38506,-0.172209 36.64297,-6.52e-4 10.25792,0.171557 2.16142,0.312215 -17.99221,0.312573 -20.15364,3.58e-4 -28.546476,-0.140006 -18.65076,-0.311921 z"
       id="path11" /><path
       style="fill:#393c36"
       d="m 110.28755,218.77924 v -13.61025 h 30.88479 30.88479 v 13.61025 13.61024 h -30.88479 -30.88479 z m 8.37554,-7.23724 c 0,-2.87647 -2.91034,-4.93684 -5.06073,-3.58273 -2.4795,1.56135 -2.81281,4.69141 -0.66667,6.2607 2.3056,1.6859 5.7274,0.086 5.7274,-2.67797 z m -14.78008,-20.76577 c -15.01148,-0.29029 -16.511913,-0.49456 -18.32149,-2.49426 -1.896025,-2.09524 -1.96637,-5.21276 -1.849526,-81.9658 0.08933,-58.681028 0.445269,-80.392762 1.345513,-82.074884 1.22366,-2.286429 1.235986,-2.287155 38.840293,-2.287155 36.11858,0 37.65939,0.08063 38.70002,2.025057 1.13616,2.122941 1.61436,80.515982 0.48425,79.385882 -0.32974,-0.32974 -0.5492,-17.29665 -0.4877,-37.704245 0.10299,-34.172229 -0.0358,-37.281396 -1.75609,-39.340233 -1.83367,-2.194519 -2.4823,-2.236748 -35.37007,-2.302728 -18.42618,-0.03697 -34.292959,-0.0453 -35.259511,-0.01853 -0.966552,0.02678 -2.497705,0.78902 -3.402562,1.693877 -1.466489,1.46649 -1.645194,10.205397 -1.645194,80.452279 0,75.01741 0.09207,78.8904 1.914585,80.53975 1.670386,1.51168 5.142279,1.73268 27.220492,1.73268 21.79618,0 25.30591,0.2178 25.30591,1.57041 0,1.29955 -1.67036,1.5302 -9.68422,1.33725 -5.32631,-0.12824 -17.04193,-0.37544 -26.0347,-0.54935 z"
       id="path10" /></g></svg>
