<?xml version="1.0" encoding="UTF-8" standalone="no"?>
<!-- Created with Inkscape (http://www.inkscape.org/) -->

<svg
   version="1.1"
   id="svg1"
   width="247"
   height="256"
   viewBox="0 0 247 256"
   xml:space="preserve"
   xmlns="http://www.w3.org/2000/svg"
   xmlns:svg="http://www.w3.org/2000/svg"><defs
     id="defs1" /><g
     id="g16"
     transform="translate(4.6875,3.125)"><path
       style="fill:#fbf7f8"
       d="M -0.75,126.9375 V 0.625 H 123.65104 248.05208 V 126.9375 253.25 H 123.65104 -0.75 Z m 30.245886,108.8086 c 2.509543,-1.00763 3.868156,-1.11684 5.886207,-0.47315 4.89733,1.56209 8.744955,1.73082 13.258518,0.58144 2.817366,-0.71744 5.092813,-0.87894 6.080715,-0.43158 3.449348,1.562 13.175362,1.3527 15.876374,-0.34165 1.580587,-0.9915 1.67919,-1.41238 0.661363,-2.82294 -2.260072,-3.13215 -1.192617,-3.41121 2.020756,-0.52827 1.769305,1.58736 4.769807,3.43512 6.667782,4.10613 6.435784,2.2753 16.306548,1.12132 19.6581,-2.29819 1.722269,-1.7572 2.660649,-1.69262 3.252959,0.22389 0.88974,2.87886 9.57161,3.87909 17.20389,1.98203 2.06255,-0.51266 2.1808,-3.34998 0.21616,-5.18686 -2.19727,-2.05438 -0.79501,-4.0269 2.86271,-4.0269 1.74286,0 4.66515,-0.89106 6.63863,-2.02424 1.93891,-1.11333 3.72148,-2.02424 3.96126,-2.02424 1.31702,0 0.13423,6.29467 -1.63894,8.7223 -1.93985,2.6558 -1.96819,2.90676 -0.43531,3.85516 2.23421,1.38234 8.98176,2.08704 12.94513,1.35197 4.32551,-0.80223 5.82433,-2.79405 3.6396,-4.83671 -1.91825,-1.79351 -2.25706,-6.16382 -0.43824,-5.65282 0.65789,0.18483 1.57714,1.39937 2.04277,2.69898 1.93221,5.39285 2.73567,6.64615 4.76139,7.42711 2.16339,0.83405 23.30305,0.63889 26.59633,-0.24553 1.90091,-0.51049 2.40916,-3.54634 0.81898,-4.89185 -1.29834,-1.09858 -2.3028,-7.84781 -1.54712,-10.39543 0.43828,-1.47757 1.25334,-2.08166 2.80866,-2.08166 1.20516,0 3.02709,-0.53495 4.04873,-1.18879 1.02164,-0.65383 2.18049,-1.20038 2.57523,-1.21454 0.39473,-0.0142 0.71769,2.63618 0.71769,5.88966 0,5.03239 -0.35577,6.32343 -2.38337,8.64884 -2.22627,2.55326 -2.27957,2.83048 -0.80862,4.20578 1.25247,1.17102 3.02612,1.47235 8.66634,1.47235 3.90037,0 7.92451,-0.37718 8.94253,-0.83818 2.38979,-1.08219 2.36221,-3.37751 -0.0629,-5.23453 -1.58026,-1.21008 -1.91386,-2.49384 -1.91386,-7.36497 0,-6.08021 0.82387,-7.67707 2.87954,-5.58125 0.65039,0.6631 2.42165,1.20563 3.93615,1.20563 h 2.75362 v 5.94723 c 0,4.91891 -0.33092,6.20062 -1.91386,7.41275 -2.52118,1.93058 -2.42577,3.52264 0.23923,3.99188 1.1842,0.20851 7.88219,0.52102 14.88442,0.69448 12.68334,0.3142 12.73852,0.30765 14.63907,-1.73675 1.35036,-1.45257 1.82444,-3.00918 1.62264,-5.32782 -0.37471,-4.30526 -2.74479,-4.74172 -6.96305,-1.28229 -2.4853,2.03821 -3.78897,2.51033 -6.3581,2.30252 -2.55921,-0.20701 -3.29843,-0.65999 -3.55203,-2.17661 -0.45762,-2.73668 1.31081,-3.94466 2.65759,-1.81536 2.81854,4.45618 7.39544,-0.20142 6.53622,-6.65147 -0.45384,-3.40696 -0.41245,-3.46654 2.18455,-3.14403 1.97489,0.24526 2.92798,-0.11523 3.75292,-1.41947 1.14045,-1.80308 0.52895,-6.15041 -0.97582,-6.93732 -0.46748,-0.24447 -13.02996,-0.41647 -27.91661,-0.38223 -14.88665,0.0342 -30.86185,0.0224 -35.50045,-0.0262 -8.75645,-0.0918 -11.18327,0.61907 -11.18327,3.27594 0,0.78849 0.64592,1.64335 1.43539,1.89968 1.13479,0.36846 1.43233,2.03992 1.42075,7.98116 -0.0165,8.44275 -1.13518,11.41218 -2.82095,7.48766 -1.66771,-3.88249 -3.26973,-6.21421 -4.5566,-6.63205 -0.87872,-0.28531 -0.68937,-0.94334 0.70219,-2.44022 2.55549,-2.74892 2.40272,-6.10962 -0.40327,-8.87087 l -2.30861,-2.27181 -27.32608,-0.19689 c -25.80171,-0.1859 -27.37927,-0.11279 -28.27951,1.31051 -0.52439,0.82906 -0.64562,1.80528 -0.2694,2.16936 0.37622,0.36409 -0.55639,-0.13331 -2.07245,-1.10533 -3.990764,-2.55866 -9.606015,-3.60581 -15.979513,-2.9799 -4.39905,0.43201 -6.31384,1.11629 -9.421195,3.36683 -2.145001,1.55355 -3.900002,3.36428 -3.900002,4.02386 0,0.65958 -0.437456,0.97047 -0.972124,0.69087 -0.616048,-0.32215 -0.378797,-1.35824 0.647717,-2.82862 1.342324,-1.92274 1.406826,-2.53743 0.376488,-3.5879 -1.680565,-1.71339 -13.145908,-1.76209 -16.004409,-0.068 -1.788138,1.05976 -2.161438,1.05976 -3.200888,0 -1.455421,-1.48385 -14.32854,-1.69464 -16.021291,-0.26234 -0.763312,0.64587 -1.492308,0.68043 -2.344481,0.11117 -1.843091,-1.23121 -12.171739,-1.88968 -16.547617,-1.05494 -5.453386,1.04029 -9.0908454,4.70164 -9.0908454,9.15056 0,1.89788 0.6368341,4.22001 1.4151868,5.16028 1.2897746,1.55809 1.2473736,1.74673 -0.4784656,2.1286 -1.9911833,0.44059 -2.5289688,3.74276 -1.2618548,7.74818 1.3400772,4.23606 14.895034,6.49405 21.95864,3.65788 z m 22.53479,-2.53606 c 0.08221,-0.334 -0.517549,-1.86346 -1.332792,-3.39881 -1.958535,-3.6885 -1.240317,-5.04985 2.501639,-4.74174 2.408546,0.19831 3.043642,0.65194 3.275489,2.33956 0.160051,1.16502 -0.370472,2.55567 -1.196164,3.1355 -0.816077,0.57308 -1.483777,1.54389 -1.483777,2.15736 0,0.61347 -0.430619,1.1154 -0.956931,1.1154 -0.526312,0 -0.889671,-0.27327 -0.807464,-0.60727 z m 52.098774,-4.16961 c 0.81404,-1.38071 1.62353,-2.51038 1.79886,-2.51038 0.77985,0 -0.79515,3.27657 -1.97236,4.10325 -0.98764,0.69355 -0.94529,0.30474 0.1735,-1.59287 z m -87.787911,-0.0116 c -1.242509,-0.85233 -1.930736,-1.82854 -1.529393,-2.16935 1.015841,-0.86264 7.641159,1.92988 6.920269,2.91683 -0.902346,1.23539 -2.905124,0.95769 -5.390876,-0.74748 z m 70.727057,-1.01094 c -4.773191,-4.08149 -5.779138,-12.7746 -1.557844,-13.46247 3.839758,-0.62569 8.508179,12.02876 5.275154,14.29909 -1.268194,0.89057 -1.850732,0.75946 -3.71731,-0.83662 z m -53.214875,-7.96541 -3.143116,-2.42908 h 2.451388 c 1.348263,0 2.774352,-0.0911 3.169086,-0.20243 0.394734,-0.11133 0.787889,0.98176 0.873679,2.42909 0.08579,1.44733 0.0741,2.63151 -0.02597,2.63151 -0.100073,0 -1.596353,-1.09309 -3.325067,-2.42909 z m 85.012659,-2.78614 c 0,-1.53239 0.418,-3.00474 0.92888,-3.2719 1.13098,-0.59144 2.36444,3.1488 1.59669,4.84169 -1.00256,2.21064 -2.52557,1.26399 -2.52557,-1.56979 z m 27.751,-0.82582 c 0,-2.03841 0.38356,-2.89367 1.19617,-2.66723 1.79233,0.49945 1.97381,3.44173 0.28541,4.62737 -1.29215,0.90739 -1.48158,0.65678 -1.48158,-1.96014 z m -96.012079,1.45278 c -1.154735,-0.97707 -0.666112,-3.75969 0.920716,-5.24333 1.492124,-1.3951 1.637934,-1.37205 3.415173,0.5397 2.32997,2.50633 1.53152,5.24342 -1.529581,5.24342 -1.192595,0 -2.455434,-0.24291 -2.806308,-0.53979 z M 225.2614,216.20643 c 0.24142,-1.77533 0.85983,-2.28052 3.05093,-2.49239 1.51148,-0.14614 3.21242,0.12713 3.77988,0.60728 0.7377,0.62419 0.45014,0.87299 -1.00902,0.87299 -1.20033,0 -2.29092,0.6669 -2.6482,1.61939 -0.95525,2.54664 -3.53534,2.05294 -3.17359,-0.60727 z M 24.847906,216.6823 c -2.887211,-0.89225 -3.378556,-1.88188 -1.273665,-2.56533 1.27219,-0.41307 5.340622,1.86783 5.340622,2.99413 0,0.65927 -0.828901,0.57188 -4.066957,-0.4288 z m 79.281744,-1.97381 c -0.34057,-0.75094 -0.4039,-1.54753 -0.14075,-1.7702 0.26316,-0.22266 0.75711,0.20956 1.09768,0.96051 0.34056,0.75094 0.4039,1.54753 0.14074,1.7702 -0.26316,0.22267 -0.75711,-0.20956 -1.09767,-0.96051 z m 9.20156,-28.14141 c 0.0445,-7.349 -0.25327,-9.76625 -1.27029,-10.31122 -0.73065,-0.39151 -4.7734,-0.72374 -8.9839,-0.73829 -4.210496,-0.0146 -10.51599,-0.53948 -14.012208,-1.1665 -6.16785,-1.10617 -18.99063,-5.01339 -19.958844,-6.08165 -0.263156,-0.29034 -2.082945,-1.54721 -4.043976,-2.79303 -12.40105,-7.87826 -17.755175,-33.18836 -8.75832,-41.40246 4.095861,-3.73952 8.860845,-1.9994 15.194829,5.54897 11.198738,13.34582 15.933887,17.27984 25.358468,21.06809 5.722751,2.30028 7.023381,2.50032 16.267831,2.50201 8.50552,0.002 10.66231,-0.2717 14.0515,-1.78026 10.47808,-4.66388 9.08449,-12.53005 -3.22014,-18.17619 -2.53622,-1.16378 -9.13281,-3.6197 -14.65909,-5.45761 C 75.508317,116.54161 61.933006,107.14135 57.175821,91.687436 53.271993,79.005683 57.659907,65.490886 68.95925,55.394418 c 8.119879,-7.255475 22.863792,-14.489666 32.68237,-16.035807 2.89472,-0.455833 6.74924,-1.071401 8.5656,-1.367927 l 3.30248,-0.53914 -0.12565,-10.923588 C 113.31494,20.519982 113.22834,15.331095 113.1916,14.997095 113.02124,13.448444 77.017165,15.263707 60.493588,17.654037 31.51252,21.846491 14.532498,30.645792 7.657007,45.034743 l -2.186955,4.576836 v 55.464141 55.46414 l 3.0944454,5.54837 c 8.0347986,14.40645 29.6192466,24.85495 60.5267176,29.29951 4.40703,0.63374 14.353189,0.98473 25.686788,0.90646 l 18.495057,-0.12773 z m 68.69262,9.08705 c 13.82352,-1.1339 21.54123,-2.88254 32.28376,-7.3147 15.97669,-6.59168 25.50151,-15.97957 28.05064,-27.64736 0.63383,-2.90118 0.87899,-23.83171 0.68646,-58.6064 C 242.75594,49.933235 242.67539,47.842095 240.7999,43.809383 236.96968,35.573594 231.87215,30.72095 222.21494,26.117246 206.93395,18.832622 183.99833,15.451392 146.61738,14.97245 l -13.8755,-0.177779 -0.26814,10.865946 c -0.14747,5.97627 0.13153,11.204119 0.62001,11.617442 0.48849,0.413323 2.33162,0.845627 4.09587,0.960676 1.76424,0.115049 6.43736,0.822952 10.3847,1.573118 9.6605,1.835916 15.12417,1.910462 19.02086,0.25952 2.98647,-1.265305 3.47732,-1.27041 6.47366,-0.06732 6.49311,2.607105 16.16,15.2559 18.65826,24.413709 1.42109,5.209235 -0.13092,12.558899 -3.24857,15.383856 -7.32949,6.64138 -13.42244,5.158796 -28.55073,-6.947187 -8.8033,-7.044585 -12.47389,-9.213581 -18.56313,-10.969156 -12.17532,-3.510245 -23.45522,0.758404 -23.45522,8.876155 0,6.887875 6.70115,10.75276 29.9518,17.274702 33.02344,9.263262 46.39257,19.687868 48.17879,37.567518 2.44981,24.52213 -23.3953,47.30245 -56.50771,49.80685 l -6.79045,0.51358 -0.26815,9.86263 -0.26815,9.86262 2.66048,0.35882 c 4.84181,0.653 37.90714,0.40478 47.15777,-0.35402 z"
       id="path19" /><path
       style="fill:#ef9fa4"
       d="m 12.069602,235.51164 c -4.1218435,-1.58387 -5.1274822,-3.15454 -5.1510868,-8.04528 -0.00976,-2.02214 0.4661797,-2.81335 1.8805856,-3.12632 1.7258392,-0.38187 1.7682402,-0.57051 0.4784656,-2.1286 -0.7783527,-0.94027 -1.4151868,-3.30458 -1.4151868,-5.25402 0,-2.95134 0.5444302,-4.0051 3.2535654,-6.2974 1.789461,-1.51413 4.050211,-2.73871 5.023888,-2.72128 1.165076,0.0209 0.749027,0.4078 -1.216927,1.13178 -4.069173,1.49851 -6.1035953,4.22393 -6.1035953,8.17671 0,4.01753 2.9896653,6.7357 9.7470373,8.86191 4.882068,1.53614 6.214509,3.0045 4.084009,4.5006 -2.072312,1.45525 -5.846681,0.2676 -9.464986,-2.97825 -3.6057829,-3.23463 -5.3229914,-3.03494 -5.3229914,0.61897 0,3.58473 1.4001006,5.21708 5.7330344,6.68402 6.857133,2.32153 15.675806,1.19796 19.743066,-2.51544 1.721472,-1.5717 2.274901,-2.99878 2.274901,-5.86608 0,-4.64489 -2.09677,-6.56375 -9.344617,-8.55173 -5.66838,-1.55476 -6.646434,-2.3524 -4.97456,-4.05693 1.671376,-1.70403 3.656175,-1.45954 7.313572,0.90087 3.990712,2.57553 6.422566,2.31925 6.835689,-0.72037 0.253345,-1.86403 0.552964,-2.09857 1.674629,-1.3109 1.01211,0.71074 1.36608,2.99955 1.36608,8.83323 0,6.78644 -0.272071,8.13935 -1.969934,9.79579 -1.859944,1.81458 -1.876447,1.97972 -0.295567,2.95783 1.717209,1.06246 10.482457,1.42423 13.191943,0.54447 1.65435,-0.53715 2.080678,-3.25842 0.5784,-3.69195 -1.838141,-0.53045 -2.204456,-5.1897 -0.520071,-6.61492 2.036228,-1.72293 6.802775,-1.76467 7.573004,-0.0663 1.046137,2.30674 0.609695,5.78795 -0.85455,6.81619 -1.86644,1.31067 -1.830651,2.93719 0.07827,3.557 0.832514,0.27031 4.009429,0.49148 7.059812,0.49148 6.415327,0 8.492405,-1.22842 6.273175,-3.71006 -2.086336,-2.33304 -2.007488,-17.09776 0.10184,-19.06993 2.868069,-2.68156 1.03176,-3.93996 -5.749346,-3.93996 -3.394501,0 -6.852967,0.22116 -7.685481,0.49147 -1.926667,0.62558 -1.939961,2.24966 -0.0294,3.59132 0.903508,0.63447 1.371537,2.01972 1.196164,3.54035 -0.269176,2.33397 -0.539522,2.49805 -4.115824,2.49805 -3.641349,0 -3.842649,-0.13182 -4.134262,-2.70725 -0.19222,-1.69762 0.288829,-3.2639 1.289906,-4.19988 0.878044,-0.82095 1.313537,-1.87995 0.967761,-2.35335 -0.818566,-1.12068 -12.516478,-1.11665 -14.993778,0.005 -1.27414,0.57698 -2.294861,0.59711 -3.059249,0.0603 -0.630921,-0.44305 -2.864144,-0.95363 -4.962719,-1.13462 l -3.815591,-0.32906 3.875571,-0.13612 c 2.131564,-0.0749 4.392314,0.30113 5.023888,0.83553 0.893136,0.75571 1.403499,0.75571 2.296635,0 1.731054,-1.46471 14.580467,-1.28229 16.061847,0.22802 1.03945,1.05976 1.41275,1.05976 3.200888,0 2.858501,-1.69411 14.323844,-1.64541 16.004409,0.068 1.030338,1.05047 0.965836,1.66516 -0.376488,3.5879 -1.026514,1.47038 -1.263765,2.50647 -0.647717,2.82862 0.534668,0.2796 0.972124,-0.0313 0.972124,-0.69087 0,-1.92551 7.674046,-7.00297 10.459256,-6.92026 2.301316,0.0683 2.266778,0.12024 -0.5376,0.80804 -1.648302,0.40426 -4.530648,2.17148 -6.405212,3.92714 -12.484495,11.69265 3.68148,28.63559 20.979968,21.98831 6.209304,-2.38604 8.517704,-5.82516 8.517704,-12.68988 0,-5.05231 -0.32273,-6.08891 -2.72559,-8.75451 -3.029559,-3.36083 -5.527642,-4.42034 -12.585301,-5.33781 -4.683254,-0.6088 -4.703535,-0.62337 -0.956931,-0.68746 4.461831,-0.0763 10.245674,1.50902 13.221142,3.62388 1.14936,0.81693 1.78194,1.16803 1.40572,0.78023 -0.37622,-0.38781 -0.25341,-1.38593 0.2729,-2.21804 0.83559,-1.32107 2.01446,-1.49203 9.29641,-1.34812 l 8.33948,0.16481 -7.93984,0.2734 c -6.01431,0.2071 -8.07544,0.57238 -8.49895,1.50622 -0.33244,0.73302 0.26779,1.72288 1.48056,2.44163 1.84146,1.09136 2.03966,1.96643 2.03966,9.00526 0,6.9708 -0.22801,8.0018 -2.15309,9.73569 -2.11614,1.90596 -2.12121,1.95898 -0.29557,3.08854 2.68405,1.66068 14.75057,1.58646 15.51332,-0.0954 0.31047,-0.68459 -0.13366,-1.89746 -0.98696,-2.69527 -0.8533,-0.79781 -1.55146,-2.37312 -1.55146,-3.50069 0,-1.85218 0.45491,-2.09571 4.71159,-2.52228 7.81914,-0.78358 11.03428,-3.56137 11.03428,-9.53331 0,-2.18786 0.24886,-2.7497 0.82924,-1.87217 0.45609,0.68958 0.68119,4.64896 0.50022,8.79862 -0.25053,5.74464 -0.72548,7.91511 -1.9906,9.09673 -2.62557,2.4523 -0.41005,3.47307 7.53806,3.47307 7.38289,0 9.13875,-0.8311 6.65735,-3.15114 -1.94682,-1.82022 -2.11082,-8.1846 -0.21091,-8.1846 1.8579,0 3.08252,1.4933 4.47139,5.45241 1.51772,4.32642 3.9334,6.19269 7.86881,6.07915 1.69833,-0.049 6.69428,-0.103 11.10213,-0.12 4.40784,-0.017 8.82168,-0.24776 9.80854,-0.51278 2.16059,-0.58024 2.32462,-2.46876 0.35889,-4.13204 -1.07165,-0.90676 -1.4354,-3.13708 -1.4354,-8.80103 0,-4.17256 0.39983,-7.79557 0.88852,-8.05113 0.48868,-0.25555 1.02695,0.35686 1.19616,1.36091 0.45992,2.7291 3.66191,2.839 6.13872,0.21071 3.21383,-3.41038 4.21671,-1.96179 4.21671,6.09078 0,6.57509 -0.20911,7.38867 -2.41718,9.40463 -3.28734,3.00134 -1.95897,3.85738 6.51494,4.19841 5.04879,0.20318 7.42182,-0.0477 8.8208,-0.93245 1.90399,-1.20416 1.90275,-1.22042 -0.23923,-3.14966 -1.90814,-1.71864 -2.15309,-2.77996 -2.15309,-9.32897 0,-8.19442 1.06103,-9.86867 4.05224,-6.3942 1.97711,2.29654 4.41831,2.75352 6.28261,1.17606 1.29959,-1.09963 1.39301,-0.43152 1.15488,8.2589 -0.11319,4.1307 -0.57962,5.65728 -2.16797,7.09556 -1.25782,1.13898 -1.68448,2.11941 -1.12733,2.59053 0.68252,0.57714 19.80135,1.18243 27.8361,0.88127 1.19907,-0.0449 3.20364,-4.21543 3.20364,-6.66512 0,-2.56816 -2.46348,-2.50293 -5.59668,0.14819 -2.55349,2.16061 -3.56516,2.48595 -7.06493,2.272 l -4.08468,-0.24972 v -3.64363 c 0,-3.10383 0.28353,-3.64363 1.91386,-3.64363 1.27072,0 2.01908,0.62811 2.22698,1.86915 0.49524,2.95628 3.3692,1.84913 4.40761,-1.69798 1.56158,-5.33417 -2.16189,-10.46894 -4.23916,-5.84593 -1.54299,3.43392 -4.24483,2.36464 -4.60355,-1.8219 l -0.29425,-3.43423 h 4.36121 c 3.0853,0 4.92113,0.47377 6.27507,1.6194 4.00173,3.38601 7.12031,0.48133 4.41311,-4.11041 -0.92845,-1.57477 -1.06188,-2.3666 -0.3657,-2.17025 1.91847,0.5411 2.97794,4.62482 1.77797,6.85324 -0.87523,1.62538 -1.63801,1.96613 -3.80015,1.69762 -2.66646,-0.33114 -2.69851,-0.28631 -2.24251,3.13683 0.85922,6.45005 -3.71768,11.10765 -6.53622,6.65147 -1.34678,-2.1293 -3.11521,-0.92132 -2.65759,1.81536 0.2536,1.51662 0.99282,1.9696 3.55203,2.17661 2.56913,0.20781 3.8728,-0.26431 6.3581,-2.30252 4.21826,-3.45943 6.58834,-3.02297 6.96305,1.28229 0.2018,2.31864 -0.27228,3.87525 -1.62264,5.32782 -1.90055,2.0444 -1.95573,2.05095 -14.63907,1.73675 -7.00223,-0.17346 -13.70022,-0.48597 -14.88442,-0.69448 -2.665,-0.46924 -2.76041,-2.0613 -0.23923,-3.99188 1.58294,-1.21213 1.91386,-2.49384 1.91386,-7.41275 v -5.94723 h -2.75362 c -1.5145,0 -3.28576,-0.54253 -3.93615,-1.20563 -2.05567,-2.09582 -2.87954,-0.49896 -2.87954,5.58125 0,4.87113 0.3336,6.15489 1.91386,7.36497 2.42512,1.85702 2.4527,4.15234 0.0629,5.23453 -1.01802,0.461 -5.04216,0.83818 -8.94253,0.83818 -5.64022,0 -7.41387,-0.30133 -8.66634,-1.47235 -1.47095,-1.3753 -1.41765,-1.65252 0.80862,-4.20578 2.0276,-2.32541 2.38337,-3.61645 2.38337,-8.64884 0,-3.25348 -0.32296,-5.90383 -0.71769,-5.88966 -0.39474,0.0142 -1.55359,0.56071 -2.57523,1.21454 -1.02164,0.65384 -2.84357,1.18879 -4.04873,1.18879 -1.55532,0 -2.37038,0.60409 -2.80866,2.08166 -0.75568,2.54762 0.24878,9.29685 1.54712,10.39543 1.59018,1.34551 1.08193,4.38136 -0.81898,4.89185 -3.29328,0.88442 -24.43294,1.07958 -26.59633,0.24553 -2.02572,-0.78096 -2.82918,-2.03426 -4.76139,-7.42711 -0.46563,-1.29961 -1.38488,-2.51415 -2.04277,-2.69898 -1.81882,-0.511 -1.48001,3.85931 0.43824,5.65282 2.18473,2.04266 0.68591,4.03448 -3.6396,4.83671 -3.96337,0.73507 -10.71092,0.0304 -12.94513,-1.35197 -1.53288,-0.9484 -1.50454,-1.19936 0.43531,-3.85516 1.77317,-2.42763 2.95596,-8.7223 1.63894,-8.7223 -0.23978,0 -2.02235,0.91091 -3.96126,2.02424 -1.97348,1.13318 -4.89577,2.02424 -6.63863,2.02424 -3.65772,0 -5.05998,1.97252 -2.86271,4.0269 1.96464,1.83688 1.84639,4.6742 -0.21616,5.18686 -7.63228,1.89706 -16.31415,0.89683 -17.20389,-1.98203 -0.59231,-1.91651 -1.53069,-1.98109 -3.252955,-0.22389 -3.351552,3.41951 -13.222316,4.57349 -19.6581,2.29819 -1.897975,-0.67101 -4.898477,-2.51877 -6.667782,-4.10613 -3.213373,-2.88294 -4.280828,-2.60388 -2.020756,0.52827 1.017827,1.41056 0.919224,1.83144 -0.661363,2.82294 -2.701012,1.69435 -12.427026,1.90365 -15.876374,0.34165 -0.987902,-0.44736 -3.263349,-0.28586 -6.080715,0.43158 -4.513563,1.14938 -8.361188,0.98065 -13.258518,-0.58144 -2.018051,-0.64369 -3.376664,-0.53448 -5.886207,0.47315 -4.358432,1.74999 -12.548758,1.6398 -17.426284,-0.23446 z m 41.725469,-2.80973 c 0,-0.61347 0.6677,-1.58428 1.483777,-2.15736 0.825692,-0.57983 1.356215,-1.97048 1.196164,-3.1355 -0.231847,-1.68762 -0.866943,-2.14125 -3.275489,-2.33956 -3.741956,-0.30811 -4.460174,1.05324 -2.501639,4.74174 0.815243,1.53535 1.414999,3.06481 1.332792,3.39881 -0.08221,0.334 0.281152,0.60727 0.807464,0.60727 0.526312,0 0.956931,-0.50193 0.956931,-1.1154 z m 51.959749,-4.579 c 0.71683,-2.3194 0.0667,-1.95239 -1.62537,0.91752 -1.11879,1.89761 -1.16114,2.28642 -0.1735,1.59287 0.71862,-0.50464 1.52811,-1.63431 1.79887,-2.51039 z m -84.022405,1.6534 c 0.72089,-0.98695 -5.904428,-3.77947 -6.920269,-2.91683 -0.858632,0.72914 3.210462,3.71905 5.061409,3.71905 0.7001,0 1.536587,-0.361 1.85886,-0.80222 z m 15.472343,-9.92625 c -0.08579,-1.44733 -0.478945,-2.54042 -0.873679,-2.42909 -0.394734,0.11134 -1.820823,0.20243 -3.169086,0.20243 h -2.451388 l 3.143116,2.42908 c 1.728714,1.336 3.224994,2.42909 3.325067,2.42909 0.100073,0 0.111759,-1.18418 0.02597,-2.63151 z m 18.984069,-3.04017 c 0.382385,-1.01941 -0.0817,-2.36603 -1.247637,-3.62022 -1.777239,-1.91175 -1.923049,-1.9348 -3.415173,-0.5397 -1.586828,1.48364 -2.075451,4.26626 -0.920716,5.24333 1.404419,1.18833 4.99255,0.4921 5.583526,-1.08341 z m 172.246163,0.004 c 0.35728,-0.95249 1.44787,-1.61939 2.6482,-1.61939 1.45916,0 1.74672,-0.2488 1.00902,-0.87299 -0.56746,-0.48015 -2.2684,-0.75342 -3.77988,-0.60728 -2.1911,0.21187 -2.80951,0.71706 -3.05093,2.49239 -0.36175,2.66021 2.21834,3.15391 3.17359,0.60727 z m -199.520127,0.2974 c 0,-1.1263 -4.068432,-3.4072 -5.340622,-2.99413 -2.104891,0.68345 -1.613546,1.67308 1.273665,2.56533 3.238056,1.00068 4.066957,1.08807 4.066957,0.4288 z m 76.171717,-3.2123 c -0.34057,-0.75095 -0.83452,-1.18317 -1.09768,-0.96051 -0.26315,0.22267 -0.19982,1.01926 0.14075,1.7702 0.34056,0.75095 0.83451,1.18318 1.09767,0.96051 0.26316,-0.22267 0.19982,-1.01926 -0.14074,-1.7702 z m 58.39862,14.30636 c -0.44538,-2.35672 -1.34806,-3.65353 -3.24024,-4.65498 -1.44258,-0.7635 -2.79802,-1.49484 -3.01209,-1.6252 -0.21407,-0.13036 0.75482,-1.13415 2.1531,-2.23064 2.68406,-2.10478 3.10919,-3.9427 1.65869,-7.17082 -1.28978,-2.87042 -3.10486,-3.29968 -16.34114,-3.86464 l -11.96164,-0.51055 12.76449,0.0818 c 12.74949,0.0817 12.7672,0.0845 15.07167,2.3536 2.80464,2.76166 2.95687,6.12242 0.40182,8.87087 -1.39156,1.49688 -1.58091,2.15491 -0.70219,2.44022 1.28687,0.41784 2.88889,2.74956 4.5566,6.63205 1.68577,3.92452 2.80448,0.95509 2.82095,-7.48766 0.0116,-5.94124 -0.28596,-7.6127 -1.42075,-7.98116 -0.78947,-0.25633 -1.43539,-1.11119 -1.43539,-1.89968 0,-2.68249 2.40328,-3.37097 11.18327,-3.20374 4.6386,0.0883 9.29505,-0.12887 10.34767,-0.48272 1.50796,-0.50692 1.40803,-0.28764 -0.47116,1.0339 -1.7035,1.19798 -2.84767,1.46777 -4.00405,0.94411 -2.87272,-1.30088 -13.79402,-0.89279 -15.22781,0.56901 -1.08094,1.10205 -1.02028,1.46113 0.39477,2.33664 1.44552,0.89436 1.63505,2.22602 1.39928,9.83115 -0.25583,8.25206 -0.39795,8.8118 -2.29559,9.04097 -1.69357,0.20453 -2.12339,-0.28752 -2.64026,-3.02251 z m -77.132414,0.77264 c -4.3165,-3.65235 -6.366839,-12.48963 -3.383744,-14.58446 2.53108,-1.7774 5.901678,-0.28851 8.118452,3.58616 4.549709,7.95238 1.109617,15.9434 -4.734708,10.9983 z m 5.414304,-4.91353 c -0.639885,-4.57154 -4.117677,-9.85734 -6.256338,-9.50885 -4.221294,0.68787 -3.215347,9.38098 1.557844,13.46247 1.866578,1.59608 2.449116,1.72719 3.71731,0.83662 1.130876,-0.79414 1.374229,-1.98221 0.981184,-4.79024 z m 26.2564,-4.18163 c -1.28548,-2.89014 -0.21281,-7.11742 1.80605,-7.11742 3.34132,0 4.11589,6.66364 0.94166,8.10105 -1.61647,0.73201 -2.05434,0.57526 -2.74771,-0.98363 z m 3.36846,-1.04651 c 0.76775,-1.69289 -0.46571,-5.43313 -1.59669,-4.84169 -1.24559,0.65137 -1.19375,6.05804 0.0581,6.05804 0.54283,0 1.2352,-0.54736 1.5386,-1.21635 z m 23.89242,-0.0644 c -0.9241,-2.03764 -0.67614,-4.79229 0.52268,-5.80666 1.76964,-1.49735 4.63806,0.29956 4.63806,2.9055 0,3.5779 -3.86775,5.75219 -5.16074,2.90116 z m 4.01075,-3.03829 c -0.53722,-3.06212 -2.67774,-2.49689 -2.67774,0.70709 0,2.61692 0.18943,2.86753 1.48158,1.96014 0.81487,-0.57222 1.35314,-1.77247 1.19616,-2.66723 z m -19.30833,-5.97414 c -0.34634,-0.29305 -2.45184,-0.78409 -4.67889,-1.09118 -3.85027,-0.53094 -3.88466,-0.55938 -0.69993,-0.579 4.33046,-0.0267 8.43549,0.93384 7.06158,1.65232 -0.57918,0.30288 -1.33642,0.31091 -1.68276,0.0179 z m 63.28098,-1.63541 c 2.23683,-0.17047 5.89709,-0.17047 8.13392,0 2.23682,0.17047 0.40669,0.30995 -4.06696,0.30995 -4.47365,0 -6.30378,-0.13948 -4.06696,-0.30995 z m 14.38912,-0.0713 c -0.90171,-0.3027 3.61978,-0.44633 10.04778,-0.31917 16.61692,0.32871 18.62431,0.72957 4.0318,0.80512 -6.84205,0.0354 -13.17787,-0.18326 -14.07958,-0.48595 z M 20.559929,207.34594 c 0.931062,-0.20529 2.222919,-0.19179 2.870793,0.03 0.647873,0.2218 -0.113906,0.38976 -1.692842,0.37326 -1.578936,-0.0165 -2.109014,-0.19797 -1.177951,-0.40326 z m 48.531286,-11.9582 C 55.31056,193.40605 45.589882,190.85951 34.883936,186.42641 21.40521,180.84516 13.302833,174.5841 8.5644974,166.08823 L 5.470052,160.53986 V 105.07572 49.611579 l 2.186955,-4.576836 c 4.179278,-8.746347 11.484617,-14.87451 23.990374,-20.124587 8.160506,-3.425885 15.998998,-5.397618 28.846207,-7.256119 16.523577,-2.39033 52.527652,-4.205593 52.698012,-2.656942 0.0367,0.334 0.12334,5.522887 0.19245,11.530861 l 0.12565,10.923588 -3.30248,0.53914 c -1.81636,0.296526 -5.67088,0.912094 -8.5656,1.367927 -9.818578,1.546141 -24.562491,8.780332 -32.68237,16.035807 -11.299343,10.096468 -15.687257,23.611265 -11.783429,36.293018 4.757185,15.453914 18.332496,24.854174 52.121249,36.091504 5.52628,1.83791 12.12287,4.29383 14.65909,5.45761 12.30463,5.64614 13.69822,13.51231 3.22014,18.17619 -3.38919,1.50856 -5.54598,1.78181 -14.0515,1.78026 -9.24445,-0.002 -10.54508,-0.20173 -16.267831,-2.50201 -9.424581,-3.78825 -14.15973,-7.72227 -25.358468,-21.06809 -6.333984,-7.54837 -11.098968,-9.28849 -15.194829,-5.54897 -8.996855,8.2141 -3.64273,33.5242 8.75832,41.40246 1.961031,1.24582 3.78082,2.50269 4.043976,2.79303 0.968214,1.06826 13.790994,4.97548 19.958844,6.08165 3.496218,0.62702 9.801712,1.15195 14.012208,1.1665 4.2105,0.0145 8.25325,0.34678 8.9839,0.73829 1.01702,0.54497 1.31482,2.96222 1.27029,10.31122 l -0.0581,9.59939 -18.495057,0.12773 c -11.333599,0.0783 -21.279758,-0.27272 -25.686788,-0.90646 z m 31.443235,-0.1554 11.63342,-0.52928 v -8.71314 -8.71313 l -7.41622,-0.49258 c -28.603589,-1.89982 -40.484596,-6.59051 -48.934059,-19.31944 -4.432463,-6.6774 -6.386072,-21.49242 -3.852318,-29.21372 1.922731,-5.85928 7.901655,-8.62218 13.334526,-6.16196 0.995279,0.4507 5.752358,5.19671 10.571286,10.54668 13.746293,15.26113 19.906587,18.64792 35.001555,19.24305 16.4025,0.64667 25.08375,-4.05657 20.96458,-11.35799 -2.12146,-3.76039 -6.26217,-5.85874 -22.81514,-11.56187 C 85.131031,120.72758 76.668419,116.70911 67.980064,109.47014 58.774635,101.80035 54.784105,93.592955 54.76336,82.287112 54.732789,65.626564 66.534468,51.488183 88.125161,42.319759 94.743476,39.509311 104.59333,37.095747 109.53631,37.073266 l 2.63156,-0.01197 V 26.01747 14.973642 L 101.40239,15.4361 C 57.353818,17.328319 33.046277,22.528402 19.105626,33.041749 13.536572,37.241653 8.5236346,44.342507 7.4079457,49.611579 7.0307616,51.392909 6.7664256,76.800407 6.8205324,106.07269 c 0.095554,51.69577 0.1550708,53.35054 2.0750092,57.69249 4.7695494,10.78636 17.8344654,19.81945 36.9017584,25.51389 18.779449,5.60847 31.61996,7.00502 54.73715,5.95327 z m 34.33161,0.77581 -2.66048,-0.35882 0.26815,-9.86262 0.26815,-9.86263 6.79045,-0.51358 c 33.11241,-2.5044 58.95752,-25.28472 56.50771,-49.80685 -1.78622,-17.87965 -15.15535,-28.304259 -48.17879,-37.567521 -23.25065,-6.521942 -29.9518,-10.386827 -29.9518,-17.274702 0,-8.117751 11.2799,-12.3864 23.45522,-8.876155 6.08924,1.755575 9.75983,3.924571 18.56313,10.969156 15.12829,12.105983 21.22124,13.588567 28.55073,6.947187 3.11765,-2.824957 4.66966,-10.174621 3.24857,-15.383856 -2.49826,-9.157809 -12.16515,-21.806604 -18.65826,-24.413709 -2.99634,-1.203087 -3.48719,-1.197982 -6.47366,0.06732 -3.89669,1.650942 -9.36036,1.576396 -19.02086,-0.25952 -3.94734,-0.750166 -8.62046,-1.458069 -10.3847,-1.573118 -1.76425,-0.115049 -3.60738,-0.547353 -4.09587,-0.960676 -0.48848,-0.413323 -0.76748,-5.641172 -0.62001,-11.617442 l 0.26814,-10.865946 13.8755,0.177779 c 37.38095,0.478942 60.31657,3.860172 75.59756,11.144796 9.65721,4.603704 14.75474,9.456348 18.58496,17.692137 1.87549,4.032712 1.95604,6.123852 2.24479,58.27629 0.19253,34.77469 -0.0526,55.70522 -0.68646,58.6064 -2.54913,11.66779 -12.07395,21.05568 -28.05064,27.64736 -10.74253,4.43216 -18.46024,6.1808 -32.28376,7.3147 -9.25063,0.7588 -42.31596,1.00702 -47.15777,0.35402 z m 62.94714,-3.33026 c 4.21049,-0.96713 11.74633,-3.4613 16.74629,-5.54261 15.50833,-6.45556 24.41264,-15.73915 26.74069,-27.8797 0.61333,-3.19844 0.99225,-24.321 0.98647,-54.98955 -0.008,-40.658129 -0.26705,-50.825394 -1.41342,-55.404209 -4.09712,-16.364515 -19.49342,-25.634349 -49.75855,-29.958715 -9.03596,-1.291083 -39.27302,-3.246182 -50.71735,-3.279334 -7.88344,-0.02284 -7.44556,-0.868496 -6.55409,12.65772 l 0.56869,8.628647 3.47117,0.360601 c 1.90914,0.198331 7.71299,1.033582 12.89743,1.856114 8.93568,1.417677 9.66452,1.423913 14.00394,0.119826 2.51771,-0.756628 5.39065,-1.375686 6.38429,-1.375686 4.79838,0 14.82453,10.465112 19.66763,20.528707 7.5772,15.744839 -2.22877,30.474551 -16.84715,25.306386 -1.75365,-0.619986 -8.09145,-4.838728 -14.08399,-9.374983 -13.22128,-10.008282 -18.18537,-12.36196 -26.17604,-12.411122 -9.05248,-0.0557 -14.86283,3.485327 -14.86283,9.057916 0,5.220116 6.9213,9.257623 24.88021,14.513766 26.2357,7.678559 34.81918,11.547496 43.27608,19.506366 7.37415,6.93988 10.24797,13.76196 10.28867,24.42402 0.0368,9.63442 -3.6559,18.21434 -11.41286,26.51773 -8.54896,9.15119 -23.82172,16.90793 -37.8457,19.22108 -4.2105,0.6945 -9.16261,1.51469 -11.00471,1.82266 l -3.34925,0.55995 -0.27237,8.76779 -0.27237,8.7678 28.50183,-0.32138 c 25.53643,-0.28794 29.29833,-0.50432 36.15729,-2.07979 z"
       id="path18" /><path
       style="fill:#ce0116"
       d="m 16.235526,234.06047 c -1.97367,-0.1875 -3.588491,-0.65349 -3.588491,-1.03551 0,-0.38203 -0.302244,-1.36104 -0.671653,-2.17559 -0.648776,-1.43055 -0.581996,-1.43129 1.960676,-0.0216 1.746985,0.96854 3.984445,1.3763 6.652473,1.21234 3.364096,-0.20673 4.07117,-0.55162 4.332833,-2.11342 0.412848,-2.46421 -1.136317,-3.91642 -5.413126,-5.07435 -5.810856,-1.57326 -7.818134,-3.67992 -7.818134,-8.20519 0,-3.03862 0.380737,-4.03246 1.674629,-4.37129 0.921046,-0.2412 2.446578,-0.7891 3.39007,-1.21756 2.158096,-0.98003 14.891492,-0.75832 15.644349,0.2724 0.307697,0.42126 0.076,1.17499 -0.514878,1.67496 -0.794482,0.67224 -1.812735,0.53995 -3.909078,-0.50786 -2.605396,-1.30224 -3.069179,-1.3143 -5.732197,-0.14909 -1.593596,0.69729 -2.897447,1.83767 -2.897447,2.53418 0,1.77826 3.732307,4.21016 7.407843,4.8268 1.705909,0.2862 2.867746,0.8406 2.58186,1.232 -0.285887,0.3914 0.1485,0.49465 0.965304,0.22943 1.052596,-0.34177 1.485097,0.0146 1.485097,1.22382 0,0.93831 0.384548,1.70602 0.854551,1.70602 1.452803,0 2.00758,2.34294 1.056152,4.46036 -0.498521,1.10946 -1.562988,2.01721 -2.365483,2.01721 -0.802495,0 -1.459082,0.52199 -1.459082,1.15998 0,1.79769 -6.859733,2.96575 -13.636268,2.32196 z m 43.061306,-0.0865 c -1.293235,-0.21273 -1.535801,-0.76973 -1.063789,-2.44276 0.336288,-1.19196 0.997634,-2.80483 1.469657,-3.58416 1.005246,-1.65971 -0.259036,-4.05191 -2.99995,-5.67633 -1.791801,-1.06193 -1.752394,-1.1585 1.042854,-2.55564 2.479512,-1.23932 2.801302,-1.7657 2.196905,-3.59364 -0.389465,-1.1779 -0.747763,-3.04636 -0.796218,-4.15214 -0.08149,-1.85974 0.19891,-1.99069 3.739625,-1.74636 2.105249,0.14528 3.978297,0.38795 4.162329,0.53928 0.184033,0.15133 -0.11595,1.48373 -0.666628,2.9609 -1.285812,3.44913 -1.395218,16.60725 -0.143527,17.26181 3.200345,1.67359 -1.8133,3.83257 -6.941258,2.98904 z m 23.559414,0.14897 c -1.854132,-0.64464 -8.6331,-6.28943 -9.783827,-8.1469 -1.787554,-2.88543 -1.358678,-7.90022 0.818204,-9.56716 1.052625,-0.80604 1.913863,-2.13778 1.913863,-2.95942 0,-0.82165 0.538273,-1.53593 1.196163,-1.5873 1.888361,-0.14745 3.001894,-0.36694 4.545423,-0.89597 3.783849,-1.29687 8.926144,-1.28909 12.270779,0.0186 1.935221,0.75661 3.667427,1.66239 3.849346,2.01284 0.181919,0.35046 1.319185,1.63113 2.527253,2.84594 1.32801,1.33541 2.29063,3.48461 2.43456,5.43553 0.38367,5.20048 0.11043,6.06071 -1.92509,6.06071 -1.223931,0 -2.108383,0.71727 -2.496062,2.02424 -0.33024,1.11333 -1.103981,2.02424 -1.719424,2.02424 -0.615444,0 -1.856404,0.72873 -2.757688,1.61939 -1.188586,1.17458 -2.758376,1.60183 -5.715023,1.55547 -2.241978,-0.0352 -4.563293,-0.23323 -5.158477,-0.44017 z m 9.501933,-2.93711 c 0.999689,-0.629 1.907721,-2.88552 2.398826,-5.96123 0.719045,-4.50326 0.591039,-5.15974 -1.420941,-7.28726 -1.216146,-1.28598 -2.213314,-2.92626 -2.215928,-3.64506 -0.0034,-0.94033 -1.251905,-1.45155 -4.451045,-1.82258 -5.215255,-0.60484 -7.280706,0.40618 -6.462824,3.16348 0.305556,1.03012 0.147338,2.49016 -0.351596,3.24453 -1.239043,1.87339 1.998261,9.12421 5.133743,11.49842 2.706604,2.04946 4.999072,2.30133 7.369765,0.8097 z m 44.074461,2.82153 c -0.80828,-0.43955 -0.83914,-2.68002 -0.11817,-8.58073 0.57924,-4.74077 0.62414,-8.19551 0.11049,-8.5018 -0.47588,-0.28377 -1.31583,-1.40471 -1.86654,-2.49097 -0.66881,-1.31918 -1.23486,-1.65527 -1.70463,-1.01212 -0.38683,0.5296 -0.24729,0.96291 0.31008,0.96291 1.50804,0 1.22615,2.18675 -0.34776,2.69779 -0.74865,0.24308 -1.50223,1.24685 -1.67463,2.2306 -0.42586,2.43002 -3.40748,3.99368 -4.5804,2.40211 -0.71108,-0.96489 -1.20658,-0.8222 -2.81171,0.8097 -1.61219,1.63905 -1.95402,1.73641 -1.98036,0.56402 -0.0175,-0.77933 -0.57011,-1.45328 -1.228,-1.49768 -0.65789,-0.0444 -0.11961,-0.33218 1.19617,-0.63953 1.98223,-0.46303 2.44178,-1.12613 2.68083,-3.86824 0.36573,-4.19522 -1.52861,-6.05653 -5.30103,-5.20859 -2.34901,0.52799 -2.6754,1.01666 -2.93499,4.39413 -0.21326,2.77475 0.0896,3.924 1.12257,4.25939 1.24747,0.40505 1.24626,0.93907 -0.0102,4.51918 -1.05252,2.9989 -1.17133,4.67526 -0.45465,6.41483 l 0.97023,2.35498 h -4.60667 -4.60667 l 0.23972,-9.75777 c 0.13185,-5.36677 0.50104,-9.97887 0.82043,-10.24912 0.31938,-0.27024 0.13291,-0.94789 -0.4144,-1.50588 -0.5473,-0.558 -0.62407,-1.20856 -0.1706,-1.4457 1.44599,-0.75617 15.84675,-0.67517 20.52893,0.11547 3.89332,0.65743 4.73589,0.555 6.12608,-0.74479 1.21888,-1.13962 1.92387,-1.28796 2.89153,-0.60844 0.75987,0.53361 2.64433,0.68199 4.6394,0.3653 3.81635,-0.6058 4.06227,-0.25652 1.64792,2.34057 -0.9415,1.01277 -1.62241,2.89205 -1.51314,4.17619 0.10928,1.28414 0.23367,2.79025 0.27643,3.34692 0.0428,0.55667 0.72367,1.01212 1.51314,1.01212 0.78947,0 1.43539,0.31975 1.43539,0.71055 0,0.39081 -0.64592,1.16415 -1.43539,1.71854 -1.62669,1.14231 -1.93812,6.5989 -0.50588,8.8633 0.78523,1.24147 0.46958,1.54743 -2.03348,1.97101 -3.77126,0.6382 -4.85698,0.61753 -6.20999,-0.11825 z m 2.5293,-20.43241 c 0,-0.44533 -0.43062,-0.8097 -0.95693,-0.8097 -0.52632,0 -0.95694,0.36437 -0.95694,0.8097 0,0.44533 0.43062,0.8097 0.95694,0.8097 0.52631,0 0.95693,-0.36437 0.95693,-0.8097 z m 18.95242,20.50258 c -0.91446,-0.20394 -1.39855,-0.85345 -1.11011,-1.48946 0.28131,-0.62029 -0.49614,-1.98715 -1.72767,-3.03747 -1.23153,-1.05031 -3.00956,-3.29491 -3.95117,-4.98801 -1.55606,-2.7979 -1.57785,-3.25161 -0.23923,-4.98026 2.17472,-2.80837 1.87485,-6.21508 -0.66521,-7.5573 -2.08058,-1.09943 -2.08701,-1.14546 -0.23923,-1.7141 1.04432,-0.32138 2.32938,-0.29991 2.8557,0.0477 0.52631,0.34763 2.03348,0.75805 3.34926,0.91205 1.65726,0.19398 2.48994,0.8634 2.71002,2.1787 0.38972,2.32915 -1.47188,6.33855 -3.20421,6.90102 -0.89696,0.29124 -0.30254,1.28752 2.00148,3.35462 1.80255,1.61719 3.27736,3.76883 3.27736,4.78144 0,1.0126 0.87142,2.50837 1.93648,3.32394 2.82719,2.1649 0.10004,3.40307 -4.99347,2.26711 z m 37.17226,-0.0451 c -3.32004,-0.29059 -3.60965,-0.49688 -2.93494,-2.09055 0.41172,-0.97248 0.77744,-5.55419 0.81272,-10.18158 0.0776,-10.17902 -0.78314,-11.19256 -6.64614,-7.82599 -3.53801,2.03154 -3.83689,2.07525 -4.99855,0.73102 -3.42444,-3.96263 0.30834,-4.49916 30.34405,-4.36142 l 15.76443,0.0723 -3.08509,1.58749 c -2.43735,1.25418 -3.08509,2.12911 -3.08509,4.16714 0,1.41881 0.68025,3.21567 1.51167,3.99303 1.22247,1.14298 1.29641,1.75368 0.38649,3.19229 -1.09276,1.72768 -0.90467,4.95399 0.506,8.6794 0.64919,1.71445 0.42361,1.82182 -3.82765,1.82182 h -4.5175 l 0.33893,-7.89453 c 0.18642,-4.342 -0.0232,-7.89453 -0.46591,-7.89453 -0.44266,0 -1.44679,-1.0367 -2.2314,-2.30378 -1.00394,-1.62128 -1.95717,-2.18636 -3.21764,-1.90745 -0.98509,0.21797 -2.55235,-0.0747 -3.48278,-0.65037 -1.42133,-0.87939 -2.05818,-0.80276 -3.98468,0.47946 -1.26113,0.83938 -2.67297,1.32742 -3.13742,1.08454 -0.46445,-0.24289 -0.84446,0.12644 -0.84446,0.82072 0,0.69428 0.43062,1.26233 0.95693,1.26233 0.54484,0 0.95693,2.38881 0.95693,5.54705 0,3.05087 0.48887,6.73363 1.08637,8.1839 0.87197,2.11647 0.82476,2.77705 -0.23923,3.34721 -0.72908,0.39069 -1.54091,0.65467 -1.80407,0.58663 -0.26315,-0.068 -2.13604,-0.26879 -4.16197,-0.44612 z M 37.527243,233.09424 c 0,-0.39769 0.65084,-0.93439 1.446312,-1.19267 1.011135,-0.32831 1.40573,-1.51161 1.311438,-3.93269 -0.07418,-1.90469 0.303312,-4.81868 0.83887,-6.47553 0.73015,-2.25885 0.674953,-3.22227 -0.220647,-3.85119 -0.656914,-0.46131 -0.990141,-1.7428 -0.740503,-2.84777 0.306704,-1.35756 -0.04701,-2.17166 -1.090792,-2.51057 -2.657665,-0.86293 -1.689677,-1.94768 1.738025,-1.94768 2.643456,0 3.36346,0.35476 3.697408,1.82181 0.359603,1.57976 0.432019,1.52934 0.545021,-0.37943 0.093,-1.57084 0.529587,-2.07161 1.524478,-1.74858 1.518974,0.4932 1.068848,4.6884 -0.708247,6.60091 -0.527253,0.56742 -0.789623,1.13759 -0.583045,1.26704 0.206578,0.12944 1.882762,1.0254 3.724855,1.99103 1.842092,0.96562 2.844024,1.76181 2.226515,1.76931 -0.617508,0.008 -2.43787,0.94999 -4.045249,2.0944 -2.659284,1.89336 -2.805432,2.23976 -1.622661,3.84606 0.714915,0.97091 1.574589,2.76729 1.910386,3.99196 0.609405,2.22252 0.600719,2.22666 -4.670812,2.22666 -2.904744,0 -5.281352,-0.32538 -5.281352,-0.72307 z m 131.668947,-0.98043 c 1.35867,-1.26964 1.82294,-2.91877 1.82294,-6.4753 0,-3.29358 0.37306,-4.7725 1.20427,-4.77407 0.84094,-0.002 0.94126,-0.42976 0.3325,-1.41923 -1.28028,-2.08094 -3.34542,-8.25475 -2.88767,-8.63279 0.21668,-0.17895 2.11644,-0.44798 4.22169,-0.59783 l 3.82772,-0.27246 0.0101,9.71093 c 0.006,5.34101 0.37519,10.71292 0.82144,11.93759 l 0.81135,2.22666 h -5.99364 -5.99364 z m 62.10959,0.8938 c 0.32528,-0.44533 1.42724,-0.80969 2.44881,-0.80969 1.02156,0 1.85738,0.36436 1.85738,0.80969 0,0.44533 -1.10196,0.8097 -2.4488,0.8097 -1.38886,0 -2.19281,-0.35047 -1.85739,-0.8097 z m -3.66823,-11.06584 c -0.30075,-0.25447 0.0991,-1.00922 0.88858,-1.67722 0.78947,-0.668 1.68146,-1.00634 1.98221,-0.75186 0.30075,0.25447 -0.0991,1.00922 -0.88858,1.67722 -0.78947,0.668 -1.68146,1.00634 -1.98221,0.75186 z m 6.29979,-9.8282 c -1.71051,-0.14336 -3.11002,-0.60771 -3.11002,-1.0319 0,-0.93527 5.68165,-0.67296 6.38862,0.29495 0.69152,0.94674 0.29317,1.03628 -3.2786,0.73695 z M 98.378763,194.26051 c -0.277761,-0.38027 -4.889488,-0.75373 -10.248282,-0.8299 -9.424553,-0.13396 -17.173264,-0.84485 -27.158427,-2.4916 -9.224299,-1.52126 -15.315208,-2.81683 -15.789363,-3.35849 -0.263156,-0.30062 -2.313709,-1.01018 -4.556786,-1.57681 -2.243076,-0.56662 -4.556553,-1.5178 -5.141059,-2.11372 -0.584506,-0.59593 -2.086559,-1.0835 -3.337895,-1.0835 -1.326265,0 -2.275157,-0.479 -2.275157,-1.1485 0,-0.63168 -1.614821,-1.97062 -3.588491,-2.97542 -5.527465,-2.81405 -11.784226,-8.67588 -15.015032,-14.06727 l -2.9274258,-4.88513 v -54.2496 -54.2496 L 10.49394,47.032389 c 1.184202,-2.309219 2.153095,-4.95085 2.153095,-5.870292 0,-0.919442 0.430619,-1.671712 0.956931,-1.671712 0.526312,0 0.956931,-0.546545 0.956931,-1.214544 0,-0.667998 0.463744,-1.214543 1.030541,-1.214543 0.566798,0 2.33903,-1.107162 3.938295,-2.46036 1.599264,-1.353198 4.616193,-3.197837 6.704285,-4.099199 2.345896,-1.012646 3.608671,-2.053074 3.30487,-2.722954 -0.33965,-0.748929 0.597365,-1.205026 3.030648,-1.475185 1.937271,-0.215088 5.460096,-1.021416 7.8285,-1.791841 8.597537,-2.796718 22.248192,-4.937675 39.234174,-6.153455 6.052589,-0.433217 13.533897,-0.991435 16.62513,-1.240485 3.091232,-0.24905 7.50508,-0.213681 9.80854,0.0786 l 4.18812,0.531415 v 8.752417 8.752417 l -6.76279,0.563856 c -4.542296,0.37872 -7.327048,1.041292 -8.48129,2.01794 -0.945172,0.799745 -3.209205,1.690713 -5.031186,1.979927 -1.82198,0.289215 -4.14172,1.158946 -5.154978,1.932736 -1.013258,0.77379 -3.457109,2.127383 -5.430779,3.007986 -1.97367,0.880602 -3.588491,1.8826 -3.588491,2.226662 0,0.344062 -0.633037,0.625568 -1.406749,0.625568 -0.773712,0 -2.36186,1.093089 -3.529218,2.429086 -1.167358,1.335998 -2.579761,2.447893 -3.138674,2.470878 -2.013679,0.08281 -7.236257,6.578474 -7.236257,9.000204 0,1.353078 -0.40644,2.176769 -0.937154,1.899236 -0.515435,-0.269542 -1.865468,-0.0697 -3.000074,0.444094 -1.604201,0.726445 -1.775978,1.084225 -0.772504,1.608983 1.064235,0.556533 1.006047,1.179388 -0.331979,3.55354 -1.034213,1.835075 -1.851192,6.066211 -2.253491,11.670826 -0.545987,7.606391 -0.360184,9.546787 1.377739,14.388161 1.10486,3.077834 2.888277,6.394789 3.96315,7.371009 1.074872,0.97623 1.954313,2.10358 1.954313,2.50525 0,1.28903 6.515982,6.62468 8.09017,6.62468 0.836095,0 2.01068,0.9109 2.61019,2.02423 0.599509,1.11334 1.882134,2.02424 2.850277,2.02424 0.968143,0 1.760261,0.36437 1.760261,0.8097 0,0.44533 0.595704,0.80969 1.323788,0.80969 0.728084,0 1.549007,0.72873 1.824275,1.61939 0.2856,0.9241 1.305269,1.6194 2.374885,1.6194 1.03092,0 2.969286,0.72872 4.307481,1.61939 1.338194,0.89066 2.7307,1.61939 3.094456,1.61939 0.363756,0 2.018311,0.49993 3.676788,1.11096 12.032021,4.43296 15.033031,5.3666 17.249811,5.3666 1.38154,0 2.5119,0.30588 2.5119,0.67973 0,0.89752 4.37858,2.55905 6.74377,2.55905 2.52206,0 12.68498,8.71842 11.97858,10.27601 -0.29736,0.6557 -0.54066,1.30658 -0.54066,1.44639 0,0.13982 -2.15892,1.42644 -4.79759,2.85915 -4.73933,2.57329 -4.9171,2.60118 -14.63819,2.2967 -8.40204,-0.26317 -10.23757,-0.57245 -12.556217,-2.11567 -1.493594,-0.9941 -3.688029,-1.80745 -4.876522,-1.80745 -1.188493,0 -2.412732,-0.5553 -2.720532,-1.23399 -0.307799,-0.6787 -1.538073,-1.56651 -2.733941,-1.97292 -1.240505,-0.42157 -1.557845,-0.76467 -0.73891,-0.79888 0.885493,-0.037 -0.214316,-1.43659 -2.870793,-3.65335 -6.270037,-5.23216 -9.56931,-8.62511 -9.56931,-9.841 0,-0.58788 -1.446163,-2.29253 -3.213694,-3.7881 -1.767531,-1.49558 -3.382353,-3.05627 -3.588491,-3.4682 -0.563063,-1.12518 -7.551782,-3.67949 -7.551782,-2.76011 0,0.43813 -1.05586,0.7966 -2.346356,0.7966 -1.719613,0 -3.174988,1.01907 -5.44853,3.81511 -2.962844,3.64377 -3.120902,4.2291 -3.519136,13.03227 -0.332265,7.3449 -0.06098,10.22943 1.335556,14.20061 0.963884,2.7409 2.010642,5.16564 2.326129,5.38831 0.315487,0.22266 1.333005,2.11851 2.261151,4.213 0.928146,2.09448 2.413205,4.01603 3.30013,4.27011 1.993662,0.57113 7.832643,5.00668 7.832643,5.95003 0,2.12764 19.582959,6.68765 31.608772,7.36029 5.542803,0.31003 10.602573,0.8381 11.243943,1.1735 0.78363,0.40979 1.16611,3.11713 1.16611,8.25413 v 7.64432 h -5.68511 c -3.12681,0 -5.912367,-0.31113 -6.190127,-0.69141 z m 9.004447,-0.76539 c 0,-0.35591 -1.61482,-0.51168 -3.58849,-0.34617 -5.55542,0.4659 -5.960177,0.85899 -0.95693,0.92935 2.49998,0.0352 4.54542,-0.22727 4.54542,-0.58318 z M 91.115383,142.32171 c 0,-0.44533 -0.430619,-0.80969 -0.956931,-0.80969 -0.526312,0 -0.956931,0.36436 -0.956931,0.80969 0,0.44534 0.430619,0.8097 0.956931,0.8097 0.526312,0 0.956931,-0.36436 0.956931,-0.8097 z m 30.382557,0.25156 c -0.92104,-0.20366 -2.42821,-0.20366 -3.34925,0 -0.92105,0.20366 -0.16747,0.37029 1.67462,0.37029 1.8421,0 2.59568,-0.16663 1.67463,-0.37029 z m -13.1578,-10.01569 c 0,-0.41905 -0.43062,-0.76191 -0.95693,-0.76191 -0.52631,0 -0.95693,0.56805 -0.95693,1.26233 0,0.69428 0.43062,1.03714 0.95693,0.76191 0.52631,-0.27523 0.95693,-0.84328 0.95693,-1.26233 z M 71.976761,117.22115 c 0,-0.44533 -0.671342,-0.80969 -1.491871,-0.80969 -0.82053,0 -1.225735,0.36436 -0.900456,0.80969 0.325278,0.44534 0.996621,0.8097 1.491871,0.8097 0.495251,0 0.900456,-0.36436 0.900456,-0.8097 z m 63.044069,71.05079 c -0.17372,-10.23496 -0.13915,-10.29045 6.42286,-10.31122 2.15443,-0.007 6.42038,-0.74113 9.47988,-1.63179 3.05951,-0.89067 6.5138,-1.61939 7.67621,-1.61939 1.16241,0 3.20836,-0.72873 4.54655,-1.6194 1.3382,-0.89066 2.90344,-1.61939 3.47831,-1.61939 0.57488,0 1.04523,-0.54654 1.04523,-1.21454 0,-0.94596 1.28218,-1.21454 5.79806,-1.21454 3.93146,0 5.59108,-0.28338 5.15512,-0.88024 -0.35361,-0.48413 -1.45558,-0.70042 -2.4488,-0.48065 -0.99323,0.21977 -1.80586,0.1258 -1.80586,-0.20882 0,-0.67274 3.19703,-3.28847 4.01928,-3.28847 0.47861,0 8.80324,-6.90563 11.7129,-9.71634 2.12763,-2.05528 6.27723,-9.56623 6.27723,-11.36205 0,-0.93475 0.50231,-2.4937 1.11624,-3.46434 1.53786,-2.43139 1.20657,-16.96362 -0.51414,-22.55343 -3.46445,-11.25442 -8.30788,-15.99852 -23.46728,-22.98599 -2.95036,-1.359918 -6.44083,-3.049746 -7.75661,-3.755173 -1.31578,-0.705427 -4.11481,-1.538765 -6.22006,-1.851862 -3.69296,-0.549227 -14.41569,-3.835199 -27.17632,-8.328163 -3.53348,-1.244123 -6.30802,-2.752088 -6.55924,-3.56496 -0.23947,-0.774829 -1.46697,-1.980693 -2.72777,-2.679697 -2.60761,-1.445684 -2.96751,-3.785438 -0.85698,-5.571239 0.78947,-0.667999 1.4354,-1.518979 1.4354,-1.891067 0,-0.372088 1.61482,-1.266212 3.58849,-1.986941 3.71494,-1.356595 13.14556,-1.208171 14.19116,0.223347 0.28325,0.387781 1.30059,0.705056 2.26077,0.705056 0.96018,0 1.9551,0.677289 2.21094,1.505086 0.25583,0.827797 1.66893,1.760729 3.14022,2.073181 1.52885,0.324678 5.84415,3.322633 10.07118,6.996717 4.06786,3.535742 7.93259,6.428622 8.58829,6.428622 0.6557,0 1.71706,0.607365 2.35857,1.3497 0.64152,0.742336 3.05739,1.782891 5.36862,2.312344 2.31122,0.529454 4.90496,1.219833 5.76387,1.534176 1.01505,0.371492 2.45553,-0.129441 4.11559,-1.431215 1.40468,-1.10151 3.36729,-2.490345 4.36136,-3.086299 0.99407,-0.595955 1.94107,-1.81228 2.10445,-2.702945 0.16338,-0.890665 0.65117,-1.839361 1.08396,-2.108214 1.22676,-0.762064 2.51438,-6.36589 2.53953,-11.052273 0.0147,-2.738188 -0.65908,-5.330376 -1.89103,-7.275268 -1.05263,-1.661788 -1.91386,-3.998464 -1.91386,-5.192612 0,-1.194148 -0.33035,-2.292633 -0.73411,-2.441077 -0.40376,-0.148445 -2.42333,-2.273895 -4.48794,-4.723224 -2.06461,-2.449329 -4.54283,-5.112682 -5.50716,-5.918561 -0.96434,-0.80588 -1.52899,-1.772385 -1.25479,-2.147789 0.64261,-0.879778 -4.12642,-2.278838 -10.02472,-2.940886 -4.04693,-0.454245 -4.78713,-0.304117 -5.89388,1.195397 -1.5006,2.033132 -6.27559,2.333393 -7.87683,0.495311 -0.76552,-0.878755 -3.42755,-1.307374 -9.52576,-1.533763 -4.65483,-0.172805 -8.92226,-0.702511 -9.48318,-1.177126 -1.14061,-0.965113 -1.42648,-16.300314 -0.33181,-17.799018 0.81313,-1.113231 15.886,-1.326276 15.886,-0.224538 0,0.394601 6.99756,0.985409 15.55013,1.312905 20.65996,0.791115 35.31691,2.874194 44.94503,6.387687 1.95676,0.714064 4.43282,1.298297 5.50235,1.298297 1.06953,0 1.9446,0.525884 1.9446,1.168631 0,1.558092 3.71633,3.689542 6.43297,3.689542 1.19867,0 2.17941,0.333411 2.17941,0.740912 0,0.704642 2.32064,3.2777 5.98082,6.631353 0.92104,0.843912 1.68018,1.98984 1.68697,2.546506 0.007,0.556665 0.86803,3.32185 1.91386,6.144855 1.81541,4.900314 1.90152,7.508077 1.90152,57.589005 0,44.55805 -0.21612,52.97458 -1.4354,55.89865 -0.78947,1.89331 -1.43539,4.48966 -1.43539,5.76967 0,1.31871 -0.51839,2.32999 -1.19617,2.33352 -0.65789,0.003 -2.17791,1.46088 -3.37783,3.23879 -1.19992,1.7779 -2.59943,3.23254 -3.11003,3.23254 -0.51059,0 -0.92835,0.54655 -0.92835,1.21454 0,0.668 -0.61468,1.21455 -1.36595,1.21455 -0.75126,0 -2.21275,0.9109 -3.24774,2.02424 -1.035,1.11333 -2.15136,2.02423 -2.4808,2.02423 -0.32945,0 -2.20526,0.85043 -4.16847,1.88985 -1.96321,1.03941 -6.70261,2.89668 -10.532,4.12727 -3.82939,1.23059 -7.48965,2.65743 -8.13391,3.17076 -1.05688,0.84208 -4.18653,1.14464 -17.91769,1.73222 -6.27265,0.26842 -6.76958,0.58657 -1.91386,1.22534 2.74381,0.36094 -1.30681,0.61059 -11.16419,0.68808 -8.50872,0.0669 -15.61393,-0.1887 -15.78937,-0.56798 -0.17543,-0.37928 -3.65627,-0.89773 -7.73519,-1.15211 -6.03171,-0.37616 -7.41622,-0.24742 -7.41622,0.6896 0,0.63366 -0.43061,1.1521 -0.95693,1.1521 -0.55146,0 -1.00497,-2.83041 -1.07031,-6.67998 z M 152.35897,81.594551 c 0,-0.445332 -0.43062,-0.809695 -0.95693,-0.809695 -0.52631,0 -0.95693,0.364363 -0.95693,0.809695 0,0.445333 0.43062,0.809696 0.95693,0.809696 0.52631,0 0.95693,-0.364363 0.95693,-0.809696 z M 233.69811,40.30008 c 0,-0.445332 -0.43062,-0.809695 -0.95693,-0.809695 -0.52631,0 -0.95693,0.364363 -0.95693,0.809695 0,0.445333 0.43062,0.809696 0.95693,0.809696 0.52631,0 0.95693,-0.364363 0.95693,-0.809696 z m -84.6884,-6.477564 c -0.32528,-0.445333 -1.64255,-0.809695 -2.92727,-0.809695 -1.28471,0 -2.33585,0.364362 -2.33585,0.809695 0,0.445333 1.31727,0.809696 2.92727,0.809696 1.70784,0 2.6809,-0.337301 2.33585,-0.809696 z"
       id="path17" /><path
       style="fill:#af0f1e"
       d="M 13.031565,234.70385 C 8.8578854,233.10003 7.8623796,231.8342 7.8623796,228.131 c 0,-3.53689 1.7536418,-3.70145 5.3229914,-0.49951 3.618305,3.24585 7.392674,4.4335 9.464986,2.97825 2.1305,-1.4961 0.798059,-2.96446 -4.084009,-4.5006 -6.803654,-2.14077 -9.7470373,-4.8383 -9.7470373,-8.93288 0,-4.15014 2.5698413,-7.17297 7.1964163,-8.46494 3.637508,-1.01578 15.419268,-0.35858 17.38339,0.96965 0.722405,0.48853 1.830081,0.45278 3.047115,-0.0983 2.4773,-1.12182 14.175212,-1.12585 14.993778,-0.005 0.345776,0.4734 -0.08972,1.5324 -0.967761,2.35335 -1.001077,0.93598 -1.482126,2.50226 -1.289906,4.19988 0.291613,2.57543 0.492913,2.70725 4.134262,2.70725 3.576302,0 3.846648,-0.16408 4.115824,-2.49805 0.175373,-1.52063 -0.292656,-2.90588 -1.196164,-3.54035 -1.910562,-1.34166 -1.897268,-2.96574 0.0294,-3.59132 0.832514,-0.27031 4.29098,-0.49147 7.685481,-0.49147 6.781106,0 8.617415,1.2584 5.749346,3.93996 -2.109328,1.97217 -2.188176,16.73689 -0.10184,19.06993 2.21923,2.48164 0.142152,3.71006 -6.273175,3.71006 -3.050383,0 -6.227298,-0.22117 -7.059812,-0.49148 -1.908916,-0.61981 -1.944705,-2.24633 -0.07827,-3.557 1.464245,-1.02824 1.900687,-4.50945 0.85455,-6.81619 -0.770229,-1.69835 -5.536776,-1.65661 -7.573004,0.0663 -1.684385,1.42522 -1.31807,6.08447 0.520071,6.61492 1.502278,0.43353 1.07595,3.1548 -0.5784,3.69195 -2.709486,0.87976 -11.474734,0.51799 -13.191943,-0.54447 -1.58088,-0.97811 -1.564377,-1.14325 0.295567,-2.95783 1.697863,-1.65644 1.969934,-3.00935 1.969934,-9.79579 0,-5.83368 -0.35397,-8.12249 -1.36608,-8.83323 -1.121665,-0.78767 -1.421284,-0.55313 -1.674629,1.3109 -0.413123,3.03962 -2.844977,3.2959 -6.835689,0.72037 -3.657397,-2.36041 -5.642196,-2.6049 -7.313572,-0.90087 -1.671874,1.70453 -0.69382,2.50217 4.97456,4.05693 7.247847,1.98798 9.344617,3.90684 9.344617,8.55173 0,2.8673 -0.553429,4.29438 -2.274901,5.86608 -4.20513,3.83927 -13.531066,4.88857 -20.306915,2.28481 z m 15.1656,-1.38912 c 0.921046,-0.22894 1.674629,-0.93824 1.674629,-1.57622 0,-0.63799 0.656587,-1.15998 1.459082,-1.15998 0.802495,0 1.866962,-0.90775 2.365483,-2.01721 0.951428,-2.11742 0.396651,-4.46036 -1.056152,-4.46036 -0.470003,0 -0.854551,-0.76771 -0.854551,-1.70602 0,-1.20918 -0.432501,-1.56559 -1.485097,-1.22382 -0.816804,0.26522 -1.251191,0.16197 -0.965304,-0.22943 0.285886,-0.3914 -0.875951,-0.9458 -2.58186,-1.232 -3.675536,-0.61664 -7.407843,-3.04854 -7.407843,-4.8268 0,-0.69651 1.303851,-1.83689 2.897447,-2.53418 2.663018,-1.16521 3.126801,-1.15315 5.732197,0.14909 2.096343,1.04781 3.114596,1.1801 3.909078,0.50786 0.59088,-0.49997 0.822575,-1.2537 0.514878,-1.67496 -0.752857,-1.03072 -13.486253,-1.25243 -15.644349,-0.2724 -0.943492,0.42846 -2.469024,0.97636 -3.39007,1.21756 -1.293892,0.33883 -1.674629,1.33267 -1.674629,4.37129 0,4.52527 2.007278,6.63193 7.818134,8.20519 4.276809,1.15793 5.825974,2.61014 5.413126,5.07435 -0.261663,1.5618 -0.968737,1.90669 -4.332833,2.11342 -2.668028,0.16396 -4.905488,-0.2438 -6.652473,-1.21234 -2.542672,-1.40969 -2.609452,-1.40895 -1.960676,0.0216 0.369409,0.81455 0.671653,1.79356 0.671653,2.17559 0,1.37483 10.404642,1.56871 15.55013,0.28977 z m 38.994941,-0.75277 c 0,-0.59299 -0.429307,-1.30267 -0.954016,-1.57706 -1.251691,-0.65456 -1.142285,-13.81268 0.143527,-17.26181 0.550678,-1.47717 0.850661,-2.80957 0.666628,-2.9609 -0.184032,-0.15133 -2.05708,-0.394 -4.162329,-0.53928 -3.540715,-0.24433 -3.821118,-0.11338 -3.739625,1.74636 0.04846,1.10578 0.406753,2.97424 0.796218,4.15214 0.604397,1.82794 0.282607,2.35432 -2.196905,3.59364 -2.795248,1.39714 -2.834655,1.49371 -1.042854,2.55564 2.740914,1.62442 4.005196,4.01662 2.99995,5.67633 -0.472023,0.77933 -1.133369,2.3922 -1.469657,3.58416 -0.472012,1.67303 -0.229446,2.23003 1.063789,2.44276 3.167751,0.52108 7.895274,-0.32438 7.895274,-1.41198 z m -19.712699,-0.97131 c -0.335797,-1.22467 -1.195471,-3.02105 -1.910386,-3.99196 -1.182771,-1.6063 -1.036623,-1.9527 1.622661,-3.84606 1.607379,-1.14441 3.427741,-2.08689 4.045249,-2.0944 0.617509,-0.007 -0.384423,-0.80369 -2.226515,-1.76931 -1.842093,-0.96563 -3.518277,-1.86159 -3.724855,-1.99103 -0.206578,-0.12945 0.05579,-0.69962 0.583045,-1.26704 1.777095,-1.91251 2.227221,-6.10771 0.708247,-6.60091 -0.994891,-0.32303 -1.431483,0.17774 -1.524478,1.74858 -0.113002,1.90877 -0.185418,1.95919 -0.545021,0.37943 -0.333948,-1.46705 -1.053952,-1.82181 -3.697408,-1.82181 -3.427702,0 -4.39569,1.08475 -1.738025,1.94768 1.043786,0.33891 1.397496,1.15301 1.090792,2.51057 -0.249638,1.10497 0.08359,2.38646 0.740503,2.84777 0.8956,0.62892 0.950797,1.59234 0.220647,3.85119 -0.535558,1.65685 -0.91305,4.57084 -0.83887,6.47553 0.09429,2.42108 -0.300303,3.60438 -1.311438,3.93269 -3.064193,0.99492 -1.220847,1.91574 3.83504,1.91574 5.271531,0 5.280217,-0.004 4.670812,-2.22666 z m 32.520181,3.1067 c -5.167387,-1.98555 -9.087287,-6.39999 -9.68812,-10.91039 -1.398319,-10.49706 9.789869,-17.98001 22.69372,-15.17814 14.058912,3.05267 15.785362,20.99384 2.511054,26.09475 -4.99613,1.91986 -10.509794,1.91765 -15.516654,-0.006 z m 13.730158,-1.68974 c 0.901284,-0.89066 2.142244,-1.61939 2.757688,-1.61939 0.615443,0 1.389184,-0.91091 1.719424,-2.02424 0.387679,-1.30697 1.272131,-2.02424 2.496062,-2.02424 2.03552,0 2.30876,-0.86023 1.92509,-6.06071 -0.14393,-1.95092 -1.10655,-4.10012 -2.43456,-5.43553 -1.208068,-1.21481 -2.345334,-2.49548 -2.527253,-2.84594 -0.181919,-0.35045 -1.914125,-1.25623 -3.849346,-2.01284 -3.344635,-1.30765 -8.48693,-1.31543 -12.270779,-0.0186 -1.543529,0.52903 -2.657062,0.74852 -4.545423,0.89597 -0.65789,0.0514 -1.196163,0.76565 -1.196163,1.5873 0,0.82164 -0.861238,2.15338 -1.913863,2.95942 -2.176882,1.66694 -2.605758,6.68173 -0.818204,9.56716 1.150727,1.85747 7.929695,7.50226 9.783827,8.1469 0.595184,0.20694 2.916499,0.40501 5.158477,0.44017 2.956647,0.0464 4.526437,-0.38089 5.715023,-1.55547 z m -8.741332,-2.63151 c -3.135482,-2.37421 -6.372786,-9.62503 -5.133743,-11.49842 0.498934,-0.75437 0.657152,-2.21441 0.351596,-3.24453 -0.817882,-2.7573 1.247569,-3.76832 6.462824,-3.16348 3.19914,0.37103 4.447625,0.88225 4.451045,1.82258 0.0026,0.7188 0.999782,2.35908 2.215928,3.64506 2.01198,2.12752 2.139986,2.784 1.420941,7.28726 -1.113652,6.97463 -4.796213,8.91665 -9.768591,5.15153 z m 7.079607,-1.00774 c 3.157855,-3.21954 -0.747319,-14.50285 -5.358379,-15.48208 -1.290139,-0.27399 -2.948486,-0.0492 -3.7406,0.50706 -2.983095,2.09483 -0.932756,10.93211 3.383744,14.58446 2.257828,1.91043 4.100942,2.03638 5.715235,0.39056 z m 64.563919,6.13393 c -2.63668,-0.93998 -3.80398,-2.31003 -5.2299,-6.13831 -1.42888,-3.83623 -2.62804,-5.26302 -4.42336,-5.26302 -1.89991,0 -1.73591,6.36438 0.21091,8.1846 2.4814,2.32004 0.72554,3.15114 -6.65735,3.15114 -7.94878,0 -10.1632,-1.02057 -7.53806,-3.4741 1.22715,-1.14692 1.74979,-3.33026 1.999,-8.35092 0.19214,-3.87105 0.75557,-6.79798 1.30859,-6.79798 0.92634,0 0.42035,9.43832 -0.78844,14.70685 -0.5973,2.60332 1.60487,3.4725 6.73484,2.65819 2.89669,-0.45981 3.23849,-0.74266 2.43415,-2.01434 -1.43745,-2.27265 -1.13022,-7.72857 0.49967,-8.87313 0.78947,-0.55439 1.43539,-1.32773 1.43539,-1.71854 0,-0.3908 -0.64592,-0.71055 -1.43539,-0.71055 -0.78947,0 -1.47038,-0.45545 -1.51314,-1.01212 -0.0428,-0.55667 -0.16715,-2.06278 -0.27643,-3.34692 -0.10927,-1.28414 0.57164,-3.16342 1.51314,-4.17619 2.4242,-2.60768 2.18642,-2.88386 -1.99571,-2.318 -2.29807,0.31093 -3.9566,0.16066 -4.36267,-0.39528 -1.04274,-1.4276 16.13975,-1.17603 19.47927,0.28519 4.52207,1.97866 5.19007,6.79166 1.35952,9.79548 -1.39828,1.09649 -2.36717,2.10028 -2.1531,2.23064 0.21407,0.13036 1.56951,0.8617 3.01209,1.6252 1.89218,1.00145 2.79486,2.29826 3.24024,4.65498 0.51687,2.73499 0.94669,3.22704 2.64026,3.02251 1.89764,-0.22917 2.03976,-0.78891 2.29559,-9.04097 0.23577,-7.60513 0.0462,-8.93679 -1.39928,-9.83115 -1.41505,-0.87551 -1.47571,-1.23459 -0.39477,-2.33664 1.43937,-1.46749 12.87414,-1.85924 15.36474,-0.52639 0.89279,0.47778 1.85806,0.43164 2.65335,-0.12684 0.83177,-0.58409 9.96798,-0.87272 27.30463,-0.86258 l 26.05458,0.0152 1.25576,2.13648 c 1.43265,2.43742 0.71399,5.3492 -1.32024,5.3492 -0.754,0 -2.23215,-0.72873 -3.28478,-1.61939 -1.35394,-1.14563 -3.18977,-1.6194 -6.27507,-1.6194 h -4.36121 l 0.29425,3.43423 c 0.35872,4.18654 3.06056,5.25582 4.60355,1.8219 2.07727,-4.62301 5.80074,0.51176 4.23916,5.84593 -1.03841,3.54711 -3.91237,4.65426 -4.40761,1.69798 -0.2079,-1.24104 -0.95626,-1.86915 -2.22698,-1.86915 -1.63033,0 -1.91386,0.5398 -1.91386,3.64363 v 3.64363 l 4.08468,0.24972 c 3.49977,0.21395 4.51144,-0.11139 7.06493,-2.272 3.1332,-2.65112 5.59668,-2.71635 5.59668,-0.14819 0,2.44969 -2.00457,6.62018 -3.20364,6.66512 -8.03475,0.30116 -27.15358,-0.30413 -27.8361,-0.88127 -0.55715,-0.47112 -0.12965,-1.45155 1.12956,-2.59053 1.64336,-1.48646 2.08373,-3.05585 2.33181,-8.31011 0.1874,-3.96919 0.6764,-6.32079 1.26277,-6.07271 0.5757,0.24356 0.8219,3.54994 0.61799,8.29938 l -0.33893,7.89453 h 4.5175 c 4.25126,0 4.47684,-0.10737 3.82765,-1.82182 -1.41067,-3.72541 -1.59876,-6.95172 -0.506,-8.6794 0.90992,-1.43861 0.83598,-2.04931 -0.38649,-3.19229 -0.83142,-0.77736 -1.51167,-2.57422 -1.51167,-3.99303 0,-2.03803 0.64774,-2.91296 3.08509,-4.16714 l 3.08509,-1.58749 -15.76443,-0.0754 c -8.67043,-0.0415 -16.79814,-0.0856 -18.06158,-0.0981 -1.26343,-0.0125 -4.62429,0.2234 -7.46857,0.52409 -6.3879,0.67531 -6.98057,1.6729 -6.98057,11.74973 0,5.2997 0.37542,7.49436 1.4354,8.39125 2.00235,1.69427 1.78938,3.55511 -0.47653,4.16363 -1.05156,0.2824 -4.81948,0.43393 -8.37315,0.33673 -3.55367,-0.0972 -7.96839,0.0494 -9.81048,0.32582 -1.84209,0.2764 -4.22544,0.19019 -5.29634,-0.19159 z m 6.99359,-1.55457 c 0.93098,-0.49994 0.7615,-1.00464 -0.7177,-2.13733 -1.06506,-0.81557 -1.93648,-2.31134 -1.93648,-3.32394 0,-1.01261 -1.47481,-3.16425 -3.27736,-4.78144 -2.30402,-2.0671 -2.89844,-3.06338 -2.00148,-3.35462 1.73233,-0.56247 3.59393,-4.57187 3.20421,-6.90102 -0.22008,-1.3153 -1.05276,-1.98472 -2.71002,-2.1787 -1.31578,-0.154 -2.82295,-0.56442 -3.34926,-0.91205 -0.52632,-0.34763 -1.81138,-0.3691 -2.8557,-0.0477 -1.84778,0.56864 -1.84135,0.61467 0.23923,1.7141 2.54006,1.34222 2.83993,4.74893 0.66521,7.5573 -1.33862,1.72865 -1.31683,2.18236 0.23923,4.98026 0.94161,1.6931 2.71964,3.9377 3.95117,4.98801 1.23153,1.05032 2.00898,2.41718 1.72767,3.03747 -0.73373,1.61788 4.42544,2.64625 6.82128,1.35968 z m 14.92364,-2.35707 c -0.44625,-1.22467 -0.81589,-6.59658 -0.82144,-11.93759 l -0.0101,-9.71093 -3.82772,0.27246 c -2.10525,0.14985 -4.00501,0.41888 -4.22169,0.59783 -0.45775,0.37804 1.60739,6.55185 2.88767,8.63279 0.60876,0.98947 0.50844,1.41765 -0.3325,1.41923 -0.83121,0.002 -1.20427,1.48049 -1.20427,4.77407 0,3.55653 -0.46427,5.20566 -1.82294,6.4753 l -1.82295,1.7035 h 5.99364 5.99364 z m 57.0628,1.41696 c 0,-0.44533 -0.83582,-0.80969 -1.85738,-0.80969 -1.02157,0 -2.12353,0.36436 -2.44881,0.80969 -0.33542,0.45923 0.46853,0.8097 1.85739,0.8097 1.34684,0 2.4488,-0.36437 2.4488,-0.8097 z m -5.10363,-13.49492 c -0.30075,-0.25448 -1.19274,0.0839 -1.98221,0.75186 -0.78947,0.668 -1.18933,1.42275 -0.88858,1.67722 0.30075,0.25448 1.19274,-0.0839 1.98221,-0.75186 0.78947,-0.668 1.18933,-1.42275 0.88858,-1.67722 z m -81.21155,-0.43184 c 1.77832,-1.5047 1.3989,-5.33548 -0.61895,-6.24924 -2.18588,-0.98986 -3.97432,0.29861 -3.97432,2.86326 0,3.9536 2.09621,5.49884 4.59327,3.38598 z m 87.91915,-7.70423 c -0.70697,-0.96791 -6.38862,-1.23022 -6.38862,-0.29495 0,0.42419 1.39951,0.88854 3.11002,1.0319 3.57177,0.29933 3.97012,0.20979 3.2786,-0.73695 z m -132.28139,22.91079 c -1.82564,-1.12956 -1.82057,-1.18258 0.29557,-3.08854 1.92508,-1.73389 2.15309,-2.76489 2.15309,-9.73569 0,-7.03883 -0.1982,-7.9139 -2.03966,-9.00526 -1.24431,-0.73745 -1.81574,-1.70255 -1.46543,-2.47499 0.4507,-0.99379 2.27906,-1.29053 8.49895,-1.37936 10.49278,-0.14985 15.23575,0.12879 17.19671,1.01028 0.99905,0.44909 1.84308,0.41654 2.20957,-0.0852 0.32616,-0.44653 1.71089,-0.81188 3.07718,-0.81188 2.36352,0 2.40574,0.0733 0.86923,1.50992 -1.39356,1.30294 -2.23373,1.40542 -6.12913,0.74764 -4.68218,-0.79064 -19.08294,-0.87164 -20.52893,-0.11547 -0.45347,0.23714 -0.3767,0.8877 0.1706,1.4457 0.54731,0.55799 0.73378,1.23564 0.4144,1.50588 -0.31939,0.27025 -0.68858,4.88235 -0.82043,10.24912 l -0.23972,9.75777 h 4.63277 c 4.63093,0 4.63238,-8.6e-4 3.65623,-2.17329 -1.40088,-3.11767 0.74277,-9.97215 3.11867,-9.97215 1.00035,0 1.74642,0.59903 1.76479,1.41697 0.0263,1.17239 0.36817,1.07503 1.98036,-0.56402 1.60513,-1.6319 2.10063,-1.77459 2.81171,-0.8097 1.16472,1.58044 4.03419,0.0769 4.75004,-2.48893 0.73217,-2.62433 2.74133,-3.03466 2.15516,-0.44015 -0.93256,4.12781 -6.309,6.93431 -13.28412,6.93431 -1.82512,0 -2.27271,0.42596 -2.27271,2.16291 0,1.1896 0.69816,2.81566 1.55146,3.61347 0.8533,0.79781 1.29743,2.01068 0.98696,2.69527 -0.76275,1.68187 -12.82927,1.75609 -15.51332,0.0954 z m 84.02703,0.31436 c -2.66905,-0.90776 -2.67057,-0.88523 0.23924,-3.54188 2.17881,-1.98925 2.39233,-2.82659 2.39233,-9.38195 0,-8.05257 -1.00288,-9.50116 -4.21671,-6.09078 -2.17708,2.31022 -5.3034,2.5692 -6.11515,0.50656 -0.24347,-0.61865 -0.007,-0.89711 0.52496,-0.61881 0.5322,0.27831 2.61629,-0.44065 4.63132,-1.59769 5.75488,-3.30448 6.62414,-2.25781 6.54683,7.88302 -0.0353,4.62739 -0.3957,9.19196 -0.80094,10.14349 -0.66804,1.56858 -0.34947,1.76387 3.41339,2.09238 5.52915,0.48271 6.86109,0.0157 6.02396,-2.11228 -0.37003,-0.94058 -0.87953,-4.71615 -1.13223,-8.39014 -0.2527,-3.67399 -0.84588,-6.67999 -1.31818,-6.67999 -0.47231,0 -0.85874,-0.56805 -0.85874,-1.26233 0,-0.69428 0.38001,-1.06361 0.84446,-0.82072 0.46445,0.24288 1.90592,-0.26488 3.20326,-1.12836 1.71672,-1.1426 2.64558,-1.3273 3.41233,-0.67852 0.57944,0.49028 2.25996,0.92846 3.73449,0.97371 2.00421,0.0615 2.68096,0.48827 2.68096,1.69059 0,2.55489 -3.42307,2.55436 -5.83107,-9.1e-4 -3.23309,-3.43082 -4.2167,-1.96528 -4.2167,6.28274 0,6.54901 0.24495,7.61033 2.15309,9.32897 2.11614,1.90596 2.12121,1.95898 0.29557,3.08854 -2.08795,1.29186 -12.1372,1.49428 -15.60647,0.31436 z m -72.58132,-14.86899 c -0.28171,-0.62116 -0.37585,-2.50996 -0.2092,-4.19732 0.25396,-2.57143 0.73072,-3.16396 2.94592,-3.66132 3.76276,-0.84483 5.66733,1.01575 5.30103,5.17858 -0.15868,1.80332 -0.77033,3.4126 -1.35922,3.5762 -0.67416,0.18728 -0.8999,-0.45861 -0.60952,-1.74393 0.73724,-3.26326 -0.49697,-6.11977 -2.64419,-6.11977 -1.90991,0 -2.46837,1.74501 -2.00823,6.27514 0.20608,2.02896 -0.626,2.43568 -1.41659,0.69242 z m 20.66781,-6.15786 c 0,-0.44533 0.43062,-0.8097 0.95694,-0.8097 0.52631,0 0.95693,0.36437 0.95693,0.8097 0,0.44533 -0.43062,0.8097 -0.95693,0.8097 -0.52632,0 -0.95694,-0.36437 -0.95694,-0.8097 z M 78.232665,195.00101 c -0.347385,-0.4756 -1.653656,-0.64768 -2.902825,-0.38239 -3.227252,0.68536 -17.529788,-1.84964 -28.404404,-5.03444 -20.009219,-5.86 -33.148964,-14.78075 -38.0298944,-25.819 C 6.9756032,159.42323 6.9160867,157.76846 6.8205324,106.07269 6.7664256,76.800407 7.0374225,51.392909 7.4227478,49.611579 8.9873631,42.378478 15.55561,34.479836 23.890209,29.80864 c 4.632062,-2.596078 5.981585,-2.972953 5.981585,-1.670449 0,0.436282 -1.672719,1.515298 -3.717154,2.397813 -2.044434,0.882516 -5.025643,2.711736 -6.624907,4.064934 -1.599265,1.353198 -3.371497,2.46036 -3.938295,2.46036 -0.566797,0 -1.030541,0.546545 -1.030541,1.214543 0,0.667999 -0.430619,1.214544 -0.956931,1.214544 -0.526312,0 -0.956931,0.75227 -0.956931,1.671712 0,0.919442 -0.968893,3.561073 -2.153095,5.870292 L 8.3408452,51.23097 v 54.2496 54.2496 l 2.9274258,4.88513 c 3.230806,5.39139 9.487567,11.25322 15.015032,14.06727 1.97367,1.0048 3.588491,2.34374 3.588491,2.97542 0,0.6695 0.948892,1.1485 2.275157,1.1485 1.251336,0 2.753389,0.48757 3.337895,1.0835 0.584506,0.59592 2.897983,1.5471 5.141059,2.11372 2.243077,0.56663 4.29363,1.27619 4.556786,1.57681 0.753845,0.86116 14.965404,3.45426 27.261762,4.97429 7.625858,0.94267 32.305067,1.24972 33.888597,0.42163 0.57759,-0.30205 1.05016,-0.19847 1.05016,0.23016 0,1.56253 -28.058355,3.2897 -29.150545,1.79441 z M 110.254,187.3076 c 0,-5.137 -0.38248,-7.84434 -1.16611,-8.25413 -0.64137,-0.3354 -5.70114,-0.86347 -11.243943,-1.1735 -12.025813,-0.67264 -31.608772,-5.23265 -31.608772,-7.36029 0,-0.94335 -5.838981,-5.3789 -7.832643,-5.95003 -0.886925,-0.25408 -2.371984,-2.17563 -3.30013,-4.27011 -0.928146,-2.09449 -1.945664,-3.99034 -2.261151,-4.213 -0.315487,-0.22267 -1.362245,-2.64741 -2.326129,-5.38831 -1.396534,-3.97118 -1.667821,-6.85571 -1.335556,-14.20061 0.398234,-8.80317 0.556292,-9.3885 3.519136,-13.03227 2.273542,-2.79604 3.728917,-3.81511 5.44853,-3.81511 1.290496,0 2.346356,-0.35847 2.346356,-0.7966 0,-0.91938 6.988719,1.63493 7.551782,2.76011 0.206138,0.41193 1.82096,1.97262 3.588491,3.4682 1.767531,1.49557 3.213694,3.20022 3.213694,3.7881 0,1.21589 3.299273,4.60884 9.56931,9.841 2.656477,2.21676 3.756286,3.61636 2.870793,3.65335 -0.818935,0.0342 -0.501595,0.37731 0.73891,0.79888 1.195868,0.40641 2.426142,1.29422 2.733941,1.97292 0.3078,0.67869 1.532039,1.23399 2.720532,1.23399 1.188493,0 3.382928,0.81335 4.876522,1.80745 2.318647,1.54322 4.154177,1.8525 12.556217,2.11567 9.68759,0.30343 9.91387,0.26843 14.55315,-2.25053 4.0168,-2.18098 5.83956,-3.8623 5.83956,-5.38644 0,-0.18845 -2.21094,-2.17443 -4.9132,-4.41329 -2.70226,-2.23886 -4.71749,-4.23626 -4.47829,-4.43865 1.00733,-0.85234 8.53375,4.22485 9.91565,6.68892 4.11432,7.33625 -4.53151,12.03312 -20.95801,11.3855 -15.094968,-0.59513 -21.255262,-3.98192 -35.001555,-19.24305 -4.818928,-5.34997 -9.576007,-10.09598 -10.571286,-10.54668 -3.172821,-1.43678 -7.610022,-0.94974 -10.034101,1.10136 -3.081861,2.60768 -4.329733,6.91469 -4.336083,14.96591 -0.01092,13.84323 5.514564,23.98889 16.553744,30.39529 8.264097,4.79592 18.040136,6.95544 37.268291,8.23256 l 7.41622,0.49258 v 8.83757 c 0,5.35191 -0.37743,8.83756 -0.95693,8.83756 -0.57039,0 -0.95694,-3.0879 -0.95694,-7.64432 z m 23.17321,-1.0599 0.27161,-8.70423 3.34925,-0.55995 c 1.8421,-0.30797 6.7654,-1.12466 10.94068,-1.81486 4.17527,-0.69021 10.3116,-2.332 13.63626,-3.64842 4.6108,-1.82567 6.04486,-2.11545 6.04486,-1.22149 0,0.6446 -0.47035,1.172 -1.04523,1.172 -0.57487,0 -2.14011,0.72873 -3.47831,1.61939 -1.33819,0.89067 -3.38414,1.6194 -4.54655,1.6194 -1.16241,0 -4.6167,0.72872 -7.67621,1.61939 -3.0595,0.89066 -7.32545,1.62497 -9.47988,1.63179 -6.2794,0.0199 -6.56337,0.42909 -6.38805,9.20567 0.10168,5.09005 -0.20031,7.78553 -0.87226,7.78553 -0.68553,0 -0.93733,-2.89852 -0.75617,-8.70422 z m 3.62086,7.38847 c 0,-1.04181 0.62262,-1.21039 2.99041,-0.8097 1.64473,0.27834 5.08968,0.50606 7.65545,0.50606 2.56577,0 4.66504,0.36437 4.66504,0.8097 0,0.47232 -3.18977,0.80969 -7.65545,0.80969 -6.42861,0 -7.65545,-0.21086 -7.65545,-1.31575 z m 42.10497,0.52032 c -5.15633,-0.69539 -4.41471,-0.94141 3.82773,-1.2698 3.42102,-0.13631 7.83487,-0.46042 9.80854,-0.72025 1.97367,-0.25984 3.58849,-0.14514 3.58849,0.25489 0,0.40003 -2.04544,0.97703 -4.54542,1.28222 -2.49998,0.30519 -5.40666,0.66262 -6.45929,0.79429 -1.05262,0.13166 -3.85164,-0.0219 -6.22005,-0.34135 z m 19.13862,-2.31338 c 0,-0.76831 2.87169,-1.96492 10.52624,-4.38621 2.89472,-0.91565 6.86939,-2.51876 8.8326,-3.56247 1.96321,-1.0437 3.83902,-1.89764 4.16847,-1.89764 0.32944,0 1.4458,-0.9109 2.4808,-2.02423 1.03499,-1.11334 2.49648,-2.02424 3.24774,-2.02424 0.75127,0 1.36595,-0.54655 1.36595,-1.21455 0,-0.66799 0.41776,-1.21454 0.92835,-1.21454 0.5106,0 1.91011,-1.45464 3.11003,-3.23254 1.19992,-1.77791 2.71994,-3.23536 3.37783,-3.23879 0.67778,-0.004 1.19617,-1.01481 1.19617,-2.33352 0,-1.28001 0.64592,-3.87636 1.43539,-5.76967 1.21928,-2.92407 1.4354,-11.3406 1.4354,-55.89865 0,-50.080928 -0.0861,-52.688691 -1.90152,-57.589005 -1.04583,-2.823005 -1.90707,-5.557237 -1.91386,-6.076071 -0.0116,-0.884242 -2.1047,-3.270952 -5.99316,-6.833777 -0.92105,-0.843913 -1.67463,-1.898749 -1.67463,-2.344082 0,-0.445333 -0.98074,-0.809696 -2.17941,-0.809696 -2.73205,0 -6.43297,-2.134574 -6.43297,-3.710335 0,-3.214084 11.53392,4.8151 16.04334,11.16835 5.73702,8.082814 5.93182,10.227246 5.94223,65.414586 0.006,30.66855 -0.37314,51.79111 -0.98647,54.98955 -2.74283,14.30359 -15.85473,25.55376 -36.93476,31.69045 -6.23634,1.81549 -6.07376,1.79148 -6.07376,0.89708 z m -23.72134,-26.79134 c 14.87252,-9.52649 22.79262,-21.91391 22.74102,-35.56805 -0.0405,-10.72635 -2.90045,-17.53258 -10.28867,-24.48569 -8.4569,-7.95887 -17.04038,-11.827807 -43.27608,-19.506366 -17.95891,-5.256143 -24.88021,-9.29365 -24.88021,-14.513766 0,-5.572589 5.81035,-9.113611 14.86283,-9.057916 7.99067,0.04916 12.95476,2.40284 26.17604,12.411122 5.99254,4.536255 12.33034,8.754997 14.08399,9.374983 10.55388,3.731206 19.44705,-3.010641 19.49675,-14.780345 0.0359,-8.492803 -8.27804,-22.523049 -16.91683,-28.548249 -4.1386,-2.886498 -5.50597,-3.017705 -11.78469,-1.130813 -4.33942,1.304087 -5.06826,1.297851 -14.00394,-0.119826 -5.18444,-0.822532 -10.98829,-1.657783 -12.89743,-1.856114 l -3.47117,-0.360601 -0.56869,-8.628647 c -0.89148,-13.526435 -1.32941,-12.680758 6.55409,-12.656589 12.94119,0.03968 43.00504,2.119165 53.02841,3.667927 11.7786,1.819972 17.5567,3.22528 22.70035,5.521012 4.45375,1.987812 1.91534,2.316069 -3.27196,0.423117 -9.62812,-3.513493 -24.28507,-5.596572 -44.94503,-6.387687 -8.55257,-0.327496 -15.55013,-0.918304 -15.55013,-1.312905 0,-1.101738 -15.07287,-0.888693 -15.886,0.224538 -1.09467,1.498704 -0.8088,16.833905 0.33181,17.799018 0.56092,0.474615 4.82835,1.004321 9.48318,1.177126 6.09821,0.226389 8.76024,0.655008 9.52576,1.533763 1.60124,1.838082 6.37623,1.537821 7.87683,-0.495311 1.10675,-1.499514 1.84695,-1.649642 5.89388,-1.195397 5.8983,0.662048 10.66733,2.061108 10.02472,2.940886 -0.2742,0.375404 0.29045,1.341909 1.25479,2.147789 0.96433,0.805879 3.44255,3.469232 5.50716,5.918561 2.06461,2.449329 4.08418,4.574779 4.48794,4.723224 0.40376,0.148444 0.73411,1.246929 0.73411,2.441077 0,1.194148 0.86123,3.530824 1.91386,5.192612 1.23195,1.944892 1.90573,4.53708 1.89103,7.275268 -0.0251,4.686383 -1.31277,10.290209 -2.53953,11.052273 -0.43279,0.268853 -0.92058,1.217549 -1.08396,2.108214 -0.16338,0.890665 -1.11038,2.10699 -2.10445,2.702945 -0.99407,0.595954 -2.95668,1.984789 -4.36136,3.086299 -1.66006,1.301774 -3.10054,1.802707 -4.11559,1.431215 -0.85891,-0.314343 -3.45265,-1.004722 -5.76387,-1.534176 -2.31123,-0.529453 -4.7271,-1.570008 -5.36862,-2.312344 -0.64151,-0.742335 -1.70287,-1.3497 -2.35857,-1.3497 -0.6557,0 -4.52043,-2.89288 -8.58829,-6.428622 -4.22703,-3.674084 -8.54233,-6.672039 -10.07118,-6.996717 -1.47129,-0.312452 -2.88439,-1.245384 -3.14022,-2.073181 -0.25584,-0.827797 -1.25076,-1.505086 -2.21094,-1.505086 -0.96018,0 -1.97752,-0.317275 -2.26077,-0.705056 -1.0456,-1.431518 -10.47622,-1.579942 -14.19116,-0.223347 -1.97367,0.720729 -3.58849,1.614853 -3.58849,1.986941 0,0.372088 -0.64593,1.223068 -1.4354,1.891067 -2.11053,1.785801 -1.75063,4.125555 0.85698,5.571239 1.2608,0.699004 2.4883,1.904868 2.72777,2.679697 0.25122,0.812872 3.02576,2.320837 6.55924,3.56496 12.76063,4.492964 23.48336,7.778936 27.17632,8.328163 2.10525,0.313097 4.90428,1.146435 6.22006,1.851862 1.31578,0.705427 4.80625,2.395255 7.75661,3.755173 15.1594,6.98747 20.00283,11.73157 23.46728,22.98599 1.72071,5.58981 2.052,20.12204 0.51414,22.55343 -0.61393,0.97064 -1.11624,2.52959 -1.11624,3.46434 0,1.79582 -4.1496,9.30677 -6.27723,11.36205 -3.35343,3.23939 -11.27213,9.71634 -11.87917,9.71634 -0.78781,0 -3.85301,2.72802 -3.85301,3.42916 0,0.25724 0.81263,0.2879 1.80586,0.0681 0.99322,-0.21977 2.09519,-0.003 2.4488,0.48065 0.4343,0.59458 -1.12968,0.88024 -4.81936,0.88024 h -5.46231 z M 89.201521,142.32171 c 0,-0.44533 0.430619,-0.80969 0.956931,-0.80969 0.526312,0 0.956931,0.36436 0.956931,0.80969 0,0.44534 -0.430619,0.8097 -0.956931,0.8097 -0.526312,0 -0.956931,-0.36436 -0.956931,-0.8097 z m 28.947169,0.25156 c 0.92104,-0.20366 2.42821,-0.20366 3.34925,0 0.92105,0.20366 0.16747,0.37029 -1.67463,0.37029 -1.84209,0 -2.59567,-0.16663 -1.67462,-0.37029 z M 106.42628,133.058 c 0,-0.69428 0.43062,-1.26233 0.95693,-1.26233 0.52631,0 0.95693,0.34286 0.95693,0.76191 0,0.41905 -0.43062,0.9871 -0.95693,1.26233 -0.52631,0.27523 -0.95693,-0.0676 -0.95693,-0.76191 z m 7.89468,-0.63116 c -1.1842,-0.48325 -2.15309,-1.18732 -2.15309,-1.5646 0,-0.94708 0.8445,-0.79731 5.26312,0.93343 3.26277,1.27801 3.47463,1.50007 1.43539,1.50454 -1.31578,0.003 -3.36122,-0.39013 -4.54542,-0.87337 z m -13.1578,-4.39703 c -3.157874,-1.16351 -7.098523,-2.61399 -8.757001,-3.22328 -1.658477,-0.6093 -3.313032,-1.10781 -3.676788,-1.10781 -0.363756,0 -1.756262,-0.72873 -3.094456,-1.61939 -1.338195,-0.89067 -3.276561,-1.61939 -4.307481,-1.61939 -1.069616,0 -2.089285,-0.6953 -2.374885,-1.6194 -0.275268,-0.89066 -1.096191,-1.61939 -1.824275,-1.61939 -0.728084,0 -1.323788,-0.36436 -1.323788,-0.80969 0,-0.44533 -0.792118,-0.8097 -1.760261,-0.8097 -0.968143,0 -2.250768,-0.9109 -2.850277,-2.02424 -0.59951,-1.11333 -1.774095,-2.02423 -2.61019,-2.02423 -1.574188,0 -8.09017,-5.33565 -8.09017,-6.62468 0,-0.40167 -0.879441,-1.52902 -1.954313,-2.50525 -1.074873,-0.97622 -2.85829,-4.293178 -3.96315,-7.371012 -1.737923,-4.841374 -1.923726,-6.78177 -1.377739,-14.388161 0.402299,-5.604615 1.219278,-9.835751 2.253491,-11.670826 1.338026,-2.374152 1.396214,-2.997007 0.331979,-3.55354 -0.999607,-0.522736 -0.811501,-0.891684 0.834685,-1.637141 1.168805,-0.529281 2.319288,-0.79802 2.556628,-0.597197 0.23734,0.200822 -0.660779,3.118399 -1.99582,6.483505 -5.769866,14.543529 -1.758896,29.316719 10.800715,39.781152 7.910612,6.59097 18.757771,11.97746 35.328756,17.5436 8.50612,2.85718 9.09038,3.16837 5.90851,3.14704 -1.27192,-0.009 -4.8963,-0.96746 -8.05417,-2.13097 z M 69.584434,117.22115 c -0.325279,-0.44533 0.07993,-0.80969 0.900456,-0.80969 0.820529,0 1.491871,0.36436 1.491871,0.80969 0,0.44534 -0.405205,0.8097 -0.900456,0.8097 -0.49525,0 -1.166593,-0.36436 -1.491871,-0.8097 z M 150.44511,81.594551 c 0,-0.445332 0.43062,-0.809695 0.95693,-0.809695 0.52631,0 0.95693,0.364363 0.95693,0.809695 0,0.445333 -0.43062,0.809696 -0.95693,0.809696 -0.52631,0 -0.95693,-0.364363 -0.95693,-0.809696 z m -89.921206,-20.7621 c -0.03242,-1.854493 5.512037,-8.275484 7.205941,-8.345147 0.558913,-0.02298 1.971316,-1.13488 3.138674,-2.470878 1.167358,-1.335997 2.755506,-2.429086 3.529218,-2.429086 0.773712,0 1.406749,-0.281506 1.406749,-0.625568 0,-0.344062 1.614821,-1.34606 3.588491,-2.226662 1.97367,-0.880603 4.417521,-2.234196 5.430779,-3.007986 1.013258,-0.77379 3.332998,-1.643521 5.154978,-1.932736 1.821981,-0.289214 4.086014,-1.180182 5.031186,-1.979927 1.154242,-0.976648 3.938994,-1.63922 8.48129,-2.01794 l 6.76279,-0.563856 v -8.752417 -8.752417 l -4.18812,-0.531415 c -2.30346,-0.292278 -6.717308,-0.327647 -9.80854,-0.0786 -3.091233,0.24905 -10.572541,0.807268 -16.62513,1.240485 -16.866037,1.207195 -30.474973,3.3322 -39.234174,6.126329 -5.803999,1.851438 -9.360435,2.482106 -8.133914,1.442398 1.827002,-1.548729 11.647482,-4.11836 23.494607,-6.147609 12.427341,-2.128632 27.377633,-3.550236 45.643661,-4.340199 l 10.76548,-0.465581 V 26.01747 37.061298 l -2.63156,0.01197 c -4.94298,0.02248 -14.792834,2.436045 -21.411149,5.246493 -10.896589,4.627204 -18.702564,10.092365 -25.449529,17.817861 -1.921373,2.200035 -2.124271,2.265555 -2.151728,0.694831 z M 231.78425,40.30008 c 0,-0.445332 0.43062,-0.809695 0.95693,-0.809695 0.52631,0 0.95693,0.364363 0.95693,0.809695 0,0.445333 -0.43062,0.809696 -0.95693,0.809696 -0.52631,0 -0.95693,-0.364363 -0.95693,-0.809696 z m -88.03766,-6.477564 c 0,-0.445333 1.05114,-0.809695 2.33585,-0.809695 1.28472,0 2.60199,0.364362 2.92727,0.809695 0.34505,0.472395 -0.62801,0.809696 -2.33585,0.809696 -1.61,0 -2.92727,-0.364363 -2.92727,-0.809696 z"
       id="path16" /></g></svg>
