<?xml version="1.0" encoding="UTF-8" standalone="no"?>
<!-- Created with Inkscape (http://www.inkscape.org/) -->

<svg
   version="1.1"
   id="svg1"
   width="247"
   height="256"
   viewBox="0 0 247 256"
   xml:space="preserve"
   xmlns="http://www.w3.org/2000/svg"
   xmlns:svg="http://www.w3.org/2000/svg"><defs
     id="defs1" /><g
     id="g1"><g
       id="g11"
       transform="translate(0.92592444,-1.8518519)"><path
         style="fill:#fbfbfa"
         d="M 5.1111107,128.70948 V -1.1736423 H 123.68189 242.25267 V 128.70948 258.59259 H 123.68189 5.1111107 Z M 231.33228,243.82309 c -0.13406,-0.49705 -3.88171,-3.65404 -8.32812,-7.01553 -4.4464,-3.36148 -9.64662,-7.3741 -11.55605,-8.91692 -3.09158,-2.498 -9.96751,-7.91738 -15.39185,-12.13134 -1.05867,-0.82244 -3.83045,-2.98587 -6.15952,-4.80763 -2.32907,-1.82176 -5.20659,-4.05027 -6.3945,-4.95224 l -2.15982,-1.63995 5.95253,-3.79977 c 3.27389,-2.08987 9.37013,-6.88927 13.54721,-10.66532 12.21384,-11.04125 20.42573,-22.91166 25.83852,-37.34998 4.39608,-11.72633 5.17108,-16.5625 5.1481,-32.12535 -0.0196,-13.27988 -0.15501,-14.615 -2.17186,-21.416893 -1.18302,-3.989761 -2.33557,-8.264505 -2.56123,-9.499431 -0.22567,-1.234926 -0.71886,-2.245319 -1.096,-2.245319 -0.37714,0 -0.68571,-0.511437 -0.68571,-1.136526 0,-1.508063 -9.28687,-18.207769 -10.12552,-18.207769 -0.3595,0 -0.65364,-0.62178 -0.65364,-1.381735 0,-0.759954 -0.28001,-1.381735 -0.62224,-1.381735 -0.34224,0 -1.64151,-1.265167 -2.88728,-2.811482 -6.16087,-7.647222 -19.23296,-18.664218 -28.88347,-24.342648 -8.95173,-5.26726 -24.53213,-10.993716 -36.02765,-13.241683 -12.89175,-2.521003 -33.43343,-2.502868 -46.300435,0.04088 -8.324536,1.64572 -17.73629,4.729111 -26.562934,8.702303 -11.650248,5.244197 -17.52198,9.24401 -30.239003,20.598751 -2.73555,2.442511 -12.5478,13.974947 -13.519799,15.889956 -0.289297,0.569966 -1.179031,1.998685 -1.977187,3.174931 -3.440267,5.069935 -8.791548,17.118857 -10.096221,22.732606 -0.353237,1.519909 -1.014285,4.007033 -1.468996,5.526934 -2.560985,8.56031 -2.364471,29.79808 0.380363,41.10663 2.61489,10.77319 8.758912,23.55906 15.875944,33.03825 8.346181,11.11631 23.458272,24.20906 34.115438,29.5568 0.846934,0.42499 3.738621,1.90404 6.425971,3.28678 2.68735,1.38274 5.151627,2.51407 5.47617,2.51407 0.324544,0 3.122579,0.93706 6.217856,2.08237 5.385452,1.99271 13.196129,3.90454 22.301863,5.45887 3.8678,0.66023 9.95873,1.90732 16.93868,3.46812 3.44615,0.7706 15.62131,3.39597 19.63347,4.23363 1.69387,0.35365 5.33184,1.11553 8.08437,1.69307 2.75254,0.57755 7.42992,1.52553 10.39419,2.10662 2.96427,0.5811 6.429,1.3504 7.69941,1.70956 1.2704,0.35916 9.75899,2.22469 18.86353,4.14561 9.10454,1.92093 18.63255,3.9737 21.17335,4.56172 2.5408,0.58802 6.17877,1.32615 8.08437,1.6403 1.9056,0.31415 4.84787,0.98429 6.53837,1.4892 4.33315,1.29419 7.48124,1.43069 7.17933,0.31129 z M 110.78115,182.57602 c -7.70286,-0.87331 -13.604248,-2.47526 -19.064402,-5.17507 -4.488088,-2.21917 -10.972434,-6.83005 -13.581406,-9.65745 -0.701245,-0.75996 -2.521589,-2.6253 -4.04521,-4.14521 -1.523621,-1.51991 -3.765787,-4.62881 -4.98259,-6.90867 -4.245359,-7.95432 -4.326072,-8.9404 -4.326072,-52.85138 V 63.422483 l 20.595898,-0.184001 20.595902,-0.184001 v 15.879315 15.879315 l 9.04679,0.194642 9.0468,0.194642 0.20548,17.789845 0.20549,17.78984 h -9.25228 -9.25228 l 0.0169,3.97249 c 0.0213,5.00787 2.01801,9.05945 5.7099,11.5862 2.52649,1.72914 3.58527,1.95966 10.34158,2.25159 13.62943,0.5889 17.64508,-2.4694 19.30337,-14.70138 1.54015,-11.36058 2.15205,-13.77198 4.75568,-18.74156 4.08464,-7.79638 10.63827,-12.54172 22.23771,-16.101824 1.48213,-0.454898 9.19116,-1.007948 17.13116,-1.229 l 14.43638,-0.401913 v 16.945097 16.94509 l -4.6091,0.29916 c -7.74191,0.50248 -10.32529,3.6581 -11.58504,14.15119 -0.91305,7.60534 -1.63874,10.08365 -4.41498,15.0776 -5.61568,10.10162 -16.65123,17.02434 -32.40308,20.3268 -8.27544,1.73499 -26.86347,2.46302 -36.11261,1.4144 z"
         id="path14" /><path
         style="fill:#facfa6"
         d="m 226.08392,244.08437 c -0.69394,-0.4024 -0.7889,-0.67393 -0.23792,-0.68029 0.50434,-0.006 1.13112,0.30032 1.39283,0.68029 0.59078,0.85773 0.32424,0.85773 -1.15491,0 z m 3.79203,0.0466 c 0.87432,-0.49652 0.56147,-1.02071 -1.53988,-2.58018 -1.45041,-1.07639 -4.02301,-3.15433 -5.71688,-4.61766 -1.69386,-1.46332 -0.48121,-0.71057 2.69479,1.67278 5.95827,4.47123 7.30679,6.17711 4.86858,6.15874 -1.13295,-0.009 -1.19212,-0.13082 -0.30661,-0.63368 z m -16.11107,-2.84164 c -0.84343,-0.51215 -0.53196,-0.57625 1.15491,-0.23767 2.83102,0.56822 3.44557,0.96364 1.47572,0.94952 -0.81164,-0.006 -1.99543,-0.32615 -2.63063,-0.71185 z m -3.99406,-1.13125 c 0.5558,-0.19957 1.21987,-0.17502 1.47572,0.0546 0.25584,0.22956 -0.1989,0.39285 -1.01055,0.36285 -0.89694,-0.0332 -1.07938,-0.19685 -0.46517,-0.4174 z m -6.15952,-1.38173 c 0.5558,-0.19957 1.21987,-0.17503 1.47572,0.0545 0.25584,0.22957 -0.19891,0.39285 -1.01055,0.36286 -0.89694,-0.0332 -1.07938,-0.19686 -0.46517,-0.4174 z m -10.6348,-1.9461 c -3.59947,-0.87723 -6.02478,-1.61704 -5.38958,-1.64402 0.6352,-0.027 4.27317,0.69233 8.08437,1.59848 3.8112,0.90615 6.23651,1.64596 5.38958,1.64402 -0.84693,-0.002 -4.4849,-0.72125 -8.08437,-1.59848 z m -8.61371,-2.19911 c 0.5558,-0.19957 1.21988,-0.17503 1.47572,0.0545 0.25585,0.22957 -0.1989,0.39286 -1.01054,0.36286 -0.89694,-0.0332 -1.07938,-0.19686 -0.46518,-0.4174 z m 32.42358,-2.11881 -1.86658,-1.89989 2.11734,1.67488 c 1.97897,1.56543 2.47042,2.1249 1.86657,2.1249 -0.13791,0 -1.09071,-0.85495 -2.11733,-1.89989 z m -42.4328,0.0462 c 0.5558,-0.19957 1.21988,-0.17503 1.47572,0.0545 0.25585,0.22957 -0.1989,0.39286 -1.01055,0.36286 -0.89693,-0.0332 -1.07937,-0.19686 -0.46517,-0.4174 z m -5.24521,-0.94136 c -0.84344,-0.51215 -0.53197,-0.57624 1.15491,-0.23767 2.83101,0.56822 3.44557,0.96364 1.47571,0.94952 -0.81164,-0.006 -1.99542,-0.32615 -2.63062,-0.71185 z m 41.9255,-3.59549 -3.04353,-2.93619 3.27225,2.73097 c 3.04315,2.53977 3.62605,3.14141 3.04353,3.14141 -0.12579,0 -1.5983,-1.32129 -3.27225,-2.93619 z m -53.08964,1.22836 c -4.13477,-1.22276 -2.50726,-1.27053 2.30982,-0.0678 2.11734,0.52866 3.15676,0.9651 2.30982,0.96988 -0.84693,0.005 -2.92577,-0.40116 -4.61964,-0.90209 z m -5.96703,-1.51319 c 0.52933,-0.19166 1.39551,-0.19166 1.92485,0 0.52933,0.19165 0.0962,0.34846 -0.96243,0.34846 -1.05866,0 -1.49176,-0.15681 -0.96242,-0.34846 z m -5.58207,-0.92419 c -1.96198,-0.75651 0.0622,-0.75651 2.69479,0 1.54738,0.44466 1.62287,0.55712 0.38497,0.57345 -0.84693,0.0112 -2.23282,-0.24689 -3.07976,-0.57345 z m -6.54449,-1.4133 c -0.84344,-0.51214 -0.53196,-0.57624 1.15491,-0.23767 2.83102,0.56822 3.44557,0.96365 1.47572,0.94952 -0.81165,-0.006 -1.99543,-0.32615 -2.63063,-0.71185 z m -3.99406,-1.13124 c 0.5558,-0.19957 1.21987,-0.17503 1.47572,0.0545 0.25584,0.22957 -0.19891,0.39285 -1.01055,0.36286 -0.89694,-0.0332 -1.07938,-0.19686 -0.46517,-0.4174 z m 68.61076,-1.42795 -1.86658,-1.89988 2.11734,1.67488 c 1.97896,1.56542 2.47042,2.12489 1.86657,2.12489 -0.13791,0 -1.09072,-0.85495 -2.11733,-1.89989 z m -72.50859,0.75147 c 0.52934,-0.19165 1.39552,-0.19165 1.92486,0 0.52933,0.19166 0.0962,0.34847 -0.96243,0.34847 -1.05867,0 -1.49176,-0.15681 -0.96243,-0.34847 z m -4.81212,-0.92418 c -0.97062,-0.37426 -1.11293,-0.59376 -0.38497,-0.59376 0.6352,0 1.84786,0.26719 2.69479,0.59376 0.97062,0.37425 1.11293,0.59375 0.38497,0.59375 -0.6352,0 -1.84786,-0.26719 -2.69479,-0.59375 z m -6.54449,-1.38174 c -1.02659,-0.5953 -1.02659,-0.66549 0,-0.63173 0.6352,0.0209 1.84785,0.30517 2.69479,0.63173 l 1.53988,0.59375 -1.53988,0.038 c -0.84694,0.0209 -2.05959,-0.26339 -2.69479,-0.63173 z m -3.22413,-1.16281 c 0.5558,-0.19957 1.21988,-0.17503 1.47572,0.0545 0.25585,0.22957 -0.1989,0.39286 -1.01054,0.36286 -0.89694,-0.0332 -1.07938,-0.19686 -0.46518,-0.4174 z m -6.40012,-0.94205 c -1.07322,-0.4363 -0.60656,-0.4985 1.53988,-0.20523 1.69387,0.23143 3.22412,0.53499 3.40057,0.67457 0.66151,0.52331 -3.46239,0.13154 -4.94045,-0.46934 z m 87.15278,-1.02588 c -1.18815,-0.93793 -1.85487,-1.70533 -1.48161,-1.70533 0.37327,0 1.4924,0.77722 2.48697,1.72717 2.30106,2.19781 1.79243,2.18677 -1.00536,-0.0218 z m -91.95026,-0.1115 c 0.74913,-0.17516 1.78855,-0.16364 2.30982,0.0256 0.52128,0.18925 -0.0916,0.33257 -1.36204,0.31849 -1.27041,-0.0141 -1.6969,-0.16892 -0.94778,-0.34409 z m -4.24932,-0.66965 c 0.52933,-0.19165 1.39552,-0.19165 1.92485,0 0.52933,0.19166 0.0962,0.34847 -0.96242,0.34847 -1.05867,0 -1.49176,-0.15681 -0.96243,-0.34847 z m -3.8497,-0.69086 c 0.529334,-0.19166 1.395516,-0.19166 1.92485,0 0.52933,0.19165 0.0962,0.34846 -0.962425,0.34846 -1.058668,0 -1.491759,-0.15681 -0.962425,-0.34846 z m -7.891886,-1.61506 c -0.970617,-0.37425 -1.112933,-0.59375 -0.384971,-0.59375 0.635201,0 1.847857,0.26719 2.694791,0.59375 0.970616,0.37425 1.112932,0.59375 0.38497,0.59375 -0.635201,0 -1.847856,-0.26719 -2.69479,-0.59375 z m 102.353596,-1.55445 -2.26138,-2.24532 2.69094,2.0726 c 1.48002,1.13993 2.83704,2.15033 3.0156,2.24532 0.17856,0.095 -0.0147,0.17272 -0.42956,0.17272 -0.41482,0 -1.77184,-1.01039 -3.0156,-2.24532 z M 80.565242,211.61359 c -0.635201,-0.36834 -0.808437,-0.66971 -0.38497,-0.66971 0.423467,0 1.28965,0.30137 1.92485,0.66971 0.635201,0.36834 0.808437,0.66971 0.38497,0.66971 -0.423467,0 -1.289649,-0.30137 -1.92485,-0.66971 z m -4.959284,-1.74914 c -1.90168,-1.29064 -0.650952,-1.27602 1.879524,0.022 1.116337,0.57262 1.439742,0.9884 0.76994,0.98985 -0.635201,0.001 -1.82746,-0.45394 -2.649464,-1.01182 z m 110.620892,-1.07142 c -1.38266,-1.10853 -2.24861,-2.00569 -1.92432,-1.99368 0.79462,0.0294 5.07621,3.43673 4.72009,3.75627 -0.15502,0.1391 -1.41312,-0.65407 -2.79577,-1.76259 z M 71.133476,207.7641 c -2.878376,-1.40118 -2.70317,-1.98477 0.192485,-0.64115 1.270401,0.58948 2.30982,1.21925 2.30982,1.39948 0,0.44457 -0.08273,0.4195 -2.502305,-0.75833 z m -7.605126,-4.2682 c -0.977451,-1.11835 -0.941214,-1.13301 0.48318,-0.19549 0.846934,0.55743 1.684244,1.10149 1.860688,1.20901 0.176445,0.10752 -0.04099,0.1955 -0.48318,0.1955 -0.442193,0 -1.279503,-0.54406 -1.860688,-1.20902 z m -5.098886,-3.00485 c -1.799735,-1.1438 -3.272246,-2.23299 -3.272246,-2.42042 0,-0.18742 1.559129,0.62177 3.464731,1.79821 1.905602,1.17644 3.46473,2.2795 3.46473,2.45123 0,0.47554 -0.145919,0.40256 -3.657215,-1.82902 z m 126.847636,1.18956 c 0,-0.14347 0.60633,-0.68753 1.34739,-1.20902 1.22117,-0.85935 1.2484,-0.83492 0.2907,0.26084 -1.00583,1.15081 -1.63809,1.51678 -1.63809,0.94818 z m 3.07976,-2.07261 c 0,-0.14346 0.60633,-0.68752 1.34739,-1.20902 1.22117,-0.85935 1.2484,-0.83491 0.2907,0.26084 -1.00583,1.15082 -1.63809,1.51679 -1.63809,0.94818 z m 3.07976,-2.02794 c 0,-0.1189 1.12604,-1.12929 2.5023,-2.24532 l 2.50231,-2.02914 -2.26138,2.24532 c -2.10793,2.09295 -2.74323,2.56288 -2.74323,2.02914 z M 46.255507,190.71485 c -3.820546,-3.51479 -7.624907,-7.16602 -8.454135,-8.11384 -0.829227,-0.94782 1.736697,1.31146 5.702055,5.02062 3.965358,3.70916 8.083141,7.36038 9.15063,8.11383 1.067488,0.75345 1.627465,1.36991 1.244393,1.36991 -0.383073,0 -3.822397,-2.87573 -7.642943,-6.39052 z m 151.725603,1.55445 c 0.76646,-0.75996 1.56681,-1.38174 1.77854,-1.38174 0.21174,0 -0.24214,0.62178 -1.0086,1.38174 -0.76646,0.75995 -1.56681,1.38173 -1.77854,1.38173 -0.21174,0 0.24213,-0.62178 1.0086,-1.38173 z m 4.61964,-4.83607 c 0.26172,-0.37998 0.62864,-0.69087 0.81538,-0.69087 0.18674,0 0.33953,0.31089 0.33953,0.69087 0,0.37997 -0.36692,0.69086 -0.81538,0.69086 -0.44846,0 -0.60125,-0.31089 -0.33953,-0.69086 z m 4.65013,-4.31793 c 1.64472,-1.80489 3.10245,-3.28162 3.23941,-3.28162 0.69632,0 -1.51328,2.66651 -3.72117,4.49064 -2.30603,1.90522 -2.26713,1.80758 0.48176,-1.20902 z m -96.08052,-0.31485 c 0.9528,-0.16467 2.51193,-0.16467 3.46473,0 0.9528,0.16467 0.17324,0.2994 -1.73236,0.2994 -1.9056,0 -2.68517,-0.13473 -1.73237,-0.2994 z m 23.49376,-0.008 c 1.17036,-0.1588 2.90272,-0.15456 3.8497,0.009 0.94698,0.16398 -0.0106,0.29391 -2.12792,0.28872 -2.11733,-0.005 -2.89214,-0.13936 -1.72178,-0.29815 z m -28.88334,-0.65267 c 0.52933,-0.19165 1.39552,-0.19165 1.92485,0 0.52933,0.19166 0.0962,0.34847 -0.96242,0.34847 -1.05867,0 -1.49176,-0.15681 -0.96243,-0.34847 z m 36.18719,0 c 0.52933,-0.19165 1.39551,-0.19165 1.92485,0 0.52933,0.19166 0.0962,0.34847 -0.96243,0.34847 -1.05867,0 -1.49176,-0.15681 -0.96242,-0.34847 z m -41.76925,-0.92418 c -0.970621,-0.37426 -1.112937,-0.59376 -0.384975,-0.59376 0.635205,0 1.847855,0.26719 2.694795,0.59376 0.97061,0.37425 1.11293,0.59375 0.38497,0.59375 -0.63521,0 -1.84786,-0.26719 -2.69479,-0.59375 z m 46.58137,0 c 2.63256,-0.75651 4.65677,-0.75651 2.69479,0 -0.84693,0.32656 -2.23282,0.58461 -3.07976,0.57344 -1.2379,-0.0163 -1.1624,-0.12878 0.38497,-0.57344 z M 35.040565,179.31553 c -0.957706,-1.09575 -0.930473,-1.12019 0.290695,-0.26084 0.741068,0.5215 1.347395,1.06556 1.347395,1.20902 0,0.56861 -0.632263,0.20263 -1.63809,-0.94818 z m 59.00408,-0.1648 c -0.26974,-0.39163 0.03931,-0.50745 0.7245,-0.27152 1.333858,0.45928 1.577905,0.95447 0.470399,0.95447 -0.398475,0 -0.93618,-0.30733 -1.194899,-0.68295 z m 61.974725,-0.35335 c 1.05867,-0.54304 2.27133,-0.98734 2.69479,-0.98734 0.42347,0 -0.0962,0.4443 -1.15491,0.98734 -1.05866,0.54304 -2.27132,0.98734 -2.69479,0.98734 -0.42346,0 0.0962,-0.4443 1.15491,-0.98734 z m 56.20563,-1.72717 c 0.90461,-1.13993 1.81798,-2.0726 2.02971,-2.0726 0.21173,0 -0.35516,0.93267 -1.25977,2.0726 -0.9046,1.13993 -1.81797,2.0726 -2.02971,2.0726 -0.21173,0 0.35517,-0.93267 1.25977,-2.0726 z M 89.374227,176.68666 c -1.435187,-1.03173 -1.425741,-1.04449 0.237811,-0.32112 0.952801,0.41431 1.732366,0.89779 1.732366,1.07441 0,0.52867 -0.399297,0.376 -1.970177,-0.75329 z m 72.599353,-0.39305 c 0.52227,-0.47215 1.14354,-0.68442 1.3806,-0.47171 0.23705,0.21271 -0.19026,0.59902 -0.94959,0.85846 -1.09732,0.37492 -1.18576,0.29557 -0.43101,-0.38675 z m -79.01492,-3.71404 c -2.23247,-1.7099 -3.77089,-3.09497 -3.418712,-3.07794 0.704235,0.034 8.54848,6.18685 7.887654,6.18685 -0.225448,0 -2.236472,-1.39901 -4.468942,-3.10891 z m 81.53005,2.89251 c 0,-0.17076 1.27196,-1.18101 2.82657,-2.24499 1.55461,-1.06398 2.58355,-1.58169 2.28654,-1.15047 -0.6092,0.88447 -5.11311,3.87538 -5.11311,3.39546 z m 50.73859,-2.20164 c 1.29791,-2.25345 2.36408,-3.50275 2.35837,-2.76347 -0.003,0.37998 -0.71382,1.46809 -1.57976,2.41803 -1.04575,1.1472 -1.3072,1.26319 -0.77861,0.34544 z M 26.247464,167.33386 c -0.677301,-1.17524 -1.094768,-2.25945 -0.927705,-2.40936 0.167063,-0.14991 0.879952,0.81166 1.584197,2.13681 1.583445,2.9795 1.034809,3.20728 -0.656492,0.27255 z m 48.571399,-2.12621 c -1.968593,-1.96468 -3.925429,-4.21864 -4.348525,-5.00879 -0.423096,-0.79015 0.02943,-0.50668 1.005604,0.62993 0.976178,1.13662 2.294579,2.56112 2.929779,3.16555 3.421329,3.25562 4.840803,4.78546 4.440232,4.78546 -0.246307,0 -2.058498,-1.60747 -4.02709,-3.57215 z m 144.770067,1.29703 c 0.28914,-0.68134 0.71966,-1.06478 0.95672,-0.85207 0.23705,0.21271 4.8e-4,0.77018 -0.52571,1.23882 -0.7604,0.67723 -0.84884,0.59788 -0.43101,-0.38675 z m -44.32105,-0.0583 c 0,-0.14347 0.60632,-0.68753 1.34739,-1.20902 1.22117,-0.85935 1.2484,-0.83492 0.2907,0.26084 -1.00583,1.15081 -1.63809,1.51678 -1.63809,0.94818 z m 45.86093,-2.70515 c 0.28914,-0.68135 0.71966,-1.06478 0.95672,-0.85207 0.23705,0.21271 4.8e-4,0.77018 -0.52571,1.23882 -0.7604,0.67723 -0.84884,0.59788 -0.43101,-0.38675 z m -41.39106,-3.84603 c 1.14104,-2.2267 2.18097,-3.80576 2.31095,-3.50902 0.25103,0.57308 -3.49768,7.55757 -4.05628,7.55757 -0.18111,0 0.6043,-1.82185 1.74533,-4.04855 z m 42.55104,1.63051 c 0,-0.37998 0.49515,-1.4681 1.10034,-2.41804 0.60519,-0.94994 1.10035,-1.41628 1.10035,-1.0363 0,0.37998 -0.49516,1.46809 -1.10035,2.41804 -0.60519,0.94994 -1.10034,1.41628 -1.10034,1.0363 z M 22.529881,160.11724 c -0.742976,-1.73732 -0.523799,-2.18559 0.383841,-0.78505 0.449406,0.69346 0.65491,1.40637 0.456674,1.58424 -0.198235,0.17788 -0.576467,-0.18175 -0.840515,-0.79919 z m 45.057454,-4.98208 c -0.84016,-1.76174 -0.821155,-1.80237 0.261383,-0.55882 0.642082,0.73759 1.167422,1.59253 1.167422,1.89989 0,1.05005 -0.522275,0.55985 -1.428805,-1.34107 z m 157.750225,-0.51815 c 0,-0.37998 0.33587,-1.1572 0.74636,-1.72717 0.4105,-0.56996 0.74636,-0.72541 0.74636,-0.34543 0,0.37998 -0.33586,1.1572 -0.74636,1.72717 -0.41049,0.56996 -0.74636,0.72541 -0.74636,0.34543 z m -42.22018,-4.1452 c 0.0157,-1.13994 0.18825,-1.52263 0.38346,-0.85044 0.19521,0.67219 0.18237,1.60486 -0.0285,2.0726 -0.2109,0.46774 -0.37062,-0.0822 -0.35493,-1.22216 z M 65.606406,149.73159 c -0.2832,-1.01247 -0.36642,-1.9741 -0.184935,-2.13695 0.181486,-0.16285 0.561684,0.5323 0.844883,1.54478 0.2832,1.01247 0.36642,1.9741 0.184934,2.13695 -0.181486,0.16285 -0.561683,-0.5323 -0.844882,-1.54478 z M 17.91024,149.06336 c -0.264048,-0.61743 -0.458126,-1.48579 -0.431284,-1.92968 0.02684,-0.44389 0.380758,-0.0624 0.786481,0.84768 0.405722,0.91011 0.5998,1.77847 0.431284,1.92968 -0.168517,0.15121 -0.522433,-0.23025 -0.786481,-0.84768 z m 106.54159,-0.97259 c 7.08712,-0.41286 9.48863,-1.05765 12.69074,-3.4074 1.45499,-1.06768 1.47305,-1.05838 0.38497,0.19827 -2.2524,2.60134 -6.84376,3.83955 -13.84565,3.73394 l -6.54449,-0.0987 z m -12.90127,-1.82526 c -1.3789,-0.97511 -2.88942,-2.44839 -3.35672,-3.27396 -0.5304,-0.93703 -0.0223,-0.6621 1.35217,0.7317 1.21099,1.22799 3.24123,2.70281 4.51163,3.27736 1.2704,0.57456 1.79011,1.04311 1.15491,1.04124 -0.6352,-0.002 -2.2831,-0.80122 -3.66199,-1.77634 z M 64.546598,144.254 c 0.01569,-1.13993 0.18825,-1.52263 0.383463,-0.85044 0.195213,0.67219 0.182375,1.60486 -0.02853,2.0726 -0.210905,0.46774 -0.370625,-0.0822 -0.354933,-1.22216 z m 119.340722,-0.69087 c 0.0157,-1.13993 0.18825,-1.52263 0.38346,-0.85044 0.19521,0.6722 0.18237,1.60487 -0.0285,2.07261 -0.2109,0.46774 -0.37062,-0.0822 -0.35493,-1.22217 z m -44.95314,-1.38174 c 0.3896,-0.75995 0.90107,-1.84807 1.1366,-2.41803 0.36991,-0.89519 0.4365,-0.88965 0.48901,0.0407 0.0334,0.59233 -0.47804,1.68045 -1.1366,2.41804 -1.17823,1.3196 -1.18605,1.31895 -0.48901,-0.0407 z M 15.951057,141.43295 c 0.03694,-0.80482 0.219387,-0.96852 0.465172,-0.41739 0.222413,0.49872 0.19506,1.09459 -0.06079,1.32416 -0.255844,0.22957 -0.437819,-0.17848 -0.404387,-0.90677 z m 168.573013,-1.54229 c -0.0374,-2.01151 4.68945,-7.72685 6.39049,-7.72685 0.40135,0 -0.22671,0.67507 -1.39569,1.50015 -1.16897,0.82509 -2.76722,2.76815 -3.55165,4.31793 -0.78443,1.54977 -1.43385,2.40872 -1.44315,1.90877 z m 45.47034,-0.53031 c 0.0369,-0.80482 0.21939,-0.96853 0.46517,-0.4174 0.22241,0.49872 0.19506,1.0946 -0.0608,1.32417 -0.25585,0.22956 -0.43782,-0.17848 -0.40439,-0.90677 z M 63.998461,101.4202 l 0.01307,-38.688585 21.173353,-0.02273 21.173356,-0.02273 -20.788386,0.368166 -20.788383,0.368165 -0.398039,38.343154 -0.398038,38.34315 z m -48.817344,36.55842 c 0.03694,-0.80483 0.219387,-0.96853 0.465172,-0.4174 0.222413,0.49872 0.19506,1.09459 -0.06078,1.32416 -0.255844,0.22957 -0.437819,-0.17847 -0.404387,-0.90676 z m 90.852933,0 c 0.037,-0.80483 0.21939,-0.96853 0.46517,-0.4174 0.22242,0.49872 0.19506,1.09459 -0.0608,1.32416 -0.25585,0.22957 -0.43782,-0.17847 -0.40439,-0.90676 z m 124.81961,-2.7059 c 0.0157,-1.13993 0.18825,-1.52263 0.38347,-0.85044 0.19521,0.67219 0.18237,1.60487 -0.0285,2.0726 -0.21091,0.46774 -0.37063,-0.0822 -0.35494,-1.22216 z m -89.7055,-4.14521 c 0.23758,-2.65984 0.56254,-4.96561 0.72213,-5.12393 0.53528,-0.53104 0.20865,4.40359 -0.47634,7.19654 -0.52088,2.12377 -0.57777,1.64399 -0.24579,-2.07261 z m -126.736983,1.32417 c 0.03694,-0.80483 0.219387,-0.96853 0.465172,-0.4174 0.222413,0.49872 0.19506,1.09459 -0.06078,1.32416 -0.255844,0.22957 -0.437819,-0.17848 -0.404387,-0.90676 z m 178.420963,-0.75981 c 0.5558,-0.19957 1.21987,-0.17503 1.47571,0.0545 0.25585,0.22957 -0.1989,0.39286 -1.01054,0.36286 -0.89694,-0.0332 -1.07938,-0.19685 -0.46517,-0.4174 z m 38.87995,-4.0187 c 0.004,-2.27986 0.14806,-3.12924 0.31941,-1.88751 0.17136,1.24173 0.16783,3.10707 -0.008,4.14521 -0.17568,1.03813 -0.31589,0.0222 -0.31156,-2.2577 z M 124.45081,112.68035 c -0.21117,-9.76597 -0.11791,-17.51713 0.20726,-17.224808 0.32517,0.292322 0.49794,8.282658 0.38395,17.756298 l -0.20726,17.2248 z m 75.60525,15.68369 c 0.0157,-1.13993 0.18825,-1.52263 0.38346,-0.85043 0.19521,0.67219 0.18238,1.60486 -0.0285,2.0726 -0.2109,0.46774 -0.37062,-0.0822 -0.35493,-1.22217 z m 0.11893,-7.94498 c 0,-3.2298 0.13262,-4.55109 0.29472,-2.93618 0.1621,1.6149 0.1621,4.25747 0,5.87237 -0.1621,1.6149 -0.29472,0.29362 -0.29472,-2.93619 z m -57.89297,3.45434 c 0,-0.94994 0.17476,-1.33855 0.38835,-0.86358 0.21359,0.47497 0.21359,1.25219 0,1.72717 -0.21359,0.47497 -0.38835,0.0863 -0.38835,-0.86359 z M 13.790156,120.41906 c 0,-1.70989 0.150151,-2.4094 0.333668,-1.55445 0.183518,0.85495 0.183518,2.25396 0,3.10891 -0.183517,0.85494 -0.333668,0.15544 -0.333668,-1.55446 z M 143.7549,118.69189 c 0,-0.37997 0.49515,-1.46809 1.10034,-2.41803 0.60519,-0.94995 1.10035,-1.41628 1.10035,-1.0363 0,0.37997 -0.49516,1.46809 -1.10035,2.41803 -0.60519,0.94995 -1.10034,1.41628 -1.10034,1.0363 z m 87.96504,-5.1815 c 0,-2.46985 0.13974,-3.48025 0.31054,-2.24532 0.17079,1.23492 0.17079,3.25571 0,4.49064 -0.1708,1.23492 -0.31054,0.22453 -0.31054,-2.24532 z m -85.68088,0.34543 c 0.003,-0.37998 0.71383,-1.46809 1.57977,-2.41804 1.04574,-1.14719 1.30719,-1.26318 0.7786,-0.34543 -1.29791,2.25345 -2.36407,3.50275 -2.35837,2.76347 z M 14.411177,108.27131 c 0.03694,-0.80482 0.219387,-0.96853 0.465172,-0.4174 0.222413,0.49872 0.19506,1.09459 -0.06078,1.32416 -0.255844,0.22957 -0.437819,-0.17847 -0.404387,-0.90676 z m 135.448673,0.57078 c 0,-0.63328 3.40873,-3.58158 5.42587,-4.69297 0.65516,-0.36097 0.48192,-0.0994 -0.38497,0.58128 -0.86689,0.68067 -2.35573,2.01929 -3.30853,2.97471 -0.9528,0.95542 -1.73237,1.46706 -1.73237,1.13698 z m 50.31514,-5.00385 c 0,-3.22981 0.13262,-4.551091 0.29472,-2.93619 0.1621,1.61491 0.1621,4.25747 0,5.87238 -0.1621,1.6149 -0.29472,0.29362 -0.29472,-2.93619 z m 30.67867,2.41804 c 0.0157,-1.13993 0.18825,-1.52263 0.38347,-0.85044 0.19521,0.67219 0.18237,1.60486 -0.0285,2.0726 -0.21091,0.46774 -0.37063,-0.0822 -0.35494,-1.22216 z M 15.181117,104.1261 c 0.03694,-0.80482 0.219387,-0.96853 0.465172,-0.4174 0.222413,0.49872 0.19506,1.0946 -0.06078,1.32417 -0.255844,0.22956 -0.437819,-0.17848 -0.404387,-0.90677 z m 214.813293,-1.38173 c 0.0369,-0.80483 0.21939,-0.96853 0.46517,-0.4174 0.22241,0.49872 0.19506,1.09459 -0.0608,1.32416 -0.25585,0.22957 -0.43782,-0.17847 -0.40439,-0.90676 z m -72.43516,0.0641 c 0,-0.47273 4.71428,-2.56997 5.0665,-2.25393 0.16706,0.14991 -0.90456,0.78958 -2.38137,1.4215 -1.47682,0.63192 -2.68513,1.00652 -2.68513,0.83243 z M 15.951057,100.67176 c 0.03694,-0.804818 0.219387,-0.968524 0.465172,-0.4174 0.222413,0.49872 0.19506,1.0946 -0.06079,1.32417 -0.255844,0.22957 -0.437819,-0.17848 -0.404387,-0.90677 z M 229.22447,99.290028 c 0.0369,-0.804821 0.21939,-0.968527 0.46517,-0.417399 0.22241,0.49872 0.19506,1.094593 -0.0608,1.324161 -0.25585,0.22957 -0.43782,-0.17847 -0.40439,-0.906762 z m -63.90165,0.154761 c 0.17644,-0.136535 1.36022,-0.456869 2.63063,-0.711854 1.68687,-0.338576 1.99834,-0.274479 1.15491,0.237666 -1.03971,0.63132 -4.55817,1.072049 -3.78554,0.474188 z m 9.56009,-1.9131 c 2.95939,-0.502076 26.21602,-0.742812 24.63808,-0.255035 -0.42347,0.130903 -6.83322,0.359399 -14.24389,0.507768 -7.41068,0.14837 -12.08806,0.03464 -10.39419,-0.252733 z M 17.490937,94.453955 c 0.03695,-0.804822 0.219387,-0.968527 0.465172,-0.4174 0.222414,0.49872 0.19506,1.094594 -0.06078,1.324163 -0.255845,0.22957 -0.437819,-0.178474 -0.404388,-0.906763 z M 105.97327,94.12532 c 0,-0.402402 0.34647,-0.5395 0.76994,-0.304661 0.42346,0.234839 0.76994,0.564077 0.76994,0.731641 0,0.167563 -0.34648,0.304661 -0.76994,0.304661 -0.42347,0 -0.76994,-0.329239 -0.76994,-0.731641 z m 7.55503,0.259699 c 0.5558,-0.199571 1.21988,-0.175027 1.47572,0.05454 0.25585,0.22957 -0.1989,0.392856 -1.01054,0.362858 -0.89694,-0.03315 -1.07938,-0.196857 -0.46518,-0.4174 z m 3.07976,0 c 0.5558,-0.199571 1.21988,-0.175027 1.47572,0.05454 0.25585,0.22957 -0.1989,0.392856 -1.01054,0.362858 -0.89694,-0.03315 -1.07938,-0.196857 -0.46518,-0.4174 z m -10.44063,-4.018698 c 0.009,-1.519909 0.16622,-2.060342 0.35038,-1.200963 0.18417,0.859378 0.17718,2.10294 -0.0155,2.76347 -0.19271,0.66053 -0.34339,-0.0426 -0.33485,-1.562507 z m 119.6934,-1.727169 c -0.22147,-0.759955 -0.0887,-1.381735 0.29518,-1.381735 0.38382,0 0.69785,0.62178 0.69785,1.381735 0,0.759954 -0.13282,1.381735 -0.29517,1.381735 -0.16234,0 -0.47638,-0.621781 -0.69786,-1.381735 z M 19.763553,88.293718 c 0,-0.379977 0.335862,-1.157203 0.74636,-1.727169 0.410498,-0.569966 0.74636,-0.725411 0.74636,-0.345434 0,0.379977 -0.335862,1.157203 -0.74636,1.727169 -0.410498,0.569966 -0.74636,0.725411 -0.74636,0.345434 z M 106.28831,75.8581 c -8.8e-4,-6.459612 0.11484,-9.195168 0.25717,-6.079013 0.14233,3.116155 0.14305,8.401292 0.002,11.74475 -0.14144,3.343457 -0.25789,0.793876 -0.25878,-5.665737 z m 117.61086,8.260824 c -1.29002,-2.540525 -1.04391,-3.082508 0.35098,-0.772918 0.65139,1.07853 1.04027,2.090238 0.86419,2.248239 -0.17609,0.158002 -0.72291,-0.505893 -1.21517,-1.475321 z m -2.32381,-4.979202 c -0.84016,-1.761743 -0.82116,-1.802376 0.26138,-0.558823 0.64208,0.737585 1.16742,1.592534 1.16742,1.899886 0,1.050055 -0.52227,0.559852 -1.4288,-1.341063 z M 25.129554,77.141592 c 0,-0.370682 0.538823,-1.277446 1.197385,-2.015031 1.129023,-1.264499 1.145047,-1.242455 0.280678,0.386106 -1.122428,2.114768 -1.478063,2.506702 -1.478063,1.628925 z M 217.40046,72.091065 c -1.15263,-1.839904 -2.09245,-3.610352 -2.08847,-3.934329 0.004,-0.323976 1.06884,1.072104 2.36638,3.102401 1.29753,2.030297 2.23735,3.800744 2.08847,3.934328 -0.14887,0.133585 -1.21374,-1.262496 -2.36638,-3.1024 z M 27.439374,72.948934 c 0,-0.396781 0.606328,-1.148099 1.347395,-1.669597 1.246345,-0.877067 1.262684,-0.844552 0.217868,0.433558 -0.621239,0.759954 -1.227567,1.511272 -1.347395,1.669596 -0.119827,0.158324 -0.217868,-0.03678 -0.217868,-0.433557 z m 2.30982,-3.914917 c 0,-0.143462 0.606328,-0.687521 1.347396,-1.209018 1.221167,-0.85935 1.2484,-0.834914 0.290695,0.26084 -1.005827,1.150812 -1.638091,1.516786 -1.638091,0.948178 z m 181.811666,-5.172776 -2.58899,-3.202229 2.81805,2.665022 c 1.54993,1.465762 2.71497,2.906765 2.58899,3.202229 -0.12598,0.295464 -1.3941,-0.903796 -2.81805,-2.665022 z m -10.01146,-10.647585 -7.21087,-7.062864 7.40335,6.738079 c 6.45193,5.87215 8.02148,7.484209 7.21088,7.406178 -0.10587,-0.01019 -3.43738,-3.196818 -7.40336,-7.081393 z M 39.758416,57.204674 c 0.994567,-0.949943 1.981539,-1.727169 2.193273,-1.727169 0.211733,0 -0.428766,0.777226 -1.423333,1.727169 -0.994567,0.949943 -1.981539,1.727169 -2.193273,1.727169 -0.211734,0 0.428766,-0.777226 1.423333,-1.727169 z M 51.307518,46.841659 c 0.994566,-0.949943 1.981539,-1.727169 2.193273,-1.727169 0.211733,0 -0.428767,0.777226 -1.423333,1.727169 -0.994567,0.949943 -1.98154,1.727169 -2.193273,1.727169 -0.211734,0 0.428766,-0.777226 1.423333,-1.727169 z m 140.070832,-2.24532 -1.86658,-1.899886 2.11733,1.67488 c 1.97897,1.565428 2.47042,2.124892 1.86658,2.124892 -0.13792,0 -1.09072,-0.854948 -2.11733,-1.899886 z M 54.387278,44.181953 c 0,-0.159657 0.908842,-0.824624 2.019648,-1.477704 1.110807,-0.653081 1.784456,-0.845954 1.497,-0.428606 -0.549318,0.797534 -3.516648,2.406069 -3.516648,1.90631 z m 132.741512,-2.694518 -1.46672,-1.554452 1.73236,1.316094 c 1.628,1.236804 2.08288,1.79281 1.46673,1.79281 -0.1461,0 -0.92567,-0.699503 -1.73237,-1.554452 z M 60.727466,40.122258 c 2.28614,-1.743775 6.748794,-4.243629 6.748794,-3.780485 0,0.157673 -1.99222,1.434136 -4.427156,2.836584 -2.434935,1.402448 -3.479673,1.827203 -2.321638,0.943901 z m 117.448104,-3.57527 c -4.11792,-2.195632 -4.61799,-2.907489 -0.8426,-1.199439 1.77101,0.801232 3.4372,1.772117 3.70266,2.157525 0.61043,0.886261 0.57974,0.875981 -2.86006,-0.958086 z M 73.635781,33.098221 c 0,-0.149335 0.537705,-0.456664 1.194899,-0.682954 0.685189,-0.235929 0.994241,-0.120106 0.724501,0.271519 -0.452154,0.656465 -1.9194,0.970978 -1.9194,0.411435 z m 3.849701,-1.381735 c 0,-0.149335 0.537704,-0.456665 1.194899,-0.682954 0.685189,-0.235929 0.99424,-0.120107 0.7245,0.271519 -0.452153,0.656464 -1.919399,0.970978 -1.919399,0.411435 z m 89.313058,-0.419349 c -0.63521,-0.36834 -0.80844,-0.669709 -0.38497,-0.669709 0.42346,0 1.28964,0.301369 1.92485,0.669709 0.6352,0.36834 0.80843,0.66971 0.38497,0.66971 -0.42347,0 -1.28965,-0.30137 -1.92485,-0.66971 z M 94.2798,25.989122 c 0.555801,-0.199571 1.219874,-0.175027 1.475719,0.05454 0.255845,0.22957 -0.198901,0.392856 -1.010546,0.362857 -0.896937,-0.03315 -1.079379,-0.196856 -0.465173,-0.417399 z m 56.97557,0 c 0.5558,-0.199571 1.21987,-0.175027 1.47572,0.05454 0.25584,0.22957 -0.1989,0.392856 -1.01055,0.362857 -0.89694,-0.03315 -1.07938,-0.196856 -0.46517,-0.417399 z m -50.81605,-1.381735 c 0.5558,-0.199571 1.21988,-0.175027 1.47572,0.05454 0.25584,0.22957 -0.1989,0.392855 -1.01055,0.362857 -0.89693,-0.03315 -1.079375,-0.196856 -0.46517,-0.417399 z m 3.80158,-0.676475 c 0.52933,-0.191655 1.39552,-0.191655 1.92485,0 0.52933,0.191656 0.0962,0.348464 -0.96242,0.348464 -1.05867,0 -1.49176,-0.156808 -0.96243,-0.348464 z m 6.55915,-0.712084 c 0.74912,-0.175165 1.78854,-0.163645 2.30982,0.0256 0.52127,0.189244 -0.0917,0.332561 -1.36205,0.318481 -1.2704,-0.01408 -1.6969,-0.168916 -0.94777,-0.344081 z m 21.15869,-0.0088 c 0.95281,-0.16467 2.51193,-0.16467 3.46474,0 0.9528,0.16467 0.17323,0.2994 -1.73237,0.2994 -1.9056,0 -2.68517,-0.13473 -1.73237,-0.2994 z m -9.60959,-0.682064 c 0.74912,-0.175165 1.78854,-0.163646 2.30982,0.0256 0.52127,0.189245 -0.0917,0.332561 -1.36205,0.318482 -1.2704,-0.01408 -1.6969,-0.168917 -0.94777,-0.344081 z"
         id="path13" /><path
         style="fill:#e99760"
         d="m 227.87377,243.59821 c 1.12939,-0.26198 0.37451,-1.20543 -3.8497,-4.81138 l -5.25458,-4.48549 5.89912,4.37336 c 3.24452,2.40536 5.92968,4.60654 5.96704,4.89152 0.0374,0.28498 -0.88489,0.48209 -2.04942,0.43801 -1.40762,-0.0533 -1.64643,-0.18937 -0.71246,-0.40602 z m -5.25458,-0.89557 c -0.97061,-0.37426 -1.11293,-0.59375 -0.38497,-0.59375 0.6352,0 1.84786,0.26718 2.69479,0.59375 0.97062,0.37425 1.11294,0.59375 0.38497,0.59375 -0.6352,0 -1.84785,-0.26719 -2.69479,-0.59375 z m -4.37903,-1.16281 c 0.5558,-0.19957 1.21987,-0.17503 1.47572,0.0545 0.25584,0.22957 -0.1989,0.39286 -1.01055,0.36286 -0.89694,-0.0332 -1.07938,-0.19686 -0.46517,-0.4174 z m -3.07976,-0.69087 c 0.5558,-0.19957 1.21987,-0.17503 1.47572,0.0545 0.25584,0.22957 -0.1989,0.39286 -1.01055,0.36286 -0.89694,-0.0331 -1.07938,-0.19686 -0.46517,-0.4174 z m -3.07976,-0.69087 c 0.5558,-0.19957 1.21987,-0.17502 1.47572,0.0546 0.25584,0.22956 -0.1989,0.39285 -1.01055,0.36285 -0.89694,-0.0332 -1.07938,-0.19685 -0.46517,-0.4174 z m -5.24522,-0.90979 c -1.54737,-0.44466 -1.62287,-0.55712 -0.38497,-0.57345 0.84694,-0.0112 2.23283,0.24689 3.07976,0.57345 1.96198,0.75651 -0.0622,0.75651 -2.69479,0 z m -3.99406,-1.16281 c 0.5558,-0.19957 1.21987,-0.17503 1.47572,0.0545 0.25584,0.22957 -0.19891,0.39286 -1.01055,0.36286 -0.89694,-0.0332 -1.07938,-0.19686 -0.46517,-0.4174 z m -3.07976,-0.69087 c 0.5558,-0.19957 1.21987,-0.17503 1.47571,0.0545 0.25585,0.22957 -0.1989,0.39286 -1.01054,0.36286 -0.89694,-0.0331 -1.07938,-0.19685 -0.46517,-0.4174 z m -13.08899,-2.76347 c 0.5558,-0.19957 1.21988,-0.17503 1.47572,0.0545 0.25585,0.22957 -0.1989,0.39286 -1.01054,0.36286 -0.89694,-0.0332 -1.07938,-0.19686 -0.46518,-0.4174 z m -6.01515,-0.90979 c -1.54738,-0.44466 -1.62287,-0.55712 -0.38497,-0.57345 0.84693,-0.0112 2.23282,0.24688 3.07976,0.57345 1.96198,0.7565 -0.0622,0.7565 -2.69479,0 z m 35.35897,-1.20902 -1.86658,-1.89989 2.11734,1.67488 c 1.97897,1.56543 2.47042,2.1249 1.86657,2.1249 -0.13791,0 -1.09071,-0.85495 -2.11733,-1.89989 z m -39.35304,0.0462 c 0.5558,-0.19957 1.21988,-0.17503 1.47572,0.0545 0.25585,0.22957 -0.1989,0.39286 -1.01055,0.36286 -0.89693,-0.0332 -1.07937,-0.19686 -0.46517,-0.4174 z m -5.24521,-0.9098 c -1.54738,-0.44466 -1.62287,-0.55711 -0.38497,-0.57344 0.84693,-0.0112 2.23282,0.24688 3.07976,0.57344 1.96198,0.75651 -0.0622,0.75651 -2.69479,0 z m 38.497,-3.79977 c -1.87021,-1.70989 -3.22714,-3.1089 -3.0154,-3.1089 0.21173,0 1.91514,1.39901 3.78534,3.1089 1.87021,1.7099 3.22714,3.10891 3.01541,3.10891 -0.21174,0 -1.91514,-1.39901 -3.78535,-3.10891 z m -51.73035,0.56436 c 0.5558,-0.19957 1.21987,-0.17502 1.47572,0.0546 0.25584,0.22956 -0.1989,0.39285 -1.01055,0.36285 -0.89693,-0.0331 -1.07938,-0.19685 -0.46517,-0.4174 z m -3.07976,-0.69086 c 0.5558,-0.19958 1.21987,-0.17503 1.47572,0.0545 0.25584,0.22957 -0.1989,0.39285 -1.01055,0.36285 -0.89693,-0.0332 -1.07938,-0.19685 -0.46517,-0.41739 z m -3.8497,-0.69087 c 0.5558,-0.19957 1.21987,-0.17503 1.47572,0.0545 0.25584,0.22957 -0.1989,0.39285 -1.01055,0.36286 -0.89694,-0.0331 -1.07938,-0.19686 -0.46517,-0.4174 z m -6.92946,-1.38174 c 0.5558,-0.19957 1.21987,-0.17503 1.47572,0.0545 0.25584,0.22957 -0.1989,0.39286 -1.01055,0.36286 -0.89694,-0.0332 -1.07938,-0.19685 -0.46517,-0.4174 z m -5.24522,-0.90979 c -1.54737,-0.44466 -1.62287,-0.55712 -0.38497,-0.57345 0.84693,-0.0112 2.23283,0.24688 3.07976,0.57345 1.96198,0.75651 -0.0622,0.75651 -2.69479,0 z m 64.02401,-2.14205 c -1.41669,-1.15585 -2.43243,-2.23019 -2.25719,-2.38743 0.17524,-0.15724 1.48894,0.79756 2.91933,2.12179 3.19596,2.95875 2.82242,3.10861 -0.66214,0.26564 z m -68.01807,0.97924 c 0.5558,-0.19957 1.21987,-0.17503 1.47572,0.0545 0.25584,0.22957 -0.19891,0.39286 -1.01055,0.36286 -0.89694,-0.0332 -1.07938,-0.19686 -0.46517,-0.4174 z m -3.89783,-0.67648 c 0.52934,-0.19165 1.39552,-0.19165 1.92486,0 0.52933,0.19166 0.0962,0.34847 -0.96243,0.34847 -1.05867,0 -1.49176,-0.15681 -0.96243,-0.34847 z m -9.43176,-1.97983 c -1.69387,-0.50092 -2.56005,-0.92994 -1.92485,-0.95337 0.6352,-0.0234 2.71404,0.39821 4.61964,0.93699 1.9056,0.53878 2.77178,0.96779 1.92485,0.95337 -0.84694,-0.0144 -2.92577,-0.43607 -4.61964,-0.93699 z m 76.15092,-2.57141 -1.46673,-1.55445 1.73236,1.31609 c 1.628,1.23681 2.08288,1.79281 1.46673,1.79281 -0.1461,0 -0.92566,-0.6995 -1.73236,-1.55445 z m -85.19772,0.40604 c 0.52934,-0.19166 1.39552,-0.19166 1.92485,0 0.52934,0.19165 0.0962,0.34846 -0.96242,0.34846 -1.05867,0 -1.49176,-0.15681 -0.96243,-0.34846 z m -3.03164,-0.70526 c 0.5558,-0.19957 1.21988,-0.17503 1.47572,0.0545 0.25585,0.22957 -0.1989,0.39286 -1.01055,0.36286 -0.89693,-0.0331 -1.07937,-0.19686 -0.46517,-0.4174 z m -4.61964,-0.69087 c 0.5558,-0.19957 1.21988,-0.17503 1.47572,0.0545 0.25585,0.22957 -0.1989,0.39286 -1.01055,0.36286 -0.89693,-0.0332 -1.07937,-0.19686 -0.46517,-0.4174 z m -3.8497,-0.69087 c 0.5558,-0.19957 1.21988,-0.17502 1.47572,0.0546 0.25584,0.22956 -0.1989,0.39285 -1.01055,0.36285 -0.89693,-0.0332 -1.07937,-0.19685 -0.46517,-0.4174 z m -3.849699,-0.69086 c 0.5558,-0.19958 1.219874,-0.17503 1.475718,0.0545 0.255845,0.22957 -0.198901,0.39285 -1.010546,0.36285 -0.896936,-0.0331 -1.079379,-0.19685 -0.465172,-0.41739 z m 94.237799,-2.28222 c -1.81719,-1.49447 -4.41574,-3.53395 -5.77455,-4.53218 -1.35881,-0.99822 -2.07108,-1.71023 -1.58282,-1.58223 1.17722,0.30861 12.10713,8.87388 11.29337,8.8501 -0.3476,-0.0102 -2.11881,-1.24122 -3.936,-2.73569 z m -97.31756,1.59135 c 0.555801,-0.19957 1.219874,-0.17503 1.475719,0.0545 0.255845,0.22957 -0.198901,0.39285 -1.010546,0.36286 -0.896937,-0.0332 -1.079379,-0.19686 -0.465173,-0.4174 z m -6.785097,-1.60066 c -1.407424,-0.81614 -0.191781,-0.81614 1.92485,0 1.015351,0.3915 1.146484,0.60668 0.38497,0.63173 -0.6352,0.0209 -1.674619,-0.26339 -2.30982,-0.63173 z m -3.8497,-1.38174 c -0.635201,-0.36834 -0.808438,-0.66971 -0.384971,-0.66971 0.423468,0 1.28965,0.30137 1.924851,0.66971 0.6352,0.36834 0.808437,0.66971 0.38497,0.66971 -0.423467,0 -1.28965,-0.30137 -1.92485,-0.66971 z m -6.159521,-2.41804 c -1.058668,-0.54303 -1.578378,-0.98734 -1.154911,-0.98734 0.423467,0 1.636123,0.44431 2.694791,0.98734 1.058668,0.54304 1.578377,0.98734 1.15491,0.98734 -0.423467,0 -1.636123,-0.4443 -2.69479,-0.98734 z m -4.22922,-1.71925 c -0.26974,-0.39163 0.03931,-0.50745 0.7245,-0.27152 1.333858,0.45928 1.577905,0.95447 0.470399,0.95447 -0.398476,0 -0.93618,-0.30733 -1.194899,-0.68295 z m -7.970454,-4.13805 c -2.606455,-1.51163 -4.739009,-2.90385 -4.739009,-3.09384 0,-0.30889 8.989916,4.69733 9.897263,5.51149 1.090939,0.9789 -0.955544,0.0197 -5.158254,-2.41765 z m 116.149722,1.7209 c -1.30964,-1.41596 -0.6332,-2.5504 2.40832,-4.03891 l 2.58816,-1.26663 -1.92485,1.42399 c -1.05867,0.78319 -2.18471,1.4309 -2.50231,1.43935 -1.1236,0.0299 -0.55837,2.02928 0.76994,2.72349 0.74107,0.38731 0.95673,0.71365 0.47925,0.7252 -0.47748,0.0116 -1.29581,-0.44137 -1.81851,-1.00649 z M 57.467039,199.17798 c -1.058668,-0.74306 -1.545458,-1.35793 -1.081757,-1.36638 0.463702,-0.008 1.470202,0.60642 2.236667,1.36638 1.755587,1.74067 1.325112,1.74067 -1.15491,0 z M 187.58692,199.608 c 0,-0.14346 0.60633,-0.68752 1.34739,-1.20902 1.22117,-0.85935 1.2484,-0.83491 0.2907,0.26084 -1.00583,1.15082 -1.63809,1.51679 -1.63809,0.94818 z m 3.07976,-2.02794 c 0,-0.1189 1.12604,-1.12929 2.5023,-2.24532 l 2.50231,-2.02914 -2.26138,2.24532 c -2.10793,2.09295 -2.74323,2.56288 -2.74323,2.02914 z m -142.844542,-6.15377 -5.368932,-4.98822 5.774551,4.78887 c 3.176003,2.63388 5.918915,4.87858 6.095359,4.98822 0.176445,0.10964 -0.0061,0.19934 -0.405619,0.19934 -0.399535,0 -3.142447,-2.24469 -6.095359,-4.98821 z m 150.928912,-0.53873 c 1.65402,-1.51991 3.18054,-2.76347 3.39228,-2.76347 0.21173,0 -0.96832,1.24356 -2.62234,2.76347 -1.65402,1.51991 -3.18054,2.76347 -3.39228,2.76347 -0.21173,0 0.96832,-1.24356 2.62234,-2.76347 z m 5.00461,-4.59167 c 0,-0.37222 1.12604,-1.58987 2.50231,-2.7059 l 2.5023,-2.02914 -2.30982,2.41459 c -1.2704,1.32802 -2.39644,2.54567 -2.5023,2.70589 -0.10587,0.16023 -0.19249,-0.0132 -0.19249,-0.38544 z m -165.853114,-4.3822 c -1.999736,-2.28393 -3.505739,-4.15261 -3.346674,-4.15261 0.604369,0 7.662258,7.69533 7.330729,7.99281 -0.191495,0.17183 -1.98432,-1.55626 -3.984055,-3.8402 z m 80.197274,1.5512 c 3.49361,-0.12801 9.21041,-0.12801 12.70401,0 3.49361,0.12801 0.63521,0.23275 -6.352,0.23275 -6.98721,0 -9.84561,-0.10474 -6.35201,-0.23275 z m -10.77916,-0.63442 c 0.52933,-0.19165 1.39552,-0.19165 1.92485,0 0.52934,0.19166 0.0962,0.34847 -0.96242,0.34847 -1.05867,0 -1.49176,-0.15681 -0.96243,-0.34847 z m 33.10743,0 c 0.52933,-0.19165 1.39551,-0.19165 1.92485,0 0.52933,0.19166 0.0962,0.34847 -0.96243,0.34847 -1.05867,0 -1.49176,-0.15681 -0.96242,-0.34847 z m -37.72707,-0.69087 c 0.52933,-0.19165 1.39552,-0.19165 1.92485,0 0.52933,0.19166 0.0962,0.34847 -0.96242,0.34847 -1.05867,0 -1.49176,-0.15681 -0.96243,-0.34847 z m 42.39483,-0.0144 c 0.5558,-0.19957 1.21987,-0.17503 1.47572,0.0545 0.25584,0.22957 -0.1989,0.39286 -1.01055,0.36286 -0.89694,-0.0332 -1.07938,-0.19686 -0.46517,-0.4174 z m 6.68885,-1.60066 c 0.84694,-0.32656 2.05959,-0.59375 2.69479,-0.59375 0.72797,0 0.58565,0.2195 -0.38497,0.59375 -0.84693,0.32656 -2.05959,0.59375 -2.69479,0.59375 -0.72796,0 -0.58564,-0.2195 0.38497,-0.59375 z m 56.5906,0.43003 c 0,-0.14347 0.60633,-0.68752 1.3474,-1.20902 1.22116,-0.85935 1.2484,-0.83492 0.29069,0.26084 -1.00582,1.15081 -1.63809,1.51678 -1.63809,0.94818 z M 91.676666,178.79022 c -1.29939,-0.51191 -2.813273,-1.41809 -3.364183,-2.01372 -0.590296,-0.63822 0.458996,-0.35044 2.555012,0.70074 1.956168,0.98104 3.556669,1.91257 3.556669,2.07007 0,0.34459 0.162736,0.38943 -2.747498,-0.75709 z m 67.486634,-0.59013 c 0.17644,-0.13852 1.18699,-0.622 2.24565,-1.07441 1.81496,-0.7756 1.83953,-0.76122 0.4303,0.25185 -1.22651,0.88173 -3.73256,1.65206 -2.67595,0.82256 z M 82.490092,172.925 c -1.957112,-1.5199 -3.277458,-2.75072 -2.934102,-2.73513 0.711283,0.0323 7.60025,5.49861 6.929651,5.49861 -0.24044,0 -2.038437,-1.24357 -3.995549,-2.76348 z m -51.5773,0.26038 c -0.727828,-0.99673 -0.942776,-1.6012 -0.477661,-1.34326 0.888815,0.4929 2.681452,3.15549 2.124494,3.15549 -0.17793,0 -0.919005,-0.81551 -1.646833,-1.81223 z m 139.350478,-1.64211 c 1.65401,-1.51991 3.18054,-2.76347 3.39227,-2.76347 0.21173,0 -0.96832,1.24356 -2.62233,2.76347 -1.65402,1.51991 -3.18055,2.76347 -3.39228,2.76347 -0.21173,0 0.96832,-1.24356 2.62234,-2.76347 z m 45.81143,-0.69087 c 0.45327,-0.75995 0.99736,-1.38173 1.20909,-1.38173 0.21174,0 0.0141,0.62178 -0.43915,1.38173 -0.45326,0.75996 -0.99735,1.38174 -1.20909,1.38174 -0.21173,0 -0.0141,-0.62178 0.43915,-1.38174 z M 26.402586,166.20629 c -1.547102,-2.74535 -2.796247,-5.23247 -2.775879,-5.52694 0.02037,-0.29447 1.10495,1.32995 2.410181,3.60981 1.305231,2.27986 2.716688,4.34242 3.136571,4.58345 0.419883,0.24104 0.601112,0.86282 0.402732,1.38174 -0.198381,0.51892 -1.626503,-1.30271 -3.173605,-4.04806 z m 50.164428,2.05536 c -2.344957,-2.45011 -2.326833,-3.22096 0.02945,-1.25248 1.335896,1.11603 2.428901,2.12642 2.428901,2.24532 0,0.6438 -1.453947,0.0566 -2.458348,-0.99284 z M 218.76949,166.7072 c 0.65695,-1.13994 1.36769,-2.07261 1.57943,-2.07261 0.21173,0 -0.15254,0.93267 -0.80949,2.07261 -0.65695,1.13993 -1.36769,2.0726 -1.57942,2.0726 -0.21174,0 0.15253,-0.93267 0.80948,-2.0726 z m -43.11664,0 c 0.76646,-0.75996 1.56681,-1.38174 1.77854,-1.38174 0.21173,0 -0.24214,0.62178 -1.0086,1.38174 -0.76647,0.75995 -1.56681,1.38173 -1.77855,1.38173 -0.21173,0 0.24214,-0.62178 1.00861,-1.38173 z m 45.06507,-3.10891 c 0,-0.37998 0.33587,-1.1572 0.74636,-1.72717 0.4105,-0.56996 0.74636,-0.72541 0.74636,-0.34543 0,0.37998 -0.33586,1.1572 -0.74636,1.72717 -0.41049,0.56996 -0.74636,0.72541 -0.74636,0.34543 z M 71.150029,162.04384 c -1.334403,-1.36199 -4.462781,-6.73605 -4.40786,-7.57202 0.01972,-0.30012 0.925942,1.00878 2.013832,2.90866 1.08789,1.89989 2.511349,3.9984 3.163242,4.66336 0.651893,0.66496 1.012024,1.20902 0.80029,1.20902 -0.211733,0 -0.91801,-0.54406 -1.569504,-1.20902 z m 109.171961,-1.75697 c 0.28914,-0.68134 0.71966,-1.06477 0.95671,-0.85207 0.23705,0.21271 4.9e-4,0.77018 -0.5257,1.23882 -0.76041,0.67723 -0.84885,0.59788 -0.43101,-0.38675 z M 22.174863,158.04176 c -1.290026,-2.54052 -1.043912,-3.08251 0.350981,-0.77292 0.651386,1.07853 1.040269,2.09024 0.864184,2.24824 -0.176086,0.158 -0.72291,-0.50589 -1.215165,-1.47532 z m 200.852877,0.72046 c 0,-0.37998 0.33587,-1.15721 0.74636,-1.72717 0.4105,-0.56997 0.74636,-0.72541 0.74636,-0.34543 0,0.37997 -0.33586,1.1572 -0.74636,1.72716 -0.41049,0.56997 -0.74636,0.72542 -0.74636,0.34544 z M 65.997165,152.48684 c 0.03694,-0.80482 0.219387,-0.96853 0.465172,-0.4174 0.222413,0.49872 0.19506,1.09459 -0.06079,1.32416 -0.255845,0.22957 -0.437819,-0.17847 -0.404387,-0.90676 z m -47.727078,-4.49588 c -0.520665,-1.55935 -0.804925,-2.96236 -0.631688,-3.11781 0.173236,-0.15544 0.740974,0.99321 1.261639,2.55256 0.520665,1.55935 0.804925,2.96237 0.631689,3.11781 -0.173237,0.15545 -0.740975,-0.9932 -1.26164,-2.55256 z m 165.661293,-0.28262 c 0.009,-1.51991 0.16622,-2.06035 0.35039,-1.20097 0.18416,0.85938 0.17717,2.10294 -0.0155,2.76347 -0.19271,0.66053 -0.34339,-0.0426 -0.33485,-1.5625 z m 43.03072,1.72716 c 0,-0.56996 0.29776,-1.65808 0.6617,-2.41803 0.41709,-0.87094 0.66171,-0.99864 0.66171,-0.34544 0,0.56997 -0.29777,1.65809 -0.66171,2.41804 -0.41708,0.87094 -0.6617,0.99864 -0.6617,0.34543 z M 64.457284,146.9599 c 0.03695,-0.80483 0.219387,-0.96853 0.465173,-0.4174 0.222413,0.49872 0.195059,1.09459 -0.06078,1.32416 -0.255845,0.22957 -0.437819,-0.17847 -0.404388,-0.90676 z m 52.150776,0.62193 c 0.5558,-0.19957 1.21988,-0.17503 1.47572,0.0545 0.25585,0.22957 -0.1989,0.39286 -1.01054,0.36286 -0.89694,-0.0332 -1.07938,-0.19686 -0.46518,-0.4174 z m 12.31905,0 c 0.5558,-0.19957 1.21987,-0.17503 1.47571,0.0545 0.25585,0.22957 -0.1989,0.39286 -1.01054,0.36286 -0.89694,-0.0332 -1.07938,-0.19686 -0.46517,-0.4174 z m -17.59335,-2.34138 -2.6657,-2.12245 3.07976,1.92179 c 1.69387,1.05698 3.22412,2.01209 3.40057,2.12245 0.17644,0.11036 -0.01,0.20066 -0.41406,0.20066 -0.40417,0 -1.93443,-0.9551 -3.40057,-2.12245 z m 24.90161,-0.40349 c 0.76414,-0.80621 2.04721,-2.97708 2.85126,-4.82417 0.80405,-1.84708 1.47051,-2.892 1.48102,-2.32204 0.0309,1.67625 -2.65977,6.47748 -4.25222,7.58764 -1.42938,0.99649 -1.43156,0.98447 -0.0801,-0.44143 z m 92.31187,-0.58296 c 0,-0.75996 0.2774,-2.15896 0.61644,-3.10891 0.48813,-1.36763 0.61645,-1.43953 0.61645,-0.34543 0,0.75995 -0.2774,2.15896 -0.61645,3.1089 -0.48812,1.36763 -0.61644,1.43954 -0.61644,0.34544 z M 63.805188,141.83596 c 0,-1.32992 0.15845,-1.87398 0.352111,-1.20902 0.193661,0.66496 0.193661,1.75308 0,2.41804 -0.193661,0.66496 -0.352111,0.1209 -0.352111,-1.20902 z m -47.084191,0.28786 c 0.03694,-0.80482 0.219387,-0.96852 0.465172,-0.4174 0.222413,0.49872 0.19506,1.0946 -0.06078,1.32417 -0.255845,0.22957 -0.437819,-0.17848 -0.404388,-0.90677 z m 167.846943,-0.69087 c 0.037,-0.80482 0.21939,-0.96852 0.46517,-0.41739 0.22242,0.49872 0.19506,1.09459 -0.0608,1.32416 -0.25584,0.22957 -0.43782,-0.17848 -0.40439,-0.90677 z M 15.581628,138.24094 c -0.852524,-3.93096 -1.354574,-27.00051 -0.658477,-30.25749 0.438573,-2.05206 0.55264,0.77227 0.335547,8.30822 -0.19187,6.66039 0.04839,13.96117 0.576685,17.52333 0.887986,5.98752 0.720073,8.91623 -0.253755,4.42594 z m 90.878202,-0.61256 c -0.26761,-1.20062 -0.44431,-3.15448 -0.39268,-4.34191 0.0559,-1.28522 0.3633,-0.50091 0.75958,1.93798 0.70832,4.35934 0.44845,6.06203 -0.3669,2.40393 z m 78.84085,1.78954 c 0,-0.37997 0.33586,-1.1572 0.74636,-1.72717 0.4105,-0.56996 0.74636,-0.72541 0.74636,-0.34543 0,0.37998 -0.33586,1.1572 -0.74636,1.72717 -0.4105,0.56997 -0.74636,0.72541 -0.74636,0.34543 z m 44.75451,-2.41803 c 0,-0.94995 0.17476,-1.33856 0.38835,-0.86359 0.21359,0.47497 0.21359,1.2522 0,1.72717 -0.21359,0.47497 -0.38835,0.0864 -0.38835,-0.86358 z m -40.76085,-2.93619 c 1.19162,-1.04494 2.76743,-1.88018 3.50182,-1.85609 0.91921,0.0301 0.73563,0.25833 -0.58921,0.73236 -1.05845,0.37872 -2.63427,1.21396 -3.50182,1.8561 -0.86755,0.64213 -0.6024,0.31257 0.58921,-0.73237 z m 41.47001,-1.61202 c 0.0369,-0.80483 0.21939,-0.96853 0.46517,-0.4174 0.22241,0.49872 0.19506,1.09459 -0.0608,1.32416 -0.25585,0.22957 -0.43782,-0.17848 -0.40439,-0.90676 z m -35.62239,-0.75981 c 0.5558,-0.19957 1.21987,-0.17503 1.47571,0.0545 0.25585,0.22957 -0.1989,0.39286 -1.01054,0.36286 -0.89694,-0.0332 -1.07938,-0.19685 -0.46517,-0.4174 z m 4.15619,-0.49468 c 0.54603,-0.53164 1.11409,-0.86321 1.26236,-0.73683 0.45669,0.38928 -0.70075,1.70345 -1.50029,1.70345 -0.41517,0 -0.3081,-0.43498 0.23793,-0.96662 z m -87.35785,-0.22401 c 1.37627,-0.15326 3.62834,-0.15326 5.00461,0 1.37627,0.15325 0.25023,0.27864 -2.5023,0.27864 -2.75254,0 -3.87858,-0.12539 -2.50231,-0.27864 z m 9.2874,0.0278 c 0.5558,-0.19957 1.21988,-0.17502 1.47572,0.0546 0.25585,0.22957 -0.1989,0.39285 -1.01054,0.36285 -0.89694,-0.0331 -1.07938,-0.19685 -0.46518,-0.4174 z m 19.54297,-1.25522 c 0.0157,-1.13993 0.18825,-1.52263 0.38346,-0.85044 0.19522,0.67219 0.18238,1.60486 -0.0285,2.0726 -0.2109,0.46774 -0.37062,-0.0822 -0.35493,-1.22216 z m 0.68063,-4.89365 c 0.0369,-0.80482 0.21938,-0.96853 0.46517,-0.4174 0.22241,0.49872 0.19506,1.0946 -0.0608,1.32416 -0.25584,0.22957 -0.43782,-0.17847 -0.40438,-0.90676 z m 90.24242,-4.08763 c 0.006,-1.89989 0.15531,-2.59512 0.33228,-1.54496 0.17697,1.05017 0.17224,2.60462 -0.0105,3.45434 -0.18275,0.84973 -0.32755,-0.01 -0.32177,-1.90938 z m -89.47248,0.63329 c 0.0369,-0.80482 0.21938,-0.96852 0.46517,-0.4174 0.22241,0.49872 0.19506,1.0946 -0.0608,1.32417 -0.25584,0.22957 -0.43782,-0.17848 -0.40438,-0.90677 z m 1.53366,-4.08763 c 0,-0.37998 0.49515,-1.46809 1.10034,-2.41804 0.60519,-0.94994 1.10035,-1.41628 1.10035,-1.0363 0,0.37998 -0.49516,1.46809 -1.10035,2.41804 -0.60519,0.94994 -1.10034,1.41628 -1.10034,1.0363 z m 56.36076,-5.18151 c 0,-1.7099 0.15015,-2.4094 0.33367,-1.55445 0.18352,0.85495 0.18352,2.25396 0,3.1089 -0.18352,0.85495 -0.33367,0.15545 -0.33367,-1.55445 z m 30.738,-2.41803 c 0.0157,-1.13994 0.18825,-1.52263 0.38347,-0.85044 0.19521,0.67219 0.18237,1.60486 -0.0285,2.0726 -0.21091,0.46774 -0.37063,-0.0822 -0.35494,-1.22216 z m -81.78033,-1.01541 c 0.89549,-1.12844 2.02136,-2.26977 2.50194,-2.53628 0.48058,-0.26651 -0.0964,0.65676 -1.28214,2.05171 -2.57366,3.02771 -3.54375,3.41308 -1.2198,0.48457 z m 80.98186,-3.47523 c 0,-0.94995 0.17476,-1.33856 0.38835,-0.86359 0.21359,0.47497 0.21359,1.2522 0,1.72717 -0.21359,0.47497 -0.38835,0.0864 -0.38835,-0.86358 z M 16.035483,103.49281 c 0.02034,-0.75996 0.301467,-2.31441 0.624729,-3.45434 l 0.58775,-2.072605 0.03698,2.072605 c 0.02034,1.13993 -0.260789,2.69438 -0.62473,3.45434 l -0.661709,1.38173 z m 138.777067,0.42081 c 0.54931,-0.79754 3.51664,-2.40607 3.51664,-1.90631 0,0.15965 -0.90884,0.82462 -2.01964,1.4777 -1.11081,0.65308 -1.78446,0.84595 -1.497,0.42861 z m 74.41192,-2.55099 c 0.0369,-0.80482 0.21939,-0.96853 0.46517,-0.4174 0.22241,0.49872 0.19506,1.0946 -0.0608,1.32416 -0.25585,0.22957 -0.43782,-0.17847 -0.40439,-0.90676 z m -65.5057,-2.01503 c 1.05867,-0.543036 2.6178,-0.984709 3.46474,-0.981496 0.84693,0.0032 0.15398,0.453852 -1.53989,1.001419 -3.85789,1.247117 -4.38436,1.241667 -1.92485,-0.01992 z m 64.73576,-1.439307 c 0.0369,-0.804822 0.21939,-0.968527 0.46517,-0.417399 0.22241,0.49872 0.19506,1.094593 -0.0608,1.324163 -0.25585,0.229569 -0.43782,-0.178475 -0.40439,-0.906764 z m -57.95066,-0.06893 c 0.5558,-0.199572 1.21988,-0.175028 1.47572,0.05454 0.25585,0.229569 -0.1989,0.392855 -1.01055,0.362857 -0.89693,-0.03315 -1.07937,-0.196856 -0.46517,-0.417399 z m 29.40209,-0.197244 c 0,-0.368052 0.51971,-0.490235 1.15491,-0.271519 0.6352,0.218717 1.15491,0.51985 1.15491,0.669185 0,0.149335 -0.51971,0.271519 -1.15491,0.271519 -0.6352,0 -1.15491,-0.301133 -1.15491,-0.669185 z m -25.60051,-0.479231 c 0.52934,-0.191655 1.39552,-0.191655 1.92485,0 0.52934,0.191655 0.0962,0.348464 -0.96242,0.348464 -1.05867,0 -1.49176,-0.156809 -0.96243,-0.348464 z m 20.40341,-0.709552 c 0.74107,-0.173772 1.95373,-0.173772 2.69479,0 0.74107,0.173772 0.13474,0.315949 -1.34739,0.315949 -1.48214,0 -2.08846,-0.142177 -1.3474,-0.315949 z m -69.92339,-0.870849 c -0.39524,-0.348252 -2.1045,-0.757144 -3.79837,-0.90865 l -3.07976,-0.275465 3.61177,-0.116137 c 1.98648,-0.06387 3.84016,0.215437 4.11929,0.620695 0.6766,0.982331 0.0538,1.478518 -0.85293,0.679557 z m 102.54848,-1.097664 c -0.26405,-0.617431 -0.45812,-1.485787 -0.43128,-1.929681 0.0268,-0.443895 0.38076,-0.06244 0.78648,0.847674 0.40572,0.910116 0.5998,1.778472 0.43128,1.929682 -0.16851,0.15121 -0.52243,-0.230244 -0.78648,-0.847675 z M 18.223673,94.166093 c 0,-0.569966 0.335862,-1.502637 0.74636,-2.072603 0.663431,-0.921157 0.74636,-0.921157 0.74636,0 0,0.569966 -0.335862,1.502637 -0.74636,2.072603 -0.663432,0.921157 -0.74636,0.921157 -0.74636,0 z M 106.645,93.647942 c -0.95771,-1.095754 -0.93048,-1.12019 0.29069,-0.26084 0.74107,0.521497 1.3474,1.065556 1.3474,1.209018 0,0.568608 -0.63227,0.202634 -1.63809,-0.948178 z m 3.75542,0.75147 c 0.52934,-0.191655 1.39552,-0.191655 1.92485,0 0.52934,0.191656 0.0962,0.348464 -0.96242,0.348464 -1.05867,0 -1.49176,-0.156808 -0.96243,-0.348464 z M 19.800758,89.617881 c 0.03694,-0.804821 0.219387,-0.968527 0.465172,-0.417399 0.222413,0.49872 0.19506,1.094593 -0.06078,1.324163 -0.255845,0.229569 -0.437819,-0.178474 -0.404387,-0.906764 z M 225.02413,88.26701 c -0.26405,-0.617431 -0.45812,-1.485788 -0.43128,-1.929682 0.0268,-0.443894 0.38076,-0.06244 0.78648,0.847674 0.40572,0.910116 0.5998,1.778473 0.43128,1.929682 -0.16851,0.15121 -0.52243,-0.230244 -0.78648,-0.847674 z M 22.073373,84.148512 c 0,-0.379977 0.335862,-1.157203 0.74636,-1.727169 0.410499,-0.569966 0.746361,-0.725411 0.746361,-0.345434 0,0.379977 -0.335862,1.157204 -0.746361,1.727169 -0.410498,0.569966 -0.74636,0.725411 -0.74636,0.345434 z M 221.94437,81.358333 c -0.74297,-1.73732 -0.5238,-2.185597 0.38384,-0.785059 0.44941,0.69346 0.65491,1.406371 0.45668,1.584248 -0.19824,0.177877 -0.57647,-0.181758 -0.84052,-0.799189 z m -1.66666,-3.12816 c -0.27913,-0.405258 -0.34238,-0.885001 -0.14055,-1.066097 0.20182,-0.181096 0.57211,0.150478 0.82287,0.736832 0.52062,1.217383 0.0769,1.431518 -0.68232,0.329265 z M 28.181754,72.862743 c 0.507244,-0.887493 1.133422,-1.424149 1.391506,-1.19257 0.258085,0.23158 -0.156933,0.95771 -0.922261,1.613623 -1.330267,1.140085 -1.350918,1.121555 -0.469245,-0.421053 z m 1.56744,-2.39475 c 0,-0.644934 6.294739,-8.76612 7.171494,-9.252335 0.411646,-0.228284 -0.907961,1.729315 -2.93246,4.35022 -4.231032,5.477468 -4.239034,5.486721 -4.239034,4.902115 z M 214.05278,68.085839 c -0.84787,-1.044937 -1.84572,-2.366221 -2.21744,-2.936187 -0.54686,-0.838491 -0.46395,-0.881599 0.43435,-0.225834 1.11238,0.812042 4.14188,5.061907 3.60837,5.061907 -0.15604,0 -0.97742,-0.854948 -1.82528,-1.899886 z M 106.19022,63.746868 c -0.40007,-1.372758 -0.85999,-1.398637 -21.486736,-1.209018 -11.592853,0.106571 -21.077692,-0.0394 -21.07742,-0.324386 2.73e-4,-0.284983 9.66135,-0.51815 21.469061,-0.51815 h 21.468565 l 0.36796,1.727169 c 0.43972,2.064024 -0.1582,2.325621 -0.74143,0.324385 z m 101.40182,-3.606007 c -4.29123,-4.668244 -5.58718,-6.354168 -2.81727,-3.665057 2.95026,2.864212 6.88537,7.292113 6.48054,7.292113 -0.18103,0 -1.8295,-1.632175 -3.66327,-3.627056 z M 37.448596,60.0974 c 0,-0.118898 1.126037,-1.129292 2.502305,-2.24532 l 2.502305,-2.029141 -2.261384,2.245319 c -2.107927,2.092953 -2.743226,2.562879 -2.743226,2.029142 z m 6.929461,-6.558628 c 0,-0.596965 10.296525,-9.070501 13.127119,-10.802977 0.656177,-0.401615 -0.902952,0.973143 -3.46473,3.055017 -2.561778,2.081875 -5.783816,4.824302 -7.160084,6.094283 -1.376268,1.269981 -2.502305,2.014136 -2.502305,1.653677 z M 194.90135,48.092771 c -4.64618,-3.958718 -5.02452,-4.392338 -1.53988,-1.7649 4.40135,3.318648 8.72459,7.113444 8.0261,7.045035 -0.17969,-0.0176 -3.09848,-2.393659 -6.48622,-5.280135 z m -8.09111,-5.569035 c -0.004,-0.284982 -2.08254,-1.718214 -4.61964,-3.184959 -5.25947,-3.040603 -6.13977,-4.02003 -1.50255,-1.671743 3.97132,2.011069 8.34684,5.310149 7.09135,5.346776 -0.52933,0.01544 -0.96545,-0.205091 -0.96916,-0.490074 z M 62.086679,40.036747 c 0,-0.159657 0.908842,-0.824624 2.019648,-1.477704 1.110807,-0.653081 1.784457,-0.845954 1.497,-0.428606 -0.549318,0.797534 -3.516648,2.406069 -3.516648,1.90631 z m 5.004611,-3.032562 c 1.103976,-0.98241 9.769793,-5.115875 10.101479,-4.818253 0.152852,0.137154 -2.230687,1.43153 -5.296753,2.876391 -3.066066,1.444861 -5.228193,2.318699 -4.804726,1.941862 z m 104.87287,-2.783096 c -2.02878,-0.943816 -3.53486,-1.854055 -3.34686,-2.022753 0.3274,-0.293769 5.00298,1.726742 7.42052,3.206705 2.05635,1.258858 -0.2862,0.578026 -4.07366,-1.183952 z m -6.70551,-2.902269 c 0,-0.368052 0.51971,-0.490235 1.15492,-0.271519 0.6352,0.218717 1.15491,0.51985 1.15491,0.669185 0,0.149335 -0.51971,0.271519 -1.15491,0.271519 -0.63521,0 -1.15492,-0.301133 -1.15492,-0.669185 z M 82.875062,29.915402 c 0.635201,-0.36834 1.501384,-0.66971 1.924851,-0.66971 0.423467,0 0.25023,0.30137 -0.38497,0.66971 -0.635201,0.36834 -1.501384,0.669709 -1.924851,0.669709 -0.423467,0 -0.25023,-0.301369 0.38497,-0.669709 z m 77.763948,-0.345434 c -2.51458,-1.28984 -1.6347,-1.304314 1.64397,-0.02704 1.42489,0.555093 2.071,1.010412 1.43579,1.011821 -0.6352,0.0014 -2.02109,-0.441742 -3.07976,-0.984779 z M 88.264643,28.26881 c 0,-0.145672 0.693424,-0.427569 1.540943,-0.626439 0.847518,-0.198869 1.34678,-0.07968 1.109471,0.264857 -0.414421,0.601683 -2.650414,0.906727 -2.650414,0.361582 z m 5.245217,-1.58882 c 0.555801,-0.199571 1.219874,-0.175028 1.475719,0.05454 0.255845,0.22957 -0.198901,0.392855 -1.010547,0.362857 -0.896936,-0.03315 -1.079378,-0.196856 -0.465172,-0.417399 z m 3.609095,-0.909794 c 0.846934,-0.326564 2.232826,-0.584614 3.079765,-0.573444 1.23789,0.01632 1.1624,0.128782 -0.384975,0.573444 -2.632556,0.756507 -4.656771,0.756507 -2.69479,0 z m 51.826595,0.218926 c 0.5558,-0.199571 1.21987,-0.175027 1.47572,0.05454 0.25584,0.22957 -0.1989,0.392856 -1.01055,0.362857 -0.89694,-0.03315 -1.07938,-0.196856 -0.46517,-0.417399 z m -9.09492,-1.279823 c -3.47668,-0.599221 -4.18188,-0.865085 -2.30982,-0.870815 1.48214,-0.0045 4.42716,0.39131 6.54449,0.87966 4.88718,1.127198 2.32561,1.121847 -4.23467,-0.0088 z m -37.14961,-0.08752 c 0.52933,-0.191655 1.39552,-0.191655 1.92485,0 0.52933,0.191655 0.0962,0.348464 -0.96242,0.348464 -1.05867,0 -1.49176,-0.156809 -0.96243,-0.348464 z m 5.00461,-0.709552 c 0.74107,-0.173772 1.95372,-0.173772 2.69479,0 0.74107,0.173772 0.13474,0.31595 -1.34739,0.31595 -1.48214,0 -2.08847,-0.142178 -1.3474,-0.31595 z m 11.16413,-0.723972 c 2.2232,-0.139557 5.86117,-0.139557 8.08437,0 2.22321,0.139557 0.40422,0.25374 -4.04218,0.25374 -4.44641,0 -6.26539,-0.114183 -4.04219,-0.25374 z"
         id="path12" /><path
         style="fill:#fa6302"
         d="m 213.37991,240.28076 c -7.19894,-1.62655 -20.01844,-4.41417 -28.48778,-6.1947 -8.46934,-1.78054 -18.6903,-3.98722 -22.71324,-4.90374 -4.02293,-0.91652 -12.68476,-2.79102 -19.2485,-4.16556 -6.56374,-1.37453 -14.2235,-3.08721 -17.02169,-3.80595 -2.79819,-0.71874 -6.10701,-1.30681 -7.35293,-1.30681 -1.24592,0 -2.59446,-0.27215 -2.99675,-0.60479 -0.40229,-0.33263 -4.19617,-1.14765 -8.43084,-1.81114 -16.102382,-2.52295 -30.703266,-7.5564 -42.502424,-14.65211 -3.66141,-2.20188 -7.212662,-4.31431 -7.891673,-4.69429 -0.67901,-0.37997 -3.939209,-3.02254 -7.244885,-5.87237 -3.305677,-2.84983 -6.327715,-5.28514 -6.715641,-5.4118 -0.387927,-0.12666 -0.705321,-0.53982 -0.705321,-0.91813 0,-0.37831 -1.676379,-2.45092 -3.725288,-4.60578 -4.581062,-4.81798 -8.593754,-10.21202 -8.593754,-11.55212 0,-0.55092 -0.296614,-1.00167 -0.659144,-1.00167 -1.037754,0 -7.402149,-12.84999 -9.649469,-19.48269 -1.120127,-3.30593 -2.548374,-9.0574 -3.173883,-12.78105 -1.265049,-7.53085 -1.449903,-24.23719 -0.327176,-29.56892 0.400068,-1.89988 0.932972,-4.6979 1.184231,-6.2178 0.833282,-5.040663 8.002142,-23.472965 9.5388,-24.525806 0.277295,-0.189988 0.736549,-0.811769 1.020566,-1.381735 2.083289,-4.180753 10.746665,-15.057935 15.729643,-19.749139 9.68488,-9.117787 17.980176,-14.91548 29.068109,-20.316087 5.533373,-2.695144 14.927939,-6.217234 16.592209,-6.220538 0.656374,-0.0013 1.522557,-0.264117 1.924851,-0.584032 0.402293,-0.319916 4.36941,-1.33031 8.815814,-2.24532 7.059485,-1.452749 9.987725,-1.663656 23.098205,-1.663656 12.86638,0 16.22069,0.232712 23.45155,1.627 4.64075,0.89485 10.31405,2.371579 12.60733,3.281621 2.29329,0.910042 4.64621,1.654621 5.22872,1.654621 0.58251,0 1.0591,0.310891 1.0591,0.690868 0,0.379977 0.48984,0.690868 1.08852,0.690868 2.22277,0 18.86974,8.441716 20.46981,10.380287 0.21173,0.256527 0.78964,0.590751 1.28425,0.742721 2.00409,0.615767 14.027,10.952642 18.34922,15.776014 16.38605,18.285973 23.76451,35.835377 24.78323,58.946013 0.6392,14.50103 -1.71931,26.64857 -7.67798,39.54541 -2.79274,6.04456 -9.29611,17.32879 -10.5525,18.31003 -0.24327,0.18998 -1.47068,1.61806 -2.72758,3.17349 -6.35638,7.86608 -19.26071,18.97578 -26.73089,23.01335 -1.588,0.85831 -2.88727,1.95398 -2.88727,2.43483 0,0.48085 1.78373,2.24311 3.96385,3.91614 2.18012,1.67303 4.34558,3.35276 4.81213,3.73274 0.46655,0.37997 3.09675,2.40076 5.84489,4.49064 6.99034,5.31593 9.76649,7.47734 14.22379,11.07411 2.13279,1.72102 6.12987,4.87716 8.8824,7.01363 10.46776,8.12491 11.27432,8.86053 9.62425,8.77787 -0.84693,-0.0424 -7.42992,-1.40797 -14.62886,-3.03452 z m -65.20618,-58.31197 c 13.11581,-2.95833 24.46434,-9.81534 30.71984,-18.56154 2.84175,-3.97322 5.61359,-12.44983 5.61359,-17.16702 0,-3.70384 1.95769,-9.09178 4.04047,-11.12018 1.75034,-1.70463 5.69945,-3.07121 9.34962,-3.2354 l 2.39368,-0.10768 0.20679,-16.52728 c 0.13608,-10.87605 0.49054,-16.684632 1.03662,-16.987472 0.46643,-0.258665 -0.13875,-0.763175 -1.38193,-1.152042 -2.47085,-0.772882 -27.03541,0.03378 -32.19896,1.057367 -4.97222,0.985656 -12.34341,4.713517 -16.32147,8.254317 -6.71096,5.97331 -9.77637,13.06926 -10.9256,25.2911 -1.18677,12.62111 -4.88596,15.99538 -17.53562,15.99538 -6.61726,0 -7.26305,-0.13063 -10.39419,-2.10253 -4.03968,-2.54406 -5.11924,-4.40197 -5.76146,-9.91533 l -0.49127,-4.21753 h 9.34896 9.34897 l 0.11549,-17.61713 c 0.0635,-9.68942 0.15014,-18.005737 0.19248,-18.480709 0.0561,-0.629278 -2.42978,-0.957306 -9.16228,-1.209018 l -9.23928,-0.345434 -0.17079,-14.50822 c -0.0939,-7.979522 -0.18055,-15.207724 -0.19248,-16.062673 l -0.0217,-1.554452 H 85.184883 63.62656 V 102.1402 c 0,33.90761 0.194154,41.3056 1.201198,45.76998 1.334894,5.91779 4.485866,12.38226 7.790361,15.98256 2.742286,2.98775 12.009348,11.08433 12.700175,11.09606 0.28511,0.005 1.497765,0.73954 2.69479,1.63265 3.061702,2.28437 11.915412,5.30252 18.730126,6.38495 8.96936,1.42465 33.20505,0.81768 41.43052,-1.03761 z"
         id="path11" /></g></g></svg>
