<?xml version="1.0" encoding="UTF-8" standalone="no"?>
<!-- Created with Inkscape (http://www.inkscape.org/) -->

<svg
   version="1.1"
   id="svg1"
   width="247"
   height="256"
   viewBox="0 0 247 256"
   xml:space="preserve"
   xmlns="http://www.w3.org/2000/svg"
   xmlns:svg="http://www.w3.org/2000/svg"><defs
     id="defs1" /><g
     id="g1"><g
       id="g20"
       transform="translate(-0.92592259,-0.925926)"><path
         style="fill:#f8f9f8"
         d="M 3.1481962,131.73262 V 67.983765 H 123.46304 243.77788 v 63.748855 63.74885 H 123.46304 3.1481962 Z m 87.2595928,35.85873 c 0.287466,-0.34815 0.391624,-0.91246 0.322555,-1.74754 -0.01476,-0.17852 0.05464,-0.50897 0.154229,-0.73434 0.170066,-0.38484 0.255611,-0.40188 1.407169,-0.28022 2.163553,0.22856 3.321885,-0.54613 4.147342,-2.77376 0.398289,-1.07485 0.41032,-1.19976 0.269439,-2.79736 -0.12206,-1.38417 -0.229909,-1.8174 -0.62599,-2.5146 -0.624382,-1.09907 -0.710859,-1.17365 -1.935952,-1.66948 l -1.039336,-0.42064 -0.976274,0.4311 c -0.861177,0.38029 -1.057505,0.4048 -1.665296,0.20793 -0.982116,-0.31813 -1.377935,-0.2785 -1.714292,0.17163 -0.274641,0.36753 -0.295263,0.77938 -0.298436,5.96023 l -0.0034,5.56541 0.379793,0.49055 c 0.461276,0.59579 1.138861,0.64347 1.578457,0.11109 z m 1.305872,-5.34699 c -0.342614,-0.2007 -0.992552,-1.8072 -0.992552,-2.45335 0,-0.69268 0.487863,-1.80681 0.929543,-2.12279 0.605408,-0.43311 1.444277,-0.40843 1.932713,0.0569 0.591373,0.56336 0.939318,1.95397 0.727394,2.90713 -0.246373,1.1081 -0.911653,1.8396 -1.658515,1.8236 -0.329739,-0.007 -0.752101,-0.10222 -0.938583,-0.21147 z m -21.001579,2.31477 c 0.745508,-0.26944 1.514321,-1.08085 2.136239,-2.25461 0.436752,-0.82429 0.483533,-1.05882 0.483533,-2.42409 0,-1.34097 -0.05065,-1.60667 -0.448921,-2.35499 -0.64728,-1.2162 -1.235578,-1.80986 -2.214298,-2.2345 -1.432002,-0.62131 -1.67148,-0.63832 -2.947158,-0.20933 -1.328782,0.44684 -1.64211,0.72327 -2.470006,2.17907 -0.939771,1.65254 -0.914159,3.87839 0.06341,5.51077 0.522695,0.87282 1.536526,1.76639 2.256609,1.98893 0.632891,0.1956 2.346366,0.0858 3.140592,-0.20125 z m -2.673972,-2.27809 c -0.852032,-0.44007 -1.277296,-3.08673 -0.650929,-4.05111 0.459718,-0.70781 1.383494,-1.00739 2.196586,-0.71236 0.549399,0.19935 0.691137,0.36884 1.01676,1.21584 0.208102,0.54131 0.379056,1.13701 0.379898,1.32378 0.0019,0.42535 -0.525637,1.69585 -0.832063,2.00384 -0.30829,0.30987 -1.662848,0.45109 -2.110252,0.22001 z m 10.541853,2.38703 c 0.588648,-0.152 1.115228,-0.18291 1.408905,-0.0827 0.8193,0.2796 1.621416,0.18976 1.959283,-0.21942 0.293298,-0.35521 0.31332,-0.63243 0.31332,-4.33818 0,-3.71764 -0.01977,-3.98916 -0.32469,-4.45862 -0.248254,-0.38223 -0.463817,-0.49991 -0.915679,-0.49991 -0.962789,0 -1.067524,0.29614 -1.140729,3.22539 -0.08301,3.3214 -0.335614,3.9843 -1.518271,3.9843 -1.007268,0 -1.237761,-0.83808 -1.258972,-4.57769 -0.01243,-2.19188 -0.0699,-2.35208 -0.917388,-2.55736 -0.353174,-0.0855 -0.608795,-0.0101 -0.943376,0.27844 l -0.458937,0.39577 0.0479,3.18299 c 0.02635,1.75064 0.116837,3.51141 0.201089,3.91281 0.196598,0.93664 0.689643,1.56537 1.409779,1.79773 0.764982,0.24683 1.0344,0.24134 2.137763,-0.0436 z m 24.955377,-0.0119 c 0.73273,0.0901 1.07517,0.0509 1.33161,-0.15271 0.33213,-0.26369 0.34469,-0.38464 0.33169,-3.194 -0.007,-1.60596 -0.09,-3.29309 -0.18342,-3.74918 -0.22299,-1.08832 -0.95945,-1.98536 -1.94712,-2.37168 -0.98844,-0.38661 -1.77379,-0.39054 -3.00311,-0.015 -1.412057,0.43135 -1.744819,1.07793 -1.056257,2.05239 0.218586,0.30934 0.39939,0.33943 1.425297,0.23719 1.35324,-0.13487 2.27156,0.23963 2.27156,0.92635 0,0.34082 -0.13915,0.3923 -1.36672,0.50561 -1.933511,0.17845 -2.241778,0.29224 -2.771606,1.02306 -0.977402,1.34818 -0.959917,2.86505 0.04665,4.04658 0.626296,0.73517 1.581026,0.96746 2.995066,0.72872 0.51697,-0.0873 1.38384,-0.10408 1.92636,-0.0373 z m -2.39716,-1.81168 c -0.51853,-0.23441 -0.90073,-0.87323 -0.7855,-1.31292 0.12239,-0.46701 0.84283,-0.96016 1.4027,-0.96016 0.22364,0 0.62034,0.24939 0.90858,0.57119 l 0.51161,0.57119 -0.46998,0.47011 c -0.59941,0.59958 -1.17022,0.84014 -1.56741,0.66059 z m 28.14917,1.68561 c 0.14459,-0.0896 0.37529,-0.65406 0.51267,-1.25443 0.72036,-3.14811 1.44957,-3.30484 2.03233,-0.43681 0.29114,1.43288 0.66382,1.89605 1.53069,1.90237 1.01402,0.007 1.24846,-0.44519 2.38759,-4.60924 0.56568,-2.06783 1.0285,-3.92618 1.0285,-4.12967 0,-0.23687 -0.19962,-0.48528 -0.55482,-0.69042 -0.52831,-0.30511 -0.58162,-0.30293 -1.11596,0.0456 -0.5969,0.3893 -0.65069,0.50074 -1.09726,2.27315 -0.45683,1.81309 -1.03145,1.4653 -1.76884,-1.07058 -0.31929,-1.09801 -1.04239,-1.78404 -1.64745,-1.56298 -0.44265,0.16172 -1.02172,0.83849 -1.02355,1.19623 -0.002,0.43453 -0.69024,2.1545 -0.97654,2.44127 -0.20744,0.20776 -0.29318,0.16245 -0.56392,-0.29802 -0.1756,-0.29868 -0.40391,-0.9639 -0.50735,-1.47826 -0.2334,-1.16069 -0.50839,-1.55811 -1.18439,-1.7117 -0.5991,-0.13611 -1.22478,0.24952 -1.38273,0.85223 -0.0552,0.21074 0.0674,0.84686 0.28453,1.47545 0.20988,0.60775 0.49636,1.65996 0.63661,2.33824 0.14025,0.67828 0.43736,1.78819 0.66024,2.46647 0.22288,0.67828 0.46827,1.42948 0.54532,1.66934 0.26181,0.81512 1.35987,1.10492 2.20433,0.58179 z m 14.50182,-0.10662 c 0.31226,-0.18815 0.71025,-0.57819 0.88441,-0.86677 l 0.31666,-0.52468 -0.31859,-0.38585 c -0.35552,-0.43055 -0.41222,-0.4376 -2.17443,-0.27033 -1.10611,0.10499 -1.31471,0.072 -1.77644,-0.28109 -0.43023,-0.32898 -0.48944,-0.44926 -0.3333,-0.6771 0.14769,-0.21553 0.61912,-0.27706 2.12282,-0.27706 2.1405,0 2.34254,-0.10403 2.82116,-1.45253 0.29617,-0.83447 -0.0515,-2.16553 -0.86383,-3.30696 -0.52867,-0.74285 -0.7881,-0.93078 -1.77462,-1.28546 l -1.15544,-0.41542 -1.08084,0.40431 c -1.15901,0.43355 -2.07941,1.37338 -2.5086,2.56155 -0.31585,0.87442 -0.45963,3.31237 -0.24236,4.10966 0.21251,0.77982 1.82999,2.73364 2.38236,2.87774 0.20488,0.0534 0.51351,0.13863 0.68583,0.18929 0.61683,0.18133 2.45573,-0.0622 3.01521,-0.3993 z m -3.4885,-5.82369 c -0.25859,-0.229 -0.26928,-0.30623 -0.0805,-0.58169 0.31173,-0.45491 1.01903,-0.8618 1.49803,-0.8618 0.25183,0 0.60111,0.22965 0.90021,0.59189 0.46846,0.56734 0.47646,0.60275 0.193,0.85378 -0.39255,0.34763 -2.11741,0.34613 -2.51073,-0.002 z m 15.40948,5.9313 c 0.87744,-0.40403 1.41463,-1.39896 1.11789,-2.07046 -0.2831,-0.64064 -0.68743,-0.77345 -1.41204,-0.46383 -0.98983,0.42295 -2.26958,0.37258 -2.66381,-0.10486 -0.73432,-0.88933 -0.86628,-2.85043 -0.25018,-3.71789 0.48894,-0.68841 1.44581,-1.03866 1.9797,-0.72463 0.99927,0.58776 2.19152,0.48039 2.41258,-0.21728 0.23964,-0.75633 -0.40944,-1.59341 -1.59938,-2.06259 -1.09378,-0.43127 -1.68745,-0.41369 -2.88025,0.0853 -0.78551,0.3286 -1.12286,0.60412 -1.64719,1.3453 -0.78491,1.10953 -1.03744,2.10482 -0.95842,3.77739 0.0486,1.02849 0.14836,1.39756 0.591,2.18604 0.73701,1.31286 1.371,1.96724 2.03157,2.09689 0.309,0.0606 0.66756,0.14166 0.79681,0.18003 0.36738,0.10906 2.02052,-0.097 2.48172,-0.30939 z m 12.3085,0.18525 c 1.46198,-0.35559 2.29327,-1.67615 1.46325,-2.32449 -0.2682,-0.20949 -0.52107,-0.2352 -1.05746,-0.10751 -1.50862,0.35916 -3.13319,0.0276 -3.13319,-0.63944 0,-0.41999 0.357,-0.5043 2.1355,-0.5043 1.87949,0 2.3914,-0.21791 2.76609,-1.17745 0.21361,-0.54703 0.21722,-0.74981 0.029,-1.6259 -0.38538,-1.79323 -1.10704,-2.68327 -2.63425,-3.24889 -1.1356,-0.42059 -1.42059,-0.39735 -2.60961,0.21277 -1.37739,0.70677 -2.24501,2.22692 -2.43563,4.26749 -0.12517,1.33986 0.0528,2.14672 0.71923,3.2609 1.0619,1.77535 2.64074,2.40157 4.75712,1.88682 z m -2.62766,-6.09465 c -0.37663,-0.33353 -0.19714,-0.76968 0.47696,-1.15899 0.68676,-0.39662 1.27504,-0.27278 1.86855,0.39337 0.41611,0.46704 0.42166,0.4969 0.13909,0.74713 -0.37484,0.33195 -2.116,0.3449 -2.4846,0.0185 z m 11.77922,6.03613 c 1.01243,-0.006 1.34557,-0.0755 1.48827,-0.31212 0.12351,-0.20481 0.18385,-1.35688 0.18385,-3.50998 0,-2.96598 -0.0265,-3.26505 -0.3545,-4.00867 -0.44435,-1.00724 -0.80794,-1.29598 -2.12917,-1.69085 -0.92087,-0.27522 -1.19021,-0.28346 -2.14363,-0.0656 -1.18248,0.27022 -2.03075,0.77921 -2.03075,1.21854 0,0.15224 0.17014,0.51635 0.37809,0.80913 0.36482,0.51366 0.43019,0.53234 1.86332,0.53234 1.24821,0 1.53865,0.0585 1.82002,0.36677 0.2917,0.31955 0.3057,0.40202 0.10879,0.6405 -0.13042,0.15796 -0.51347,0.26997 -0.90567,0.26484 -1.62586,-0.0213 -2.32563,0.16355 -2.88951,0.76316 -1.08576,1.15454 -1.28966,2.45893 -0.60541,3.87297 0.51838,1.07128 1.39816,1.45407 2.89359,1.25902 0.56006,-0.0731 1.60528,-0.13607 2.32271,-0.14006 z m -2.87814,-2.27536 c -0.48045,-0.58187 -0.47909,-0.68867 0.016,-1.25191 0.73518,-0.83645 2.26274,-0.42368 2.26274,0.61143 0,0.44157 -0.8733,1.10452 -1.45622,1.10547 -0.25669,4.1e-4 -0.59709,-0.19203 -0.82247,-0.46499 z m -113.482713,2.16658 c 0.271135,-0.17574 0.303021,-0.41401 0.303021,-2.26439 0,-1.1374 0.07133,-2.2952 0.158505,-2.57289 0.156244,-0.4977 1.218587,-2.21103 1.44726,-2.33411 0.06462,-0.0348 0.117494,-0.15266 0.117494,-0.26194 0,-0.10928 0.260069,-0.63578 0.57793,-1.16999 1.136009,-1.90925 1.30199,-2.26449 1.30199,-2.78665 0,-0.69889 -0.37674,-1.12605 -0.990315,-1.12286 -0.951202,0.005 -1.188395,0.20234 -1.904448,1.5849 -0.743384,1.43533 -1.684082,2.77627 -1.947606,2.77627 -0.248394,0 -0.752904,-0.72503 -1.655985,-2.3798 -1.020687,-1.87028 -1.140802,-1.9947 -1.963955,-2.03446 -0.803217,-0.0388 -1.155913,0.40762 -1.038831,1.31485 0.06662,0.51623 1.120559,2.59023 2.915207,5.73673 0.455734,0.79903 0.476195,0.91964 0.476195,2.80712 0,1.841 0.02559,2.00322 0.384529,2.43793 0.415456,0.50315 1.264314,0.62882 1.819009,0.26929 z m 48.333273,-0.1971 c 0.1635,-0.16434 0.22124,-0.72214 0.22189,-2.14363 0.001,-2.92793 0.11155,-3.22347 1.90611,-5.11091 0.84984,-0.89383 0.89794,-1.33426 0.19014,-1.74103 -0.49722,-0.28575 -0.65599,-0.29768 -1.1791,-0.0886 -0.49451,0.19765 -0.76473,0.19507 -1.48491,-0.0142 -0.75875,-0.22044 -0.93734,-0.21706 -1.29254,0.0245 l -0.41215,0.28026 v 4.23093 4.23093 l 0.38803,0.38046 c 0.41591,0.40779 1.23214,0.38386 1.66253,-0.0487 z m 5.98257,0.0982 c 0.2693,-0.22844 0.34818,-0.48281 0.34818,-1.12285 0,-1.02075 0.10866,-1.38327 0.48841,-1.6294 0.44762,-0.29012 0.82782,0.0555 1.48965,1.35405 0.81686,1.60278 1.71383,2.09073 2.54584,1.38495 0.51795,-0.43936 0.37696,-1.00216 -0.75385,-3.00912 -0.52259,-0.9275 -0.95017,-1.88563 -0.95017,-2.12918 0,-0.28186 0.31386,-0.82905 0.86343,-1.50536 0.99095,-1.21946 1.18424,-1.80548 0.77579,-2.35209 -0.59851,-0.80094 -1.62263,-0.38097 -2.77928,1.13972 -0.60082,0.78993 -0.82794,0.96798 -1.17327,0.91981 l -0.42822,-0.0597 -0.0323,-2.37161 c -0.0178,-1.30439 -0.0717,-2.56263 -0.11998,-2.7961 -0.13076,-0.63297 -0.75766,-1.05745 -1.33494,-0.90389 -0.90222,0.23999 -0.92524,0.39811 -0.98745,6.78144 -0.0312,3.20284 -0.0159,5.89747 0.034,5.98808 0.33798,0.61351 1.45445,0.78606 2.01414,0.31128 z m 45.35905,0.0772 c 0.1882,-0.11997 0.39398,-0.31207 0.45728,-0.42689 0.20067,-0.36396 0.14265,-11.47082 -0.0624,-11.93698 -0.43515,-0.98948 -1.31384,-1.18111 -1.93978,-0.42304 l -0.38453,0.4657 v 5.97432 c 0,5.95861 9.1e-4,5.9751 0.34818,6.26967 0.41117,0.34879 1.10225,0.38254 1.5812,0.0772 z m 22.46491,-0.27987 c 0.14253,-0.23606 0.20132,-1.15392 0.20132,-3.1431 0,-2.5567 0.0282,-2.84384 0.31332,-3.18913 0.48295,-0.58489 1.68967,-0.43033 2.07335,0.26556 0.0633,0.11482 0.11617,1.46476 0.11749,2.99987 0.002,2.62499 0.0228,2.81413 0.34526,3.17796 0.4131,0.4661 1.1747,0.5022 1.67323,0.0793 0.36039,-0.30571 0.36223,-0.32856 0.30901,-3.842 -0.0641,-4.23506 -0.15372,-4.54126 -1.58208,-5.40769 l -0.89865,-0.54512 -0.93648,0.42415 c -0.67456,0.30552 -1.1019,0.38961 -1.52795,0.30068 -1.65643,-0.34578 -1.68346,-0.34468 -2.00177,0.0813 -0.28845,0.38602 -0.30497,0.66572 -0.26699,4.52182 0.0392,3.97751 0.0517,4.1217 0.38648,4.46139 0.42544,0.43163 1.48832,0.32206 1.79446,-0.18499 z m 5.88061,-23.19349 c 2.00788,-0.58697 4.1811,-1.8879 5.58762,-3.34485 2.10497,-2.18044 2.7255,-3.1075 3.94337,-5.89138 1.10703,-2.53049 1.30717,-3.77292 1.31262,-8.14854 0.005,-3.63342 -0.013,-3.85501 -0.41219,-5.21754 -0.94392,-3.22169 -1.66556,-4.69487 -3.32856,-6.79502 -1.10833,-1.39969 -2.83118,-3.07088 -3.1658,-3.07088 -0.0626,0 -0.22505,-0.12065 -0.36108,-0.26811 -0.33641,-0.3647 -1.81249,-0.98628 -3.66847,-1.54482 -3.39217,-1.02084 -7.73576,-0.3916 -10.83491,1.5696 -2.4939,1.57819 -5.30971,5.15405 -6.16769,7.83248 -1.16656,3.64175 -1.167,3.64453 -1.1749,7.39942 -0.007,3.23937 0.0245,3.64546 0.40645,5.26725 0.78639,3.33912 1.91427,5.6453 3.83304,7.83745 2.02904,2.31814 3.96496,3.56262 6.94127,4.46211 1.28356,0.38791 1.77917,0.44041 3.60318,0.38172 1.44646,-0.0465 2.54828,-0.19475 3.48605,-0.46889 z m -4.50434,-8.07011 c -0.0862,-0.0386 -0.57964,-0.17736 -1.09662,-0.30845 -1.69386,-0.42951 -3.15037,-1.97255 -4.11346,-4.35786 l -0.57454,-1.42297 0.002,-3.03566 0.002,-3.03566 0.53572,-1.3281 c 0.66402,-1.64618 1.81198,-3.07739 3.14319,-3.91874 0.98745,-0.62409 1.03718,-0.63453 2.96256,-0.62199 1.74392,0.0114 2.03541,0.0619 2.66322,0.46143 1.77769,1.13139 3.0902,3.04525 3.61627,5.27311 0.56844,2.40734 0.25468,7.10565 -0.54609,8.17728 -0.13767,0.18423 -0.2503,0.42652 -0.2503,0.53844 0,0.11191 -0.52128,0.79305 -1.15839,1.51364 -0.97761,1.10569 -1.31377,1.36342 -2.15407,1.65145 -0.94788,0.32491 -2.69763,0.56385 -3.03227,0.41408 z M 35.10854,141.106 c 0.463034,-0.16654 1.080272,-0.523 1.371639,-0.79215 0.554079,-0.51182 1.327711,-2.15772 1.520181,-3.23418 0.06189,-0.34617 0.211202,-0.85843 0.331795,-1.13837 0.120593,-0.27994 0.219694,-0.6139 0.220225,-0.74215 9.07e-4,-0.2192 0.105875,-0.65789 1.011061,-4.22545 0.198574,-0.78263 0.513823,-2.0633 0.700552,-2.84593 0.18673,-0.78263 0.413293,-1.6791 0.503474,-1.99215 0.09018,-0.31305 0.46753,-1.80717 0.838554,-3.32025 0.371025,-1.51309 0.902065,-3.60485 1.18009,-4.64836 0.278025,-1.04351 0.609999,-2.4309 0.73772,-3.08309 0.403392,-2.05987 0.56676,-1.72078 1.942439,4.03174 0.174684,0.73045 0.441203,1.79768 0.592264,2.37161 0.151061,0.57392 0.437295,1.68384 0.636077,2.46647 0.198781,0.78263 0.487669,1.89254 0.641974,2.46647 0.154306,0.57393 0.466984,1.81191 0.694841,2.75107 0.227857,0.93916 0.505493,1.96403 0.616969,2.2775 0.111476,0.31347 0.253531,0.86843 0.315677,1.23324 0.06215,0.36481 0.24163,1.13287 0.398853,1.7068 0.157223,0.57393 0.472261,1.75952 0.700085,2.63464 0.623196,2.39383 1.380312,3.51274 2.686236,3.96988 0.826425,0.28928 3.300289,0.29204 3.992441,0.004 1.237671,-0.51427 2.019019,-1.66076 2.499903,-3.66818 0.292821,-1.22236 0.721763,-2.9319 1.250063,-4.98211 0.181257,-0.70341 0.403807,-1.62045 0.494555,-2.03785 0.227429,-1.04607 0.734206,-3.18828 1.077207,-4.55349 0.157305,-0.6261 0.468333,-1.90677 0.691172,-2.84593 0.52169,-2.19867 0.964774,-4.0509 1.338894,-5.597 0.38203,-1.57879 0.867397,-3.6772 1.07517,-4.64835 0.150972,-0.70566 0.507546,-2.24341 1.275835,-5.50213 0.660328,-2.80081 1.09095,-4.95221 1.09095,-5.45042 0,-0.69701 -0.439255,-2.001481 -0.925387,-2.748159 -0.221231,-0.339803 -0.808816,-0.833374 -1.328109,-1.115611 -0.845602,-0.459587 -1.044039,-0.494802 -2.155606,-0.382533 -0.811648,0.08198 -1.423345,0.260787 -1.814938,0.530538 -0.697272,0.48032 -1.452298,1.286221 -1.452298,1.550157 0,0.102699 -0.110525,0.334635 -0.245612,0.515408 -0.135087,0.18078 -0.343041,0.78515 -0.46212,1.34305 -0.605147,2.83515 -0.722385,3.35664 -0.93183,4.14487 -0.124773,0.46958 -0.271236,1.19529 -0.325472,1.6127 -0.05424,0.4174 -0.233515,1.25017 -0.398398,1.85061 -0.164883,0.60043 -0.299787,1.25137 -0.299787,1.44654 0,0.19517 -0.109658,0.72844 -0.243686,1.18505 -0.134027,0.45661 -0.346,1.38516 -0.471051,2.06344 -0.125051,0.67828 -0.327074,1.66012 -0.448939,2.18188 -0.516857,2.21287 -1.075045,4.68349 -1.478863,6.54564 -0.453297,2.09032 -0.753921,2.51546 -1.006201,1.42296 -0.07229,-0.31305 -0.236792,-0.95338 -0.36556,-1.42296 -0.128768,-0.46958 -0.329881,-1.32336 -0.446918,-1.89729 -0.117038,-0.57393 -0.359653,-1.64115 -0.539145,-2.37161 -0.470314,-1.91397 -0.883368,-3.66525 -2.03609,-8.63265 -0.93375,-4.0238 -1.296763,-5.52953 -1.578072,-6.54565 -0.173336,-0.6261 -0.315831,-1.26643 -0.316655,-1.42296 -0.0026,-0.48802 -0.772923,-2.318205 -1.157412,-2.749754 -0.849821,-0.953837 -1.664227,-1.299018 -3.070844,-1.30156 -1.135175,-0.0021 -1.450598,0.07172 -2.138223,0.500092 -0.938746,0.584813 -1.720651,1.645795 -1.94133,2.634222 -0.08543,0.38264 -0.259496,0.93759 -0.386819,1.23324 -0.127323,0.29565 -0.231916,0.70829 -0.232429,0.917 -5.13e-4,0.2087 -0.136631,0.89172 -0.302484,1.51783 -0.165854,0.6261 -0.444385,1.73601 -0.61896,2.46647 -0.174574,0.73045 -0.497121,2.01266 -0.71677,2.84935 -0.219649,0.83668 -0.399363,1.67756 -0.399363,1.86861 0,0.19105 -0.101117,0.6164 -0.224705,0.94523 -0.213543,0.56816 -0.346602,1.11616 -1.020446,4.2027 -0.15947,0.73046 -0.367449,1.58424 -0.462176,1.89729 -0.09473,0.31305 -0.272612,1.03876 -0.395302,1.61269 -0.444336,2.07856 -0.86735,3.65126 -1.05622,3.92687 -0.168882,0.24645 -0.218221,0.23942 -0.396922,-0.0566 -0.112237,-0.18589 -0.203719,-0.51377 -0.203292,-0.72861 4.26e-4,-0.21485 -0.103272,-0.77483 -0.230439,-1.24441 -0.232391,-0.85813 -0.934395,-3.99262 -1.487215,-6.6405 -0.390434,-1.87009 -1.059818,-4.9761 -1.328893,-6.16619 -0.265145,-1.17271 -0.657456,-3.04928 -0.951939,-4.55349 -0.917907,-4.68863 -1.299384,-5.596483 -2.832424,-6.740692 -0.532767,-0.397639 -0.803256,-0.456495 -2.107524,-0.45858 -1.312047,-0.0021 -1.550976,0.04968 -1.940211,0.420485 -0.244146,0.232583 -0.532836,0.422878 -0.641535,0.422878 -0.38139,0 -1.130154,1.284451 -1.326451,2.275429 -0.219137,1.10629 -0.02739,3.07677 0.470912,4.8394 0.147503,0.52175 0.426191,1.63166 0.619306,2.46647 0.193115,0.83481 0.512178,2.15817 0.709028,2.9408 0.196851,0.78263 0.510893,2.10599 0.69787,2.94079 0.186977,0.83481 0.474605,2.07279 0.639172,2.75107 0.595883,2.45599 1.306668,5.44657 1.736109,7.30455 0.512291,2.21645 1.613759,6.76721 1.836879,7.58915 0.203985,0.75145 0.69873,2.79914 1.214779,5.02781 0.769664,3.32398 1.339849,4.14697 3.214258,4.6394 1.352175,0.35523 2.269674,0.35264 3.275856,-0.009 z m 45.894643,0.007 c 1.352552,-0.34174 3.323409,-1.45516 4.51216,-2.54913 0.454104,-0.4179 0.921589,-0.75981 1.038857,-0.75981 0.120099,0 0.28644,0.35215 0.380885,0.80634 0.393813,1.89388 2.480823,3.14728 4.340725,2.60692 1.187543,-0.34503 1.771725,-0.84871 2.357952,-2.03303 0.467875,-0.94522 0.487953,-1.07787 0.587754,-3.88308 0.05683,-1.59743 0.06444,-6.31954 0.0169,-10.49357 -0.07739,-6.796 -0.121086,-7.77752 -0.418051,-9.39157 -0.570021,-3.09816 -1.800594,-5.33578 -3.804229,-6.91744 -1.021872,-0.80666 -2.147625,-1.31374 -4.073159,-1.8347 -2.205636,-0.59675 -6.325646,-0.59543 -8.616297,0.003 -2.598924,0.6787 -4.928213,1.73722 -5.812582,2.64147 -0.775264,0.79269 -1.111916,2.55563 -0.761172,3.98602 0.283385,1.1557 1.33449,2.41497 2.175183,2.60598 0.706448,0.1605 2.211095,-0.0535 2.831971,-0.40277 0.94176,-0.5298 3.717999,-1.08475 5.483099,-1.09603 1.541448,-0.01 1.814165,0.041 2.584889,0.48244 1.503625,0.86115 2.352898,2.34139 2.468787,4.30298 0.09942,1.68288 -0.04244,1.83754 -1.399181,1.52538 -0.556722,-0.12809 -2.399142,-0.23304 -4.202805,-0.23939 -2.731821,-0.01 -3.446193,0.0502 -4.782546,0.40033 -1.430341,0.37479 -2.252158,0.71374 -2.893792,1.19352 -0.129244,0.0966 -0.516802,0.35987 -0.86124,0.58496 -0.712797,0.46582 -2.428619,2.51059 -2.428619,2.89422 0,0.1398 -0.130499,0.45779 -0.289999,0.70665 -0.390242,0.60888 -0.80662,2.95373 -0.80662,4.54251 0,2.32219 0.582979,4.85029 1.409939,6.11425 1.347041,2.05886 3.108131,3.42493 5.326439,4.13168 1.339322,0.42671 4.091838,0.46193 5.634749,0.0721 z m -1.169941,-6.54056 c -1.252705,-0.25897 -2.446771,-1.20574 -2.913874,-2.31039 -0.412551,-0.97564 -0.401409,-2.80614 0.02355,-3.86929 0.386249,-0.96631 1.179353,-1.73867 2.147858,-2.09167 1.063567,-0.38765 6.81696,-0.36996 7.085415,0.0218 0.136427,0.19909 0.174252,0.88244 0.128648,2.32418 -0.0612,1.93468 -0.09145,2.08942 -0.574708,2.93961 -1.282627,2.25652 -3.64309,3.4517 -5.89689,2.98578 z m 22.788788,6.51635 c 0.85247,-0.38424 1.47416,-0.97577 2.13118,-2.02776 1.56486,-2.50559 3.24635,-5.31753 3.87167,-6.47451 0.39479,-0.73046 0.87664,-1.53371 1.07079,-1.785 l 0.35298,-0.45689 0.44937,0.64662 c 0.24715,0.35564 0.76112,1.20158 1.14215,1.87986 0.38103,0.67828 1.12119,1.95895 1.6448,2.84593 0.52361,0.88698 1.11573,1.9144 1.31581,2.28316 0.20009,0.36876 0.71835,1.14029 1.15169,1.71452 0.62602,0.82956 0.94382,1.09154 1.54685,1.27515 2.98367,0.90847 5.2515,-0.82225 5.21688,-3.98131 -0.0146,-1.33091 -0.33339,-1.96151 -3.35759,-6.64122 -0.51903,-0.80315 -1.36666,-2.16838 -1.88364,-3.03386 -0.51698,-0.86547 -1.23957,-2.02143 -1.60576,-2.56879 -0.3662,-0.54736 -0.66581,-1.12882 -0.66581,-1.29213 0,-0.16331 0.41051,-0.95426 0.91224,-1.75767 2.29152,-3.66935 3.59954,-5.74942 4.49777,-7.1526 2.03642,-3.1812 2.25688,-4.81834 0.91159,-6.76923 -0.76131,-1.10402 -1.75716,-1.66975 -2.94311,-1.67197 -1.58911,-0.003 -2.45444,0.70073 -3.87822,3.15377 -0.37137,0.63985 -1.23919,2.11843 -1.9285,3.28574 -0.6893,1.1673 -1.46477,2.49611 -1.72326,2.9529 -0.54818,0.96873 -0.83883,1.04795 -1.20432,0.32826 -0.14539,-0.28631 -0.46807,-0.86207 -0.71706,-1.27947 -0.24898,-0.41741 -0.93528,-1.6127 -1.52509,-2.65621 -0.58982,-1.0435 -1.31584,-2.32417 -1.61338,-2.84593 -1.27755,-2.24024 -2.03387,-2.80393 -3.79143,-2.82579 -0.94813,-0.0118 -1.3095,0.0717 -1.87186,0.43259 -1.460317,0.93707 -1.948899,1.87167 -1.953962,3.73769 -0.0045,1.65054 0.01104,1.68162 3.744322,7.49738 0.77721,1.21074 1.51885,2.39473 1.64809,2.63109 0.12925,0.23636 0.56986,0.94284 0.97913,1.56997 0.40927,0.62713 0.74413,1.25298 0.74413,1.39079 0,0.13781 -0.33778,0.74592 -0.75063,1.35135 -0.41284,0.60543 -1.41372,2.16801 -2.22417,3.4724 -0.81046,1.30438 -2.19985,3.46323 -3.087543,4.79744 l -1.61399,2.42583 v 1.48257 c 0,1.33105 0.04569,1.5582 0.447045,2.22253 0.641485,1.06178 1.049589,1.45659 1.877361,1.81618 0.952847,0.41393 1.805427,0.42238 2.683477,0.0266 z m 56.05857,0.0266 c 1.77683,-0.4971 2.43231,-1.56519 3.25473,-5.30347 0.37653,-1.71154 0.8194,-3.59442 0.98176,-4.17403 0.0877,-0.31305 0.31301,-1.25221 0.5007,-2.08701 0.18769,-0.83481 0.443,-1.90203 0.56737,-2.37161 0.12437,-0.46958 0.36291,-1.45143 0.5301,-2.18188 0.16719,-0.73046 0.41418,-1.79768 0.54886,-2.37161 0.13468,-0.57393 0.37593,-1.64802 0.53611,-2.38686 0.16018,-0.73884 0.40293,-1.66708 0.53944,-2.06275 0.13651,-0.39568 0.24819,-0.87795 0.24819,-1.07171 0,-0.19377 0.14556,-0.9304 0.32347,-1.63696 0.1779,-0.70656 0.48956,-1.96767 0.69256,-2.80248 0.203,-0.83481 0.51567,-2.09592 0.69482,-2.80248 0.17916,-0.70656 0.32573,-1.45923 0.32573,-1.6726 0,-0.21337 0.0726,-0.55213 0.16123,-0.75279 0.37496,-0.84851 0.98054,-3.79501 1.05071,-5.11235 0.0665,-1.2484 0.0289,-1.52958 -0.30659,-2.29209 -0.80115,-1.820949 -1.79697,-2.506371 -3.64689,-2.510155 -1.00903,-0.0021 -1.39068,0.08359 -1.95825,0.439472 -1.43977,0.902772 -1.97159,2.060263 -2.65833,5.785743 -0.19235,1.04351 -0.45606,2.32418 -0.58601,2.84593 -0.25473,1.02278 -1.30831,5.93746 -1.76926,8.2532 -0.15578,0.78263 -0.43803,2.10599 -0.62721,2.9408 -0.18919,0.8348 -0.44565,2.03009 -0.56992,2.6562 -0.12426,0.6261 -0.30081,1.3945 -0.39233,1.70756 -0.0915,0.31305 -0.24134,0.93204 -0.33292,1.37553 -0.26855,1.30046 -0.6192,1.07729 -1.04336,-0.66405 -0.19699,-0.80872 -0.46332,-1.83754 -0.59185,-2.28626 -0.12852,-0.44872 -0.32639,-1.25981 -0.43969,-1.80242 -0.1133,-0.54261 -0.41362,-1.84034 -0.66736,-2.88385 -0.25375,-1.04351 -0.57068,-2.40956 -0.70429,-3.03566 -0.1336,-0.62611 -0.39591,-1.73602 -0.58291,-2.46648 -0.18699,-0.73045 -0.44225,-1.87264 -0.56724,-2.53819 -0.125,-0.66555 -0.28766,-1.34857 -0.36148,-1.51783 -0.0738,-0.16925 -0.28935,-1.07614 -0.47895,-2.01529 -0.67916,-3.3641 -1.08914,-4.628724 -1.78377,-5.502135 -0.77225,-0.971012 -1.4309,-1.230717 -3.12501,-1.232181 -1.62969,-0.0014 -2.49741,0.4476 -3.24513,1.679208 -0.5351,0.881398 -0.7254,1.475648 -1.37581,4.296188 -0.16844,0.73046 -0.45652,1.92575 -0.64016,2.6562 -0.18365,0.73046 -0.33288,1.45452 -0.33164,1.60903 0.001,0.15451 -0.1322,0.70947 -0.29656,1.23324 -0.16436,0.52377 -0.45468,1.63533 -0.64515,2.47014 -0.37161,1.62872 -0.76576,3.22182 -1.17355,4.74322 -0.13984,0.52175 -0.29062,1.16208 -0.33505,1.42296 -0.0444,0.26088 -0.24526,1.11466 -0.44628,1.89729 -0.20102,0.78263 -0.51763,2.0633 -0.70358,2.84593 -0.18596,0.78263 -0.36798,1.53679 -0.40449,1.6759 -0.24721,0.94185 -0.90332,-1.36363 -2.23177,-7.84208 -0.73967,-3.60718 -1.16283,-5.58177 -1.4434,-6.73537 -0.31413,-1.29162 -1.29837,-5.98946 -1.62974,-7.77888 -0.36382,-1.964646 -0.97703,-3.005611 -2.23295,-3.790559 -0.52812,-0.330077 -0.92872,-0.410579 -2.04313,-0.410579 -1.56883,0 -2.49704,0.419104 -3.21156,1.450069 -0.42089,0.607298 -0.90423,2.111519 -0.90135,2.805129 0.003,0.71503 0.86873,4.84527 1.71867,8.19914 0.60198,2.37543 0.94262,3.77008 1.25121,5.12267 0.16665,0.73046 0.45096,1.92575 0.63179,2.65621 0.18083,0.73045 0.46039,1.88305 0.62124,2.56133 0.16084,0.67828 0.44488,1.83089 0.63119,2.56134 0.18632,0.73046 0.43971,1.79768 0.5631,2.37161 0.12339,0.57393 0.3601,1.59846 0.52602,2.27674 0.16592,0.67828 0.45467,1.91626 0.64166,2.75107 0.18699,0.83481 0.50224,2.11548 0.70056,2.84593 0.19832,0.73046 0.51315,2.01113 0.69963,2.84593 0.5744,2.57138 0.92519,3.46744 1.62949,4.16239 0.35471,0.35 0.92691,0.73012 1.27157,0.8447 0.78271,0.26023 3.25771,0.27185 4.00979,0.0188 0.95504,-0.32129 1.89734,-1.59632 2.38231,-3.2235 0.23326,-0.78264 0.42616,-1.55104 0.42867,-1.70756 0.003,-0.15653 0.14077,-0.62611 0.30725,-1.04351 0.16648,-0.4174 0.30437,-0.92967 0.30642,-1.13837 0.002,-0.2087 0.1386,-0.89173 0.30344,-1.51783 0.29309,-1.11326 0.74078,-2.92918 1.42663,-5.78673 0.18785,-0.78263 0.6483,-2.61826 1.02324,-4.07917 0.37493,-1.46091 0.86557,-3.47803 1.09031,-4.48249 0.91917,-4.10823 1.37804,-4.75935 1.72141,-2.44261 0.0541,0.36523 0.19304,0.96288 0.30869,1.32811 0.11564,0.36522 0.43782,1.68858 0.71595,2.94079 0.49126,2.21181 0.91045,3.90026 2.19034,8.82239 0.7189,2.76473 1.71181,6.69849 2.20288,8.72752 0.34334,1.41862 1.0543,2.75273 1.76889,3.31929 0.32609,0.25855 1.83685,0.59392 2.89019,0.64159 0.28456,0.0129 0.98953,-0.10867 1.5666,-0.27011 z m 47.31812,-0.007 c 0.65929,-0.22373 1.04595,-0.50499 1.51238,-1.10014 0.81608,-1.04128 1.60381,-2.23663 2.32773,-3.53224 0.32068,-0.57392 0.86532,-1.51308 1.21031,-2.08701 0.34499,-0.57393 0.81093,-1.38502 1.03542,-1.80242 0.22449,-0.41741 0.45213,-0.80161 0.50586,-0.85378 0.0537,-0.0522 0.22106,-0.32966 0.37185,-0.61662 0.51178,-0.97403 0.61234,-0.86154 2.89439,3.23802 1.53631,2.75987 3.0669,5.24754 3.63224,5.90349 0.42242,0.49012 1.94921,1.15314 2.6447,1.14848 0.22927,-0.002 0.83887,-0.16231 1.35466,-0.35727 1.00989,-0.38172 2.11707,-1.48757 2.11707,-2.11454 0,-0.19192 0.0705,-0.4017 0.15666,-0.46619 0.25438,-0.1904 0.18441,-2.32436 -0.0983,-2.99765 -0.14022,-0.33396 -0.62293,-1.16216 -1.07269,-1.84044 -0.88371,-1.3327 -2.66075,-4.20159 -4.28687,-6.92079 -0.56022,-0.93679 -1.18501,-1.91864 -1.38844,-2.18188 -0.45298,-0.58619 -0.59385,-1.18286 -0.3888,-1.64676 0.1248,-0.28232 1.23249,-2.05422 1.88801,-3.02012 0.0761,-0.11217 0.40947,-0.66712 0.74077,-1.23323 0.33129,-0.56611 0.64335,-1.07198 0.69346,-1.12416 0.0501,-0.0522 0.53144,-0.83394 1.06964,-1.73725 0.53819,-0.90331 1.13806,-1.85085 1.33304,-2.10564 0.54915,-0.71762 1.04059,-2.28528 1.03675,-3.30711 -0.004,-0.96022 -0.45417,-2.40612 -0.90536,-2.90541 -1.53413,-1.69772 -3.90272,-1.61297 -5.35942,0.19178 -0.24108,0.29867 -0.69504,0.99665 -1.0088,1.55106 -0.31377,0.55441 -0.81368,1.39222 -1.11092,1.8618 -0.29724,0.46957 -0.60947,1.04587 -0.69384,1.28066 -0.0844,0.23479 -0.21875,0.42689 -0.29862,0.42689 -0.0799,0 -0.21894,0.25614 -0.30905,0.56919 -0.0901,0.31305 -0.23325,0.56919 -0.31808,0.56919 -0.0848,0 -0.19389,0.15125 -0.24234,0.33611 -0.0485,0.18486 -0.29994,0.61701 -0.55887,0.96035 -0.25893,0.34333 -0.47078,0.70435 -0.47078,0.80226 0,0.0979 -0.16572,0.17802 -0.36826,0.17802 -0.3807,0 -0.44137,-0.0977 -3.82923,-6.16618 -0.64082,-1.14786 -1.3137,-2.28355 -1.4953,-2.52375 -0.94919,-1.25553 -3.36677,-1.68277 -4.57195,-0.80798 -0.89095,0.64672 -1.31706,1.14664 -1.65251,1.93878 -0.72371,1.70897 -0.53683,3.10004 0.68069,5.06679 0.45027,0.72736 1.66464,2.71064 2.69859,4.40728 1.03396,1.69664 2.17953,3.51291 2.54573,4.03614 0.36619,0.52324 0.66275,1.1272 0.65902,1.34214 -0.004,0.21494 -0.30335,0.86971 -0.66581,1.45505 -1.26062,2.03578 -2.68789,4.26427 -4.42197,6.90435 -2.38783,3.63537 -2.49199,3.86399 -2.48005,5.44333 0.008,1.08404 0.0778,1.40639 0.44014,2.03969 0.5025,0.87816 0.9901,1.31287 1.96469,1.75155 0.90493,0.40733 1.39148,0.41637 2.48245,0.0462 z"
         id="path23" /><path
         style="fill:#4e94bb"
         d="m 88.829332,167.48026 -0.379793,-0.49055 0.0034,-5.56541 c 0.0032,-5.18085 0.0238,-5.5927 0.298436,-5.96023 0.162265,-0.21715 0.407471,-0.39356 0.544902,-0.39202 0.155722,0.002 0.102302,0.0928 -0.141776,0.24178 -0.350291,0.21375 -0.401323,0.38876 -0.483251,1.65733 -0.150274,2.32681 -0.04283,9.75926 0.147298,10.18951 0.214002,0.48427 0.474844,0.60817 1.016435,0.48278 0.548173,-0.12691 0.77329,-0.65524 0.75262,-1.76635 -0.02132,-1.14627 0.273556,-1.48133 1.151787,-1.3087 l 0.62664,0.12317 -0.660293,0.0269 c -0.687716,0.028 -1.03319,0.42661 -0.975401,1.12532 0.06907,0.83508 -0.03509,1.39939 -0.322555,1.74754 -0.439596,0.53238 -1.117181,0.4847 -1.578457,-0.11109 z m -20.810861,-2.61374 c 0.0359,-0.0377 0.594002,-0.11295 1.240224,-0.16713 0.662944,-0.0556 1.004281,-0.0339 0.7833,0.0497 -0.388424,0.147 -2.148831,0.24915 -2.023524,0.11742 z m 8.423729,-0.15489 c -0.720136,-0.23236 -1.213181,-0.86109 -1.409779,-1.79773 -0.08425,-0.4014 -0.174742,-2.16217 -0.201089,-3.91281 l -0.0479,-3.18299 0.449433,-0.38758 c 0.253853,-0.21891 0.602706,-0.35181 0.801647,-0.3054 0.323242,0.0754 0.319207,0.0843 -0.04906,0.10802 -0.220701,0.0142 -0.542052,0.18468 -0.714114,0.37882 -0.291493,0.32889 -0.309644,0.55868 -0.266002,3.36768 0.05792,3.72832 0.225551,4.7214 0.87806,5.20198 0.740185,0.54515 1.505172,0.6207 2.676593,0.26433 0.827073,-0.2516 1.140025,-0.27448 1.445919,-0.10568 0.52761,0.29113 1.551312,0.27269 1.759911,-0.0317 0.108374,-0.15815 0.177419,-1.74221 0.191765,-4.39963 0.02489,-4.61065 0.01622,-4.64995 -1.026329,-4.64995 -0.794058,0 -0.862935,0.22614 -0.863893,2.83644 -0.0011,2.87536 -0.158359,3.69782 -0.78194,4.08835 -1.152283,0.72165 -2.210582,0.01 -2.172793,-1.46147 l 0.02093,-0.81497 0.105925,0.9248 c 0.117497,1.02582 0.444156,1.44681 1.12262,1.44681 1.182657,0 1.435266,-0.6629 1.518271,-3.9843 0.0732,-2.92925 0.17794,-3.22539 1.140729,-3.22539 0.451862,0 0.667425,0.11768 0.915679,0.49991 0.304918,0.46946 0.32469,0.74098 0.32469,4.45862 0,3.70575 -0.02002,3.98297 -0.31332,4.33818 -0.337867,0.40918 -1.139983,0.49902 -1.959283,0.21942 -0.293677,-0.10022 -0.820257,-0.0693 -1.408905,0.0827 -1.103363,0.2849 -1.372781,0.29039 -2.137763,0.0436 z m 16.015223,0.15484 c 0.0359,-0.0378 0.488257,-0.11502 1.005235,-0.17168 0.567519,-0.0622 0.815813,-0.0403 0.62664,0.0553 -0.301574,0.15241 -1.765354,0.25677 -1.631875,0.11634 z m 36.264597,-0.29413 c 0.60397,-0.33296 0.65637,-0.42996 0.99622,-1.84418 0.4482,-1.86515 0.69144,-2.34651 1.18573,-2.34651 0.42719,0 0.75219,0.5959 0.9313,1.70756 0.14978,0.92961 0.41161,1.74452 0.6858,2.13445 0.27511,0.39124 1.25311,0.44801 1.63429,0.0949 0.21721,-0.20124 0.73719,-1.89244 2.27607,-7.40279 0.28511,-1.02089 0.1635,-1.33411 -0.60662,-1.56244 -0.71018,-0.21056 -1.32262,0.61379 -1.55258,2.08979 -0.14684,0.94248 -0.29024,1.33105 -0.60019,1.62632 -0.39144,0.3729 -0.41574,0.3746 -0.62586,0.0438 -0.2835,-0.44637 -0.96793,-2.27902 -0.96315,-2.57893 0.002,-0.12747 0.23115,0.3232 0.50915,1.00148 0.67811,1.65452 1.02018,1.67739 1.41891,0.0949 0.44657,-1.77241 0.50036,-1.88385 1.09726,-2.27315 0.53434,-0.3485 0.58765,-0.35068 1.11596,-0.0456 0.3552,0.20514 0.55482,0.45355 0.55482,0.69042 0,0.20349 -0.46282,2.06184 -1.0285,4.12967 -1.13913,4.16405 -1.37357,4.61663 -2.38759,4.60924 -0.86687,-0.006 -1.23955,-0.46949 -1.53069,-1.90237 -0.58276,-2.86803 -1.31197,-2.7113 -2.03233,0.43681 -0.25613,1.11932 -0.42912,1.3322 -1.24553,1.53271 -0.39141,0.0961 -0.3634,0.0567 0.16753,-0.23601 z m 12.05194,0.23854 c -0.17232,-0.0441 -0.48095,-0.12397 -0.68583,-0.17742 -0.55237,-0.1441 -2.16985,-2.09792 -2.38236,-2.87774 -0.19678,-0.72212 -0.0882,-3.11283 0.18013,-3.96771 0.30389,-0.96802 1.60079,-2.51752 2.10476,-2.51471 0.0862,4.8e-4 -0.0469,0.13439 -0.29567,0.29758 -1.06434,0.69816 -1.74139,2.19431 -1.89014,4.17684 -0.14931,1.99001 0.30019,3.08066 1.78147,4.32246 0.41023,0.3439 0.89784,0.51667 1.81428,0.64282 0.96819,0.13327 1.0751,0.17315 0.46998,0.17532 -0.43081,0.002 -0.92429,-0.0333 -1.09662,-0.0774 z m 13.39443,-0.0712 c 1.38191,-0.29004 1.51718,-0.34782 2.0245,-0.86481 0.56624,-0.57704 0.62869,-1.26025 0.15216,-1.66449 -0.28737,-0.24377 -0.41111,-0.24516 -0.95966,-0.0108 -0.34637,0.148 -0.95575,0.25741 -1.35419,0.24313 -0.70905,-0.0254 -0.70447,-0.0289 0.21552,-0.16582 0.51698,-0.0769 1.13844,-0.23601 1.38103,-0.35353 0.7633,-0.36975 1.50482,0.44301 1.22186,1.33923 -0.30371,0.96193 -1.03304,1.40796 -2.54912,1.55894 l -0.99373,0.099 z m 12.26079,0.0594 c 0.23814,-0.0436 0.59062,-0.0425 0.7833,0.003 0.19269,0.045 -0.002,0.0807 -0.43297,0.0793 -0.43081,-0.001 -0.58846,-0.0383 -0.35033,-0.0819 z m 7.59586,0.002 c 0.19386,-0.0452 0.5111,-0.0452 0.70497,0 0.19386,0.0452 0.0353,0.0822 -0.35249,0.0822 -0.38773,0 -0.54635,-0.037 -0.35248,-0.0822 z M 58.990348,164.27972 c -0.358943,-0.43471 -0.384529,-0.59693 -0.384529,-2.43793 0,-1.88748 -0.02046,-2.00809 -0.476195,-2.80712 -1.699197,-2.97915 -2.834519,-5.18265 -2.911989,-5.65176 -0.09445,-0.57194 0.15233,-1.34932 0.428347,-1.34932 0.08929,0 0.05156,0.13417 -0.08384,0.29815 -0.503474,0.60975 -0.214561,1.42085 1.733171,4.86574 0.665681,1.17737 1.300271,2.43949 1.410202,2.80472 0.10993,0.36522 0.202968,1.40501 0.206749,2.31062 0.0077,1.85044 0.177152,2.24287 0.968325,2.24287 0.998305,0 1.075131,-0.17585 1.075131,-2.4608 0,-2.40124 0.08476,-2.74656 0.996149,-4.05845 0.372557,-0.53627 0.716256,-1.10311 0.763777,-1.25963 0.04752,-0.15653 0.461388,-0.88224 0.919706,-1.6127 0.690924,-1.10118 0.834321,-1.46278 0.83926,-2.11633 0.0033,-0.43352 0.05775,-0.68966 0.121053,-0.56918 0.220939,0.42047 0.117173,1.21443 -0.242136,1.85269 -0.199116,0.3537 -0.622098,1.08018 -0.93996,1.6144 -0.317861,0.53421 -0.57793,1.06071 -0.57793,1.16999 0,0.10928 -0.05287,0.22715 -0.117494,0.26194 -0.228673,0.12308 -1.291016,1.83641 -1.44726,2.33411 -0.08718,0.27769 -0.158505,1.43549 -0.158505,2.57289 0,1.85038 -0.03189,2.08865 -0.303021,2.26439 -0.554695,0.35953 -1.403553,0.23386 -1.819009,-0.26929 z m 7.534987,-0.13635 c -2.011917,-1.61394 -2.566403,-4.60983 -1.273864,-6.88269 0.735942,-1.29411 1.162329,-1.75951 1.735655,-1.89449 l 0.46998,-0.11064 -0.500726,0.23888 c -0.567471,0.27071 -1.497197,1.45716 -1.853859,2.36576 -0.27914,0.71111 -0.345912,3.14438 -0.105638,3.84957 0.408179,1.19797 1.391245,2.35317 2.358739,2.77176 0.374665,0.16209 0.459326,0.25011 0.245837,0.25557 -0.179094,0.005 -0.66335,-0.26259 -1.076124,-0.59372 z m 33.086226,0.47639 c 0.107704,-0.0526 0.283946,-0.0526 0.391649,0 0.1077,0.0526 0.0196,0.0957 -0.195824,0.0957 -0.215408,0 -0.303529,-0.0431 -0.195825,-0.0957 z m 1.644929,-0.005 c 0.15079,-0.0477 0.39753,-0.0477 0.54831,0 0.15079,0.0477 0.0274,0.0868 -0.27415,0.0868 -0.30158,0 -0.42494,-0.0391 -0.27416,-0.0868 z m 2.62405,0.004 c 1.20155,-0.2292 1.09441,0.10959 1.11617,-3.52951 0.0151,-2.52092 0.0494,-3.03036 0.1501,-2.2257 0.0718,0.57393 0.0985,2.02536 0.0593,3.22539 -0.0799,2.44796 -0.18038,2.67575 -1.15969,2.63037 -0.40434,-0.0187 -0.44992,-0.0464 -0.16589,-0.10055 z m 4.11531,-0.005 c 0.15242,-0.0481 0.36392,-0.0449 0.46998,0.007 0.10606,0.052 -0.0186,0.0913 -0.27714,0.0875 -0.25849,-0.004 -0.34527,-0.0464 -0.19284,-0.0945 z m 5.51928,-0.0952 c -0.17232,-0.11835 -0.35416,-0.28931 -0.40407,-0.37992 -0.0499,-0.0906 -0.0652,-2.78524 -0.034,-5.98808 0.0622,-6.38333 0.0852,-6.54145 0.98745,-6.78144 0.57728,-0.15356 1.20418,0.27092 1.33494,0.90389 0.0482,0.23347 0.10222,1.49171 0.11998,2.7961 l 0.0323,2.37161 0.42822,0.0597 c 0.34533,0.0482 0.57245,-0.12988 1.17327,-0.91981 0.73259,-0.96317 1.39675,-1.51874 1.79809,-1.5041 0.11198,0.004 -0.0431,0.13392 -0.34471,0.28852 -0.30157,0.15461 -0.94394,0.7916 -1.42748,1.41554 -0.9153,1.18107 -1.14108,1.30397 -1.61863,0.88107 -0.295,-0.26124 -0.33174,-0.60194 -0.25912,-2.40283 0.0903,-2.24013 0.0265,-2.94965 -0.30405,-3.37934 -0.40761,-0.52987 -0.81108,-0.52631 -1.32113,0.0117 l -0.40475,0.42689 -0.01,5.87154 c -0.009,5.42108 0.0115,5.89051 0.26929,6.11876 0.65816,0.58284 1.84939,0.10802 1.68135,-0.67019 -0.12058,-0.55843 0.24128,-1.90229 0.56952,-2.11504 0.45479,-0.29477 0.74399,-0.23387 1.11089,0.23394 0.46131,0.58817 1.43565,2.4399 1.34291,2.55221 -0.0416,0.0504 -0.37012,-0.4728 -0.72992,-1.16276 -0.73133,-1.40241 -1.09249,-1.74135 -1.54381,-1.44883 -0.37975,0.24613 -0.48841,0.60865 -0.48841,1.6294 0,0.64004 -0.0789,0.89441 -0.34818,1.12285 -0.40567,0.34412 -1.16199,0.37636 -1.61007,0.0686 z m 5.4831,0.10245 c 0.17233,-0.0441 0.46602,-0.11943 0.65264,-0.16733 0.18991,-0.0487 0.40866,-0.317 0.49678,-0.60923 0.13873,-0.46006 0.15892,-0.47266 0.16982,-0.10601 0.0158,0.53281 -0.54903,1.0131 -1.15827,0.98483 -0.30491,-0.0142 -0.36239,-0.0507 -0.16097,-0.10226 z m 8.29586,-0.34143 c -0.21149,-0.25614 -0.38453,-0.59521 -0.38453,-0.75351 0,-0.15829 -0.16774,-0.74714 -0.37274,-1.30855 -0.20501,-0.5614 -0.49414,-1.60972 -0.64253,-2.32958 -0.14838,-0.71987 -0.43887,-1.7972 -0.64555,-2.39407 -0.20667,-0.59687 -0.37576,-1.17706 -0.37576,-1.2893 0,-0.42274 0.77072,-1.13539 1.20699,-1.11604 0.40921,0.0181 0.40247,0.0295 -0.10272,0.17357 -0.8191,0.23354 -0.97289,0.60874 -0.68608,1.67376 0.13099,0.48637 0.4387,1.66757 0.6838,2.62487 0.2451,0.9573 0.58348,2.15259 0.75194,2.6562 0.16847,0.50361 0.38925,1.18279 0.49062,1.5093 0.10137,0.32651 0.33791,0.68359 0.52564,0.79351 0.18774,0.10992 0.25001,0.20563 0.13839,0.21269 -0.11162,0.007 -0.37598,-0.19672 -0.58747,-0.45285 z m 16.09694,0.1813 c 1.06813,-0.42215 1.59421,-1.52057 0.94695,-1.97715 -0.15079,-0.10637 -0.19696,-0.19599 -0.10261,-0.19916 0.0944,-0.003 0.2975,0.1628 0.45146,0.36883 0.26162,0.35011 0.26307,0.40574 0.0221,0.85113 -0.34323,0.63441 -0.85733,1.02351 -1.51493,1.14659 -0.42811,0.0801 -0.38726,0.0407 0.19703,-0.19024 z m 9.09326,0.15361 c 0.15079,-0.0477 0.39753,-0.0477 0.54831,0 0.15079,0.0477 0.0274,0.0868 -0.27415,0.0868 -0.30157,0 -0.42494,-0.0391 -0.27416,-0.0868 z m 6.41876,-0.16457 c -0.34727,-0.29457 -0.34818,-0.31106 -0.34818,-6.26967 v -5.97432 l 0.38453,-0.4657 c 0.62594,-0.75807 1.50463,-0.56644 1.93978,0.42304 0.205,0.46616 0.26302,11.57302 0.0624,11.93698 -0.35776,0.64891 -1.46236,0.83838 -2.03848,0.34967 z m 1.58161,-0.13153 c 0.23728,-0.21122 0.276,-0.87484 0.35401,-6.06693 l 0.0876,-5.82976 -0.39528,-0.47872 c -0.5162,-0.62516 -1.0811,-0.61571 -1.49728,0.025 -0.31626,0.48693 -0.32687,0.69921 -0.31754,6.35133 0.009,5.30174 0.0346,5.86516 0.27666,6.03611 0.37483,0.26468 1.17519,0.24478 1.49183,-0.0371 z m 3.98207,-0.13318 c -0.80868,-0.6211 -1.56946,-1.77217 -1.84881,-2.79726 -0.24946,-0.91543 -0.0589,-2.75297 0.39792,-3.83699 0.3567,-0.84645 1.45736,-2.32847 1.25501,-1.68985 -0.0553,0.17437 -0.19524,0.36108 -0.31109,0.41493 -0.4052,0.18831 -1.03593,1.80348 -1.19869,3.06963 -0.13831,1.07593 -0.12123,1.39867 0.11362,2.14713 0.49848,1.58866 1.48492,2.74098 2.62933,3.07149 0.44499,0.12851 0.45382,0.14401 0.0921,0.16156 -0.22008,0.0107 -0.72828,-0.2326 -1.12934,-0.54064 z m 3.45836,0.43046 c 0.11309,-0.0548 0.24821,-0.0481 0.30027,0.015 0.0521,0.063 -0.0405,0.10788 -0.20562,0.0996 -0.1825,-0.009 -0.21962,-0.0541 -0.0947,-0.11463 z m 5.32644,0 c 0.11309,-0.0548 0.24821,-0.0481 0.30026,0.015 0.0521,0.063 -0.0405,0.10788 -0.20561,0.0996 -0.1825,-0.009 -0.21962,-0.0541 -0.0947,-0.11463 z m 2.1081,-0.002 c 0.15242,-0.0481 0.36391,-0.0449 0.46998,0.007 0.10606,0.052 -0.0187,0.0913 -0.27714,0.0875 -0.25849,-0.004 -0.34527,-0.0464 -0.19284,-0.0945 z m 2.33499,-0.006 c 0.31656,-0.0405 0.64637,-0.1769 0.73292,-0.3032 0.23247,-0.33924 0.27098,-5.94191 0.0474,-6.8941 -0.11264,-0.47969 -0.40152,-1.01896 -0.73685,-1.37554 -0.57902,-0.61569 -0.54562,-0.79735 0.0532,-0.28938 0.19265,0.16342 0.50795,0.65434 0.70066,1.09094 0.32329,0.73241 0.35039,1.0432 0.35039,4.01817 0,3.6819 -0.0691,3.91648 -1.13578,3.85857 l -0.58748,-0.0319 z m 3.46008,-0.17566 c -0.33481,-0.33969 -0.34731,-0.48388 -0.38648,-4.46139 -0.0374,-3.80186 -0.0183,-4.14005 0.25521,-4.50606 0.31082,-0.41595 1.08508,-0.52807 1.49227,-0.21608 0.14925,0.11435 0.015,0.13939 -0.39252,0.0732 -0.49039,-0.0797 -0.67893,-0.0209 -0.90544,0.28223 -0.25864,0.34612 -0.28489,0.76192 -0.27368,4.33509 0.0119,3.78219 0.0266,3.96653 0.34347,4.28427 0.43849,0.43977 1.00666,0.42042 1.39297,-0.0474 0.2854,-0.34564 0.31332,-0.63243 0.31332,-3.218 0,-2.67573 0.0197,-2.86073 0.34286,-3.22539 0.49719,-0.56097 1.54288,-0.52581 2.1158,0.0711 l 0.43955,0.458 0.0194,2.89476 c 0.0172,2.56232 0.0521,2.9237 0.30409,3.14684 0.38079,0.33721 0.86063,0.31804 1.29663,-0.0518 0.34919,-0.29621 0.35737,-0.3763 0.32304,-3.16241 -0.041,-3.3291 -0.16313,-4.30526 -0.64201,-5.1326 -0.25773,-0.44527 -0.27619,-0.53212 -0.0706,-0.33215 0.69349,0.67458 0.79761,1.27881 0.85661,4.97125 0.0562,3.51529 0.0545,3.53613 -0.30607,3.842 -0.49853,0.4229 -1.26013,0.3868 -1.67323,-0.0793 -0.32246,-0.36383 -0.343,-0.55297 -0.34526,-3.17796 -0.001,-1.53511 -0.0542,-2.88505 -0.11749,-2.99987 -0.38368,-0.69589 -1.5904,-0.85045 -2.07335,-0.26556 -0.28511,0.34529 -0.31332,0.63243 -0.31332,3.18913 0,1.98918 -0.0588,2.90704 -0.20132,3.1431 -0.30614,0.50705 -1.36902,0.61662 -1.79446,0.18499 z M 70.903625,164.24137 c 0.670774,-0.42692 1.441028,-1.35714 1.88715,-2.27908 0.303094,-0.62636 0.384419,-1.0595 0.384419,-2.0474 0,-1.62562 -0.296608,-2.4435 -1.299638,-3.58371 -0.448399,-0.50972 -0.668197,-0.8359 -0.488439,-0.72485 0.425535,0.26291 1.390338,1.5608 1.700885,2.28809 0.159687,0.37399 0.243852,1.08303 0.243852,2.05431 0,1.28569 -0.05507,1.58382 -0.413509,2.23874 -0.785853,1.43583 -1.700421,2.38228 -2.281095,2.36062 -0.111983,-0.004 0.0079,-0.1422 0.266375,-0.30672 z m 23.829786,0.12839 c 0.419138,-0.2051 1.574319,-2.28497 1.777107,-3.19964 0.155305,-0.70049 0.01553,-2.98511 -0.228162,-3.72926 -0.09822,-0.29994 -0.0828,-0.33311 0.0736,-0.15827 0.108825,0.12166 0.266087,0.99486 0.349473,1.94046 0.145551,1.65057 0.135109,1.76302 -0.261324,2.81447 -0.446897,1.18528 -1.409021,2.5255 -1.799127,2.50614 -0.15854,-0.008 -0.127956,-0.068 0.08843,-0.1739 z m 3.855961,-0.43406 c -1.017272,-1.27111 -0.990819,-2.76628 0.07238,-4.09105 l 0.558769,-0.69623 -0.483275,0.70899 c -0.555577,0.81506 -0.86537,1.99236 -0.715086,2.71753 0.05698,0.27498 0.365311,0.83313 0.685171,1.24035 0.319859,0.40722 0.535809,0.7404 0.47989,0.7404 -0.05592,0 -0.324951,-0.279 -0.597849,-0.61999 z m 4.000558,0.4858 c 0.19487,-0.0454 0.47686,-0.0437 0.62664,0.004 0.14978,0.0475 -0.01,0.0846 -0.35432,0.0825 -0.34465,-0.002 -0.46719,-0.041 -0.27232,-0.0863 z m 4.71752,-0.17903 c -0.25376,-0.3703 -0.38749,-4.12032 -0.18699,-5.24333 0.0874,-0.48965 0.12827,0.18081 0.12827,2.10515 0,2.1143 0.054,2.90248 0.21501,3.13751 0.11825,0.17264 0.17976,0.31389 0.13668,0.31389 -0.0431,0 -0.17492,-0.14095 -0.29297,-0.31322 z m 1.62036,0.0761 c 0.1991,-0.18837 0.2639,-0.72512 0.3149,-2.60877 0.075,-2.76831 0.2486,-3.26853 1.47087,-4.23748 0.91435,-0.72486 1.21865,-1.49867 0.75599,-1.92246 -0.16739,-0.15333 -0.23384,-0.27877 -0.14768,-0.27877 0.0862,0 0.2816,0.1148 0.4343,0.25512 0.3731,0.34286 0.15268,1.04277 -0.5199,1.65079 -0.94921,0.8581 -1.54754,1.69975 -1.70906,2.40408 -0.089,0.38816 -0.16223,1.5638 -0.16271,2.61252 -8.4e-4,1.83487 -0.11962,2.36213 -0.53213,2.36213 -0.0854,0 -0.0425,-0.10673 0.0954,-0.23716 z m 42.47595,-0.2846 c -0.25914,-0.28696 -0.71081,-0.94864 -1.00371,-1.4704 -0.44264,-0.78848 -0.54242,-1.15755 -0.591,-2.18604 -0.079,-1.67295 0.17364,-2.66835 0.95842,-3.77572 0.57989,-0.81827 1.4503,-1.49166 1.63654,-1.26611 0.0356,0.0431 -0.0992,0.13848 -0.29956,0.2119 -1.04542,0.38312 -1.98846,2.18384 -2.11713,4.04261 -0.0787,1.1369 -0.0404,1.45145 0.27172,2.23234 0.19983,0.49993 0.69,1.31942 1.08925,1.82107 0.78506,0.98642 0.82079,1.23785 0.0555,0.39035 z m 17.4415,0.15174 c 0.46979,-0.34692 0.83246,-0.91023 0.83246,-1.29301 0,-0.0936 -0.17613,-0.2843 -0.39141,-0.42384 -0.21528,-0.13953 -0.35847,-0.29359 -0.31821,-0.34235 0.15289,-0.18516 0.86628,0.55696 0.86628,0.90117 0,0.4455 -0.86928,1.5283 -1.22616,1.52734 -0.16417,-4.5e-4 -0.0756,-0.13844 0.23704,-0.36931 z m 3.61759,0.13286 c -0.45998,-0.43411 -0.90403,-1.55631 -0.90462,-2.28617 -7.2e-4,-0.88696 0.28255,-1.57081 0.95885,-2.31476 0.50419,-0.55462 0.50277,-0.54884 -0.0555,0.22584 -0.96773,1.34289 -0.94596,3.10812 0.0509,4.12394 0.47562,0.48469 0.43198,0.70564 -0.0496,0.25115 z m 3.83376,0.10637 c 0.15078,-0.0477 0.39752,-0.0477 0.54831,0 0.15078,0.0477 0.0274,0.0868 -0.27416,0.0868 -0.30157,0 -0.42494,-0.0391 -0.27415,-0.0868 z m -75.7214,-1.78657 c -0.579472,-0.75126 -0.57321,-1.15333 0.0275,-1.76549 0.71668,-0.73034 1.58448,-0.68268 2.19005,0.12028 0.25363,0.33631 0.46114,0.71161 0.46114,0.834 0,0.31691 -1.4468,1.40046 -1.86994,1.40046 -0.19484,0 -0.55877,-0.26516 -0.80875,-0.58925 z m 2.13038,-0.45446 0.46998,-0.47011 -0.51161,-0.57119 c -0.56783,-0.63394 -1.07282,-0.71693 -1.75663,-0.28868 -0.59403,0.37203 -0.74266,0.95904 -0.36993,1.46104 0.60178,0.8105 1.2671,0.77028 2.16819,-0.13106 z m 17.07146,0.46469 c -0.16986,-0.30704 -0.36171,-0.5585 -0.42634,-0.5588 -0.0646,-3e-4 -0.11749,-0.0799 -0.11749,-0.17686 0,-0.097 -0.284,-0.69414 -0.63112,-1.32704 -0.60102,-1.09586 -0.62023,-1.17566 -0.40295,-1.67354 0.12549,-0.28755 0.59058,-0.97155 1.03354,-1.52 0.89459,-1.10765 0.97978,-1.67179 0.31385,-2.07836 -0.24414,-0.14906 -0.29754,-0.24017 -0.14178,-0.24191 0.41085,-0.005 0.81767,0.68237 0.71046,1.1997 -0.0523,0.25238 -0.48364,0.93701 -0.95853,1.5214 -0.54957,0.67631 -0.86343,1.2235 -0.86343,1.50536 0,0.24355 0.42474,1.19664 0.94386,2.11798 0.51912,0.92134 0.92246,1.70108 0.89631,1.73275 -0.0262,0.0317 -0.18653,-0.19363 -0.35638,-0.50068 z m 54.75283,0.25571 c -0.84873,-0.70844 -0.97861,-1.28656 -0.42651,-1.89855 0.78886,-0.87444 1.98081,-0.78856 2.466,0.17768 0.37222,0.74126 0.22222,1.14112 -0.62425,1.66411 -0.74982,0.46328 -0.92005,0.4701 -1.41524,0.0568 z m 1.53174,-0.43352 c 0.28062,-0.20721 0.50914,-0.53433 0.50914,-0.7288 0,-1.03511 -1.52756,-1.44788 -2.26274,-0.61143 -0.49504,0.56324 -0.4964,0.67004 -0.016,1.25191 0.46862,0.56753 1.07929,0.59801 1.76955,0.0883 z m -107.844786,0.0425 c -0.09913,-0.0767 0.227712,-0.14222 0.72631,-0.14568 1.023634,-0.007 1.293811,-0.20217 1.736941,-1.25413 0.3878,-0.92061 0.378878,-1.18752 -0.07956,-2.37998 -0.325623,-0.847 -0.467361,-1.01649 -1.01676,-1.21584 -0.813092,-0.29503 -1.736868,0.005 -2.196586,0.71236 -0.447299,0.68868 -0.427967,2.02299 0.04573,3.15616 0.202099,0.48346 0.306837,0.83365 0.232752,0.7782 -0.343612,-0.25719 -0.756864,-1.64441 -0.756864,-2.54067 0,-1.19153 0.297963,-1.77361 1.109104,-2.16667 1.212368,-0.58749 2.078083,-0.24013 2.722972,1.09257 0.502671,1.0388 0.503629,1.86457 0.0034,2.8984 -0.298997,0.61789 -0.535805,0.86258 -0.979125,1.01169 -0.682439,0.22953 -1.293437,0.25068 -1.548276,0.0536 z m 23.346305,-0.21777 c -0.476929,-0.35221 -0.99869,-1.66507 -0.99869,-2.51292 0,-0.73132 0.514208,-1.86949 1.013422,-2.24314 1.388875,-1.03957 2.961913,0.21307 2.973648,2.36796 0.01174,2.15635 -1.579879,3.42826 -2.98838,2.3881 z m 2.133855,-0.36597 c 0.654566,-0.79273 0.843873,-1.83642 0.533313,-2.94026 -0.301037,-1.06999 -0.854672,-1.64321 -1.587069,-1.64321 -0.762254,0 -1.402169,0.52088 -1.682562,1.36958 -0.313723,0.94957 -0.303048,1.24076 0.08718,2.37796 0.360338,1.0501 0.705343,1.34304 1.604388,1.3623 0.45837,0.01 0.704352,-0.11411 1.04475,-0.52637 z m 46.959476,0.33656 c -0.32311,-0.20658 -0.58748,-0.48455 -0.58748,-0.61772 0,-0.57671 0.38786,-0.69746 2.24024,-0.69746 h 1.86425 l 0.53265,-0.64508 c 0.40155,-0.48631 0.53264,-0.80748 0.53264,-1.30493 0,-2.1305 -1.71977,-3.90464 -3.82691,-3.94789 -0.72534,-0.0149 -0.75361,-0.0313 -0.32458,-0.18847 0.35027,-0.12832 0.76178,-0.0679 1.61557,0.2372 0.97745,0.34928 1.23648,0.53707 1.76478,1.27941 0.81231,1.14143 1.16,2.47249 0.86383,3.30696 -0.47862,1.3485 -0.68066,1.45253 -2.82116,1.45253 -1.5037,0 -1.97513,0.0615 -2.12282,0.27706 -0.15614,0.22784 -0.0969,0.34812 0.3333,0.6771 0.44945,0.34368 0.69975,0.38857 1.77644,0.31861 0.69906,-0.0454 1.08009,-0.0176 0.86163,0.0629 -0.76728,0.28276 -2.09257,0.17967 -2.70238,-0.21022 z m 25.05713,0.0736 c -0.50195,-0.25201 -0.58843,-0.37764 -0.54831,-0.79657 l 0.0476,-0.49738 1.98686,-0.0949 c 1.69885,-0.0811 2.05084,-0.15263 2.42823,-0.49336 0.53043,-0.47891 0.59744,-0.89024 0.36547,-2.2435 -0.12796,-0.74646 -0.35408,-1.27858 -0.8261,-1.94397 -0.36141,-0.50947 -0.45513,-0.70561 -0.21113,-0.44185 0.68863,0.7444 1.03305,1.42725 1.26554,2.50906 0.18827,0.87609 0.18466,1.07887 -0.029,1.6259 -0.37469,0.95954 -0.8866,1.17745 -2.76609,1.17745 -1.76233,0 -2.1355,0.0853 -2.1355,0.48794 0,0.39135 0.60252,0.70157 1.64492,0.84691 l 0.93996,0.13106 -0.7833,0.0162 c -0.43081,0.009 -1.05147,-0.11845 -1.37923,-0.28301 z m 2.43967,-0.002 c 0.15243,-0.0481 0.36392,-0.0449 0.46998,0.007 0.10606,0.052 -0.0187,0.0913 -0.27714,0.0875 -0.25848,-0.004 -0.34526,-0.0464 -0.19284,-0.0945 z m -15.68666,-0.50488 c -0.39696,-0.51173 -0.63915,-1.9933 -0.47878,-2.92882 0.14475,-0.84441 0.51164,-1.28987 1.34589,-1.63413 0.63551,-0.26225 0.75996,-0.26004 1.34598,0.0239 0.35515,0.1721 0.56641,0.34493 0.46947,0.38406 -0.0969,0.0391 -0.37489,-0.048 -0.61768,-0.19359 -0.58277,-0.3495 -1.51657,-0.0319 -2.02948,0.69026 -0.6161,0.86746 -0.48414,2.82856 0.25018,3.71789 0.17577,0.21287 0.26137,0.38703 0.19023,0.38703 -0.0711,0 -0.28526,-0.20098 -0.47581,-0.44663 z m -24.6122,-3.19271 c -0.17425,-0.34626 -0.39735,-1.12389 -0.49579,-1.72807 -0.11844,-0.72702 -0.28941,-1.1922 -0.50553,-1.37553 -0.17961,-0.15236 -0.25131,-0.27702 -0.15933,-0.27702 0.30215,0 0.63844,0.64821 0.82968,1.59927 0.10344,0.51436 0.33175,1.17958 0.50735,1.47826 0.27074,0.46047 0.35648,0.50578 0.56392,0.29802 0.2863,-0.28677 0.97431,-2.00674 0.97654,-2.44127 0.002,-0.47135 0.73757,-1.18725 1.21919,-1.18725 0.52137,0 1.2889,0.56537 1.2889,0.94942 0,0.16876 -0.14038,0.0757 -0.36686,-0.24317 -0.40171,-0.5656 -1.15759,-0.69957 -1.57574,-0.27928 -0.12982,0.13048 -0.34456,0.67832 -0.47719,1.21742 -0.31476,1.27942 -0.88829,2.4788 -1.2226,2.55677 -0.16529,0.0386 -0.38548,-0.17598 -0.58254,-0.56757 z m 45.39712,0.47408 c 0.11309,-0.0548 0.24821,-0.0481 0.30026,0.015 0.0521,0.0631 -0.0405,0.10789 -0.20561,0.0996 -0.1825,-0.009 -0.21962,-0.0541 -0.0947,-0.11462 z m -96.284282,-1.71083 c -0.0265,-1.43581 -0.08086,-1.77988 -0.30637,-1.93895 -0.150785,-0.10636 -0.194666,-0.19598 -0.09751,-0.19915 0.414505,-0.0135 0.540119,0.55336 0.488537,2.20478 l -0.05244,1.67889 z m 24.641732,1.4749 c 0.96223,-0.0955 1.09661,-0.15529 1.09661,-0.48825 0,-0.61831 -0.93082,-1.07829 -1.95824,-0.96769 l -0.861634,0.0928 0.697124,-0.19782 c 0.86676,-0.24595 1.67178,0.0109 2.21047,0.70539 0.37438,0.48265 0.37599,0.49836 0.0782,0.76211 -0.20084,0.17786 -0.65301,0.25793 -1.33161,0.2358 l -1.02751,-0.0335 z m 38.64333,-0.13936 c -0.24444,-0.23971 -0.3249,-0.46031 -0.25191,-0.69066 0.12626,-0.39847 1.16433,-1.08119 1.64395,-1.08119 0.80432,0 1.82999,1.26412 1.42431,1.75544 -0.10443,0.12647 -0.70002,0.26115 -1.32354,0.29928 -0.92796,0.0567 -1.19883,0.005 -1.49281,-0.28287 z m 2.55909,-0.13645 c 0.28346,-0.25103 0.27546,-0.28644 -0.193,-0.85378 -0.2991,-0.36224 -0.64838,-0.59189 -0.90021,-0.59189 -0.479,0 -1.1863,0.40689 -1.49803,0.8618 -0.18877,0.27546 -0.17808,0.35269 0.0805,0.58169 0.39332,0.34831 2.11818,0.34981 2.51073,0.002 z m 22.51901,0.25597 c -0.46638,-0.22703 -0.4456,-0.6666 0.0582,-1.23212 0.82151,-0.92206 2.05441,-0.7324 2.67313,0.4112 0.25381,0.46913 0.25241,0.50624 -0.0285,0.75497 -0.3347,0.29641 -2.13905,0.34043 -2.7029,0.066 z m 2.54518,-0.25474 c 0.28257,-0.25023 0.27702,-0.28009 -0.13909,-0.74713 -0.59351,-0.66615 -1.18179,-0.78999 -1.86855,-0.39337 -1.17649,0.67946 -0.78766,1.40115 0.7549,1.40115 0.56553,0 1.07907,-0.10685 1.25274,-0.26065 z m 6.30611,0.31649 c 0.19386,-0.0452 0.5111,-0.0452 0.70497,0 0.19386,0.0452 0.0352,0.0822 -0.35249,0.0822 -0.38773,0 -0.54635,-0.037 -0.35248,-0.0822 z m 1.71188,0.002 c 0.57885,-0.13646 0.72121,-0.52 0.34523,-0.93005 -0.27418,-0.29903 -0.5625,-0.35808 -1.68354,-0.34481 -0.85064,0.0101 -1.17826,-0.0344 -0.88272,-0.11985 0.94964,-0.27452 2.0196,-0.19188 2.54573,0.19662 0.28003,0.20678 0.50914,0.50228 0.50914,0.65667 0,0.3307 -0.48629,0.68439 -0.89049,0.64768 -0.21533,-0.0196 -0.20157,-0.0454 0.0566,-0.10626 z m -68.84915,-1.9916 c -0.0271,-1.1201 0.0104,-1.30475 0.31749,-1.56526 0.38058,-0.32284 0.96378,-0.36323 1.45341,-0.10066 0.21559,0.11561 0.11216,0.13473 -0.33161,0.0613 -1.05523,-0.17457 -1.28986,0.10201 -1.35384,1.59591 l -0.0548,1.2786 z m 48.82538,0.79584 c 0.74828,-0.2141 1.00996,-0.58106 0.8279,-1.16099 -0.0807,-0.25715 -0.24225,-0.55866 -0.35893,-0.67002 -0.40277,-0.38441 -1.75867,-0.82544 -2.53773,-0.82544 -0.42982,0 -0.74194,-0.0479 -0.69358,-0.10648 0.33572,-0.40658 2.69534,0.19366 3.3113,0.84234 0.35685,0.3758 0.5897,1.06664 0.47816,1.41867 -0.10535,0.33249 -0.76116,0.69715 -1.20848,0.67198 -0.23437,-0.0132 -0.17617,-0.0678 0.18136,-0.17006 z m -51.04931,-0.37916 c 0,-0.2084 -0.25648,-0.74201 -0.56996,-1.1858 l -0.56997,-0.8069 0.6483,0.799 c 0.35656,0.43945 0.64829,0.97307 0.64829,1.18581 0,0.21274 -0.0352,0.3868 -0.0783,0.3868 -0.0431,0 -0.0783,-0.17051 -0.0783,-0.37891 z m -5.875613,-0.19144 c -0.40047,-0.53592 -0.230023,-0.58574 0.191096,-0.0559 0.190788,0.24007 0.289835,0.43648 0.220105,0.43648 -0.06973,0 -0.25477,-0.17128 -0.411201,-0.38062 z m 73.564083,-0.11929 c -0.39281,-0.60479 -0.40757,-0.88865 -0.0641,-1.23185 0.23634,-0.23611 0.24313,-0.22059 0.0728,0.1665 -0.21257,0.48314 -0.044,1.03948 0.4126,1.36164 0.14973,0.10565 0.18923,0.19468 0.0878,0.19785 -0.10145,0.003 -0.33057,-0.21919 -0.50915,-0.49414 z m -76.943617,-0.83177 c -0.308288,-0.41543 -0.514444,-0.75533 -0.458123,-0.75533 0.101227,0 0.525256,0.54196 0.927768,1.1858 0.365126,0.58404 0.108983,0.34927 -0.469645,-0.43047 z m -36.137069,0.0361 c -0.525203,-0.66463 -0.955028,-1.33114 -1.142284,-1.77129 -0.230369,-0.54149 -0.05852,-0.32946 0.64038,0.79013 0.551142,0.88288 0.764815,1.13049 0.97987,1.13547 0.233047,0.005 1.209238,-1.41157 1.925983,-2.7956 0.391788,-0.75654 0.79012,-1.37553 0.885182,-1.37553 0.09506,0 0.03369,0.1921 -0.136383,0.42689 -0.170072,0.23479 -0.566367,0.9097 -0.880655,1.4998 -0.742383,1.39389 -1.503957,2.43707 -1.779177,2.43707 -0.120319,0 -0.342131,-0.15612 -0.492916,-0.34694 z m 39.474577,-0.52178 c 0.148734,-0.18806 0.304146,-0.30109 0.34536,-0.25118 0.04121,0.0499 -0.08048,0.20379 -0.270425,0.34194 -0.329974,0.23999 -0.333312,0.23595 -0.07493,-0.0908 z m 10.502929,-0.2114 c 0.15242,-0.0481 0.36392,-0.045 0.46998,0.007 0.10606,0.052 -0.0187,0.0913 -0.27714,0.0875 -0.25849,-0.004 -0.34527,-0.0464 -0.19284,-0.0945 z m 55.25882,-0.0582 c 0.12924,-0.10116 0.30548,-0.18392 0.39165,-0.18392 0.0862,0 0.0509,0.0828 -0.0783,0.18392 -0.12925,0.10115 -0.30549,0.18392 -0.39165,0.18392 -0.0862,0 -0.0509,-0.0828 0.0783,-0.18392 z m 8.30297,0.009 c 0.12925,-0.10593 0.37011,-0.1939 0.53526,-0.1955 0.4008,-0.004 0.27576,0.10472 -0.30027,0.26076 -0.34323,0.093 -0.4066,0.0754 -0.23499,-0.0653 z m 10.0654,0.0503 c 0.15079,-0.0477 0.39753,-0.0477 0.54831,0 0.15079,0.0477 0.0274,0.0868 -0.27415,0.0868 -0.30157,0 -0.42494,-0.0391 -0.27416,-0.0868 z m -93.173501,-0.24867 c -0.197492,-0.10278 -0.226449,-0.16306 -0.07833,-0.16306 0.129244,0 0.375984,0.0734 0.54831,0.16306 0.197491,0.10278 0.226449,0.16306 0.07833,0.16306 -0.129245,0 -0.375984,-0.0734 -0.54831,-0.16306 z m 9.761873,0.0601 c 0.113089,-0.0548 0.248208,-0.0481 0.300265,0.015 0.05206,0.063 -0.04047,0.10789 -0.205616,0.0996 -0.1825,-0.009 -0.219622,-0.0541 -0.09465,-0.11463 z m 3.240898,-0.0601 c -0.20659,-0.10752 -0.23327,-0.16661 -0.0783,-0.17349 0.12925,-0.006 0.34074,0.0723 0.46998,0.17349 0.28637,0.22413 0.039,0.22413 -0.39165,0 z m 7.44135,0.009 c 0.12925,-0.10593 0.37011,-0.1939 0.53526,-0.1955 0.4008,-0.004 0.27576,0.10472 -0.30027,0.26077 -0.34323,0.093 -0.4066,0.0754 -0.23499,-0.0653 z m 74.35587,-0.2102 0.80402,-0.4015 0.68425,0.3988 c 0.37634,0.21934 0.54325,0.33616 0.37093,0.2596 -0.3889,-0.17276 -1.74597,-0.16547 -2.27157,0.0122 -0.21541,0.0728 -0.0298,-0.0483 0.41237,-0.2691 z m -115.322445,-0.0909 -0.783299,-0.25596 0.704969,0.10581 c 0.387734,0.0582 0.810716,0.17898 0.93996,0.2684 0.318724,0.22054 0.07116,0.18656 -0.86163,-0.11825 z m 24.438953,0.10266 c -0.206594,-0.10752 -0.233276,-0.16661 -0.07833,-0.17349 0.129244,-0.006 0.340735,0.0723 0.46998,0.17349 0.286369,0.22413 0.03902,0.22413 -0.39165,0 z m 6.472012,0.0601 c 0.11309,-0.0548 0.24821,-0.0481 0.30027,0.015 0.052,0.0631 -0.0405,0.10789 -0.20562,0.0996 -0.1825,-0.009 -0.21962,-0.0541 -0.0947,-0.11463 z m 65.19992,-0.024 c 0.39182,-0.30393 1.25327,-0.46952 1.25327,-0.2409 0,0.11264 -0.20572,0.2048 -0.45716,0.2048 -0.25144,0 -0.5863,0.0491 -0.74414,0.10919 -0.22963,0.0874 -0.24001,0.0728 -0.052,-0.0731 z m 1.72325,-0.0361 c -0.28636,-0.22413 -0.039,-0.22413 0.39165,0 0.2066,0.10752 0.23328,0.16661 0.0783,0.17349 -0.12924,0.006 -0.34073,-0.0723 -0.46998,-0.17349 z m 7.31436,-0.0709 c 0.38241,-0.0978 0.95906,-0.0929 1.40594,0.012 0.69777,0.16372 0.64655,0.17682 -0.64831,0.1658 -1.20686,-0.0103 -1.31414,-0.0354 -0.75763,-0.17776 z m -106.352818,-0.0587 c 0.113089,-0.0548 0.248208,-0.0481 0.300265,0.015 0.05206,0.0631 -0.04047,0.10789 -0.205616,0.0996 -0.1825,-0.009 -0.219622,-0.0541 -0.09465,-0.11463 z m 24.468326,-0.0514 c 0.129245,-0.10592 0.370109,-0.19389 0.535255,-0.19549 0.400806,-0.004 0.275762,0.10471 -0.300265,0.26076 -0.343229,0.093 -0.406604,0.0754 -0.23499,-0.0653 z m 8.579942,0.0436 c 0.28157,-0.0422 0.70455,-0.0414 0.93996,0.002 0.2354,0.0433 0.005,0.0778 -0.51195,0.0768 -0.51698,-0.001 -0.70959,-0.0365 -0.42801,-0.0787 z m -43.515183,-1.66506 c -0.18642,-0.36531 -0.489844,-0.7922 -0.674275,-0.94865 -0.18443,-0.15645 -0.261434,-0.28445 -0.171118,-0.28445 0.09031,0 0.308162,0.1921 0.484104,0.42689 0.393776,0.52548 0.89747,1.4704 0.783806,1.4704 -0.04596,0 -0.236097,-0.29889 -0.422517,-0.66419 z m 124.074753,-12.1256 c -2.97631,-0.89949 -4.91223,-2.14397 -6.94127,-4.46211 -1.91877,-2.19215 -3.04665,-4.49833 -3.83304,-7.83745 -0.38194,-1.62179 -0.41327,-2.02788 -0.40645,-5.26725 0.008,-3.75489 0.008,-3.75767 1.1749,-7.39942 0.85798,-2.67843 3.67379,-6.25429 6.16769,-7.83248 3.09915,-1.9612 7.44274,-2.59044 10.83491,-1.5696 1.85598,0.55854 3.33206,1.18012 3.66847,1.54482 0.13603,0.14746 0.29852,0.26811 0.36108,0.26811 0.33462,0 2.05747,1.67119 3.1658,3.07088 1.663,2.10015 2.38464,3.57333 3.32856,6.79502 0.39921,1.36253 0.41671,1.58412 0.41219,5.21754 -0.004,3.28862 -0.0494,3.98773 -0.34007,5.24327 -0.58213,2.5149 -2.14257,5.73362 -3.53866,7.29919 -1.98415,2.22504 -2.43004,2.61021 -4.22333,3.64823 -1.93718,1.12131 -3.65565,1.5802 -6.2276,1.66297 -1.82401,0.0587 -2.31962,0.006 -3.60318,-0.38172 z m 5.61716,-8.57136 c 0.8403,-0.28803 1.17646,-0.54576 2.15407,-1.65145 0.63711,-0.72059 1.15839,-1.40173 1.15839,-1.51364 0,-0.11192 0.11263,-0.35421 0.2503,-0.53844 0.80077,-1.07163 1.11453,-5.76994 0.54609,-8.17728 -0.52607,-2.22786 -1.83858,-4.14172 -3.61627,-5.27311 -0.62781,-0.39956 -0.9193,-0.45006 -2.66322,-0.46143 -1.92538,-0.0125 -1.97511,-0.002 -2.96256,0.62199 -1.33121,0.84135 -2.47917,2.27256 -3.14319,3.91874 l -0.53572,1.3281 -0.002,3.03566 -0.002,3.03566 0.57454,1.42297 c 0.96309,2.38531 2.4196,3.92835 4.11346,4.35786 0.51698,0.13109 1.01046,0.26989 1.09662,0.30845 0.33464,0.14977 2.08439,-0.0892 3.03227,-0.41408 z m -31.77937,8.61642 c -0.56006,-0.0967 -1.16959,-0.29576 -1.35452,-0.44238 -0.71459,-0.56656 -1.42555,-1.90067 -1.76889,-3.31929 -0.49107,-2.02903 -1.48398,-5.96279 -2.20288,-8.72752 -1.27989,-4.92213 -1.69908,-6.61058 -2.19034,-8.82239 -0.27813,-1.25221 -0.60031,-2.57557 -0.71595,-2.94079 -0.11565,-0.36523 -0.25456,-0.96288 -0.30869,-1.32811 -0.16858,-1.13744 -0.25085,-1.35154 -0.49626,-1.29145 -0.28278,0.0692 -0.66762,1.24216 -1.22515,3.73406 -0.22474,1.00446 -0.71538,3.02158 -1.09031,4.48249 -0.37494,1.46091 -0.83539,3.29654 -1.02324,4.07917 -0.68585,2.85755 -1.13354,4.67347 -1.42663,5.78673 -0.16484,0.6261 -0.30139,1.30913 -0.30344,1.51783 -0.002,0.2087 -0.13994,0.72097 -0.30642,1.13837 -0.16648,0.4174 -0.30474,0.88698 -0.30725,1.04351 -0.003,0.15652 -0.19541,0.92492 -0.42867,1.70756 -0.48497,1.62718 -1.42727,2.90221 -2.38231,3.2235 -0.75208,0.25301 -3.22708,0.24139 -4.00979,-0.0188 -0.34466,-0.11458 -0.91686,-0.4947 -1.27157,-0.8447 -0.7043,-0.69495 -1.05509,-1.59101 -1.62949,-4.16239 -0.18648,-0.8348 -0.50131,-2.11547 -0.69963,-2.84593 -0.19832,-0.73045 -0.51357,-2.01112 -0.70056,-2.84593 -0.18699,-0.83481 -0.47574,-2.07279 -0.64166,-2.75107 -0.16592,-0.67828 -0.40263,-1.70281 -0.52602,-2.27674 -0.12339,-0.57393 -0.37678,-1.64115 -0.5631,-2.37161 -0.18631,-0.73045 -0.47035,-1.88306 -0.63119,-2.56134 -0.16085,-0.67828 -0.44041,-1.83088 -0.62124,-2.56133 -0.18083,-0.73046 -0.46514,-1.92575 -0.63179,-2.65621 -0.30859,-1.35259 -0.64923,-2.74724 -1.25121,-5.12267 -0.84994,-3.35387 -1.7157,-7.48411 -1.71867,-8.19914 -0.003,-0.69361 0.48046,-2.197831 0.90135,-2.805129 0.71452,-1.030965 1.64273,-1.450069 3.21156,-1.450069 1.11441,0 1.51501,0.0805 2.04313,0.410579 1.25592,0.784948 1.86913,1.825913 2.23295,3.790559 0.33137,1.78942 1.31561,6.48726 1.62974,7.77888 0.28057,1.1536 0.70373,3.12819 1.4434,6.73537 0.37111,1.8098 0.74819,3.50967 1.34373,6.05754 0.409,1.7498 0.72859,2.39203 0.88804,1.78454 0.0365,-0.13911 0.21853,-0.89327 0.40449,-1.6759 0.18595,-0.78263 0.50256,-2.0633 0.70358,-2.84593 0.20102,-0.78263 0.40185,-1.63641 0.44628,-1.89729 0.0444,-0.26088 0.19521,-0.90121 0.33505,-1.42296 0.40779,-1.5214 0.80194,-3.1145 1.17355,-4.74322 0.19047,-0.83481 0.48079,-1.94637 0.64515,-2.47014 0.16436,-0.52377 0.29781,-1.07873 0.29656,-1.23324 -0.001,-0.15451 0.14799,-0.87857 0.33164,-1.60903 0.18364,-0.73045 0.47172,-1.92574 0.64016,-2.6562 0.65041,-2.82054 0.84071,-3.41479 1.37581,-4.296188 0.74772,-1.231608 1.61544,-1.680617 3.24513,-1.679208 1.69411,0.0015 2.35276,0.261169 3.12501,1.232181 0.69463,0.873411 1.10461,2.138035 1.78377,5.502135 0.1896,0.93915 0.40513,1.84604 0.47895,2.01529 0.0738,0.16926 0.23648,0.85228 0.36148,1.51783 0.12499,0.66555 0.38025,1.80774 0.56724,2.53819 0.187,0.73046 0.44931,1.84037 0.58291,2.46648 0.13361,0.6261 0.45054,1.99215 0.70429,3.03566 0.25374,1.04351 0.55406,2.34124 0.66736,2.88385 0.1133,0.54261 0.31117,1.3537 0.43969,1.80242 0.12853,0.44872 0.39486,1.47754 0.59185,2.28626 0.42416,1.74134 0.77481,1.96451 1.04336,0.66405 0.0916,-0.44349 0.2414,-1.06248 0.33292,-1.37553 0.0915,-0.31306 0.26807,-1.08146 0.39233,-1.70756 0.12427,-0.62611 0.38073,-1.8214 0.56992,-2.6562 0.18918,-0.83481 0.47143,-2.15817 0.62721,-2.9408 0.46095,-2.31574 1.51453,-7.23042 1.76926,-8.2532 0.12995,-0.52175 0.39366,-1.80242 0.58601,-2.84593 0.68674,-3.72548 1.21856,-4.882971 2.65833,-5.785743 0.56757,-0.355886 0.94922,-0.441536 1.95825,-0.439472 1.84992,0.0038 2.84574,0.689206 3.64689,2.510155 0.33548,0.76251 0.37309,1.04369 0.30659,2.29209 -0.0702,1.31734 -0.67575,4.26384 -1.05071,5.11235 -0.0887,0.20066 -0.16123,0.53942 -0.16123,0.75279 0,0.21337 -0.14657,0.96604 -0.32573,1.6726 -0.17915,0.70656 -0.49182,1.96767 -0.69482,2.80248 -0.203,0.83481 -0.51466,2.09592 -0.69256,2.80248 -0.17791,0.70656 -0.32347,1.44319 -0.32347,1.63696 0,0.19376 -0.11168,0.67603 -0.24819,1.07171 -0.13651,0.39567 -0.37926,1.32391 -0.53944,2.06275 -0.16018,0.73884 -0.40143,1.81293 -0.53611,2.38686 -0.13468,0.57393 -0.38167,1.64115 -0.54886,2.37161 -0.16719,0.73045 -0.40573,1.7123 -0.5301,2.18188 -0.12437,0.46958 -0.37968,1.5368 -0.56737,2.37161 -0.18769,0.8348 -0.413,1.77396 -0.5007,2.08701 -0.16236,0.57961 -0.60523,2.46249 -0.98176,4.17403 -0.82242,3.73828 -1.4779,4.80637 -3.25473,5.30347 -1.15284,0.32252 -1.58725,0.33245 -3.10227,0.0709 z m 47.93794,-0.1241 c -0.97459,-0.43868 -1.46219,-0.87339 -1.96469,-1.75155 -0.36239,-0.6333 -0.43194,-0.95565 -0.44014,-2.03969 -0.0119,-1.57934 0.0922,-1.80796 2.48005,-5.44333 1.73408,-2.64008 3.16135,-4.86857 4.42197,-6.90435 0.36246,-0.58534 0.66208,-1.24011 0.66581,-1.45505 0.004,-0.21494 -0.29283,-0.8189 -0.65902,-1.34214 -0.3662,-0.52323 -1.51177,-2.3395 -2.54573,-4.03614 -1.03395,-1.69664 -2.24832,-3.67992 -2.69859,-4.40728 -1.21752,-1.96675 -1.4044,-3.35782 -0.68069,-5.06679 0.33545,-0.79214 0.76156,-1.29206 1.65251,-1.93878 1.20518,-0.87479 3.62276,-0.44755 4.57195,0.80798 0.1816,0.2402 0.85448,1.37589 1.4953,2.52375 3.38786,6.06849 3.44853,6.16618 3.82923,6.16618 0.20254,0 0.36826,-0.0801 0.36826,-0.17802 0,-0.0979 0.21185,-0.45893 0.47078,-0.80226 0.25893,-0.34334 0.51042,-0.77549 0.55887,-0.96035 0.0485,-0.18486 0.1575,-0.33611 0.24234,-0.33611 0.0848,0 0.22797,-0.25614 0.31808,-0.56919 0.0901,-0.31305 0.22919,-0.56919 0.30905,-0.56919 0.0799,0 0.21425,-0.1921 0.29862,-0.42689 0.0844,-0.23479 0.3966,-0.81109 0.69384,-1.28066 0.29724,-0.46958 0.79715,-1.30739 1.11092,-1.8618 0.31376,-0.55441 0.76772,-1.25239 1.0088,-1.55106 1.4567,-1.80475 3.82529,-1.8895 5.35942,-0.19178 0.45119,0.49929 0.90174,1.94519 0.90536,2.90541 0.004,1.02183 -0.4876,2.58949 -1.03675,3.30711 -0.19498,0.25479 -0.79485,1.20233 -1.33304,2.10564 -0.5382,0.90331 -1.01954,1.68508 -1.06964,1.73725 -0.0501,0.0522 -0.36217,0.55805 -0.69346,1.12416 -0.3313,0.56611 -0.66464,1.12106 -0.74077,1.23323 -0.65552,0.9659 -1.76321,2.7378 -1.88801,3.02012 -0.20505,0.4639 -0.0642,1.06057 0.3888,1.64676 0.20343,0.26324 0.82822,1.24509 1.38844,2.18188 1.62612,2.7192 3.40316,5.58809 4.28687,6.92079 0.44976,0.67828 0.93247,1.50648 1.07269,1.84044 0.2827,0.67329 0.35267,2.80725 0.0983,2.99765 -0.0862,0.0645 -0.15666,0.27427 -0.15666,0.46619 0,0.62697 -1.10718,1.73282 -2.11707,2.11454 -0.51579,0.19496 -1.12539,0.35573 -1.35466,0.35727 -0.69549,0.005 -2.22228,-0.65836 -2.6447,-1.14848 -0.56534,-0.65595 -2.09593,-3.14362 -3.63224,-5.90349 -2.28205,-4.09956 -2.38261,-4.21205 -2.89439,-3.23802 -0.15079,0.28696 -0.31811,0.56444 -0.37185,0.61662 -0.0537,0.0522 -0.28137,0.43637 -0.50586,0.85378 -0.22449,0.4174 -0.69043,1.22849 -1.03542,1.80242 -0.34499,0.57393 -0.88963,1.51309 -1.21031,2.08701 -0.72392,1.29561 -1.51165,2.49096 -2.32773,3.53224 -0.46643,0.59515 -0.85309,0.87641 -1.51238,1.10014 -1.09097,0.37021 -1.57752,0.36117 -2.48245,-0.0462 z"
         id="path22" /><path
         style="fill:#8bb53c"
         d="m 31.832684,141.11523 c -1.874409,-0.49243 -2.444594,-1.31542 -3.214258,-4.6394 -0.516049,-2.22867 -1.010794,-4.27636 -1.214779,-5.02781 -0.22312,-0.82194 -1.324588,-5.3727 -1.836879,-7.58915 -0.429441,-1.85798 -1.140226,-4.84856 -1.736109,-7.30455 -0.164567,-0.67828 -0.452195,-1.91626 -0.639172,-2.75107 -0.186977,-0.8348 -0.501019,-2.15816 -0.69787,-2.94079 -0.19685,-0.78263 -0.515913,-2.10599 -0.709028,-2.9408 -0.193115,-0.83481 -0.471803,-1.94472 -0.619306,-2.46647 -0.498304,-1.76263 -0.690049,-3.73311 -0.470912,-4.8394 0.196297,-0.990978 0.945061,-2.275429 1.326451,-2.275429 0.108699,0 0.397389,-0.190295 0.641535,-0.422878 0.389235,-0.370801 0.628164,-0.422582 1.940211,-0.420485 1.304268,0.0021 1.574757,0.06094 2.107524,0.45858 1.53304,1.144209 1.914517,2.052062 2.832424,6.740692 0.294483,1.50421 0.686794,3.38078 0.951939,4.55349 0.269075,1.19009 0.938459,4.2961 1.328893,6.16619 0.55282,2.64788 1.254824,5.78237 1.487215,6.6405 0.127167,0.46958 0.230865,1.02956 0.230439,1.24441 -4.27e-4,0.21484 0.09106,0.54272 0.203292,0.72861 0.178701,0.29598 0.22804,0.30301 0.396922,0.0566 0.18887,-0.27561 0.611884,-1.84831 1.05622,-3.92687 0.12269,-0.57393 0.300576,-1.29964 0.395302,-1.61269 0.09473,-0.31305 0.302706,-1.16683 0.462176,-1.89729 0.673844,-3.08654 0.806903,-3.63454 1.020446,-4.2027 0.123588,-0.32883 0.224705,-0.75418 0.224705,-0.94523 0,-0.19105 0.179714,-1.03193 0.399363,-1.86861 0.219649,-0.83669 0.542196,-2.1189 0.71677,-2.84935 0.174575,-0.73046 0.453106,-1.84037 0.61896,-2.46647 0.165853,-0.62611 0.301971,-1.30913 0.302484,-1.51783 5.13e-4,-0.20871 0.105106,-0.62135 0.232429,-0.917 0.127323,-0.29565 0.301391,-0.8506 0.386819,-1.23324 0.220679,-0.988427 1.002584,-2.049409 1.94133,-2.634222 0.687625,-0.428371 1.003048,-0.502143 2.138223,-0.500092 1.406617,0.0025 2.221023,0.347723 3.070844,1.30156 0.384489,0.431549 1.154843,2.261734 1.157412,2.749754 8.24e-4,0.15653 0.143319,0.79686 0.316655,1.42296 0.281309,1.01612 0.644322,2.52185 1.578072,6.54565 1.152722,4.9674 1.565776,6.71868 2.03609,8.63265 0.179492,0.73046 0.422107,1.79768 0.539145,2.37161 0.117037,0.57393 0.31815,1.42771 0.446918,1.89729 0.128768,0.46958 0.293269,1.10991 0.36556,1.42296 0.25228,1.0925 0.552904,0.66736 1.006201,-1.42296 0.403818,-1.86215 0.962006,-4.33277 1.478863,-6.54564 0.121865,-0.52176 0.323888,-1.5036 0.448939,-2.18188 0.125051,-0.67828 0.337024,-1.60683 0.471051,-2.06344 0.134028,-0.45661 0.243686,-0.98988 0.243686,-1.18505 0,-0.19517 0.134904,-0.84611 0.299787,-1.44654 0.164883,-0.60044 0.344162,-1.43321 0.398398,-1.85061 0.05424,-0.41741 0.200699,-1.14312 0.325472,-1.6127 0.209445,-0.78823 0.326683,-1.30972 0.93183,-4.14487 0.119079,-0.5579 0.327033,-1.16227 0.46212,-1.34305 0.135087,-0.180773 0.245612,-0.412709 0.245612,-0.515408 0,-0.263936 0.755026,-1.069837 1.452298,-1.550157 0.391593,-0.269751 1.00329,-0.448561 1.814938,-0.530538 1.111567,-0.112269 1.310004,-0.07705 2.155606,0.382533 0.519293,0.282237 1.106878,0.775808 1.328109,1.115611 0.486132,0.746678 0.925387,2.051149 0.925387,2.748159 0,0.49821 -0.430622,2.64961 -1.09095,5.45042 -0.768289,3.25872 -1.124863,4.79647 -1.275835,5.50213 -0.207773,0.97115 -0.69314,3.06956 -1.07517,4.64835 -0.37412,1.5461 -0.817204,3.39833 -1.338894,5.597 -0.222839,0.93916 -0.533867,2.21983 -0.691172,2.84593 -0.343001,1.36521 -0.849778,3.50742 -1.077207,4.55349 -0.09075,0.4174 -0.313298,1.33444 -0.494555,2.03785 -0.5283,2.05021 -0.957242,3.75975 -1.250063,4.98211 -0.480884,2.00742 -1.262232,3.15391 -2.499903,3.66818 -0.692152,0.28759 -3.166016,0.28483 -3.992441,-0.004 -1.305924,-0.45714 -2.06304,-1.57605 -2.686236,-3.96988 -0.227824,-0.87512 -0.542862,-2.06071 -0.700085,-2.63464 -0.157223,-0.57393 -0.336706,-1.34199 -0.398853,-1.7068 -0.06215,-0.36481 -0.204201,-0.91977 -0.315677,-1.23324 -0.111476,-0.31347 -0.389112,-1.33834 -0.616969,-2.2775 -0.227857,-0.93916 -0.540535,-2.17714 -0.694841,-2.75107 -0.154305,-0.57393 -0.443193,-1.68384 -0.641974,-2.46647 -0.198782,-0.78263 -0.485016,-1.89255 -0.636077,-2.46647 -0.151061,-0.57393 -0.41758,-1.64116 -0.592264,-2.37161 -0.943858,-3.94683 -1.30985,-5.21754 -1.502755,-5.21754 -0.125278,0 -0.299456,0.46975 -0.439684,1.1858 -0.127721,0.65219 -0.459695,2.03958 -0.73772,3.08309 -0.278025,1.04351 -0.809065,3.13527 -1.18009,4.64836 -0.371024,1.51308 -0.748374,3.0072 -0.838554,3.32025 -0.09018,0.31305 -0.316744,1.20952 -0.503474,1.99215 -0.186729,0.78263 -0.501978,2.0633 -0.700552,2.84593 -0.905186,3.56756 -1.010154,4.00625 -1.011061,4.22545 -5.31e-4,0.12825 -0.09963,0.46221 -0.220225,0.74215 -0.120593,0.27994 -0.269901,0.7922 -0.331795,1.13837 -0.19247,1.07646 -0.966102,2.72236 -1.520181,3.23418 -1.106152,1.0218 -2.737635,1.30312 -4.647495,0.80138 z m 43.53575,-0.0745 c -2.218308,-0.70675 -3.979398,-2.07282 -5.326439,-4.13168 -0.82696,-1.26396 -1.409939,-3.79206 -1.409939,-6.11425 0,-1.58878 0.416378,-3.93363 0.80662,-4.54251 0.1595,-0.24886 0.289999,-0.56685 0.289999,-0.70665 0,-0.38363 1.715822,-2.4284 2.428619,-2.89422 0.344438,-0.22509 0.731996,-0.48832 0.86124,-0.58496 0.641634,-0.47978 1.463451,-0.81873 2.893792,-1.19352 1.336353,-0.35016 2.050725,-0.40996 4.782546,-0.40033 1.803663,0.006 3.646083,0.1113 4.202805,0.23939 1.356742,0.31216 1.498604,0.1575 1.399181,-1.52538 -0.115889,-1.96159 -0.965162,-3.44183 -2.468787,-4.30298 -0.770724,-0.4414 -1.043441,-0.4923 -2.584889,-0.48244 -1.7651,0.0113 -4.541339,0.56623 -5.483099,1.09603 -0.620876,0.34928 -2.125523,0.56327 -2.831971,0.40277 -0.840693,-0.19101 -1.891798,-1.45028 -2.175183,-2.60598 -0.350744,-1.43039 -0.01409,-3.19333 0.761172,-3.98602 0.884369,-0.90425 3.213658,-1.96277 5.812582,-2.64147 2.290651,-0.59819 6.410661,-0.59951 8.616297,-0.003 1.925534,0.52096 3.051287,1.02804 4.073159,1.8347 2.003635,1.58166 3.234208,3.81928 3.804229,6.91744 0.296965,1.61405 0.340656,2.59557 0.418051,9.39157 0.04754,4.17403 0.03993,8.89614 -0.0169,10.49357 -0.0998,2.80521 -0.119879,2.93786 -0.587754,3.88308 -0.586227,1.18432 -1.170409,1.688 -2.357952,2.03303 -1.859902,0.54036 -3.946912,-0.71304 -4.340725,-2.60692 -0.09445,-0.45419 -0.260786,-0.80634 -0.380885,-0.80634 -0.117268,0 -0.584753,0.34191 -1.038857,0.75981 -1.188751,1.09397 -3.159608,2.20739 -4.51216,2.54913 -1.542911,0.38982 -4.295427,0.3546 -5.634749,-0.0721 z m 7.674616,-6.87458 c 1.04327,-0.45516 2.00347,-1.37697 2.687082,-2.57965 0.483259,-0.85019 0.51351,-1.00493 0.574708,-2.93961 0.0456,-1.44174 0.0078,-2.12509 -0.128648,-2.32418 -0.268455,-0.39174 -6.021848,-0.40943 -7.085415,-0.0218 -1.607088,0.58576 -2.469064,2.00878 -2.469064,4.07614 0,1.83024 0.633499,2.96894 2.114909,3.80152 1.114227,0.62622 2.854076,0.62119 4.306428,-0.0124 z m 16.895503,6.89586 c -0.827772,-0.35959 -1.235876,-0.7544 -1.877361,-1.81618 -0.401355,-0.66433 -0.447045,-0.89148 -0.447045,-2.22253 v -1.48257 l 1.61399,-2.42583 c 0.887693,-1.33421 2.277083,-3.49306 3.087543,-4.79744 0.81045,-1.30439 1.81133,-2.86697 2.22417,-3.4724 0.41285,-0.60543 0.75063,-1.21354 0.75063,-1.35135 0,-0.13781 -0.33486,-0.76366 -0.74413,-1.39079 -0.40927,-0.62713 -0.84988,-1.33361 -0.97913,-1.56997 -0.12924,-0.23636 -0.87088,-1.42035 -1.64809,-2.63109 -3.733277,-5.81576 -3.748801,-5.84684 -3.744322,-7.49738 0.0051,-1.86602 0.493645,-2.80062 1.953962,-3.73769 0.56236,-0.36087 0.92373,-0.44438 1.87186,-0.43259 1.75756,0.0219 2.51388,0.58555 3.79143,2.82579 0.29754,0.52176 1.02356,1.80243 1.61338,2.84593 0.58981,1.04351 1.27611,2.2388 1.52509,2.65621 0.24899,0.4174 0.57167,0.99316 0.71706,1.27947 0.36549,0.71969 0.65614,0.64047 1.20432,-0.32826 0.25849,-0.45679 1.03396,-1.7856 1.72326,-2.9529 0.68931,-1.16731 1.55713,-2.64589 1.9285,-3.28574 1.42378,-2.45304 2.28911,-3.15673 3.87822,-3.15377 1.18595,0.002 2.1818,0.56795 2.94311,1.67197 1.34529,1.95089 1.12483,3.58803 -0.91159,6.76923 -0.89823,1.40318 -2.20625,3.48325 -4.49777,7.1526 -0.50173,0.80341 -0.91224,1.59436 -0.91224,1.75767 0,0.16331 0.29961,0.74477 0.66581,1.29213 0.36619,0.54736 1.08878,1.70332 1.60576,2.56879 0.51698,0.86548 1.36461,2.23071 1.88364,3.03386 3.0242,4.67971 3.34301,5.31031 3.35759,6.64122 0.0346,3.15906 -2.23321,4.88978 -5.21688,3.98131 -0.60303,-0.18361 -0.92083,-0.44559 -1.54685,-1.27515 -0.43334,-0.57423 -0.9516,-1.34576 -1.15169,-1.71452 -0.20008,-0.36876 -0.7922,-1.39618 -1.31581,-2.28316 -0.52361,-0.88698 -1.26377,-2.16765 -1.6448,-2.84593 -0.38103,-0.67828 -0.895,-1.52422 -1.14215,-1.87986 l -0.44937,-0.64662 -0.35298,0.45689 c -0.19415,0.25129 -0.676,1.05454 -1.07079,1.785 -0.62532,1.15698 -2.30681,3.96892 -3.87167,6.47451 -1.30255,2.0856 -2.99803,2.7903 -4.814657,2.00114 z"
         id="path21" /><path
         style="fill:#6f737a"
         d="m 89.009962,167.41629 c -0.178988,-0.21677 -0.330476,-0.50085 -0.33664,-0.63129 -0.06989,-1.47888 -0.07096,-8.73027 -0.0014,-9.81384 0.07944,-1.23839 0.137195,-1.44612 0.45521,-1.63728 0.280454,-0.16858 0.523225,-0.16098 1.055531,0.033 0.699955,0.25513 0.824259,0.23627 2.683314,-0.40702 0.192136,-0.0665 0.793749,0.0628 1.366636,0.29369 0.781722,0.31505 1.128767,0.57722 1.469566,1.11014 0.655111,1.02442 0.818339,1.66639 0.853106,3.35524 0.03408,1.65534 -0.08906,2.08012 -1.082368,3.73383 -0.465312,0.77468 -0.64334,0.91886 -1.381649,1.11896 -0.606235,0.16431 -1.16278,0.17802 -1.954922,0.0481 -1.343242,-0.22021 -1.569314,-0.032 -1.547434,1.28817 0.01575,0.95017 -0.230505,1.68328 -0.565425,1.68328 -0.119166,0 -0.322726,0.0493 -0.452355,0.10953 -0.12963,0.0602 -0.382135,-0.0678 -0.561123,-0.28459 z m 4.611597,-5.13903 c 0.903599,-0.67633 1.206238,-2.43244 0.655087,-3.80123 -0.736259,-1.8285 -2.830474,-1.70414 -3.461401,0.20555 -0.313437,0.94871 -0.313,1.22166 0.0038,2.34752 0.426557,1.51613 1.691739,2.0796 2.802555,1.24816 z m -26.265937,2.2168 c -0.979283,-0.44518 -1.95362,-1.59531 -2.358739,-2.7843 -0.240341,-0.70539 -0.173505,-3.1385 0.105745,-3.84957 0.131554,-0.33498 0.503638,-0.96512 0.826853,-1.4003 0.476884,-0.64208 0.803815,-0.86986 1.734281,-1.20827 1.128048,-0.41027 1.164833,-0.41168 2.271569,-0.0867 1.334669,0.39194 2.408562,1.3595 2.914919,2.62628 0.457933,1.14565 0.451592,3.14215 -0.01298,4.08586 -0.50199,1.01973 -1.229719,1.90471 -1.920817,2.33589 -0.791708,0.49395 -2.752168,0.64871 -3.560833,0.28108 z m 2.409488,-2.03445 c 0.694262,-0.23351 1.373505,-1.44878 1.373505,-2.45741 0,-1.33775 -1.114981,-2.84593 -2.10396,-2.84593 -0.619487,0 -1.612561,0.55572 -1.881555,1.05292 -0.347776,0.64281 -0.312595,2.21519 0.06988,3.12315 0.503085,1.19429 1.296644,1.54618 2.542132,1.12727 z m 6.659294,2.01462 c -0.323928,-0.13999 -0.687843,-0.35391 -0.808701,-0.47539 -0.377556,-0.37948 -0.561828,-1.89479 -0.610371,-5.0192 -0.04364,-2.809 -0.02549,-3.03879 0.266002,-3.36768 0.359798,-0.40596 1.020845,-0.4614 1.380986,-0.11582 0.196479,0.18854 0.266838,0.81344 0.343171,3.04792 0.05281,1.54593 0.168173,2.97405 0.256361,3.17361 0.338526,0.76607 1.228787,0.97012 2.033566,0.4661 0.623581,-0.39053 0.780885,-1.21299 0.78194,-4.08835 9.58e-4,-2.6103 0.06983,-2.83644 0.863893,-2.83644 1.042547,0 1.051221,0.0393 1.026329,4.64995 -0.01435,2.65742 -0.08339,4.24148 -0.191765,4.39963 -0.208599,0.3044 -1.232301,0.32284 -1.759911,0.0317 -0.304857,-0.16823 -0.613857,-0.14744 -1.410342,0.0949 -1.211269,0.36849 -1.401074,0.3719 -2.171158,0.0391 z m 23.226322,0.0823 c -0.604725,-0.17643 -1.476816,-1.24936 -1.634687,-2.01114 -0.150775,-0.72754 0.190345,-1.93414 0.759416,-2.68618 l 0.515812,-0.68166 1.738763,-0.10944 c 2.01049,-0.12654 2.32785,-0.31818 1.75337,-1.05876 -0.55199,-0.71159 -1.34574,-0.94177 -2.34901,-0.6812 -0.93032,0.24164 -1.450306,0.003 -1.649513,-0.75719 -0.147295,-0.56205 0.17919,-0.8972 1.191996,-1.22364 2.310937,-0.74486 4.415207,0.11967 4.844287,1.99024 0.0848,0.36986 0.15465,2.10092 0.15513,3.84681 10e-4,3.65926 0.13131,3.40787 -1.72239,3.32303 -0.56005,-0.0256 -1.47652,0.0109 -2.03657,0.0813 -0.56006,0.0703 -1.265034,0.0559 -1.566604,-0.0321 z m 2.845324,-1.91793 c 0.41682,-0.32393 0.75785,-0.6891 0.75785,-0.8115 0,-0.12239 -0.20751,-0.49769 -0.46114,-0.834 -0.60557,-0.80296 -1.47337,-0.85062 -2.19005,-0.12028 -0.60071,0.61216 -0.606972,1.01423 -0.0275,1.76549 0.57172,0.74123 0.96737,0.74129 1.92084,2.9e-4 z m 25.24712,1.88126 c -0.18773,-0.10992 -0.42427,-0.467 -0.52564,-0.79351 -0.10137,-0.32651 -0.32215,-1.00569 -0.49062,-1.5093 -0.16846,-0.50361 -0.50684,-1.6989 -0.75194,-2.6562 -0.2451,-0.9573 -0.55548,-2.14924 -0.68973,-2.64874 -0.23197,-0.86313 -0.22882,-0.92667 0.0635,-1.28067 0.16916,-0.20486 0.50336,-0.37248 0.74268,-0.37248 0.72864,0 1.07065,0.446 1.26722,1.65255 0.21676,1.33044 0.7085,2.3819 1.07408,2.29663 0.33158,-0.0773 0.80219,-1.04936 1.21935,-2.51853 0.39011,-1.37388 0.88788,-1.80767 1.59913,-1.39357 0.45303,0.26376 0.61781,0.58835 1.13698,2.23966 0.18044,0.57393 0.45235,1.24028 0.60424,1.48078 l 0.27617,0.43727 0.40536,-0.38616 c 0.30784,-0.29326 0.45178,-0.68411 0.5983,-1.62452 0.22996,-1.476 0.8424,-2.30035 1.55258,-2.08979 0.77012,0.22833 0.89173,0.54155 0.60662,1.56244 -1.53888,5.51035 -2.05886,7.20155 -2.27607,7.40279 -0.38118,0.35314 -1.35918,0.29637 -1.63429,-0.0949 -0.27419,-0.38993 -0.53602,-1.20484 -0.6858,-2.13445 -0.17911,-1.11166 -0.50411,-1.70756 -0.9313,-1.70756 -0.49439,0 -0.73752,0.48134 -1.1862,2.34842 -0.32268,1.34277 -0.41146,1.52108 -0.87369,1.75499 -0.59468,0.30092 -0.64378,0.30247 -1.10091,0.0348 z m 12.75521,0.0547 c -0.77202,-0.1959 -1.98214,-1.43729 -2.43347,-2.49636 -0.31616,-0.74187 -0.34726,-1.01313 -0.25977,-2.26573 0.15444,-2.21115 0.86923,-3.66682 2.14485,-4.36806 2.28688,-1.25713 5.28878,0.76149 5.28878,3.55642 0,0.49745 -0.13109,0.81862 -0.53264,1.30493 l -0.53265,0.64508 h -1.86425 c -1.85293,0 -2.24024,0.1207 -2.24024,0.69814 0,0.13354 0.29581,0.42556 0.65736,0.64894 0.54612,0.33742 0.83109,0.38829 1.68409,0.30065 0.56471,-0.058 1.16774,-0.15776 1.34006,-0.22165 0.17312,-0.0642 0.45193,0.007 0.62308,0.15908 0.46681,0.41477 0.17028,1.25596 -0.60446,1.7147 -0.67171,0.39775 -2.33177,0.56212 -3.27074,0.32386 z m 2.57028,-5.85258 c 0.40568,-0.49132 -0.61999,-1.75544 -1.42431,-1.75544 -0.47962,0 -1.51769,0.68272 -1.64395,1.08119 -0.073,0.23035 0.007,0.45095 0.25191,0.69066 0.29398,0.2883 0.56485,0.33962 1.49281,0.28287 0.62352,-0.0381 1.21911,-0.17281 1.32354,-0.29928 z m 9.54152,5.85027 c -0.55346,-0.11667 -0.83218,-0.32823 -1.35651,-1.02962 -1.07149,-1.43332 -1.37513,-2.38103 -1.26635,-3.95246 0.2367,-3.41931 2.64471,-5.30786 5.36728,-4.20944 0.93163,0.37587 1.15041,0.57017 1.34695,1.19621 0.12401,0.39504 0.0904,0.53884 -0.19034,0.81415 -0.44152,0.43299 -0.88569,0.42223 -1.75309,-0.0425 -0.65951,-0.35332 -0.7477,-0.35853 -1.41402,-0.0836 -0.84434,0.34843 -1.21109,0.79147 -1.35627,1.63842 -0.16712,0.97486 0.0832,2.43943 0.50402,2.94909 0.49643,0.60121 1.83848,0.77888 2.82097,0.37344 0.62227,-0.25678 0.74606,-0.25843 1.03449,-0.0138 0.61734,0.52367 0.29218,1.49956 -0.707,2.12187 -0.45101,0.2809 -2.18192,0.41692 -3.03013,0.23812 z m 12.89384,0.003 c -1.73257,-0.53949 -2.99911,-2.78029 -2.78896,-4.9343 0.33495,-3.43312 2.4407,-5.22257 5.13433,-4.36311 1.03693,0.33085 1.90017,1.51286 2.14409,2.93585 0.23197,1.35326 0.16496,1.76459 -0.36547,2.2435 -0.37739,0.34073 -0.72938,0.41225 -2.42823,0.49336 l -1.98686,0.0949 -0.048,0.50198 c -0.0421,0.43991 0.0405,0.54292 0.66793,0.83311 0.68545,0.31703 1.79091,0.31574 2.94806,-0.003 0.19168,-0.0529 0.48855,0.0343 0.65972,0.19363 0.28681,0.26703 0.29282,0.32942 0.0767,0.7957 -0.38294,0.82627 -1.14776,1.24178 -2.40287,1.30542 -0.61505,0.0312 -1.33975,-0.0123 -1.61046,-0.0966 z m 2.52929,-5.78358 c 0.28088,-0.24873 0.28228,-0.28584 0.0285,-0.75497 -0.61872,-1.1436 -1.85162,-1.33326 -2.67313,-0.4112 -0.82939,0.9309 -0.3955,1.39564 1.32176,1.41574 0.64036,0.007 1.13881,-0.0865 1.3229,-0.24957 z m 5.14309,5.75746 c -0.27289,-0.10239 -0.67544,-0.4442 -0.89456,-0.75958 -0.81194,-1.16861 -0.69081,-2.82126 0.29127,-3.97406 0.54034,-0.63426 0.59057,-0.65185 2.07986,-0.72817 0.83938,-0.043 1.64951,-0.15666 1.8003,-0.25254 0.41816,-0.26589 0.32883,-0.69385 -0.23499,-1.1258 -0.4401,-0.33716 -0.67611,-0.37597 -1.74027,-0.28615 -1.29738,0.10949 -1.70563,-0.0245 -1.98233,-0.65066 -0.30232,-0.68413 0.0511,-1.074 1.2805,-1.41265 1.13365,-0.31227 2.3994,-0.26327 3.26456,0.12638 0.62708,0.28242 1.24388,1.11645 1.43887,1.94563 0.2271,0.9657 0.17644,6.53959 -0.0626,6.88842 -0.11395,0.16629 -0.52568,0.23146 -1.28123,0.20281 -0.61233,-0.0232 -1.64205,0.0151 -2.28827,0.0851 -0.66013,0.0716 -1.39234,0.0458 -1.6711,-0.0588 z m 2.76872,-1.70191 c 0.84647,-0.52299 0.99647,-0.92285 0.62425,-1.66411 -0.48519,-0.96624 -1.67714,-1.05212 -2.466,-0.17768 -0.5521,0.61199 -0.42222,1.19011 0.42651,1.89855 0.49519,0.41334 0.66542,0.40652 1.41524,-0.0568 z m -116.779801,1.41003 c -0.183699,-0.22247 -0.24618,-0.69229 -0.24618,-1.85111 0,-0.85413 -0.06675,-1.83485 -0.148342,-2.17938 -0.08159,-0.34453 -0.817228,-1.83808 -1.634756,-3.319 -0.817528,-1.48092 -1.565399,-2.94538 -1.661936,-3.25436 -0.245354,-0.78529 -0.0812,-1.39891 0.414551,-1.5496 0.713227,-0.2168 1.191157,0.14811 1.897882,1.44907 1.218005,2.24214 1.775101,3.03392 2.134662,3.03392 0.287843,0 1.077594,-1.10362 1.924921,-2.68994 0.375616,-0.70321 0.838101,-1.41019 1.027745,-1.57106 0.452511,-0.38385 1.126846,-0.37221 1.454925,0.0251 0.412288,0.49932 0.193192,1.3691 -0.712585,2.82889 -0.447788,0.72167 -0.853041,1.44019 -0.900562,1.59672 -0.04752,0.15652 -0.39122,0.72336 -0.763777,1.25963 -0.91139,1.31189 -0.996149,1.65721 -0.996149,4.05845 0,1.85038 -0.03189,2.08865 -0.303021,2.26439 -0.447971,0.29036 -1.206464,0.23847 -1.487378,-0.10174 z m 48.298421,-0.0156 c -0.16519,-0.24104 -0.22323,-1.27545 -0.25051,-4.46471 l -0.0355,-4.15099 0.38767,-0.21392 c 0.29073,-0.16042 0.60087,-0.15614 1.24017,0.0171 0.67041,0.1817 0.9888,0.1816 1.4906,-4.8e-4 0.51523,-0.18695 0.71312,-0.1829 1.02774,0.021 0.69323,0.44932 0.38412,1.36584 -0.71236,2.11218 -1.06576,0.72542 -1.29119,1.40929 -1.36721,4.14757 -0.0522,1.88196 -0.11759,2.42057 -0.31652,2.60877 -0.3572,0.33792 -1.21059,0.29329 -1.46407,-0.0766 z m 6.06711,0.0665 c -0.25774,-0.22825 -0.2784,-0.69768 -0.26929,-6.11876 l 0.01,-5.87154 0.40475,-0.42689 c 0.51005,-0.53796 0.91352,-0.54152 1.32113,-0.0117 0.33055,0.42969 0.39439,1.13921 0.30405,3.37934 -0.0726,1.80089 -0.0359,2.14159 0.25912,2.40283 0.47758,0.42293 0.70336,0.29998 1.61863,-0.88148 1.03478,-1.33571 1.79962,-1.80443 2.37734,-1.45691 0.65638,0.39486 0.56701,0.966 -0.32375,2.0689 -0.44296,0.54845 -0.90805,1.23245 -1.03354,1.52 -0.21728,0.49788 -0.19807,0.57768 0.40295,1.67354 0.34712,0.6329 0.63112,1.23007 0.63112,1.32704 0,0.097 0.0529,0.1769 0.11749,0.17761 0.18211,0.002 0.82247,1.21828 0.82247,1.56215 0,0.49205 -0.45242,0.90326 -0.99032,0.90012 -0.65302,-0.004 -0.74829,-0.0939 -1.40169,-1.3252 -0.97271,-1.83303 -1.33043,-2.13795 -1.99945,-1.70433 -0.32824,0.21275 -0.6901,1.55661 -0.56952,2.11504 0.16804,0.77821 -1.02319,1.25303 -1.68135,0.67019 z m 45.46198,0.0471 c -0.24208,-0.17095 -0.2679,-0.73437 -0.27666,-6.03611 -0.009,-5.65212 0.001,-5.8644 0.31754,-6.35133 0.41618,-0.64076 0.98108,-0.65021 1.49728,-0.025 l 0.39528,0.47872 -0.0876,5.82976 c -0.078,5.19209 -0.11673,5.85571 -0.35401,6.06693 -0.31664,0.28186 -1.117,0.30176 -1.49183,0.0371 z m 22.2947,-0.13195 c -0.31682,-0.31774 -0.33159,-0.50208 -0.34347,-4.28427 -0.011,-3.49941 0.0188,-3.99396 0.25966,-4.31633 0.31542,-0.4221 0.58789,-0.44757 1.52854,-0.14288 0.56727,0.18375 0.81799,0.16769 1.48079,-0.0949 1.5244,-0.60386 2.6649,-0.21913 3.2202,1.08627 0.26951,0.63355 0.32409,1.21511 0.38476,4.09954 0.0706,3.35551 0.0701,3.36178 -0.29669,3.6729 -0.44453,0.37709 -0.92259,0.39889 -1.30577,0.0596 -0.25197,-0.22314 -0.2869,-0.58452 -0.30409,-3.14684 l -0.0194,-2.89476 -0.43955,-0.458 c -0.57292,-0.59696 -1.61861,-0.63212 -2.1158,-0.0711 -0.3232,0.36466 -0.34286,0.54966 -0.34286,3.22539 0,2.58557 -0.0279,2.87236 -0.31332,3.218 -0.38631,0.46785 -0.95448,0.4872 -1.39297,0.0474 z"
         id="path20" /></g></g></svg>
